G75*
G70*
%OFA0B0*%
%FSLAX24Y24*%
%IPPOS*%
%LPD*%
%AMOC8*
5,1,8,0,0,1.08239X$1,22.5*
%
%ADD10C,0.1060*%
%ADD11C,0.0860*%
%ADD12C,0.0170*%
%ADD13R,0.2481X0.2481*%
%ADD14R,0.0336X0.0414*%
%ADD15R,0.0414X0.0336*%
%ADD16R,0.2225X0.0847*%
%ADD17C,0.1425*%
%ADD18C,0.0585*%
%ADD19R,0.0651X0.0651*%
%ADD20R,0.0414X0.0414*%
%ADD21R,0.0296X0.0670*%
%ADD22R,0.0651X0.0651*%
%ADD23R,0.0414X0.0414*%
%ADD24R,0.0670X0.0296*%
%ADD25R,0.0375X0.0375*%
%ADD26R,0.0800X0.0800*%
%ADD27C,0.0800*%
%ADD28R,0.0375X0.0532*%
%ADD29R,0.0611X0.1832*%
%ADD30R,0.0532X0.0375*%
%ADD31R,0.1635X0.2816*%
%ADD32R,0.1241X0.0690*%
%ADD33R,0.2501X0.2343*%
%ADD34R,0.1005X0.1005*%
%ADD35C,0.1240*%
%ADD36C,0.0660*%
%ADD37R,0.0660X0.0660*%
%ADD38C,0.0493*%
%ADD39C,0.0710*%
%ADD40R,0.0375X0.0375*%
%ADD41R,0.2560X0.2261*%
%ADD42R,0.1009X0.0418*%
%ADD43R,0.1320X0.0690*%
%ADD44R,0.0690X0.1320*%
%ADD45R,0.0926X0.0316*%
%ADD46R,0.0310X0.0560*%
%ADD47R,0.0217X0.0591*%
%ADD48C,0.0769*%
%ADD49R,0.1160X0.0960*%
%ADD50R,0.1162X0.1556*%
%ADD51R,0.0560X0.0310*%
%ADD52C,0.0420*%
%ADD53C,0.0460*%
%ADD54C,0.0360*%
%ADD55C,0.0480*%
D10*
X013880Y025940D03*
X013880Y037940D03*
X045880Y037940D03*
X045880Y025940D03*
D11*
X037180Y033940D03*
X021280Y031190D03*
D12*
X027987Y029916D02*
X028191Y029916D01*
X028191Y029720D02*
X027987Y029720D01*
X027987Y029523D02*
X028191Y029523D01*
X028191Y029326D02*
X027987Y029326D01*
X027987Y029129D02*
X028191Y029129D01*
X028191Y028932D02*
X027987Y028932D01*
X027987Y028735D02*
X028191Y028735D01*
X028191Y028538D02*
X027987Y028538D01*
X027987Y028342D02*
X028191Y028342D01*
X028191Y028145D02*
X027987Y028145D01*
X027987Y027948D02*
X028191Y027948D01*
X028191Y027751D02*
X027987Y027751D01*
X027987Y027554D02*
X028191Y027554D01*
X028191Y027357D02*
X027987Y027357D01*
X027987Y027160D02*
X028191Y027160D01*
X028191Y026964D02*
X027987Y026964D01*
X028404Y026751D02*
X028404Y026547D01*
X028600Y026547D02*
X028600Y026751D01*
X028797Y026751D02*
X028797Y026547D01*
X028994Y026547D02*
X028994Y026751D01*
X029191Y026751D02*
X029191Y026547D01*
X029388Y026547D02*
X029388Y026751D01*
X029585Y026751D02*
X029585Y026547D01*
X029782Y026547D02*
X029782Y026751D01*
X029978Y026751D02*
X029978Y026547D01*
X030175Y026547D02*
X030175Y026751D01*
X030372Y026751D02*
X030372Y026547D01*
X030569Y026547D02*
X030569Y026751D01*
X030766Y026751D02*
X030766Y026547D01*
X030963Y026547D02*
X030963Y026751D01*
X031160Y026751D02*
X031160Y026547D01*
X031356Y026547D02*
X031356Y026751D01*
X031569Y026964D02*
X031773Y026964D01*
X031773Y027160D02*
X031569Y027160D01*
X031569Y027357D02*
X031773Y027357D01*
X031773Y027554D02*
X031569Y027554D01*
X031569Y027751D02*
X031773Y027751D01*
X031773Y027948D02*
X031569Y027948D01*
X031569Y028145D02*
X031773Y028145D01*
X031773Y028342D02*
X031569Y028342D01*
X031569Y028538D02*
X031773Y028538D01*
X031773Y028735D02*
X031569Y028735D01*
X031569Y028932D02*
X031773Y028932D01*
X031773Y029129D02*
X031569Y029129D01*
X031569Y029326D02*
X031773Y029326D01*
X031773Y029523D02*
X031569Y029523D01*
X031569Y029720D02*
X031773Y029720D01*
X031773Y029916D02*
X031569Y029916D01*
X031356Y030129D02*
X031356Y030333D01*
X031160Y030333D02*
X031160Y030129D01*
X030963Y030129D02*
X030963Y030333D01*
X030766Y030333D02*
X030766Y030129D01*
X030569Y030129D02*
X030569Y030333D01*
X030372Y030333D02*
X030372Y030129D01*
X030175Y030129D02*
X030175Y030333D01*
X029978Y030333D02*
X029978Y030129D01*
X029782Y030129D02*
X029782Y030333D01*
X029585Y030333D02*
X029585Y030129D01*
X029388Y030129D02*
X029388Y030333D01*
X029191Y030333D02*
X029191Y030129D01*
X028994Y030129D02*
X028994Y030333D01*
X028797Y030333D02*
X028797Y030129D01*
X028600Y030129D02*
X028600Y030333D01*
X028404Y030333D02*
X028404Y030129D01*
D13*
X029880Y028440D03*
D14*
X026636Y029340D03*
X026124Y029340D03*
X026236Y026940D03*
X025724Y026940D03*
X033024Y029740D03*
X033536Y029740D03*
X034524Y029440D03*
X034524Y028940D03*
X035036Y028940D03*
X035036Y029440D03*
X035036Y030340D03*
X034524Y030340D03*
X033536Y030840D03*
X033024Y030840D03*
G36*
X030464Y032532D02*
X030226Y032294D01*
X029934Y032586D01*
X030172Y032824D01*
X030464Y032532D01*
G37*
G36*
X030826Y032894D02*
X030588Y032656D01*
X030296Y032948D01*
X030534Y033186D01*
X030826Y032894D01*
G37*
X028736Y034240D03*
X028224Y034240D03*
X028286Y032840D03*
X028286Y032340D03*
X027774Y032340D03*
X027774Y032840D03*
X027236Y032240D03*
X026724Y032240D03*
X024736Y032940D03*
X024224Y032940D03*
X014136Y033540D03*
X013624Y033540D03*
X013624Y034140D03*
X014136Y034140D03*
X013136Y035340D03*
X012624Y035340D03*
G36*
X015134Y040094D02*
X014896Y040332D01*
X015188Y040624D01*
X015426Y040386D01*
X015134Y040094D01*
G37*
G36*
X014772Y040456D02*
X014534Y040694D01*
X014826Y040986D01*
X015064Y040748D01*
X014772Y040456D01*
G37*
X016538Y041161D03*
X017049Y041161D03*
X017052Y041791D03*
X016541Y041791D03*
G36*
X034696Y048990D02*
X034743Y049322D01*
X035152Y049264D01*
X035105Y048932D01*
X034696Y048990D01*
G37*
G36*
X034768Y049496D02*
X034815Y049828D01*
X035224Y049770D01*
X035177Y049438D01*
X034768Y049496D01*
G37*
G36*
X038938Y043748D02*
X039176Y043986D01*
X039468Y043694D01*
X039230Y043456D01*
X038938Y043748D01*
G37*
G36*
X038576Y043386D02*
X038814Y043624D01*
X039106Y043332D01*
X038868Y043094D01*
X038576Y043386D01*
G37*
G36*
X042464Y042232D02*
X042226Y041994D01*
X041934Y042286D01*
X042172Y042524D01*
X042464Y042232D01*
G37*
G36*
X042334Y041886D02*
X042572Y042124D01*
X042864Y041832D01*
X042626Y041594D01*
X042334Y041886D01*
G37*
G36*
X042696Y042248D02*
X042934Y042486D01*
X043226Y042194D01*
X042988Y041956D01*
X042696Y042248D01*
G37*
G36*
X042826Y042594D02*
X042588Y042356D01*
X042296Y042648D01*
X042534Y042886D01*
X042826Y042594D01*
G37*
X043924Y039040D03*
X044436Y039040D03*
X044824Y033940D03*
X044824Y033440D03*
X045336Y033440D03*
X045824Y033440D03*
X045824Y033940D03*
X045336Y033940D03*
X046336Y033940D03*
X046336Y033440D03*
X046036Y030540D03*
X045524Y030540D03*
X046124Y029740D03*
X046636Y029740D03*
X046724Y028640D03*
X047236Y028640D03*
X044236Y022540D03*
X043724Y022540D03*
X043236Y022540D03*
X042724Y022540D03*
G36*
X040072Y019256D02*
X039834Y019494D01*
X040126Y019786D01*
X040364Y019548D01*
X040072Y019256D01*
G37*
G36*
X039726Y019386D02*
X039964Y019148D01*
X039672Y018856D01*
X039434Y019094D01*
X039726Y019386D01*
G37*
G36*
X040088Y019024D02*
X040326Y018786D01*
X040034Y018494D01*
X039796Y018732D01*
X040088Y019024D01*
G37*
G36*
X040434Y018894D02*
X040196Y019132D01*
X040488Y019424D01*
X040726Y019186D01*
X040434Y018894D01*
G37*
G36*
X039296Y017448D02*
X039534Y017686D01*
X039826Y017394D01*
X039588Y017156D01*
X039296Y017448D01*
G37*
G36*
X038934Y017086D02*
X039172Y017324D01*
X039464Y017032D01*
X039226Y016794D01*
X038934Y017086D01*
G37*
X034636Y024640D03*
X034124Y024640D03*
X036424Y027640D03*
X036936Y027640D03*
X036636Y028340D03*
X036124Y028340D03*
X036124Y028940D03*
X036636Y028940D03*
G36*
X017696Y022148D02*
X017934Y022386D01*
X018226Y022094D01*
X017988Y021856D01*
X017696Y022148D01*
G37*
G36*
X017826Y022494D02*
X017588Y022256D01*
X017296Y022548D01*
X017534Y022786D01*
X017826Y022494D01*
G37*
G36*
X017464Y022132D02*
X017226Y021894D01*
X016934Y022186D01*
X017172Y022424D01*
X017464Y022132D01*
G37*
G36*
X017334Y021786D02*
X017572Y022024D01*
X017864Y021732D01*
X017626Y021494D01*
X017334Y021786D01*
G37*
G36*
X015826Y022494D02*
X015588Y022256D01*
X015296Y022548D01*
X015534Y022786D01*
X015826Y022494D01*
G37*
G36*
X015464Y022132D02*
X015226Y021894D01*
X014934Y022186D01*
X015172Y022424D01*
X015464Y022132D01*
G37*
D15*
X020580Y017384D03*
X020580Y017896D03*
X020580Y018384D03*
X020580Y018896D03*
X023380Y018896D03*
X023380Y018384D03*
X023380Y017896D03*
X023380Y017384D03*
X026480Y015396D03*
X026480Y014884D03*
X027780Y015184D03*
X027780Y015696D03*
X028380Y015696D03*
X028380Y015184D03*
X032380Y022884D03*
X032380Y023396D03*
X030480Y024884D03*
X029980Y024884D03*
X029490Y024884D03*
X029490Y025396D03*
X029980Y025396D03*
X030480Y025396D03*
X026980Y024996D03*
X026980Y024484D03*
X026380Y024484D03*
X026380Y024996D03*
X028140Y030664D03*
X028140Y031176D03*
X028280Y033284D03*
X028280Y033796D03*
X035592Y028457D03*
X035592Y027945D03*
X039080Y028384D03*
X039080Y028896D03*
X039680Y028984D03*
X039680Y029496D03*
X039080Y029684D03*
X039080Y030196D03*
X040580Y029696D03*
X040580Y029184D03*
X040580Y028296D03*
X040580Y027784D03*
X043780Y025896D03*
X043780Y025384D03*
X018280Y033784D03*
X018280Y034296D03*
X018280Y034784D03*
X018280Y035296D03*
X015480Y035296D03*
X015480Y034784D03*
X015480Y034296D03*
X015480Y033784D03*
D16*
X023110Y034140D03*
X026850Y034140D03*
D17*
X020744Y040341D03*
X017081Y044004D03*
X017470Y031420D03*
X012290Y031420D03*
X021479Y022804D03*
X017816Y019141D03*
X030400Y019530D03*
X030400Y014350D03*
X042679Y019876D03*
X039016Y023539D03*
X042290Y032460D03*
X047470Y032460D03*
X038281Y041076D03*
X041944Y044739D03*
D18*
X041824Y043134D03*
X041138Y042448D03*
X040572Y041882D03*
X039886Y041196D03*
X043510Y031410D03*
X044480Y031410D03*
X045280Y031410D03*
X046250Y031410D03*
X039136Y021934D03*
X039822Y021248D03*
X040388Y020682D03*
X041074Y019996D03*
X029350Y018310D03*
X029350Y017340D03*
X029350Y016540D03*
X029350Y015570D03*
X019874Y022684D03*
X019188Y021998D03*
X018622Y021432D03*
X017936Y020746D03*
X016250Y032470D03*
X015280Y032470D03*
X014480Y032470D03*
X013510Y032470D03*
X020624Y041946D03*
X019938Y042632D03*
X019372Y043198D03*
X018686Y043884D03*
D19*
G36*
X015708Y043127D02*
X016167Y043586D01*
X016626Y043127D01*
X016167Y042668D01*
X015708Y043127D01*
G37*
G36*
X014734Y042153D02*
X015193Y042612D01*
X015652Y042153D01*
X015193Y041694D01*
X014734Y042153D01*
G37*
G36*
X043093Y044586D02*
X043552Y044127D01*
X043093Y043668D01*
X042634Y044127D01*
X043093Y044586D01*
G37*
G36*
X044067Y043612D02*
X044526Y043153D01*
X044067Y042694D01*
X043608Y043153D01*
X044067Y043612D01*
G37*
G36*
X015693Y020268D02*
X015234Y020727D01*
X015693Y021186D01*
X016152Y020727D01*
X015693Y020268D01*
G37*
G36*
X016667Y019294D02*
X016208Y019753D01*
X016667Y020212D01*
X017126Y019753D01*
X016667Y019294D01*
G37*
G36*
X041552Y017753D02*
X041093Y017294D01*
X040634Y017753D01*
X041093Y018212D01*
X041552Y017753D01*
G37*
G36*
X042526Y018727D02*
X042067Y018268D01*
X041608Y018727D01*
X042067Y019186D01*
X042526Y018727D01*
G37*
D20*
G36*
X041691Y018421D02*
X041399Y018129D01*
X041107Y018421D01*
X041399Y018713D01*
X041691Y018421D01*
G37*
G36*
X016361Y020129D02*
X016069Y020421D01*
X016361Y020713D01*
X016653Y020421D01*
X016361Y020129D01*
G37*
G36*
X015569Y042459D02*
X015861Y042751D01*
X016153Y042459D01*
X015861Y042167D01*
X015569Y042459D01*
G37*
G36*
X043399Y043751D02*
X043691Y043459D01*
X043399Y043167D01*
X043107Y043459D01*
X043399Y043751D01*
G37*
D21*
X017630Y036603D03*
X017130Y036603D03*
X016630Y036603D03*
X016130Y036603D03*
X016130Y034477D03*
X016630Y034477D03*
X017130Y034477D03*
X017630Y034477D03*
X021230Y020103D03*
X021730Y020103D03*
X022230Y020103D03*
X022730Y020103D03*
X022730Y017977D03*
X022230Y017977D03*
X021730Y017977D03*
X021230Y017977D03*
D22*
X027791Y013940D03*
X029169Y013940D03*
X047880Y029851D03*
X047880Y031229D03*
X011880Y032651D03*
X011880Y034029D03*
D23*
X012136Y033340D03*
X028480Y014196D03*
X047624Y030540D03*
D24*
X046843Y034990D03*
X046843Y035490D03*
X046843Y035990D03*
X046843Y036490D03*
X044717Y036490D03*
X044717Y035990D03*
X044717Y035490D03*
X044717Y034990D03*
X036043Y026990D03*
X036043Y026490D03*
X036043Y025990D03*
X036043Y025490D03*
X033917Y025490D03*
X033917Y025990D03*
X033917Y026490D03*
X033917Y026990D03*
X041617Y024790D03*
X041617Y024290D03*
X041617Y023790D03*
X041617Y023290D03*
X043743Y023290D03*
X043743Y023790D03*
X043743Y024290D03*
X043743Y024790D03*
D25*
G36*
X040489Y017613D02*
X040753Y017349D01*
X040489Y017085D01*
X040225Y017349D01*
X040489Y017613D01*
G37*
G36*
X040071Y017195D02*
X040335Y016931D01*
X040071Y016667D01*
X039807Y016931D01*
X040071Y017195D01*
G37*
G36*
X015553Y021331D02*
X015289Y021067D01*
X015025Y021331D01*
X015289Y021595D01*
X015553Y021331D01*
G37*
G36*
X015135Y021749D02*
X014871Y021485D01*
X014607Y021749D01*
X014871Y022013D01*
X015135Y021749D01*
G37*
G36*
X014171Y041595D02*
X014435Y041331D01*
X014171Y041067D01*
X013907Y041331D01*
X014171Y041595D01*
G37*
G36*
X014589Y042013D02*
X014853Y041749D01*
X014589Y041485D01*
X014325Y041749D01*
X014589Y042013D01*
G37*
G36*
X034498Y048937D02*
X034128Y048989D01*
X034180Y049359D01*
X034550Y049307D01*
X034498Y048937D01*
G37*
G36*
X034580Y049521D02*
X034210Y049573D01*
X034262Y049943D01*
X034632Y049891D01*
X034580Y049521D01*
G37*
G36*
X038984Y047625D02*
X039142Y047963D01*
X039480Y047805D01*
X039322Y047467D01*
X038984Y047625D01*
G37*
G36*
X039520Y047375D02*
X039678Y047713D01*
X040016Y047555D01*
X039858Y047217D01*
X039520Y047375D01*
G37*
G36*
X044207Y042649D02*
X044471Y042913D01*
X044735Y042649D01*
X044471Y042385D01*
X044207Y042649D01*
G37*
G36*
X044625Y042231D02*
X044889Y042495D01*
X045153Y042231D01*
X044889Y041967D01*
X044625Y042231D01*
G37*
D26*
X041480Y030240D03*
D27*
X041480Y029240D03*
X041480Y028240D03*
X041480Y027240D03*
X038066Y042626D03*
X040894Y045454D03*
D28*
X029434Y043840D03*
X028726Y043840D03*
X031926Y015040D03*
X031926Y014340D03*
X032634Y014340D03*
X032634Y015040D03*
D29*
X028062Y044784D03*
X025778Y044784D03*
D30*
X029880Y047886D03*
X029880Y048594D03*
X029880Y049086D03*
X029880Y049794D03*
X030140Y040874D03*
X030140Y040166D03*
D31*
X031111Y037940D03*
X035049Y037940D03*
D32*
X025890Y038638D03*
X025890Y036842D03*
X033290Y023938D03*
X033290Y022142D03*
D33*
X036117Y023040D03*
X028717Y037740D03*
D34*
X030880Y042874D03*
X030880Y044606D03*
D35*
X032154Y049684D03*
D36*
X032532Y047924D03*
D37*
G36*
X031074Y048435D02*
X031728Y048355D01*
X031648Y047701D01*
X030994Y047781D01*
X031074Y048435D01*
G37*
D38*
X027122Y047801D03*
X026780Y049740D03*
X021680Y048040D03*
X022574Y046286D03*
D39*
X023689Y045485D03*
X022567Y044913D03*
X021311Y045643D03*
X020101Y047236D03*
X023364Y048898D03*
X025035Y049432D03*
X025726Y047555D03*
X026713Y046490D03*
X027954Y046709D03*
X028641Y050068D03*
D40*
X011880Y035335D03*
X011880Y034745D03*
X026485Y014140D03*
X027075Y014140D03*
X047980Y028645D03*
X047980Y029235D03*
D41*
X025450Y041632D03*
D42*
X029080Y041640D03*
X029080Y041140D03*
X029080Y040640D03*
X029080Y040140D03*
X029080Y042140D03*
X029080Y042640D03*
X029080Y043140D03*
D43*
X032646Y042240D03*
X034614Y042240D03*
X043096Y040540D03*
X045064Y040540D03*
X045164Y028640D03*
X043196Y028640D03*
G36*
X036021Y019246D02*
X036953Y018314D01*
X036465Y017826D01*
X035533Y018758D01*
X036021Y019246D01*
G37*
G36*
X037413Y017854D02*
X038345Y016922D01*
X037857Y016434D01*
X036925Y017366D01*
X037413Y017854D01*
G37*
G36*
X019226Y025499D02*
X018294Y024567D01*
X017806Y025055D01*
X018738Y025987D01*
X019226Y025499D01*
G37*
G36*
X017835Y024107D02*
X016903Y023175D01*
X016415Y023663D01*
X017347Y024595D01*
X017835Y024107D01*
G37*
X014979Y028620D03*
X013011Y028620D03*
X016012Y038779D03*
X017981Y038779D03*
D44*
X026485Y018857D03*
X026485Y016889D03*
D45*
G36*
X037414Y024595D02*
X038068Y025249D01*
X038292Y025025D01*
X037638Y024371D01*
X037414Y024595D01*
G37*
G36*
X038444Y025625D02*
X039098Y026279D01*
X039322Y026055D01*
X038668Y025401D01*
X038444Y025625D01*
G37*
D46*
X035130Y028346D03*
X034775Y028346D03*
X037680Y029940D03*
X038080Y029940D03*
D47*
G36*
X037499Y047514D02*
X037695Y047423D01*
X037449Y046888D01*
X037253Y046979D01*
X037499Y047514D01*
G37*
G36*
X037267Y047621D02*
X037463Y047530D01*
X037217Y046995D01*
X037021Y047086D01*
X037267Y047621D01*
G37*
G36*
X037034Y047728D02*
X037230Y047637D01*
X036984Y047102D01*
X036788Y047193D01*
X037034Y047728D01*
G37*
G36*
X036802Y047835D02*
X036998Y047744D01*
X036752Y047209D01*
X036556Y047300D01*
X036802Y047835D01*
G37*
G36*
X036569Y047942D02*
X036765Y047851D01*
X036519Y047316D01*
X036323Y047407D01*
X036569Y047942D01*
G37*
D48*
X036269Y048915D03*
X038629Y047829D03*
D49*
X034880Y046446D03*
X034880Y044834D03*
D50*
X033037Y046440D03*
X030123Y046440D03*
D51*
X036880Y027040D03*
X036880Y026640D03*
D52*
X037180Y028340D03*
X037180Y028940D03*
X036120Y029440D03*
X035580Y029440D03*
X035580Y028940D03*
X035620Y030340D03*
X033540Y030340D03*
X033020Y030320D03*
X030850Y033230D03*
X029180Y034240D03*
X027380Y032840D03*
X026180Y032240D03*
X025180Y032940D03*
X025680Y029340D03*
X025350Y026580D03*
X019380Y025740D03*
X018980Y026140D03*
X015980Y028440D03*
X015980Y028840D03*
X015880Y022940D03*
X016180Y022640D03*
X016380Y021440D03*
X021680Y020740D03*
X022230Y020740D03*
X027080Y019540D03*
X027480Y019540D03*
X028280Y016240D03*
X028780Y016240D03*
X027780Y014740D03*
X026680Y015940D03*
X026280Y015940D03*
X033180Y015040D03*
X039180Y019340D03*
X039580Y019640D03*
X040080Y018240D03*
X033890Y022810D03*
X033390Y022810D03*
X032890Y022810D03*
X032390Y022430D03*
X033290Y023380D03*
X032360Y023910D03*
X032390Y024580D03*
X032990Y024580D03*
X033540Y024600D03*
X035280Y024640D03*
X035780Y024640D03*
X036280Y024640D03*
X036780Y024640D03*
X039230Y026490D03*
X039530Y026190D03*
X039980Y026640D03*
X039680Y026940D03*
X039980Y027240D03*
X040280Y026940D03*
X042280Y028440D03*
X042280Y028940D03*
X044780Y030540D03*
X045680Y029740D03*
X047180Y029740D03*
X045480Y024440D03*
X045180Y024140D03*
X045480Y023840D03*
X045780Y024140D03*
X040880Y023740D03*
X038580Y030140D03*
X043980Y035440D03*
X044080Y035990D03*
X045680Y039440D03*
X045680Y039840D03*
X043380Y042540D03*
X041880Y041940D03*
X042180Y041440D03*
X036080Y047440D03*
X035550Y048900D03*
X034180Y048740D03*
X029980Y050240D03*
X029580Y050240D03*
X029880Y042640D03*
X017980Y041840D03*
X017480Y041840D03*
X017080Y042640D03*
X014974Y039040D03*
X014974Y038540D03*
X016480Y037240D03*
X016980Y037440D03*
X017380Y037440D03*
X014780Y035440D03*
X014180Y034640D03*
X012880Y034340D03*
X012780Y034900D03*
X013180Y035940D03*
D53*
X017980Y040740D03*
X040980Y024290D03*
X046180Y028340D03*
X046180Y028940D03*
X044980Y034440D03*
X044380Y034440D03*
X042680Y039140D03*
X042680Y039640D03*
X035680Y019540D03*
X035180Y019040D03*
X038480Y016640D03*
X038080Y016240D03*
D54*
X031080Y022740D03*
X029150Y023020D03*
X028880Y023440D03*
X028530Y023040D03*
X028280Y023440D03*
X026980Y023840D03*
X026380Y023840D03*
X026680Y025440D03*
X027540Y025780D03*
X027780Y026140D03*
X028160Y026220D03*
X027980Y026540D03*
X028880Y027440D03*
X028880Y028040D03*
X029480Y028040D03*
X029880Y028440D03*
X029480Y028840D03*
X029480Y029440D03*
X028880Y029440D03*
X028880Y028840D03*
X027020Y029250D03*
X027930Y030310D03*
X027850Y031530D03*
X029930Y032310D03*
X031610Y030460D03*
X032080Y030440D03*
X032080Y030030D03*
X032520Y030010D03*
X032480Y030640D03*
X030880Y029440D03*
X030280Y029440D03*
X030280Y028840D03*
X030880Y028840D03*
X030880Y028040D03*
X030280Y028040D03*
X030280Y027440D03*
X030880Y027440D03*
X029480Y027440D03*
X029710Y025860D03*
X029980Y024520D03*
X030880Y024640D03*
X031180Y024340D03*
X031480Y024940D03*
X031180Y025240D03*
X031780Y025240D03*
X032680Y025540D03*
X033080Y025840D03*
X032980Y026440D03*
X033280Y026740D03*
X033080Y027140D03*
X033080Y027540D03*
X033080Y027940D03*
X034280Y028240D03*
X032380Y026140D03*
X031980Y026240D03*
X026590Y027240D03*
X023680Y028840D03*
X019880Y025040D03*
X018080Y032340D03*
X017080Y033840D03*
X016580Y033840D03*
X016080Y033840D03*
X020480Y035440D03*
X020980Y034940D03*
X024380Y036740D03*
X024380Y037240D03*
X024380Y037740D03*
X024380Y038240D03*
X024380Y038740D03*
X024980Y038740D03*
X024980Y038240D03*
X024980Y037740D03*
X024980Y037240D03*
X024980Y036740D03*
X025280Y036240D03*
X025680Y036240D03*
X026080Y036240D03*
X026480Y036240D03*
X026780Y036740D03*
X026780Y037240D03*
X026780Y037740D03*
X026780Y038240D03*
X026780Y038740D03*
X026680Y039440D03*
X026180Y039440D03*
X025680Y039440D03*
X025180Y039440D03*
X024680Y039440D03*
X024880Y040040D03*
X025380Y040040D03*
X025880Y040040D03*
X026380Y040040D03*
X026880Y040040D03*
X027380Y040040D03*
X027380Y040540D03*
X026980Y040540D03*
X026980Y041040D03*
X027380Y041040D03*
X027380Y041540D03*
X026980Y041540D03*
X026980Y042040D03*
X027380Y042040D03*
X027380Y042540D03*
X026980Y042540D03*
X026880Y043040D03*
X027380Y043040D03*
X027380Y043540D03*
X026880Y043540D03*
X026380Y043540D03*
X025880Y043540D03*
X025880Y043040D03*
X026380Y043040D03*
X025880Y042540D03*
X026380Y042140D03*
X025880Y041640D03*
X025380Y041140D03*
X024880Y040740D03*
X024380Y041140D03*
X023880Y041040D03*
X023880Y040540D03*
X023880Y040040D03*
X024380Y040040D03*
X023880Y041540D03*
X023880Y042040D03*
X023880Y042540D03*
X023880Y043040D03*
X024380Y043040D03*
X024380Y043540D03*
X023880Y043540D03*
X024880Y043540D03*
X025380Y043540D03*
X025380Y043040D03*
X024880Y043040D03*
X024880Y042540D03*
X025380Y042140D03*
X024880Y041640D03*
X024380Y042140D03*
X025880Y040740D03*
X026380Y041140D03*
X029880Y041540D03*
X029880Y041940D03*
X030580Y042140D03*
X031180Y042140D03*
X031780Y042040D03*
X031780Y042440D03*
X032080Y042790D03*
X031880Y043440D03*
X031880Y044240D03*
X031680Y044940D03*
X032480Y044940D03*
X033180Y044740D03*
X033220Y045380D03*
X033180Y044040D03*
X035780Y043440D03*
X035780Y043040D03*
X035780Y042640D03*
X035780Y042240D03*
X035780Y041840D03*
X035780Y041440D03*
X035780Y041040D03*
X036180Y041040D03*
X036180Y041440D03*
X036180Y041840D03*
X036180Y042240D03*
X036180Y042640D03*
X036180Y043040D03*
X036180Y040340D03*
X036180Y039840D03*
X036180Y039340D03*
X036180Y038840D03*
X036180Y038340D03*
X036180Y037840D03*
X036180Y037340D03*
X036180Y036840D03*
X036180Y036340D03*
X036180Y035840D03*
X035780Y035340D03*
X035380Y034940D03*
X034880Y034940D03*
X034380Y034940D03*
X033880Y035140D03*
X033280Y035140D03*
X032880Y034940D03*
X037980Y033640D03*
X038380Y033640D03*
X039480Y035140D03*
X039480Y035840D03*
X040780Y031240D03*
X040780Y030840D03*
X040580Y030140D03*
X038480Y028340D03*
X036180Y030340D03*
X035580Y030840D03*
X043480Y026340D03*
X044380Y023840D03*
X044380Y023240D03*
X047180Y033840D03*
X047180Y034240D03*
X046780Y034240D03*
X047580Y033840D03*
X032080Y041690D03*
X029580Y044540D03*
X025180Y044740D03*
X025180Y044140D03*
X025180Y045340D03*
X025480Y038040D03*
X025880Y038040D03*
X026280Y038040D03*
X026280Y037440D03*
X025880Y037440D03*
X025480Y037440D03*
X038880Y046940D03*
X039480Y046640D03*
X022780Y017340D03*
X022280Y017340D03*
X021780Y017340D03*
X021280Y017340D03*
D55*
X018480Y036040D03*
X034880Y047240D03*
X037780Y046440D03*
M02*
