G75*
G70*
%OFA0B0*%
%FSLAX24Y24*%
%IPPOS*%
%LPD*%
%AMOC8*
5,1,8,0,0,1.08239X$1,22.5*
%
%ADD10C,0.1365*%
%ADD11C,0.0525*%
%ADD12R,0.0740X0.0740*%
%ADD13C,0.0740*%
%ADD14C,0.0600*%
%ADD15R,0.0600X0.0600*%
%ADD16C,0.0650*%
%ADD17C,0.0709*%
%ADD18C,0.0300*%
%ADD19C,0.0360*%
%ADD20C,0.0400*%
%ADD21C,0.0400*%
%ADD22C,0.0700*%
%ADD23C,0.0320*%
%ADD24C,0.0100*%
%ADD25C,0.0420*%
%ADD26C,0.0080*%
%ADD27C,0.0500*%
D10*
X017816Y019141D03*
X021479Y022804D03*
X030400Y019530D03*
X030400Y014350D03*
X042679Y019876D03*
X039016Y023539D03*
X042290Y032460D03*
X047470Y032460D03*
X038281Y041076D03*
X041944Y044739D03*
X020744Y040341D03*
X017081Y044004D03*
X017470Y031420D03*
X012290Y031420D03*
D11*
X013510Y032470D03*
X014480Y032470D03*
X015280Y032470D03*
X016250Y032470D03*
X020624Y041946D03*
X019938Y042632D03*
X019372Y043198D03*
X018686Y043884D03*
X039886Y041196D03*
X040572Y041882D03*
X041138Y042448D03*
X041824Y043134D03*
X043510Y031410D03*
X044480Y031410D03*
X045280Y031410D03*
X046250Y031410D03*
X039136Y021934D03*
X039822Y021248D03*
X040388Y020682D03*
X041074Y019996D03*
X029350Y018310D03*
X029350Y017340D03*
X029350Y016540D03*
X029350Y015570D03*
X019874Y022684D03*
X019188Y021998D03*
X018622Y021432D03*
X017936Y020746D03*
D12*
X041480Y030240D03*
D13*
X041480Y029240D03*
X041480Y028240D03*
X041480Y027240D03*
X038066Y042626D03*
X040894Y045454D03*
D14*
X032532Y047924D03*
D15*
G36*
X031100Y048402D02*
X031695Y048329D01*
X031622Y047734D01*
X031027Y047807D01*
X031100Y048402D01*
G37*
D16*
X028641Y050068D03*
X025035Y049432D03*
X023364Y048898D03*
X025726Y047555D03*
X026713Y046490D03*
X027954Y046709D03*
X023689Y045485D03*
X022567Y044913D03*
X021311Y045643D03*
X020101Y047236D03*
D17*
X036269Y048915D03*
X038629Y047829D03*
D18*
X038880Y046940D03*
X039480Y046640D03*
X034880Y048040D03*
X033220Y045380D03*
X033180Y044740D03*
X033180Y044040D03*
X032080Y042790D03*
X031780Y042440D03*
X031780Y042040D03*
X032080Y041690D03*
X031180Y042140D03*
X030580Y042140D03*
X029880Y041940D03*
X029880Y041540D03*
X027380Y041540D03*
X026980Y041540D03*
X026980Y041040D03*
X027380Y041040D03*
X027380Y040540D03*
X026980Y040540D03*
X026880Y040040D03*
X027380Y040040D03*
X026680Y039440D03*
X026180Y039440D03*
X025680Y039440D03*
X025180Y039440D03*
X024680Y039440D03*
X024880Y040040D03*
X025380Y040040D03*
X025880Y040040D03*
X026380Y040040D03*
X025880Y040740D03*
X026380Y041140D03*
X025880Y041640D03*
X025380Y041140D03*
X024880Y040740D03*
X024380Y041140D03*
X023880Y041040D03*
X023880Y040540D03*
X023880Y040040D03*
X024380Y040040D03*
X024380Y038740D03*
X024380Y038240D03*
X024380Y037740D03*
X024380Y037240D03*
X024380Y036740D03*
X024980Y036740D03*
X024980Y037240D03*
X024980Y037740D03*
X024980Y038240D03*
X024980Y038740D03*
X025480Y038040D03*
X025880Y038040D03*
X026280Y038040D03*
X026780Y038240D03*
X026780Y037740D03*
X026780Y037240D03*
X026780Y036740D03*
X026480Y036240D03*
X026080Y036240D03*
X025680Y036240D03*
X025280Y036240D03*
X025480Y037440D03*
X025880Y037440D03*
X026280Y037440D03*
X026780Y038740D03*
X024880Y041640D03*
X024380Y042140D03*
X023880Y042040D03*
X023880Y042540D03*
X023880Y043040D03*
X024380Y043040D03*
X024380Y043540D03*
X023880Y043540D03*
X024880Y043540D03*
X025380Y043540D03*
X025380Y043040D03*
X024880Y043040D03*
X024880Y042540D03*
X025380Y042140D03*
X025880Y042540D03*
X025880Y043040D03*
X026380Y043040D03*
X026380Y043540D03*
X025880Y043540D03*
X025180Y044140D03*
X025180Y044740D03*
X025180Y045340D03*
X026880Y043540D03*
X027380Y043540D03*
X027380Y043040D03*
X026880Y043040D03*
X026980Y042540D03*
X027380Y042540D03*
X027380Y042040D03*
X026980Y042040D03*
X026380Y042140D03*
X023880Y041540D03*
X029580Y044540D03*
X029280Y045140D03*
X031680Y044940D03*
X031880Y044240D03*
X032480Y044940D03*
X031880Y043440D03*
X034980Y043440D03*
X035780Y043440D03*
X035780Y043040D03*
X035780Y042640D03*
X035780Y042240D03*
X035780Y041840D03*
X035780Y041440D03*
X035780Y041040D03*
X036180Y041040D03*
X036180Y041440D03*
X036180Y041840D03*
X036180Y042240D03*
X036180Y042640D03*
X036180Y043040D03*
X036180Y040340D03*
X036180Y039840D03*
X036180Y039340D03*
X036180Y038840D03*
X036180Y038340D03*
X036180Y037840D03*
X036180Y037340D03*
X036180Y036840D03*
X036180Y036340D03*
X036180Y035840D03*
X035780Y035340D03*
X035380Y034940D03*
X034880Y034940D03*
X034380Y034940D03*
X033880Y035140D03*
X033280Y035140D03*
X032880Y034940D03*
X029930Y032310D03*
X027850Y031530D03*
X027930Y030310D03*
X028880Y029440D03*
X028880Y028840D03*
X029480Y028840D03*
X029880Y028440D03*
X029480Y028040D03*
X029480Y027440D03*
X028880Y027440D03*
X028880Y028040D03*
X030280Y028040D03*
X030880Y028040D03*
X030880Y027440D03*
X030280Y027440D03*
X030280Y028840D03*
X030880Y028840D03*
X030880Y029440D03*
X030280Y029440D03*
X029480Y029440D03*
X031610Y030460D03*
X032080Y030440D03*
X032080Y030030D03*
X032520Y030010D03*
X032480Y030640D03*
X035580Y030840D03*
X036180Y030340D03*
X036380Y028940D03*
X034880Y028340D03*
X034280Y028240D03*
X033080Y027940D03*
X033080Y027540D03*
X033080Y027140D03*
X033280Y026740D03*
X032980Y026440D03*
X033080Y025840D03*
X032680Y025540D03*
X032380Y026140D03*
X031980Y026240D03*
X031780Y025240D03*
X031480Y024940D03*
X031180Y025240D03*
X030880Y024640D03*
X031180Y024340D03*
X029980Y024520D03*
X029710Y025860D03*
X028160Y026220D03*
X027980Y026540D03*
X027780Y026140D03*
X027540Y025780D03*
X026680Y025440D03*
X026180Y025740D03*
X026590Y027240D03*
X027020Y029250D03*
X023680Y028840D03*
X019880Y025040D03*
X017380Y021340D03*
X021680Y018540D03*
X022280Y018540D03*
X022280Y017340D03*
X021780Y017340D03*
X021280Y017340D03*
X022780Y017340D03*
X026280Y019540D03*
X028530Y023040D03*
X028280Y023440D03*
X028880Y023440D03*
X029150Y023020D03*
X031080Y022740D03*
X026980Y023840D03*
X026380Y023840D03*
X034480Y019040D03*
X044380Y023240D03*
X044380Y023840D03*
X045080Y023240D03*
X043480Y026340D03*
X038480Y028340D03*
X040580Y030140D03*
X040780Y030840D03*
X040780Y031240D03*
X038380Y033640D03*
X037980Y033640D03*
X039480Y035140D03*
X039480Y035840D03*
X042680Y038240D03*
X043680Y034940D03*
X046780Y034240D03*
X047180Y034240D03*
X047180Y033840D03*
X047580Y033840D03*
X047780Y034440D03*
X047180Y034840D03*
X020980Y034940D03*
X020480Y035440D03*
X019280Y036040D03*
X017080Y033840D03*
X016580Y033840D03*
X016080Y033840D03*
X017180Y032640D03*
X018080Y032340D03*
X018080Y033440D03*
X017380Y040340D03*
D19*
X017480Y041840D03*
X017980Y041840D03*
X017080Y042640D03*
X014974Y039040D03*
X014974Y038540D03*
X016480Y037240D03*
X016980Y037440D03*
X017380Y037440D03*
X014780Y035440D03*
X014180Y034640D03*
X012880Y034340D03*
X012780Y034900D03*
X013180Y035940D03*
X015980Y028840D03*
X015980Y028440D03*
X018980Y026140D03*
X019380Y025740D03*
X015880Y022940D03*
X016180Y022640D03*
X016380Y021440D03*
X021680Y020740D03*
X022230Y020740D03*
X027080Y019540D03*
X027480Y019540D03*
X028280Y016240D03*
X028780Y016240D03*
X027780Y014740D03*
X026680Y015940D03*
X026280Y015940D03*
X033180Y015040D03*
X039180Y019340D03*
X039580Y019640D03*
X040080Y018240D03*
X033890Y022810D03*
X033390Y022810D03*
X032890Y022810D03*
X032390Y022430D03*
X033290Y023380D03*
X032360Y023910D03*
X032390Y024580D03*
X032990Y024580D03*
X033540Y024600D03*
X035280Y024640D03*
X035780Y024640D03*
X036280Y024640D03*
X036780Y024640D03*
X039230Y026490D03*
X039530Y026190D03*
X039980Y026640D03*
X039680Y026940D03*
X039980Y027240D03*
X040280Y026940D03*
X042280Y028440D03*
X042280Y028940D03*
X044780Y030540D03*
X045680Y029740D03*
X047180Y029740D03*
X045480Y024440D03*
X045180Y024140D03*
X045480Y023840D03*
X045780Y024140D03*
X040880Y023740D03*
X037180Y028340D03*
X037180Y028940D03*
X036120Y029440D03*
X035580Y029440D03*
X035580Y028940D03*
X035620Y030340D03*
X033540Y030340D03*
X033020Y030320D03*
X030850Y033230D03*
X029180Y034240D03*
X027380Y032840D03*
X026180Y032240D03*
X025180Y032940D03*
X025680Y029340D03*
X025350Y026580D03*
X038580Y030140D03*
X043980Y035440D03*
X044080Y035990D03*
X045680Y039440D03*
X045680Y039840D03*
X043380Y042540D03*
X041880Y041940D03*
X042180Y041440D03*
X036080Y047440D03*
X035550Y048900D03*
X034180Y048740D03*
X029980Y050240D03*
X029580Y050240D03*
X029880Y042640D03*
D20*
X017980Y040740D03*
X040980Y024290D03*
X046180Y028340D03*
X046180Y028940D03*
X044980Y034440D03*
X044380Y034440D03*
X042680Y039140D03*
X042680Y039640D03*
X035680Y019540D03*
X035180Y019040D03*
X038480Y016640D03*
X038080Y016240D03*
D21*
X045480Y023840D02*
X045180Y024140D01*
X045480Y024440D01*
X045580Y024040D02*
X045680Y024040D01*
X045780Y024140D01*
X045480Y023840D01*
X040280Y026940D02*
X039980Y026640D01*
X039680Y026940D01*
X039980Y027240D01*
X039980Y026940D01*
X040180Y026740D01*
X040280Y026940D02*
X039980Y027240D01*
X038316Y041076D02*
X038281Y041076D01*
X027954Y046709D02*
X027380Y045940D01*
X026480Y045640D01*
X025780Y046240D01*
X025480Y046140D01*
X023689Y045485D01*
X021180Y046940D02*
X024480Y048340D01*
X025035Y049432D01*
X021180Y046940D02*
X020397Y046940D01*
X020101Y047236D01*
X018480Y036040D02*
X014380Y036040D01*
X013510Y035170D01*
X013510Y034940D01*
X013510Y032470D01*
D22*
X040180Y026740D02*
X040280Y026740D01*
X040580Y026440D01*
X041380Y026440D01*
X043080Y024740D01*
X044880Y024740D01*
X045580Y024040D01*
D23*
X041480Y026540D02*
X041380Y026440D01*
X041480Y026540D02*
X041480Y027240D01*
D24*
X040780Y025840D02*
X034580Y025840D01*
X034380Y025440D02*
X033680Y026140D01*
X032780Y026140D01*
X032680Y026040D01*
X032680Y025540D01*
X033080Y025840D02*
X033480Y025840D01*
X039580Y019640D01*
X039180Y019340D02*
X038480Y020040D01*
X033780Y020040D01*
X031080Y022740D01*
X030680Y022840D02*
X030380Y022840D01*
X028780Y021240D01*
X028780Y016240D01*
X028280Y016240D02*
X028280Y021240D01*
X030280Y023240D01*
X030580Y023240D01*
X031480Y024140D01*
X031480Y024540D01*
X032080Y025140D01*
X032080Y026140D01*
X031980Y026240D01*
X032380Y026140D02*
X032380Y025040D01*
X031780Y024440D01*
X031780Y023940D01*
X030680Y022840D01*
X030480Y023640D02*
X029480Y023640D01*
X029280Y023840D01*
X028080Y023840D01*
X027780Y023540D01*
X024880Y023540D01*
X023380Y025040D01*
X019880Y025040D01*
X024780Y024140D02*
X018880Y030040D01*
X018880Y032040D01*
X018580Y032340D01*
X018080Y032340D01*
X017780Y032640D02*
X017480Y032940D01*
X017180Y032640D01*
X017480Y032940D02*
X016580Y033840D01*
X017080Y033840D02*
X017780Y033140D01*
X018080Y033440D01*
X017780Y033140D02*
X017980Y032940D01*
X018780Y032940D01*
X019480Y032240D01*
X019480Y030240D01*
X024980Y024740D01*
X029580Y024740D01*
X030080Y025240D01*
X031180Y025240D01*
X031480Y024940D02*
X030580Y024940D01*
X030480Y024840D01*
X030480Y024540D01*
X030180Y024240D01*
X029880Y024240D01*
X029680Y024440D01*
X024880Y024440D01*
X019180Y030140D01*
X019180Y032140D01*
X018680Y032640D01*
X017780Y032640D01*
X017980Y034140D02*
X016180Y034140D01*
X016080Y034040D01*
X016080Y033840D01*
X017980Y034140D02*
X019780Y032340D01*
X019780Y030340D01*
X025080Y025040D01*
X029380Y025040D01*
X029990Y025650D01*
X031490Y025650D01*
X031780Y025360D01*
X031780Y025240D01*
X031480Y026240D02*
X029280Y026240D01*
X028380Y025340D01*
X028080Y025340D01*
X027540Y025680D01*
X027540Y025780D01*
X027780Y026040D02*
X027780Y026140D01*
X027780Y026040D02*
X028080Y025840D01*
X028280Y025840D01*
X028980Y026540D01*
X031380Y026540D01*
X032380Y027540D01*
X032380Y028140D01*
X032880Y028640D01*
X033880Y028640D01*
X035280Y030040D01*
X036380Y030040D01*
X037980Y031640D01*
X037980Y033640D01*
X038380Y033640D02*
X038380Y031640D01*
X036480Y029740D01*
X035380Y029740D01*
X033980Y028340D01*
X032980Y028340D01*
X032680Y028040D01*
X032680Y027440D01*
X031480Y026240D01*
X031280Y026840D02*
X028780Y026840D01*
X028160Y026220D01*
X027980Y026540D02*
X028580Y027140D01*
X031180Y027140D01*
X031780Y027740D01*
X031780Y028340D01*
X032680Y029240D01*
X033680Y029240D01*
X035080Y030640D01*
X035080Y030940D01*
X035380Y031240D01*
X035780Y031240D01*
X036180Y030840D01*
X036180Y030340D01*
X035580Y030740D02*
X033780Y028940D01*
X032780Y028940D01*
X032080Y028240D01*
X032080Y027640D01*
X031280Y026840D01*
X030880Y024640D02*
X030880Y024440D01*
X030380Y023940D01*
X029680Y023940D01*
X029480Y024140D01*
X024780Y024140D01*
X026580Y023240D02*
X028080Y023240D01*
X028280Y023440D01*
X028480Y023040D02*
X028380Y022940D01*
X026780Y022940D01*
X023080Y019240D01*
X022780Y019440D02*
X026580Y023240D01*
X026880Y022540D02*
X028580Y022540D01*
X028850Y022810D01*
X028850Y023330D01*
X028880Y023440D01*
X028810Y023370D01*
X028530Y023040D02*
X028480Y023040D01*
X029150Y023020D02*
X029150Y022620D01*
X028680Y022140D01*
X026980Y022140D01*
X023680Y018840D01*
X023380Y019040D02*
X026880Y022540D01*
X030480Y023640D02*
X031180Y024340D01*
X034380Y025440D02*
X040580Y025440D01*
X042780Y023240D01*
X044380Y023240D01*
X044380Y023840D02*
X042780Y023840D01*
X040780Y025840D01*
X044380Y023840D02*
X044980Y023240D01*
X045080Y023240D01*
X036380Y028940D02*
X036380Y029240D01*
X036180Y029440D01*
X036120Y029440D01*
X036180Y029440D02*
X038480Y029440D01*
X039080Y030040D01*
X039080Y037940D01*
X037280Y039740D01*
X037280Y044740D01*
X038880Y046940D01*
X037780Y046440D02*
X036880Y045540D01*
X036880Y039440D01*
X038680Y037640D01*
X038680Y030240D01*
X038580Y030140D01*
X040780Y030840D02*
X041980Y030840D01*
X043080Y029740D01*
X045680Y029740D01*
X044780Y030540D02*
X042880Y030540D01*
X042180Y031240D01*
X040780Y031240D01*
X044180Y034440D02*
X044380Y034440D01*
X044180Y034440D02*
X043680Y034940D01*
X047180Y034840D02*
X047180Y034240D01*
X047180Y033840D02*
X047780Y034440D01*
X042680Y038240D02*
X042680Y039140D01*
X042180Y041440D02*
X039880Y038940D01*
X039880Y035540D01*
X039480Y035140D01*
X039480Y035840D02*
X039480Y039540D01*
X041680Y041640D01*
X041880Y041940D01*
X035780Y043440D02*
X034980Y043440D01*
X029580Y044540D02*
X029580Y044840D01*
X029280Y045140D01*
X034880Y047240D02*
X034880Y048040D01*
X023980Y035740D02*
X017980Y041740D01*
X017980Y041840D01*
X017480Y041840D02*
X023880Y035440D01*
X029280Y035440D01*
X031580Y033140D01*
X031580Y030490D01*
X031610Y030460D01*
X031770Y030190D02*
X031380Y030190D01*
X030830Y030740D01*
X024780Y030740D01*
X019880Y035440D01*
X014780Y035440D01*
X014380Y034840D02*
X014180Y034640D01*
X014380Y034840D02*
X019880Y034840D01*
X024680Y030040D01*
X028180Y030040D01*
X028580Y030440D01*
X030750Y030440D01*
X031270Y029920D01*
X031960Y029920D01*
X032070Y030030D01*
X032080Y030030D01*
X032070Y030040D01*
X031770Y030190D02*
X032020Y030440D01*
X032080Y030440D01*
X032480Y030640D02*
X032480Y032840D01*
X029580Y035740D01*
X023980Y035740D01*
X019280Y036040D02*
X018480Y036040D01*
X013510Y034940D02*
X013470Y034900D01*
X012780Y034900D01*
X017380Y040340D02*
X017580Y040340D01*
X017980Y040740D01*
X028780Y030140D02*
X030580Y030140D01*
X031080Y029640D01*
X032180Y029640D01*
X032520Y029980D01*
X032520Y030010D01*
X034280Y028240D02*
X034380Y028340D01*
X034880Y028340D01*
X035580Y030740D02*
X035580Y030840D01*
X028780Y030140D02*
X028380Y029740D01*
X024580Y029740D01*
X023680Y028840D01*
X026180Y025740D02*
X026480Y025740D01*
X026680Y025440D01*
X026280Y019540D02*
X027080Y019540D01*
X022280Y018540D02*
X022280Y017340D01*
X021780Y017340D02*
X021680Y017440D01*
X021680Y018540D01*
X017936Y020746D02*
X017380Y021303D01*
X017380Y021340D01*
X034480Y019040D02*
X035180Y019040D01*
D25*
X018480Y036040D03*
X034880Y047240D03*
X037780Y046440D03*
D26*
X021280Y017040D02*
X021680Y016640D01*
X023180Y016640D01*
X023680Y017140D01*
X023680Y018840D01*
X023380Y019040D02*
X023380Y017140D01*
X023080Y016840D01*
X022080Y016840D01*
X021780Y017140D01*
X021780Y017340D01*
X022280Y017340D02*
X022280Y017240D01*
X022480Y017040D01*
X022980Y017040D01*
X023080Y017140D01*
X023080Y019240D01*
X022780Y019440D02*
X022780Y017340D01*
X021280Y017340D02*
X021280Y017040D01*
X033980Y026440D02*
X034580Y025840D01*
X033980Y026440D02*
X032980Y026440D01*
X033280Y026740D02*
X038880Y026740D01*
X040280Y028140D01*
X040280Y031740D01*
X041880Y033340D01*
X042980Y033340D01*
X043180Y033140D01*
X046880Y033140D01*
X047580Y033840D01*
X047180Y033840D02*
X046780Y033440D01*
X043380Y033440D01*
X043180Y033640D01*
X041780Y033640D01*
X039980Y031840D01*
X039980Y028340D01*
X038780Y027140D01*
X033080Y027140D01*
X033080Y027540D02*
X038680Y027540D01*
X039680Y028540D01*
X039680Y031940D01*
X041680Y033940D01*
X043380Y033940D01*
X043580Y033740D01*
X046680Y033740D01*
X047180Y034240D01*
X046780Y034240D02*
X046680Y034040D01*
X043680Y034040D01*
X043480Y034240D01*
X041580Y034240D01*
X039380Y032040D01*
X039380Y028740D01*
X038580Y027940D01*
X033080Y027940D01*
D27*
X039016Y023539D02*
X042679Y019876D01*
X030400Y019530D02*
X030400Y014350D01*
X021479Y022804D02*
X017816Y019141D01*
X017470Y031420D02*
X012290Y031420D01*
X020744Y040341D02*
X017081Y044004D01*
X036269Y048915D02*
X038629Y047829D01*
X041944Y044739D02*
X038316Y041076D01*
X042290Y032460D02*
X047470Y032460D01*
M02*
