%
M48
M72
T01C0.0140
T02C0.0200
T03C0.0240
T04C0.0260
T05C0.0350
T06C0.0400
T07C0.0433
T08C0.0460
T09C0.0472
T10C0.0800
T11C0.0910
T12C0.1000
T13C0.1180
%
T01
X21280Y17340
X21780Y17340
X22280Y17340
X22780Y17340
X28530Y23040
X28280Y23440
X28880Y23440
X29150Y23020
X29980Y24520
X30880Y24640
X31180Y24340
X31480Y24940
X31180Y25240
X31780Y25240
X32680Y25540
X33080Y25840
X32980Y26440
X33280Y26740
X33080Y27140
X33080Y27540
X33080Y27940
X34280Y28240
X32520Y30010
X32080Y30030
X32080Y30440
X32480Y30640
X31610Y30460
X30880Y29440
X30280Y29440
X30280Y28840
X29880Y28440
X29480Y28040
X29480Y27440
X28880Y27440
X28880Y28040
X28880Y28840
X28880Y29440
X29480Y29440
X29480Y28840
X30280Y28040
X30880Y28040
X30880Y27440
X30280Y27440
X30880Y28840
X27930Y30310
X27020Y29250
X26590Y27240
X27980Y26540
X28160Y26220
X27780Y26140
X27540Y25780
X26680Y25440
X26380Y23840
X26980Y23840
X29710Y25860
X31980Y26240
X32380Y26140
X31080Y22740
X38480Y28340
X40580Y30140
X40780Y30840
X40780Y31240
X38380Y33640
X37980Y33640
X39480Y35140
X39480Y35840
X36180Y35840
X36180Y36340
X36180Y36840
X36180Y37340
X36180Y37840
X36180Y38340
X36180Y38840
X36180Y39340
X36180Y39840
X36180Y40340
X36180Y41040
X36180Y41440
X36180Y41840
X36180Y42240
X36180Y42640
X36180Y43040
X35780Y43040
X35780Y43440
X35780Y42640
X35780Y42240
X35780Y41840
X35780Y41440
X35780Y41040
X32080Y41690
X31780Y42040
X31780Y42440
X32080Y42790
X31880Y43440
X31180Y42140
X30580Y42140
X29880Y41940
X29880Y41540
X27380Y41540
X26980Y41540
X26980Y41040
X27380Y41040
X27380Y40540
X26980Y40540
X26880Y40040
X27380Y40040
X26680Y39440
X26180Y39440
X25680Y39440
X25180Y39440
X24680Y39440
X24880Y40040
X25380Y40040
X25880Y40040
X26380Y40040
X25880Y40740
X26380Y41140
X25880Y41640
X25380Y41140
X24880Y40740
X24380Y41140
X23880Y41040
X23880Y40540
X23880Y40040
X24380Y40040
X24380Y38740
X24380Y38240
X24380Y37740
X24380Y37240
X24380Y36740
X24980Y36740
X24980Y37240
X24980Y37740
X24980Y38240
X24980Y38740
X25480Y38040
X25880Y38040
X26280Y38040
X26780Y38240
X26780Y37740
X26780Y37240
X26780Y36740
X26480Y36240
X26080Y36240
X25680Y36240
X25280Y36240
X25480Y37440
X25880Y37440
X26280Y37440
X26780Y38740
X24880Y41640
X24380Y42140
X23880Y42040
X23880Y42540
X23880Y43040
X24380Y43040
X24380Y43540
X23880Y43540
X24880Y43540
X25380Y43540
X25380Y43040
X24880Y43040
X24880Y42540
X25380Y42140
X25880Y42540
X25880Y43040
X26380Y43040
X26380Y43540
X25880Y43540
X25180Y44140
X25180Y44740
X25180Y45340
X26880Y43540
X27380Y43540
X27380Y43040
X26880Y43040
X26980Y42540
X27380Y42540
X27380Y42040
X26980Y42040
X26380Y42140
X23880Y41540
X29580Y44540
X31680Y44940
X31880Y44240
X32480Y44940
X33180Y44740
X33220Y45380
X33180Y44040
X38880Y46940
X39480Y46640
X35780Y35340
X35380Y34940
X34880Y34940
X34380Y34940
X33880Y35140
X33280Y35140
X32880Y34940
X29930Y32310
X27850Y31530
X23680Y28840
X19880Y25040
X18080Y32340
X17080Y33840
X16580Y33840
X16080Y33840
X20480Y35440
X20980Y34940
X35580Y30840
X36180Y30340
X43480Y26340
X44380Y23840
X44380Y23240
X47180Y33840
X47180Y34240
X46780Y34240
X47580Y33840
T02
X43980Y35440
X44080Y35990
X45680Y39440
X45680Y39840
X43380Y42540
X41880Y41940
X42180Y41440
X36080Y47440
X35550Y48900
X34180Y48740
X29980Y50240
X29580Y50240
X29880Y42640
X29180Y34240
X30850Y33230
X27380Y32840
X26180Y32240
X25180Y32940
X25680Y29340
X25350Y26580
X19380Y25740
X18980Y26140
X15980Y28440
X15980Y28840
X15880Y22940
X16180Y22640
X16380Y21440
X21680Y20740
X22230Y20740
X27080Y19540
X27480Y19540
X28280Y16240
X28780Y16240
X27780Y14740
X26680Y15940
X26280Y15940
X33180Y15040
X39180Y19340
X39580Y19640
X40080Y18240
X33890Y22810
X33390Y22810
X32890Y22810
X32390Y22430
X33290Y23380
X32360Y23910
X32390Y24580
X32990Y24580
X33540Y24600
X35280Y24640
X35780Y24640
X36280Y24640
X36780Y24640
X39230Y26490
X39530Y26190
X39980Y26640
X39680Y26940
X39980Y27240
X40280Y26940
X42280Y28440
X42280Y28940
X44780Y30540
X45680Y29740
X47180Y29740
X45480Y24440
X45180Y24140
X45480Y23840
X45780Y24140
X40880Y23740
X37180Y28340
X37180Y28940
X36120Y29440
X35580Y29440
X35580Y28940
X35620Y30340
X33540Y30340
X33020Y30320
X38580Y30140
X17980Y41840
X17480Y41840
X17080Y42640
X14974Y39040
X14974Y38540
X16480Y37240
X16980Y37440
X17380Y37440
X14780Y35440
X14180Y34640
X12880Y34340
X12780Y34900
X13180Y35940
T03
X17980Y40740
X40980Y24290
X46180Y28340
X46180Y28940
X44980Y34440
X44380Y34440
X42680Y39140
X42680Y39640
X35680Y19540
X35180Y19040
X38480Y16640
X38080Y16240
T04
X18480Y36040
X34880Y47240
X37780Y46440
T05
X41824Y43134
X41138Y42448
X40572Y41882
X39886Y41196
X43510Y31410
X44480Y31410
X45280Y31410
X46250Y31410
X39136Y21934
X39822Y21248
X40388Y20682
X41074Y19996
X29350Y18310
X29350Y17340
X29350Y16540
X29350Y15570
X19874Y22684
X19188Y21998
X18622Y21432
X17936Y20746
X16250Y32470
X15280Y32470
X14480Y32470
X13510Y32470
X20624Y41946
X19938Y42632
X19372Y43198
X18686Y43884
T06
X31361Y48068
X32532Y47924
X41480Y30240
X41480Y29240
X41480Y28240
X41480Y27240
T07
X23689Y45485
X22567Y44913
X22574Y46286
X21311Y45643
X20101Y47236
X21680Y48040
X23364Y48898
X25035Y49432
X26780Y49740
X28641Y50068
X27122Y47801
X27954Y46709
X26713Y46490
X25726Y47555
T08
X38066Y42626
X40894Y45454
T09
X38629Y47829
X36269Y48915
T10
X37180Y33940
X21280Y31190
T11
X17470Y31420
X12290Y31420
X20744Y40341
X17081Y44004
X38281Y41076
X41944Y44739
X42290Y32460
X47470Y32460
X39016Y23539
X42679Y19876
X30400Y19530
X30400Y14350
X21479Y22804
X17816Y19141
T12
X13880Y25940
X13880Y37940
X45880Y37940
X45880Y25940
T13
X32154Y49684
M30
