G75*
G70*
%OFA0B0*%
%FSLAX24Y24*%
%IPPOS*%
%LPD*%
%AMOC8*
5,1,8,0,0,1.08239X$1,22.5*
%
%ADD10C,0.1365*%
%ADD11C,0.0525*%
%ADD12C,0.0740*%
%ADD13C,0.0600*%
%ADD14C,0.0650*%
%ADD15C,0.0709*%
%ADD16C,0.0360*%
%ADD17C,0.0400*%
%ADD18C,0.0300*%
%ADD19C,0.0160*%
%ADD20C,0.0400*%
%ADD21C,0.0100*%
%ADD22C,0.0700*%
%ADD23C,0.0420*%
D10*
X017816Y019141D03*
X021479Y022804D03*
X030400Y019530D03*
X030400Y014350D03*
X042679Y019876D03*
X039016Y023539D03*
X042290Y032460D03*
X047470Y032460D03*
X038281Y041076D03*
X041944Y044739D03*
X020744Y040341D03*
X017081Y044004D03*
X017470Y031420D03*
X012290Y031420D03*
D11*
X013510Y032470D03*
X014480Y032470D03*
X015280Y032470D03*
X016250Y032470D03*
X020624Y041946D03*
X019938Y042632D03*
X019372Y043198D03*
X018686Y043884D03*
X039886Y041196D03*
X040572Y041882D03*
X041138Y042448D03*
X041824Y043134D03*
X043510Y031410D03*
X044480Y031410D03*
X045280Y031410D03*
X046250Y031410D03*
X039136Y021934D03*
X039822Y021248D03*
X040388Y020682D03*
X041074Y019996D03*
X029350Y018310D03*
X029350Y017340D03*
X029350Y016540D03*
X029350Y015570D03*
X019874Y022684D03*
X019188Y021998D03*
X018622Y021432D03*
X017936Y020746D03*
D12*
X041480Y027240D03*
X041480Y028240D03*
X041480Y029240D03*
X041480Y030240D03*
X038066Y042626D03*
X040894Y045454D03*
D13*
X032532Y047924D03*
X031361Y048068D03*
D14*
X028641Y050068D03*
X025035Y049432D03*
X023364Y048898D03*
X025726Y047555D03*
X026713Y046490D03*
X027954Y046709D03*
X023689Y045485D03*
X022567Y044913D03*
X021311Y045643D03*
X020101Y047236D03*
D15*
X036269Y048915D03*
X038629Y047829D03*
D16*
X036080Y047440D03*
X035550Y048900D03*
X034180Y048740D03*
X029980Y050240D03*
X029580Y050240D03*
X029880Y042640D03*
X029180Y034240D03*
X030850Y033230D03*
X027380Y032840D03*
X026180Y032240D03*
X025180Y032940D03*
X025680Y029340D03*
X025350Y026580D03*
X019380Y025740D03*
X018980Y026140D03*
X015980Y028440D03*
X015980Y028840D03*
X015880Y022940D03*
X016180Y022640D03*
X016380Y021440D03*
X021680Y020740D03*
X022230Y020740D03*
X027080Y019540D03*
X027480Y019540D03*
X028280Y016240D03*
X028780Y016240D03*
X027780Y014740D03*
X026680Y015940D03*
X026280Y015940D03*
X033180Y015040D03*
X039180Y019340D03*
X039580Y019640D03*
X040080Y018240D03*
X033890Y022810D03*
X033390Y022810D03*
X032890Y022810D03*
X032390Y022430D03*
X033290Y023380D03*
X032360Y023910D03*
X032390Y024580D03*
X032990Y024580D03*
X033540Y024600D03*
X035280Y024640D03*
X035780Y024640D03*
X036280Y024640D03*
X036780Y024640D03*
X039230Y026490D03*
X039530Y026190D03*
X039980Y026640D03*
X039680Y026940D03*
X039980Y027240D03*
X040280Y026940D03*
X042280Y028440D03*
X042280Y028940D03*
X044780Y030540D03*
X045680Y029740D03*
X047180Y029740D03*
X045480Y024440D03*
X045180Y024140D03*
X045480Y023840D03*
X045780Y024140D03*
X040880Y023740D03*
X037180Y028340D03*
X037180Y028940D03*
X036120Y029440D03*
X035580Y029440D03*
X035580Y028940D03*
X035620Y030340D03*
X033540Y030340D03*
X033020Y030320D03*
X038580Y030140D03*
X043980Y035440D03*
X044080Y035990D03*
X045680Y039440D03*
X045680Y039840D03*
X043380Y042540D03*
X041880Y041940D03*
X042180Y041440D03*
X017980Y041840D03*
X017480Y041840D03*
X017080Y042640D03*
X014974Y039040D03*
X014974Y038540D03*
X016480Y037240D03*
X016980Y037440D03*
X017380Y037440D03*
X014780Y035440D03*
X014180Y034640D03*
X012880Y034340D03*
X012780Y034900D03*
X013180Y035940D03*
D17*
X017980Y040740D03*
X040980Y024290D03*
X046180Y028340D03*
X046180Y028940D03*
X044980Y034440D03*
X044380Y034440D03*
X042680Y039140D03*
X042680Y039640D03*
X035680Y019540D03*
X035180Y019040D03*
X038480Y016640D03*
X038080Y016240D03*
D18*
X031080Y022740D03*
X029150Y023020D03*
X028880Y023440D03*
X028530Y023040D03*
X028280Y023440D03*
X026980Y023840D03*
X026380Y023840D03*
X026680Y025440D03*
X027540Y025780D03*
X027780Y026140D03*
X028160Y026220D03*
X027980Y026540D03*
X028880Y027440D03*
X028880Y028040D03*
X029480Y028040D03*
X029880Y028440D03*
X029480Y028840D03*
X029480Y029440D03*
X028880Y029440D03*
X028880Y028840D03*
X027020Y029250D03*
X027930Y030310D03*
X027850Y031530D03*
X029930Y032310D03*
X031610Y030460D03*
X032080Y030440D03*
X032080Y030030D03*
X032520Y030010D03*
X032480Y030640D03*
X030880Y029440D03*
X030280Y029440D03*
X030280Y028840D03*
X030880Y028840D03*
X030880Y028040D03*
X030280Y028040D03*
X030280Y027440D03*
X030880Y027440D03*
X029480Y027440D03*
X029710Y025860D03*
X029980Y024520D03*
X030880Y024640D03*
X031180Y024340D03*
X031480Y024940D03*
X031180Y025240D03*
X031780Y025240D03*
X032680Y025540D03*
X033080Y025840D03*
X032980Y026440D03*
X033280Y026740D03*
X033080Y027140D03*
X033080Y027540D03*
X033080Y027940D03*
X034280Y028240D03*
X032380Y026140D03*
X031980Y026240D03*
X026590Y027240D03*
X023680Y028840D03*
X019880Y025040D03*
X018080Y032340D03*
X017080Y033840D03*
X016580Y033840D03*
X016080Y033840D03*
X020480Y035440D03*
X020980Y034940D03*
X024380Y036740D03*
X024380Y037240D03*
X024380Y037740D03*
X024380Y038240D03*
X024380Y038740D03*
X024980Y038740D03*
X024980Y038240D03*
X024980Y037740D03*
X024980Y037240D03*
X024980Y036740D03*
X025280Y036240D03*
X025680Y036240D03*
X026080Y036240D03*
X026480Y036240D03*
X026780Y036740D03*
X026780Y037240D03*
X026780Y037740D03*
X026780Y038240D03*
X026780Y038740D03*
X026680Y039440D03*
X026180Y039440D03*
X025680Y039440D03*
X025180Y039440D03*
X024680Y039440D03*
X024880Y040040D03*
X025380Y040040D03*
X025880Y040040D03*
X026380Y040040D03*
X026880Y040040D03*
X027380Y040040D03*
X027380Y040540D03*
X026980Y040540D03*
X026980Y041040D03*
X027380Y041040D03*
X027380Y041540D03*
X026980Y041540D03*
X026980Y042040D03*
X027380Y042040D03*
X027380Y042540D03*
X026980Y042540D03*
X026880Y043040D03*
X027380Y043040D03*
X027380Y043540D03*
X026880Y043540D03*
X026380Y043540D03*
X025880Y043540D03*
X025880Y043040D03*
X026380Y043040D03*
X025880Y042540D03*
X026380Y042140D03*
X025880Y041640D03*
X025380Y041140D03*
X024880Y040740D03*
X024380Y041140D03*
X023880Y041040D03*
X023880Y040540D03*
X023880Y040040D03*
X024380Y040040D03*
X023880Y041540D03*
X023880Y042040D03*
X023880Y042540D03*
X023880Y043040D03*
X024380Y043040D03*
X024380Y043540D03*
X023880Y043540D03*
X024880Y043540D03*
X025380Y043540D03*
X025380Y043040D03*
X024880Y043040D03*
X024880Y042540D03*
X025380Y042140D03*
X024880Y041640D03*
X024380Y042140D03*
X025880Y040740D03*
X026380Y041140D03*
X029880Y041540D03*
X029880Y041940D03*
X030580Y042140D03*
X031180Y042140D03*
X031780Y042040D03*
X031780Y042440D03*
X032080Y042790D03*
X031880Y043440D03*
X031880Y044240D03*
X031680Y044940D03*
X032480Y044940D03*
X033180Y044740D03*
X033220Y045380D03*
X033180Y044040D03*
X035780Y043440D03*
X035780Y043040D03*
X035780Y042640D03*
X035780Y042240D03*
X035780Y041840D03*
X035780Y041440D03*
X035780Y041040D03*
X036180Y041040D03*
X036180Y041440D03*
X036180Y041840D03*
X036180Y042240D03*
X036180Y042640D03*
X036180Y043040D03*
X036180Y040340D03*
X036180Y039840D03*
X036180Y039340D03*
X036180Y038840D03*
X036180Y038340D03*
X036180Y037840D03*
X036180Y037340D03*
X036180Y036840D03*
X036180Y036340D03*
X036180Y035840D03*
X035780Y035340D03*
X035380Y034940D03*
X034880Y034940D03*
X034380Y034940D03*
X033880Y035140D03*
X033280Y035140D03*
X032880Y034940D03*
X037980Y033640D03*
X038380Y033640D03*
X039480Y035140D03*
X039480Y035840D03*
X040780Y031240D03*
X040780Y030840D03*
X040580Y030140D03*
X038480Y028340D03*
X036180Y030340D03*
X035580Y030840D03*
X043480Y026340D03*
X044380Y023840D03*
X044380Y023240D03*
X047180Y033840D03*
X047180Y034240D03*
X046780Y034240D03*
X047580Y033840D03*
X032080Y041690D03*
X029580Y044540D03*
X025180Y044740D03*
X025180Y044140D03*
X025180Y045340D03*
X025480Y038040D03*
X025880Y038040D03*
X026280Y038040D03*
X026280Y037440D03*
X025880Y037440D03*
X025480Y037440D03*
X038880Y046940D03*
X039480Y046640D03*
X022780Y017340D03*
X022280Y017340D03*
X021780Y017340D03*
X021280Y017340D03*
D19*
X022563Y015610D02*
X027629Y015610D01*
X027492Y015747D02*
X027892Y015347D01*
X027987Y015252D01*
X028112Y015200D01*
X028848Y015200D01*
X028920Y015230D01*
X029121Y015230D01*
X029122Y015229D01*
X029169Y015209D01*
X028892Y014933D01*
X028840Y014808D01*
X028840Y014161D01*
X027973Y015028D01*
X027848Y015080D01*
X027712Y015080D01*
X027587Y015028D01*
X027492Y014933D01*
X027440Y014808D01*
X027440Y014672D01*
X027492Y014547D01*
X027987Y014052D01*
X026578Y014290D01*
X025028Y014682D01*
X023515Y015198D01*
X022048Y015833D01*
X020637Y016586D01*
X019292Y017449D01*
X018646Y017920D01*
X018592Y017961D01*
X018533Y018006D01*
X019021Y018500D01*
X019068Y018547D01*
X019069Y018548D01*
X019069Y018549D01*
X019095Y018611D01*
X019120Y018672D01*
X019120Y018674D01*
X019120Y018675D01*
X019120Y018741D01*
X019120Y019608D01*
X019068Y019733D01*
X018973Y019828D01*
X018373Y020428D01*
X018248Y020480D01*
X018240Y020480D01*
X018278Y020518D01*
X018339Y020666D01*
X018339Y020826D01*
X018278Y020974D01*
X018276Y020975D01*
X018276Y021215D01*
X018281Y021204D01*
X018394Y021091D01*
X018542Y021029D01*
X018702Y021029D01*
X018850Y021091D01*
X018964Y021204D01*
X019025Y021352D01*
X019025Y021512D01*
X018966Y021654D01*
X019108Y021595D01*
X019268Y021595D01*
X019416Y021656D01*
X019529Y021770D01*
X019591Y021918D01*
X019591Y022078D01*
X019529Y022226D01*
X019416Y022339D01*
X019268Y022400D01*
X019108Y022400D01*
X018960Y022339D01*
X018847Y022226D01*
X018786Y022078D01*
X018786Y021918D01*
X018844Y021776D01*
X018702Y021834D01*
X018542Y021834D01*
X018394Y021773D01*
X018281Y021660D01*
X018276Y021649D01*
X018276Y023656D01*
X019573Y024952D01*
X019594Y024973D01*
X019634Y024876D01*
X019716Y024794D01*
X019822Y024750D01*
X019938Y024750D01*
X020044Y024794D01*
X020126Y024876D01*
X020170Y024982D01*
X020170Y025098D01*
X020126Y025204D01*
X020044Y025286D01*
X019938Y025330D01*
X019822Y025330D01*
X019720Y025288D01*
X019720Y025808D01*
X019668Y025933D01*
X019173Y026428D01*
X019048Y026480D01*
X018912Y026480D01*
X018787Y026428D01*
X018692Y026333D01*
X018640Y026208D01*
X018640Y026072D01*
X018692Y025947D01*
X019040Y025599D01*
X019040Y025381D01*
X017648Y023989D01*
X017596Y023864D01*
X017596Y020975D01*
X017595Y020974D01*
X017534Y020826D01*
X017534Y020680D01*
X017212Y020680D01*
X017087Y020628D01*
X016720Y020261D01*
X016720Y021508D01*
X016668Y021633D01*
X017596Y021633D01*
X017596Y021475D02*
X016720Y021475D01*
X016720Y021316D02*
X017596Y021316D01*
X017596Y021158D02*
X016720Y021158D01*
X016720Y020999D02*
X017596Y020999D01*
X017540Y020841D02*
X016720Y020841D01*
X016720Y020682D02*
X017534Y020682D01*
X016983Y020524D02*
X016720Y020524D01*
X016720Y020365D02*
X016824Y020365D01*
X016040Y020470D02*
X016030Y020482D01*
X015091Y021783D01*
X014259Y023155D01*
X013540Y024590D01*
X012939Y026079D01*
X012460Y027611D01*
X012106Y029176D01*
X011977Y029968D01*
X011972Y030000D01*
X012748Y030000D01*
X012873Y030052D01*
X012968Y030147D01*
X013618Y030797D01*
X013670Y030922D01*
X013670Y031908D01*
X013618Y032033D01*
X013583Y032068D01*
X013590Y032068D01*
X013738Y032129D01*
X013851Y032242D01*
X013912Y032390D01*
X013912Y032550D01*
X013851Y032698D01*
X013738Y032811D01*
X013590Y032872D01*
X013430Y032872D01*
X013282Y032811D01*
X013169Y032698D01*
X013120Y032580D01*
X013120Y032708D01*
X013068Y032833D01*
X012973Y032928D01*
X012848Y032980D01*
X012321Y032980D01*
X011938Y033362D01*
X011952Y033472D01*
X012481Y034000D01*
X012948Y034000D01*
X013073Y034052D01*
X013168Y034147D01*
X013220Y034272D01*
X013220Y034408D01*
X013168Y034533D01*
X013073Y034628D01*
X012994Y034661D01*
X013051Y034719D01*
X013100Y034836D01*
X013100Y034964D01*
X013051Y035081D01*
X012961Y035171D01*
X012844Y035220D01*
X012716Y035220D01*
X012599Y035171D01*
X012509Y035081D01*
X012460Y034964D01*
X012460Y034836D01*
X012509Y034719D01*
X012547Y034680D01*
X012272Y034680D01*
X012179Y034641D01*
X012521Y036049D01*
X013031Y037662D01*
X013100Y037836D01*
X013100Y037785D01*
X013219Y037498D01*
X013438Y037279D01*
X013725Y037160D01*
X014035Y037160D01*
X014322Y037279D01*
X014541Y037498D01*
X014660Y037785D01*
X014660Y038095D01*
X014541Y038382D01*
X014322Y038601D01*
X014035Y038720D01*
X013725Y038720D01*
X013438Y038601D01*
X013378Y038541D01*
X013652Y039236D01*
X014380Y040764D01*
X015211Y042238D01*
X019837Y042238D01*
X019858Y042229D02*
X020018Y042229D01*
X020166Y042291D01*
X020279Y042404D01*
X020340Y042552D01*
X020340Y042712D01*
X020279Y042860D01*
X020166Y042973D01*
X020018Y043034D01*
X019858Y043034D01*
X019716Y042976D01*
X019774Y043118D01*
X019774Y043278D01*
X019713Y043426D01*
X019600Y043539D01*
X019452Y043600D01*
X019292Y043600D01*
X019144Y043539D01*
X019031Y043426D01*
X018969Y043278D01*
X018969Y043118D01*
X019031Y042970D01*
X019144Y042856D01*
X019292Y042795D01*
X019452Y042795D01*
X019594Y042854D01*
X019535Y042712D01*
X019535Y042552D01*
X019596Y042404D01*
X019710Y042291D01*
X019858Y042229D01*
X020038Y042238D02*
X020346Y042238D01*
X020396Y042287D02*
X020282Y042174D01*
X020221Y042026D01*
X020221Y041866D01*
X020282Y041718D01*
X020396Y041605D01*
X020543Y041544D01*
X020704Y041544D01*
X020851Y041605D01*
X020965Y041718D01*
X021026Y041866D01*
X021026Y042026D01*
X020965Y042174D01*
X020851Y042287D01*
X020704Y042349D01*
X020543Y042349D01*
X020396Y042287D01*
X020271Y042397D02*
X023626Y042397D01*
X023634Y042376D02*
X023716Y042294D01*
X023726Y042290D01*
X023716Y042286D01*
X023634Y042204D01*
X023590Y042098D01*
X023590Y041982D01*
X023634Y041876D01*
X023716Y041794D01*
X023726Y041790D01*
X023716Y041786D01*
X023634Y041704D01*
X023590Y041598D01*
X023590Y041482D01*
X023634Y041376D01*
X023716Y041294D01*
X023726Y041290D01*
X023716Y041286D01*
X023634Y041204D01*
X023590Y041098D01*
X023590Y040982D01*
X023634Y040876D01*
X023716Y040794D01*
X023726Y040790D01*
X023716Y040786D01*
X023634Y040704D01*
X023590Y040598D01*
X023590Y040482D01*
X023634Y040376D01*
X023716Y040294D01*
X023726Y040290D01*
X023716Y040286D01*
X023634Y040204D01*
X023590Y040098D01*
X023590Y039982D01*
X023634Y039876D01*
X023716Y039794D01*
X023822Y039750D01*
X023938Y039750D01*
X024044Y039794D01*
X024126Y039876D01*
X024130Y039886D01*
X024134Y039876D01*
X024216Y039794D01*
X024322Y039750D01*
X024438Y039750D01*
X024544Y039794D01*
X024626Y039876D01*
X024630Y039886D01*
X024634Y039876D01*
X024716Y039794D01*
X024822Y039750D01*
X024938Y039750D01*
X025044Y039794D01*
X025126Y039876D01*
X025130Y039886D01*
X025134Y039876D01*
X025216Y039794D01*
X025322Y039750D01*
X025438Y039750D01*
X025544Y039794D01*
X025626Y039876D01*
X025630Y039886D01*
X025634Y039876D01*
X025716Y039794D01*
X025822Y039750D01*
X025938Y039750D01*
X026044Y039794D01*
X026126Y039876D01*
X026130Y039886D01*
X026134Y039876D01*
X026216Y039794D01*
X026322Y039750D01*
X026438Y039750D01*
X026544Y039794D01*
X026626Y039876D01*
X026630Y039886D01*
X026634Y039876D01*
X026716Y039794D01*
X026822Y039750D01*
X026938Y039750D01*
X027044Y039794D01*
X027126Y039876D01*
X027130Y039886D01*
X027134Y039876D01*
X027216Y039794D01*
X027322Y039750D01*
X027438Y039750D01*
X027544Y039794D01*
X027626Y039876D01*
X027670Y039982D01*
X027670Y040098D01*
X027626Y040204D01*
X027544Y040286D01*
X027534Y040290D01*
X027544Y040294D01*
X027626Y040376D01*
X027670Y040482D01*
X027670Y040598D01*
X027626Y040704D01*
X027544Y040786D01*
X027534Y040790D01*
X027544Y040794D01*
X027626Y040876D01*
X027670Y040982D01*
X027670Y041098D01*
X027626Y041204D01*
X027544Y041286D01*
X027534Y041290D01*
X027544Y041294D01*
X027626Y041376D01*
X027670Y041482D01*
X027670Y041598D01*
X027626Y041704D01*
X027544Y041786D01*
X027534Y041790D01*
X027544Y041794D01*
X027626Y041876D01*
X027670Y041982D01*
X027670Y042098D01*
X027626Y042204D01*
X027544Y042286D01*
X027534Y042290D01*
X027544Y042294D01*
X027626Y042376D01*
X027670Y042482D01*
X027670Y042598D01*
X027626Y042704D01*
X027544Y042786D01*
X027534Y042790D01*
X027544Y042794D01*
X027626Y042876D01*
X027670Y042982D01*
X027670Y043098D01*
X027626Y043204D01*
X027544Y043286D01*
X027534Y043290D01*
X027544Y043294D01*
X027626Y043376D01*
X027670Y043482D01*
X027670Y043598D01*
X027626Y043704D01*
X027544Y043786D01*
X027438Y043830D01*
X027322Y043830D01*
X027216Y043786D01*
X027134Y043704D01*
X027130Y043694D01*
X027126Y043704D01*
X027044Y043786D01*
X026938Y043830D01*
X026822Y043830D01*
X026716Y043786D01*
X026634Y043704D01*
X026630Y043694D01*
X026626Y043704D01*
X026544Y043786D01*
X026438Y043830D01*
X026322Y043830D01*
X026216Y043786D01*
X026134Y043704D01*
X026130Y043694D01*
X026126Y043704D01*
X026044Y043786D01*
X025938Y043830D01*
X025822Y043830D01*
X025716Y043786D01*
X025634Y043704D01*
X025630Y043694D01*
X025626Y043704D01*
X025544Y043786D01*
X025438Y043830D01*
X025322Y043830D01*
X025216Y043786D01*
X025134Y043704D01*
X025130Y043694D01*
X025126Y043704D01*
X025044Y043786D01*
X024938Y043830D01*
X024822Y043830D01*
X024716Y043786D01*
X024634Y043704D01*
X024630Y043694D01*
X024626Y043704D01*
X024544Y043786D01*
X024438Y043830D01*
X024322Y043830D01*
X024216Y043786D01*
X024134Y043704D01*
X024130Y043694D01*
X024126Y043704D01*
X024044Y043786D01*
X023938Y043830D01*
X023822Y043830D01*
X023716Y043786D01*
X023634Y043704D01*
X023590Y043598D01*
X023590Y043482D01*
X023634Y043376D01*
X023716Y043294D01*
X023726Y043290D01*
X023716Y043286D01*
X023634Y043204D01*
X023590Y043098D01*
X023590Y042982D01*
X023634Y042876D01*
X023716Y042794D01*
X023726Y042790D01*
X023716Y042786D01*
X023634Y042704D01*
X023590Y042598D01*
X023590Y042482D01*
X023634Y042376D01*
X023668Y042238D02*
X020901Y042238D01*
X021004Y042080D02*
X023590Y042080D01*
X023615Y041921D02*
X021026Y041921D01*
X020983Y041763D02*
X023692Y041763D01*
X023593Y041604D02*
X020850Y041604D01*
X020907Y041163D02*
X020580Y041163D01*
X020278Y041038D01*
X020046Y040807D01*
X019921Y040505D01*
X019921Y040177D01*
X020046Y039875D01*
X020278Y039644D01*
X020580Y039518D01*
X020907Y039518D01*
X021210Y039644D01*
X021441Y039875D01*
X021566Y040177D01*
X021566Y040505D01*
X021441Y040807D01*
X021210Y041038D01*
X020907Y041163D01*
X020991Y041129D02*
X023603Y041129D01*
X023595Y040970D02*
X021278Y040970D01*
X021436Y040812D02*
X023698Y040812D01*
X023613Y040653D02*
X021505Y040653D01*
X021566Y040495D02*
X023590Y040495D01*
X023674Y040336D02*
X021566Y040336D01*
X021566Y040178D02*
X023623Y040178D01*
X023590Y040019D02*
X021501Y040019D01*
X021427Y039861D02*
X023649Y039861D01*
X024111Y039861D02*
X024149Y039861D01*
X024434Y039604D02*
X024390Y039498D01*
X024390Y039382D01*
X024434Y039276D01*
X024516Y039194D01*
X024622Y039150D01*
X024738Y039150D01*
X024844Y039194D01*
X024926Y039276D01*
X024930Y039286D01*
X024934Y039276D01*
X025016Y039194D01*
X025122Y039150D01*
X025238Y039150D01*
X025344Y039194D01*
X025426Y039276D01*
X025430Y039286D01*
X025434Y039276D01*
X025516Y039194D01*
X025622Y039150D01*
X025738Y039150D01*
X025844Y039194D01*
X025926Y039276D01*
X025930Y039286D01*
X025934Y039276D01*
X026016Y039194D01*
X026122Y039150D01*
X026238Y039150D01*
X026344Y039194D01*
X026426Y039276D01*
X026430Y039286D01*
X026434Y039276D01*
X026516Y039194D01*
X026622Y039150D01*
X026738Y039150D01*
X026844Y039194D01*
X026926Y039276D01*
X026970Y039382D01*
X026970Y039498D01*
X026926Y039604D01*
X026844Y039686D01*
X026738Y039730D01*
X026622Y039730D01*
X026516Y039686D01*
X026434Y039604D01*
X026430Y039594D01*
X026426Y039604D01*
X026344Y039686D01*
X026238Y039730D01*
X026122Y039730D01*
X026016Y039686D01*
X025934Y039604D01*
X025930Y039594D01*
X025926Y039604D01*
X025844Y039686D01*
X025738Y039730D01*
X025622Y039730D01*
X025516Y039686D01*
X025434Y039604D01*
X025430Y039594D01*
X025426Y039604D01*
X025344Y039686D01*
X025238Y039730D01*
X025122Y039730D01*
X025016Y039686D01*
X024934Y039604D01*
X024930Y039594D01*
X024926Y039604D01*
X024844Y039686D01*
X024738Y039730D01*
X024622Y039730D01*
X024516Y039686D01*
X024434Y039604D01*
X024409Y039544D02*
X020968Y039544D01*
X021268Y039702D02*
X024555Y039702D01*
X024611Y039861D02*
X024649Y039861D01*
X024805Y039702D02*
X025055Y039702D01*
X025111Y039861D02*
X025149Y039861D01*
X025305Y039702D02*
X025555Y039702D01*
X025611Y039861D02*
X025649Y039861D01*
X025805Y039702D02*
X026055Y039702D01*
X026111Y039861D02*
X026149Y039861D01*
X026305Y039702D02*
X026555Y039702D01*
X026611Y039861D02*
X026649Y039861D01*
X026805Y039702D02*
X042340Y039702D01*
X042340Y039544D02*
X026951Y039544D01*
X026970Y039385D02*
X042340Y039385D01*
X042340Y039227D02*
X026877Y039227D01*
X026838Y039030D02*
X026722Y039030D01*
X026616Y038986D01*
X026534Y038904D01*
X026490Y038798D01*
X026490Y038682D01*
X026534Y038576D01*
X026616Y038494D01*
X026626Y038490D01*
X026616Y038486D01*
X026534Y038404D01*
X026490Y038298D01*
X026490Y038240D01*
X026444Y038286D01*
X026338Y038330D01*
X026222Y038330D01*
X026116Y038286D01*
X026080Y038250D01*
X026044Y038286D01*
X025938Y038330D01*
X025822Y038330D01*
X025716Y038286D01*
X025680Y038250D01*
X025644Y038286D01*
X025538Y038330D01*
X025422Y038330D01*
X025316Y038286D01*
X025270Y038240D01*
X025270Y038298D01*
X025226Y038404D01*
X025144Y038486D01*
X025134Y038490D01*
X025144Y038494D01*
X025226Y038576D01*
X025270Y038682D01*
X025270Y038798D01*
X025226Y038904D01*
X025144Y038986D01*
X025038Y039030D01*
X024922Y039030D01*
X024816Y038986D01*
X024734Y038904D01*
X024690Y038798D01*
X024690Y038682D01*
X024734Y038576D01*
X024816Y038494D01*
X024826Y038490D01*
X024816Y038486D01*
X024734Y038404D01*
X024690Y038298D01*
X024690Y038182D01*
X024734Y038076D01*
X024816Y037994D01*
X024826Y037990D01*
X024816Y037986D01*
X024734Y037904D01*
X024690Y037798D01*
X024690Y037682D01*
X024734Y037576D01*
X024816Y037494D01*
X024826Y037490D01*
X024816Y037486D01*
X024734Y037404D01*
X024690Y037298D01*
X024690Y037182D01*
X024734Y037076D01*
X024816Y036994D01*
X024826Y036990D01*
X024816Y036986D01*
X024734Y036904D01*
X024690Y036798D01*
X024690Y036682D01*
X024734Y036576D01*
X024816Y036494D01*
X024922Y036450D01*
X025038Y036450D01*
X025110Y036480D01*
X025034Y036404D01*
X024990Y036298D01*
X024990Y036182D01*
X025034Y036076D01*
X025116Y035994D01*
X025222Y035950D01*
X025338Y035950D01*
X025444Y035994D01*
X025480Y036030D01*
X025516Y035994D01*
X025622Y035950D01*
X025738Y035950D01*
X025844Y035994D01*
X025880Y036030D01*
X025916Y035994D01*
X026022Y035950D01*
X026138Y035950D01*
X026244Y035994D01*
X026280Y036030D01*
X026316Y035994D01*
X026422Y035950D01*
X026538Y035950D01*
X026644Y035994D01*
X026726Y036076D01*
X026770Y036182D01*
X026770Y036298D01*
X026726Y036404D01*
X026650Y036480D01*
X026722Y036450D01*
X026838Y036450D01*
X026944Y036494D01*
X027026Y036576D01*
X027070Y036682D01*
X027070Y036798D01*
X027026Y036904D01*
X026944Y036986D01*
X026934Y036990D01*
X026944Y036994D01*
X027026Y037076D01*
X027070Y037182D01*
X027070Y037298D01*
X027026Y037404D01*
X026944Y037486D01*
X026934Y037490D01*
X026944Y037494D01*
X027026Y037576D01*
X027070Y037682D01*
X027070Y037798D01*
X027026Y037904D01*
X026944Y037986D01*
X026934Y037990D01*
X026944Y037994D01*
X027026Y038076D01*
X027070Y038182D01*
X027070Y038298D01*
X027026Y038404D01*
X026944Y038486D01*
X026934Y038490D01*
X026944Y038494D01*
X027026Y038576D01*
X027070Y038682D01*
X027070Y038798D01*
X027026Y038904D01*
X026944Y038986D01*
X026838Y039030D01*
X027021Y038910D02*
X042430Y038910D01*
X042392Y038947D02*
X042487Y038852D01*
X042612Y038800D01*
X042748Y038800D01*
X042873Y038852D01*
X042968Y038947D01*
X043020Y039072D01*
X043020Y042308D01*
X042968Y042433D01*
X042873Y042528D01*
X042226Y043175D01*
X042226Y043214D01*
X042165Y043362D01*
X042051Y043475D01*
X041904Y043536D01*
X041743Y043536D01*
X041596Y043475D01*
X041482Y043362D01*
X041421Y043214D01*
X041421Y043054D01*
X041482Y042906D01*
X041596Y042793D01*
X041682Y042757D01*
X042340Y042099D01*
X042340Y041720D01*
X042244Y041760D01*
X042152Y041760D01*
X042200Y041876D01*
X042200Y042004D01*
X042151Y042121D01*
X042061Y042211D01*
X041944Y042260D01*
X041816Y042260D01*
X041699Y042211D01*
X041609Y042121D01*
X041560Y042004D01*
X041560Y041876D01*
X041609Y041759D01*
X041699Y041669D01*
X041816Y041620D01*
X041908Y041620D01*
X041860Y041504D01*
X041860Y041376D01*
X041909Y041259D01*
X041999Y041169D01*
X042116Y041120D01*
X042244Y041120D01*
X042340Y041160D01*
X042340Y039072D01*
X042392Y038947D01*
X042342Y039068D02*
X015294Y039068D01*
X015294Y039104D02*
X015245Y039221D01*
X015155Y039311D01*
X015037Y039360D01*
X014910Y039360D01*
X014792Y039311D01*
X014702Y039221D01*
X014654Y039104D01*
X014654Y038976D01*
X014702Y038859D01*
X014771Y038790D01*
X014702Y038721D01*
X014654Y038604D01*
X014654Y038476D01*
X014702Y038359D01*
X014792Y038269D01*
X014910Y038220D01*
X015037Y038220D01*
X015155Y038269D01*
X015245Y038359D01*
X015294Y038476D01*
X015294Y038604D01*
X015245Y038721D01*
X015176Y038790D01*
X015245Y038859D01*
X015294Y038976D01*
X015294Y039104D01*
X015240Y039227D02*
X024483Y039227D01*
X024390Y039385D02*
X013723Y039385D01*
X013648Y039227D02*
X014708Y039227D01*
X014654Y039068D02*
X013586Y039068D01*
X013523Y038910D02*
X014681Y038910D01*
X014732Y038751D02*
X013461Y038751D01*
X013429Y038593D02*
X013398Y038593D01*
X013100Y037800D02*
X013086Y037800D01*
X013025Y037642D02*
X013159Y037642D01*
X013234Y037483D02*
X012975Y037483D01*
X012925Y037325D02*
X013392Y037325D01*
X013710Y037166D02*
X012874Y037166D01*
X012824Y037008D02*
X024202Y037008D01*
X024216Y036994D02*
X024226Y036990D01*
X024216Y036986D01*
X024134Y036904D01*
X024090Y036798D01*
X024090Y036682D01*
X024134Y036576D01*
X024216Y036494D01*
X024322Y036450D01*
X024438Y036450D01*
X024544Y036494D01*
X024626Y036576D01*
X024670Y036682D01*
X024670Y036798D01*
X024626Y036904D01*
X024544Y036986D01*
X024534Y036990D01*
X024544Y036994D01*
X024626Y037076D01*
X024670Y037182D01*
X024670Y037298D01*
X024626Y037404D01*
X024544Y037486D01*
X024534Y037490D01*
X024544Y037494D01*
X024626Y037576D01*
X024670Y037682D01*
X024670Y037798D01*
X024626Y037904D01*
X024544Y037986D01*
X024534Y037990D01*
X024544Y037994D01*
X024626Y038076D01*
X024670Y038182D01*
X024670Y038298D01*
X024626Y038404D01*
X024544Y038486D01*
X024534Y038490D01*
X024544Y038494D01*
X024626Y038576D01*
X024670Y038682D01*
X024670Y038798D01*
X024626Y038904D01*
X024544Y038986D01*
X024438Y039030D01*
X024322Y039030D01*
X024216Y038986D01*
X024134Y038904D01*
X024090Y038798D01*
X024090Y038682D01*
X024134Y038576D01*
X024216Y038494D01*
X024226Y038490D01*
X024216Y038486D01*
X024134Y038404D01*
X024090Y038298D01*
X024090Y038182D01*
X024134Y038076D01*
X024216Y037994D01*
X024226Y037990D01*
X024216Y037986D01*
X024134Y037904D01*
X024090Y037798D01*
X024090Y037682D01*
X024134Y037576D01*
X024216Y037494D01*
X024226Y037490D01*
X024216Y037486D01*
X024134Y037404D01*
X024090Y037298D01*
X024090Y037182D01*
X024134Y037076D01*
X024216Y036994D01*
X024111Y036849D02*
X012774Y036849D01*
X012724Y036691D02*
X024090Y036691D01*
X024178Y036532D02*
X012674Y036532D01*
X012623Y036374D02*
X018371Y036374D01*
X018410Y036390D02*
X018282Y036337D01*
X018183Y036238D01*
X018130Y036110D01*
X018130Y035970D01*
X018183Y035842D01*
X018282Y035743D01*
X018410Y035690D01*
X018550Y035690D01*
X018678Y035743D01*
X018777Y035842D01*
X018830Y035970D01*
X018830Y036110D01*
X018777Y036238D01*
X018678Y036337D01*
X018550Y036390D01*
X018410Y036390D01*
X018589Y036374D02*
X025021Y036374D01*
X024990Y036215D02*
X018786Y036215D01*
X018830Y036057D02*
X025053Y036057D01*
X024778Y036532D02*
X024582Y036532D01*
X024670Y036691D02*
X024690Y036691D01*
X024711Y036849D02*
X024649Y036849D01*
X024558Y037008D02*
X024802Y037008D01*
X024697Y037166D02*
X024663Y037166D01*
X024659Y037325D02*
X024701Y037325D01*
X024813Y037483D02*
X024547Y037483D01*
X024653Y037642D02*
X024707Y037642D01*
X024691Y037800D02*
X024669Y037800D01*
X024572Y037959D02*
X024788Y037959D01*
X024717Y038117D02*
X024643Y038117D01*
X024670Y038276D02*
X024690Y038276D01*
X024764Y038434D02*
X024596Y038434D01*
X024633Y038593D02*
X024727Y038593D01*
X024690Y038751D02*
X024670Y038751D01*
X024621Y038910D02*
X024739Y038910D01*
X024877Y039227D02*
X024983Y039227D01*
X025377Y039227D02*
X025483Y039227D01*
X025877Y039227D02*
X025983Y039227D01*
X026377Y039227D02*
X026483Y039227D01*
X026539Y038910D02*
X025221Y038910D01*
X025270Y038751D02*
X026490Y038751D01*
X026527Y038593D02*
X025233Y038593D01*
X025196Y038434D02*
X026564Y038434D01*
X026490Y038276D02*
X026455Y038276D01*
X026105Y038276D02*
X026055Y038276D01*
X025705Y038276D02*
X025655Y038276D01*
X025305Y038276D02*
X025270Y038276D01*
X024164Y038434D02*
X015276Y038434D01*
X015294Y038593D02*
X024127Y038593D01*
X024090Y038751D02*
X015215Y038751D01*
X015266Y038910D02*
X024139Y038910D01*
X024090Y038276D02*
X015162Y038276D01*
X014786Y038276D02*
X014585Y038276D01*
X014651Y038117D02*
X024117Y038117D01*
X024188Y037959D02*
X014660Y037959D01*
X014660Y037800D02*
X024091Y037800D01*
X024107Y037642D02*
X017631Y037642D01*
X017651Y037621D02*
X017561Y037711D01*
X017444Y037760D01*
X017316Y037760D01*
X017199Y037711D01*
X017180Y037693D01*
X017161Y037711D01*
X017044Y037760D01*
X016916Y037760D01*
X016799Y037711D01*
X016709Y037621D01*
X016660Y037504D01*
X016660Y037376D01*
X016709Y037259D01*
X016799Y037169D01*
X016916Y037120D01*
X017044Y037120D01*
X017161Y037169D01*
X017180Y037187D01*
X017199Y037169D01*
X017316Y037120D01*
X017444Y037120D01*
X017561Y037169D01*
X017651Y037259D01*
X017700Y037376D01*
X017700Y037504D01*
X017651Y037621D01*
X017700Y037483D02*
X024213Y037483D01*
X024101Y037325D02*
X017679Y037325D01*
X017555Y037166D02*
X024097Y037166D01*
X026739Y036374D02*
X047324Y036374D01*
X047288Y036532D02*
X026982Y036532D01*
X027070Y036691D02*
X047253Y036691D01*
X047245Y036725D02*
X047559Y035329D01*
X047611Y035010D01*
X046314Y035010D01*
X046251Y035012D01*
X046247Y035010D01*
X046242Y035010D01*
X046184Y034986D01*
X046124Y034963D01*
X046121Y034960D01*
X046117Y034958D01*
X046073Y034913D01*
X046027Y034870D01*
X046025Y034866D01*
X046022Y034863D01*
X045997Y034804D01*
X045972Y034746D01*
X045972Y034742D01*
X045970Y034738D01*
X045970Y034674D01*
X045942Y033512D01*
X045940Y033508D01*
X045940Y033444D01*
X045938Y033381D01*
X045940Y033377D01*
X045940Y033295D01*
X045936Y033283D01*
X045940Y033228D01*
X045940Y033172D01*
X045945Y033161D01*
X045946Y033148D01*
X045971Y033099D01*
X045992Y033047D01*
X046001Y033039D01*
X046140Y032760D01*
X046140Y032061D01*
X045920Y032281D01*
X045920Y033908D01*
X045868Y034033D01*
X045173Y034728D01*
X045048Y034780D01*
X044312Y034780D01*
X044187Y034728D01*
X044092Y034633D01*
X044040Y034508D01*
X044040Y034372D01*
X044092Y034247D01*
X044187Y034152D01*
X044312Y034100D01*
X044839Y034100D01*
X045240Y033699D01*
X045240Y032072D01*
X045292Y031947D01*
X045387Y031852D01*
X045474Y031765D01*
X045360Y031812D01*
X045200Y031812D01*
X045052Y031751D01*
X044939Y031638D01*
X044880Y031496D01*
X044821Y031638D01*
X044708Y031751D01*
X044560Y031812D01*
X044400Y031812D01*
X044252Y031751D01*
X044139Y031638D01*
X044078Y031490D01*
X044078Y031330D01*
X044139Y031182D01*
X044252Y031069D01*
X044400Y031008D01*
X044560Y031008D01*
X044708Y031069D01*
X044821Y031182D01*
X044880Y031324D01*
X044939Y031182D01*
X045052Y031069D01*
X045200Y031008D01*
X045360Y031008D01*
X045508Y031069D01*
X045621Y031182D01*
X045682Y031330D01*
X045682Y031490D01*
X045635Y031604D01*
X045848Y031392D01*
X045848Y031330D01*
X045889Y031230D01*
X045075Y030416D01*
X045100Y030476D01*
X045100Y030604D01*
X045051Y030721D01*
X044961Y030811D01*
X044844Y030860D01*
X044716Y030860D01*
X044599Y030811D01*
X044509Y030721D01*
X044460Y030604D01*
X044460Y030476D01*
X044509Y030359D01*
X044599Y030269D01*
X044716Y030220D01*
X044844Y030220D01*
X044904Y030245D01*
X044639Y029980D01*
X042612Y029980D01*
X042487Y029928D01*
X041992Y029433D01*
X041972Y029385D01*
X041912Y029529D01*
X041769Y029672D01*
X041625Y029732D01*
X041629Y029750D01*
X041769Y029808D01*
X041912Y029951D01*
X041990Y030139D01*
X041990Y030341D01*
X041912Y030529D01*
X041785Y030656D01*
X041848Y031158D01*
X041856Y031165D01*
X041859Y031247D01*
X041869Y031329D01*
X041863Y031337D01*
X041879Y031740D01*
X042126Y031638D01*
X042454Y031638D01*
X042756Y031763D01*
X042987Y031994D01*
X043112Y032296D01*
X043112Y032624D01*
X042987Y032926D01*
X042756Y033157D01*
X042454Y033282D01*
X042126Y033282D01*
X041900Y033189D01*
X041900Y034531D01*
X041771Y034660D01*
X032962Y034660D01*
X033044Y034694D01*
X033126Y034776D01*
X033166Y034873D01*
X033222Y034850D01*
X033338Y034850D01*
X033444Y034894D01*
X033526Y034976D01*
X033570Y035082D01*
X033570Y035198D01*
X033526Y035304D01*
X033444Y035386D01*
X033338Y035430D01*
X033222Y035430D01*
X033116Y035386D01*
X033034Y035304D01*
X032994Y035207D01*
X032938Y035230D01*
X032822Y035230D01*
X032716Y035186D01*
X032634Y035104D01*
X032590Y034998D01*
X032590Y034882D01*
X032634Y034776D01*
X032716Y034694D01*
X032798Y034660D01*
X021062Y034660D01*
X021144Y034694D01*
X021226Y034776D01*
X021270Y034882D01*
X021270Y034998D01*
X021226Y035104D01*
X021144Y035186D01*
X021038Y035230D01*
X020922Y035230D01*
X020816Y035186D01*
X020734Y035104D01*
X020690Y034998D01*
X020690Y034882D01*
X020734Y034776D01*
X020816Y034694D01*
X020898Y034660D01*
X020755Y034660D01*
X020742Y034670D01*
X020684Y034662D01*
X020654Y034675D01*
X020619Y034660D01*
X020589Y034660D01*
X020583Y034655D01*
X020568Y034657D01*
X020554Y034645D01*
X020535Y034643D01*
X020518Y034621D01*
X020490Y034617D01*
X020479Y034602D01*
X020462Y034595D01*
X020451Y034569D01*
X020425Y034558D01*
X020418Y034541D01*
X020403Y034530D01*
X020399Y034502D01*
X020377Y034485D01*
X020375Y034466D01*
X020363Y034452D01*
X020365Y034437D01*
X020360Y034431D01*
X020360Y034401D01*
X020345Y034366D01*
X020358Y034336D01*
X020350Y034278D01*
X020360Y034265D01*
X020360Y029626D01*
X020356Y029621D01*
X020360Y029535D01*
X020360Y029449D01*
X020364Y029445D01*
X020391Y028817D01*
X020385Y028809D01*
X020395Y028728D01*
X020399Y028646D01*
X020407Y028639D01*
X020490Y028010D01*
X020484Y028001D01*
X020501Y027922D01*
X020512Y027841D01*
X020521Y027834D01*
X020658Y027215D01*
X020653Y027206D01*
X020677Y027128D01*
X020695Y027048D01*
X020704Y027042D01*
X020895Y026438D01*
X020891Y026428D01*
X020922Y026352D01*
X020946Y026275D01*
X020956Y026269D01*
X021199Y025684D01*
X021195Y025673D01*
X021233Y025601D01*
X021264Y025526D01*
X021274Y025522D01*
X021567Y024959D01*
X021565Y024949D01*
X021608Y024880D01*
X021646Y024808D01*
X021657Y024804D01*
X021997Y024270D01*
X021996Y024259D01*
X022045Y024194D01*
X022089Y024125D01*
X022100Y024123D01*
X022486Y023620D01*
X022485Y023609D01*
X022540Y023549D01*
X022590Y023484D01*
X022601Y023483D01*
X023029Y023016D01*
X023030Y023005D01*
X023090Y022950D01*
X023145Y022890D01*
X023156Y022889D01*
X023623Y022461D01*
X023624Y022450D01*
X023689Y022400D01*
X023749Y022345D01*
X023760Y022346D01*
X024263Y021960D01*
X024265Y021949D01*
X024334Y021905D01*
X024399Y021856D01*
X024410Y021857D01*
X024944Y021517D01*
X024948Y021506D01*
X025020Y021468D01*
X025089Y021425D01*
X025099Y021427D01*
X025662Y021134D01*
X025666Y021124D01*
X025741Y021093D01*
X025813Y021055D01*
X025824Y021059D01*
X026409Y020816D01*
X026415Y020806D01*
X026492Y020782D01*
X026568Y020751D01*
X026578Y020755D01*
X027182Y020564D01*
X027188Y020555D01*
X027268Y020537D01*
X027346Y020513D01*
X027355Y020518D01*
X027974Y020381D01*
X027981Y020372D01*
X028062Y020361D01*
X028141Y020344D01*
X028150Y020350D01*
X028779Y020267D01*
X028786Y020259D01*
X028868Y020255D01*
X028949Y020245D01*
X028957Y020251D01*
X029585Y020224D01*
X029589Y020220D01*
X029675Y020220D01*
X029761Y020216D01*
X029766Y020220D01*
X029794Y020220D01*
X029798Y020216D01*
X029885Y020220D01*
X029927Y020220D01*
X029703Y019996D01*
X029578Y019694D01*
X029578Y019366D01*
X029703Y019064D01*
X029934Y018833D01*
X030236Y018708D01*
X030564Y018708D01*
X030866Y018833D01*
X031097Y019064D01*
X031222Y019366D01*
X031222Y019694D01*
X031097Y019996D01*
X030866Y020227D01*
X030805Y020252D01*
X030873Y020261D01*
X030955Y020264D01*
X030962Y020272D01*
X031769Y020373D01*
X031778Y020367D01*
X031858Y020384D01*
X031940Y020394D01*
X031946Y020402D01*
X032743Y020569D01*
X032752Y020564D01*
X032831Y020588D01*
X032911Y020604D01*
X032917Y020613D01*
X033697Y020845D01*
X033707Y020841D01*
X033783Y020871D01*
X033862Y020895D01*
X033867Y020904D01*
X034625Y021200D01*
X034635Y021196D01*
X034708Y021232D01*
X034785Y021262D01*
X034789Y021272D01*
X035520Y021629D01*
X035531Y021627D01*
X035601Y021669D01*
X035675Y021705D01*
X035678Y021714D01*
X036377Y022131D01*
X036388Y022129D01*
X036454Y022177D01*
X036525Y022219D01*
X036527Y022229D01*
X037190Y022702D01*
X037200Y022701D01*
X037263Y022754D01*
X037330Y022802D01*
X037331Y022812D01*
X037953Y023338D01*
X037963Y023338D01*
X038021Y023396D01*
X038084Y023449D01*
X038085Y023460D01*
X038194Y023569D01*
X038194Y023375D01*
X038319Y023073D01*
X038550Y022842D01*
X038853Y022717D01*
X039180Y022717D01*
X039482Y022842D01*
X039714Y023073D01*
X039839Y023375D01*
X039839Y023703D01*
X039714Y024005D01*
X039482Y024236D01*
X039180Y024362D01*
X038946Y024362D01*
X039308Y024789D01*
X039318Y024790D01*
X039366Y024857D01*
X039419Y024920D01*
X039418Y024930D01*
X039891Y025593D01*
X039901Y025595D01*
X039943Y025666D01*
X039991Y025732D01*
X039989Y025743D01*
X040405Y026442D01*
X040415Y026445D01*
X040451Y026519D01*
X040493Y026589D01*
X040491Y026600D01*
X040848Y027331D01*
X040858Y027335D01*
X040888Y027412D01*
X040924Y027485D01*
X040920Y027495D01*
X041084Y027915D01*
X041191Y027808D01*
X041354Y027740D01*
X041191Y027672D01*
X041048Y027529D01*
X040970Y027341D01*
X040970Y027139D01*
X041048Y026951D01*
X041191Y026808D01*
X041379Y026730D01*
X041581Y026730D01*
X041769Y026808D01*
X041912Y026951D01*
X041990Y027139D01*
X041990Y027341D01*
X041912Y027529D01*
X041769Y027672D01*
X041606Y027740D01*
X041769Y027808D01*
X041912Y027951D01*
X041990Y028139D01*
X041990Y028252D01*
X041992Y028247D01*
X042087Y028152D01*
X042212Y028100D01*
X042348Y028100D01*
X042473Y028152D01*
X042568Y028247D01*
X042620Y028372D01*
X042620Y029099D01*
X042821Y029300D01*
X044848Y029300D01*
X044973Y029352D01*
X045068Y029447D01*
X045360Y029739D01*
X045360Y029676D01*
X045409Y029559D01*
X045499Y029469D01*
X045616Y029420D01*
X045744Y029420D01*
X045861Y029469D01*
X045951Y029559D01*
X046000Y029676D01*
X046000Y029804D01*
X045951Y029921D01*
X045861Y030011D01*
X045744Y030060D01*
X045681Y030060D01*
X046538Y030917D01*
X046590Y031042D01*
X046590Y031181D01*
X046591Y031182D01*
X046652Y031330D01*
X046652Y031342D01*
X046692Y031247D01*
X046987Y030952D01*
X047112Y030900D01*
X047639Y030900D01*
X047710Y030829D01*
X046883Y029919D01*
X046837Y029791D01*
X046844Y029656D01*
X046901Y029534D01*
X047001Y029443D01*
X047129Y029397D01*
X047264Y029404D01*
X047386Y029461D01*
X047725Y029834D01*
X047545Y028671D01*
X047205Y027233D01*
X046755Y025826D01*
X046196Y024459D01*
X046099Y024258D01*
X046068Y024333D01*
X045973Y024428D01*
X045673Y024728D01*
X045548Y024780D01*
X045412Y024780D01*
X045287Y024728D01*
X045192Y024633D01*
X044892Y024333D01*
X044840Y024208D01*
X044840Y024072D01*
X044892Y023947D01*
X044987Y023852D01*
X044670Y023852D01*
X044670Y023898D02*
X044626Y024004D01*
X044544Y024086D01*
X044438Y024130D01*
X044322Y024130D01*
X044216Y024086D01*
X044134Y024004D01*
X044090Y023898D01*
X044090Y023782D01*
X044134Y023676D01*
X044216Y023594D01*
X044322Y023550D01*
X044438Y023550D01*
X044544Y023594D01*
X044626Y023676D01*
X044670Y023782D01*
X044670Y023898D01*
X044620Y024011D02*
X044866Y024011D01*
X044840Y024169D02*
X041298Y024169D01*
X041320Y024222D02*
X041268Y024097D01*
X041173Y024002D01*
X041048Y023950D01*
X040912Y023950D01*
X040787Y024002D01*
X040692Y024097D01*
X040640Y024222D01*
X040640Y024358D01*
X040692Y024483D01*
X040787Y024578D01*
X040912Y024630D01*
X041048Y024630D01*
X041173Y024578D01*
X041268Y024483D01*
X041320Y024358D01*
X041320Y024222D01*
X041320Y024328D02*
X044890Y024328D01*
X045045Y024486D02*
X041265Y024486D01*
X041181Y024011D02*
X044140Y024011D01*
X044090Y023852D02*
X039777Y023852D01*
X039839Y023694D02*
X044127Y023694D01*
X044216Y023486D02*
X044322Y023530D01*
X044438Y023530D01*
X044544Y023486D01*
X044626Y023404D01*
X044670Y023298D01*
X044670Y023182D01*
X044626Y023076D01*
X044544Y022994D01*
X044438Y022950D01*
X044322Y022950D01*
X044216Y022994D01*
X044134Y023076D01*
X044090Y023182D01*
X044090Y023298D01*
X044134Y023404D01*
X044216Y023486D01*
X044123Y023377D02*
X039839Y023377D01*
X039839Y023535D02*
X045328Y023535D01*
X045287Y023552D02*
X045412Y023500D01*
X045427Y023500D01*
X045602Y023325D01*
X045626Y023315D01*
X045609Y023282D01*
X045024Y022286D01*
X044377Y021330D01*
X044064Y020912D01*
X044058Y020908D01*
X044025Y020861D01*
X043990Y020815D01*
X043987Y020805D01*
X043901Y020680D01*
X043721Y020680D01*
X043273Y021128D01*
X043148Y021180D01*
X042212Y021180D01*
X042087Y021128D01*
X041992Y021033D01*
X041992Y021033D01*
X041487Y020528D01*
X041392Y020433D01*
X041340Y020308D01*
X041340Y020300D01*
X041302Y020338D01*
X041154Y020399D01*
X040994Y020399D01*
X040846Y020338D01*
X040788Y020280D01*
X040468Y020280D01*
X040616Y020341D01*
X040729Y020454D01*
X040791Y020602D01*
X040791Y020762D01*
X040729Y020910D01*
X040616Y021024D01*
X040468Y021085D01*
X040308Y021085D01*
X040166Y021026D01*
X040225Y021168D01*
X040225Y021328D01*
X040164Y021476D01*
X040050Y021589D01*
X039902Y021651D01*
X039742Y021651D01*
X039594Y021589D01*
X039481Y021476D01*
X039420Y021328D01*
X039420Y021168D01*
X039481Y021020D01*
X039594Y020907D01*
X039659Y020880D01*
X039212Y020880D01*
X039087Y020828D01*
X038992Y020733D01*
X038139Y019880D01*
X035612Y019880D01*
X035487Y019828D01*
X035392Y019733D01*
X034892Y019233D01*
X034840Y019108D01*
X034840Y018972D01*
X034892Y018847D01*
X034987Y018752D01*
X035112Y018700D01*
X035248Y018700D01*
X035373Y018752D01*
X035821Y019200D01*
X038348Y019200D01*
X038473Y019252D01*
X039421Y020200D01*
X039539Y020200D01*
X039992Y019747D01*
X040087Y019652D01*
X040212Y019600D01*
X040979Y019600D01*
X040994Y019594D01*
X041154Y019594D01*
X041180Y019605D01*
X041140Y019508D01*
X041140Y019272D01*
X041192Y019147D01*
X041287Y019052D01*
X041287Y019052D01*
X041640Y018699D01*
X041640Y018381D01*
X041493Y018528D01*
X041368Y018580D01*
X040012Y018580D01*
X039887Y018528D01*
X039792Y018433D01*
X039740Y018308D01*
X039740Y018172D01*
X039792Y018047D01*
X039887Y017952D01*
X040012Y017900D01*
X041090Y017900D01*
X040378Y017376D01*
X039306Y016633D01*
X038980Y016470D01*
X038970Y016469D01*
X038920Y016440D01*
X038867Y016414D01*
X038861Y016406D01*
X038410Y016149D01*
X038420Y016172D01*
X038420Y016300D01*
X038548Y016300D01*
X038673Y016352D01*
X038768Y016447D01*
X038820Y016572D01*
X038820Y016708D01*
X038768Y016833D01*
X038673Y016928D01*
X038548Y016980D01*
X038412Y016980D01*
X038287Y016928D01*
X038192Y016833D01*
X038140Y016708D01*
X038140Y016580D01*
X038012Y016580D01*
X037887Y016528D01*
X037792Y016433D01*
X037740Y016308D01*
X037740Y016172D01*
X037792Y016047D01*
X037887Y015952D01*
X037973Y015916D01*
X037508Y015684D01*
X037448Y015654D01*
X036883Y015385D01*
X035723Y014912D01*
X034530Y014529D01*
X033312Y014238D01*
X032076Y014042D01*
X031820Y014016D01*
X031820Y014708D01*
X031768Y014833D01*
X031068Y015533D01*
X030973Y015628D01*
X030848Y015680D01*
X029912Y015680D01*
X029787Y015628D01*
X029752Y015593D01*
X029752Y015650D01*
X029691Y015798D01*
X029578Y015911D01*
X029430Y015972D01*
X029270Y015972D01*
X029122Y015911D01*
X029121Y015910D01*
X028742Y015910D01*
X028670Y015880D01*
X028321Y015880D01*
X028281Y015920D01*
X028344Y015920D01*
X028461Y015969D01*
X028530Y016037D01*
X028599Y015969D01*
X028716Y015920D01*
X028844Y015920D01*
X028961Y015969D01*
X029051Y016059D01*
X029100Y016176D01*
X029100Y016221D01*
X029122Y016199D01*
X029270Y016138D01*
X029430Y016138D01*
X029578Y016199D01*
X029691Y016312D01*
X029752Y016460D01*
X029752Y016620D01*
X029691Y016768D01*
X029578Y016881D01*
X029436Y016940D01*
X029578Y016999D01*
X029691Y017112D01*
X029752Y017260D01*
X029752Y017420D01*
X029691Y017568D01*
X029578Y017681D01*
X029430Y017742D01*
X029270Y017742D01*
X029122Y017681D01*
X029009Y017568D01*
X028948Y017420D01*
X028948Y017260D01*
X029009Y017112D01*
X029122Y016999D01*
X029264Y016940D01*
X029122Y016881D01*
X029009Y016768D01*
X028948Y016620D01*
X028948Y016517D01*
X028844Y016560D01*
X028716Y016560D01*
X028599Y016511D01*
X028530Y016443D01*
X028461Y016511D01*
X028344Y016560D01*
X028216Y016560D01*
X028120Y016520D01*
X028120Y019608D01*
X028068Y019733D01*
X027973Y019828D01*
X027848Y019880D01*
X027012Y019880D01*
X026887Y019828D01*
X026792Y019733D01*
X026740Y019608D01*
X026740Y019472D01*
X026792Y019347D01*
X026887Y019252D01*
X027012Y019200D01*
X027440Y019200D01*
X027440Y015872D01*
X027492Y015747D01*
X027483Y015769D02*
X026955Y015769D01*
X026951Y015759D02*
X027000Y015876D01*
X027000Y016004D01*
X026951Y016121D01*
X026861Y016211D01*
X026744Y016260D01*
X026616Y016260D01*
X026499Y016211D01*
X026480Y016193D01*
X026461Y016211D01*
X026344Y016260D01*
X026216Y016260D01*
X026099Y016211D01*
X026009Y016121D01*
X025960Y016004D01*
X025960Y015876D01*
X026009Y015759D01*
X026099Y015669D01*
X026216Y015620D01*
X026344Y015620D01*
X026461Y015669D01*
X026480Y015687D01*
X026499Y015669D01*
X026616Y015620D01*
X026744Y015620D01*
X026861Y015669D01*
X026951Y015759D01*
X027000Y015927D02*
X027440Y015927D01*
X027440Y016086D02*
X026966Y016086D01*
X026782Y016244D02*
X027440Y016244D01*
X027440Y016403D02*
X020981Y016403D01*
X021278Y016244D02*
X026178Y016244D01*
X026382Y016244D02*
X026578Y016244D01*
X025994Y016086D02*
X021575Y016086D01*
X021873Y015927D02*
X025960Y015927D01*
X026005Y015769D02*
X022198Y015769D01*
X022929Y015452D02*
X027788Y015452D01*
X027946Y015293D02*
X023295Y015293D01*
X023700Y015135D02*
X029094Y015135D01*
X028935Y014976D02*
X028025Y014976D01*
X028183Y014818D02*
X028844Y014818D01*
X028840Y014659D02*
X028342Y014659D01*
X028500Y014501D02*
X028840Y014501D01*
X028840Y014342D02*
X028659Y014342D01*
X028817Y014184D02*
X028840Y014184D01*
X027856Y014184D02*
X027208Y014184D01*
X027539Y014501D02*
X025745Y014501D01*
X025118Y014659D02*
X027446Y014659D01*
X027444Y014818D02*
X024630Y014818D01*
X024165Y014976D02*
X027535Y014976D01*
X027697Y014342D02*
X026371Y014342D01*
X028361Y015927D02*
X028699Y015927D01*
X028861Y015927D02*
X029160Y015927D01*
X029062Y016086D02*
X037776Y016086D01*
X037740Y016244D02*
X029623Y016244D01*
X029729Y016403D02*
X037779Y016403D01*
X037967Y016561D02*
X029752Y016561D01*
X029711Y016720D02*
X038145Y016720D01*
X038237Y016878D02*
X029581Y016878D01*
X029616Y017037D02*
X039888Y017037D01*
X040117Y017195D02*
X029726Y017195D01*
X029752Y017354D02*
X040345Y017354D01*
X040563Y017512D02*
X029714Y017512D01*
X029589Y017671D02*
X040778Y017671D01*
X040993Y017829D02*
X028120Y017829D01*
X028120Y017671D02*
X029111Y017671D01*
X028986Y017512D02*
X028120Y017512D01*
X028120Y017354D02*
X028948Y017354D01*
X028974Y017195D02*
X028120Y017195D01*
X028120Y017037D02*
X029084Y017037D01*
X029119Y016878D02*
X028120Y016878D01*
X028120Y016720D02*
X028989Y016720D01*
X028948Y016561D02*
X028120Y016561D01*
X027440Y016561D02*
X020683Y016561D01*
X020428Y016720D02*
X027440Y016720D01*
X027440Y016878D02*
X020181Y016878D01*
X019934Y017037D02*
X027440Y017037D01*
X027440Y017195D02*
X023034Y017195D01*
X023026Y017176D02*
X023070Y017282D01*
X023070Y017398D01*
X023026Y017504D01*
X022944Y017586D01*
X022838Y017630D01*
X022722Y017630D01*
X022616Y017586D01*
X022534Y017504D01*
X022530Y017494D01*
X022526Y017504D01*
X022444Y017586D01*
X022338Y017630D01*
X022222Y017630D01*
X022116Y017586D01*
X022034Y017504D01*
X022030Y017494D01*
X022026Y017504D01*
X021944Y017586D01*
X021838Y017630D01*
X021722Y017630D01*
X021616Y017586D01*
X021534Y017504D01*
X021530Y017494D01*
X021526Y017504D01*
X021444Y017586D01*
X021338Y017630D01*
X021222Y017630D01*
X021116Y017586D01*
X021034Y017504D01*
X020990Y017398D01*
X020990Y017282D01*
X021034Y017176D01*
X021116Y017094D01*
X021222Y017050D01*
X021338Y017050D01*
X021444Y017094D01*
X021526Y017176D01*
X021530Y017186D01*
X021534Y017176D01*
X021616Y017094D01*
X021722Y017050D01*
X021838Y017050D01*
X021944Y017094D01*
X022026Y017176D01*
X022030Y017186D01*
X022034Y017176D01*
X022116Y017094D01*
X022222Y017050D01*
X022338Y017050D01*
X022444Y017094D01*
X022526Y017176D01*
X022530Y017186D01*
X022534Y017176D01*
X022616Y017094D01*
X022722Y017050D01*
X022838Y017050D01*
X022944Y017094D01*
X023026Y017176D01*
X023070Y017354D02*
X027440Y017354D01*
X027440Y017512D02*
X023018Y017512D01*
X022542Y017512D02*
X022518Y017512D01*
X022042Y017512D02*
X022018Y017512D01*
X021542Y017512D02*
X021518Y017512D01*
X021042Y017512D02*
X019205Y017512D01*
X018988Y017671D02*
X027440Y017671D01*
X027440Y017829D02*
X018771Y017829D01*
X018592Y017961D02*
X018592Y017961D01*
X018558Y017988D02*
X027440Y017988D01*
X027440Y018146D02*
X018671Y018146D01*
X018828Y018305D02*
X027440Y018305D01*
X027440Y018463D02*
X018984Y018463D01*
X019099Y018622D02*
X027440Y018622D01*
X027440Y018780D02*
X019120Y018780D01*
X019120Y018939D02*
X027440Y018939D01*
X027440Y019097D02*
X019120Y019097D01*
X019120Y019256D02*
X026884Y019256D01*
X026764Y019414D02*
X019120Y019414D01*
X019120Y019573D02*
X026740Y019573D01*
X026791Y019731D02*
X019069Y019731D01*
X018911Y019890D02*
X029659Y019890D01*
X029593Y019731D02*
X028069Y019731D01*
X028120Y019573D02*
X029578Y019573D01*
X029578Y019414D02*
X028120Y019414D01*
X028120Y019256D02*
X029623Y019256D01*
X029689Y019097D02*
X028120Y019097D01*
X028120Y018939D02*
X029828Y018939D01*
X030061Y018780D02*
X028120Y018780D01*
X028120Y018622D02*
X029092Y018622D01*
X029122Y018651D02*
X029009Y018538D01*
X028948Y018390D01*
X028948Y018230D01*
X029009Y018082D01*
X029122Y017969D01*
X029270Y017908D01*
X029430Y017908D01*
X029578Y017969D01*
X029691Y018082D01*
X029752Y018230D01*
X029752Y018390D01*
X029691Y018538D01*
X029578Y018651D01*
X029430Y018712D01*
X029270Y018712D01*
X029122Y018651D01*
X028978Y018463D02*
X028120Y018463D01*
X028120Y018305D02*
X028948Y018305D01*
X028982Y018146D02*
X028120Y018146D01*
X028120Y017988D02*
X029103Y017988D01*
X029597Y017988D02*
X039852Y017988D01*
X039751Y018146D02*
X029718Y018146D01*
X029752Y018305D02*
X039740Y018305D01*
X039822Y018463D02*
X029722Y018463D01*
X029608Y018622D02*
X041640Y018622D01*
X041640Y018463D02*
X041558Y018463D01*
X041559Y018780D02*
X035401Y018780D01*
X035559Y018939D02*
X041401Y018939D01*
X041242Y019097D02*
X039390Y019097D01*
X039361Y019069D02*
X039451Y019159D01*
X039500Y019276D01*
X039500Y019327D01*
X039516Y019320D01*
X039644Y019320D01*
X039761Y019369D01*
X039851Y019459D01*
X039900Y019576D01*
X039900Y019704D01*
X039851Y019821D01*
X039761Y019911D01*
X039644Y019960D01*
X039516Y019960D01*
X039399Y019911D01*
X039309Y019821D01*
X039260Y019704D01*
X039260Y019653D01*
X039244Y019660D01*
X039116Y019660D01*
X038999Y019611D01*
X038909Y019521D01*
X038860Y019404D01*
X038860Y019276D01*
X038909Y019159D01*
X038999Y019069D01*
X039116Y019020D01*
X039244Y019020D01*
X039361Y019069D01*
X039491Y019256D02*
X041147Y019256D01*
X041140Y019414D02*
X039807Y019414D01*
X039898Y019573D02*
X041167Y019573D01*
X041236Y020365D02*
X041364Y020365D01*
X041483Y020524D02*
X040758Y020524D01*
X040791Y020682D02*
X041641Y020682D01*
X041487Y020528D02*
X041487Y020528D01*
X041800Y020841D02*
X040758Y020841D01*
X040641Y020999D02*
X041958Y020999D01*
X042158Y021158D02*
X040221Y021158D01*
X040225Y021316D02*
X044367Y021316D01*
X044475Y021475D02*
X040164Y021475D01*
X039945Y021633D02*
X044582Y021633D01*
X044690Y021792D02*
X039513Y021792D01*
X039539Y021854D02*
X039478Y021706D01*
X039364Y021593D01*
X039217Y021531D01*
X039056Y021531D01*
X038908Y021593D01*
X038795Y021706D01*
X038734Y021854D01*
X038734Y022014D01*
X038795Y022162D01*
X038908Y022275D01*
X039056Y022336D01*
X039217Y022336D01*
X039364Y022275D01*
X039478Y022162D01*
X039539Y022014D01*
X039539Y021854D01*
X039539Y021950D02*
X044797Y021950D01*
X044904Y022109D02*
X039500Y022109D01*
X039373Y022267D02*
X045011Y022267D01*
X045106Y022426D02*
X036802Y022426D01*
X036646Y022584D02*
X034888Y022584D01*
X034868Y022633D02*
X034373Y023128D01*
X034248Y023180D01*
X033543Y023180D01*
X033561Y023199D01*
X033610Y023316D01*
X033610Y023444D01*
X033561Y023561D01*
X033471Y023651D01*
X033354Y023700D01*
X033226Y023700D01*
X033109Y023651D01*
X033019Y023561D01*
X032970Y023444D01*
X032970Y023316D01*
X033019Y023199D01*
X033037Y023180D01*
X031912Y023180D01*
X031787Y023128D01*
X031692Y023033D01*
X031640Y022908D01*
X031640Y021072D01*
X031692Y020947D01*
X031787Y020852D01*
X032001Y020638D01*
X031822Y020601D01*
X030854Y020480D01*
X029880Y020440D01*
X029680Y020440D01*
X028887Y020475D01*
X028100Y020578D01*
X027325Y020750D01*
X026568Y020989D01*
X025834Y021293D01*
X025130Y021659D01*
X024460Y022086D01*
X023831Y022569D01*
X023245Y023105D01*
X022709Y023691D01*
X022226Y024320D01*
X021799Y024990D01*
X021433Y025694D01*
X021129Y026428D01*
X020890Y027185D01*
X020718Y027960D01*
X020615Y028747D01*
X020580Y029540D01*
X020580Y034340D01*
X020583Y034366D01*
X020593Y034390D01*
X020609Y034411D01*
X020630Y034427D01*
X020654Y034437D01*
X020680Y034440D01*
X028927Y034440D01*
X028909Y034421D01*
X028860Y034304D01*
X028860Y034176D01*
X028909Y034059D01*
X028999Y033969D01*
X029116Y033920D01*
X029244Y033920D01*
X029361Y033969D01*
X029451Y034059D01*
X029500Y034176D01*
X029500Y034304D01*
X029451Y034421D01*
X029433Y034440D01*
X036718Y034440D01*
X036604Y034325D01*
X036500Y034075D01*
X036500Y033805D01*
X036604Y033555D01*
X036795Y033364D01*
X037045Y033260D01*
X037315Y033260D01*
X037565Y033364D01*
X037718Y033516D01*
X037734Y033476D01*
X037816Y033394D01*
X037922Y033350D01*
X038038Y033350D01*
X038144Y033394D01*
X038180Y033430D01*
X038216Y033394D01*
X038322Y033350D01*
X038438Y033350D01*
X038544Y033394D01*
X038626Y033476D01*
X038670Y033582D01*
X038670Y033698D01*
X038626Y033804D01*
X038544Y033886D01*
X038438Y033930D01*
X038322Y033930D01*
X038216Y033886D01*
X038180Y033850D01*
X038144Y033886D01*
X038038Y033930D01*
X037922Y033930D01*
X037860Y033904D01*
X037860Y034075D01*
X037756Y034325D01*
X037642Y034440D01*
X041680Y034440D01*
X041680Y033013D01*
X041593Y032926D01*
X041468Y032624D01*
X041468Y032296D01*
X041593Y031994D01*
X041667Y031920D01*
X041640Y031266D01*
X041575Y030750D01*
X041379Y030750D01*
X041191Y030672D01*
X041048Y030529D01*
X040970Y030341D01*
X040970Y030139D01*
X041048Y029951D01*
X041191Y029808D01*
X041354Y029740D01*
X041191Y029672D01*
X041048Y029529D01*
X040970Y029341D01*
X040970Y029139D01*
X041048Y028951D01*
X041167Y028832D01*
X041089Y028570D01*
X041048Y028529D01*
X040970Y028341D01*
X040970Y028228D01*
X040686Y027500D01*
X040258Y026624D01*
X039759Y025786D01*
X039192Y024992D01*
X038562Y024248D01*
X037872Y023558D01*
X037128Y022928D01*
X036334Y022361D01*
X035496Y021862D01*
X034920Y021581D01*
X034920Y022508D01*
X034868Y022633D01*
X034758Y022743D02*
X036868Y022743D01*
X037024Y022584D02*
X045199Y022584D01*
X045292Y022743D02*
X039242Y022743D01*
X039541Y022901D02*
X045385Y022901D01*
X045478Y023060D02*
X044610Y023060D01*
X044670Y023218D02*
X045571Y023218D01*
X045551Y023377D02*
X044637Y023377D01*
X044633Y023694D02*
X045146Y023694D01*
X045192Y023647D02*
X045192Y023647D01*
X045287Y023552D01*
X045192Y023647D02*
X044987Y023852D01*
X045204Y024645D02*
X039186Y024645D01*
X039051Y024486D02*
X040695Y024486D01*
X040640Y024328D02*
X039262Y024328D01*
X039550Y024169D02*
X040662Y024169D01*
X040779Y024011D02*
X039708Y024011D01*
X039774Y023218D02*
X044090Y023218D01*
X044150Y023060D02*
X039700Y023060D01*
X038790Y022743D02*
X037249Y022743D01*
X037090Y022901D02*
X034600Y022901D01*
X034441Y023060D02*
X037283Y023060D01*
X037436Y022901D02*
X038491Y022901D01*
X038333Y023060D02*
X037623Y023060D01*
X037470Y023218D02*
X033569Y023218D01*
X033610Y023377D02*
X037657Y023377D01*
X037810Y023218D02*
X038259Y023218D01*
X038194Y023377D02*
X038001Y023377D01*
X037844Y023535D02*
X033572Y023535D01*
X033369Y023694D02*
X038007Y023694D01*
X038160Y023535D02*
X038194Y023535D01*
X038165Y023852D02*
X032680Y023852D01*
X032680Y023846D02*
X032631Y023729D01*
X032541Y023639D01*
X032424Y023590D01*
X032296Y023590D01*
X032179Y023639D01*
X032089Y023729D01*
X032040Y023846D01*
X032040Y023974D01*
X032089Y024091D01*
X032179Y024181D01*
X032296Y024230D01*
X032424Y024230D01*
X032541Y024181D01*
X032631Y024091D01*
X032680Y023974D01*
X032680Y023846D01*
X032665Y024011D02*
X038324Y024011D01*
X038482Y024169D02*
X032554Y024169D01*
X032454Y024260D02*
X032571Y024309D01*
X032661Y024399D01*
X032690Y024468D01*
X032719Y024399D01*
X032809Y024309D01*
X032926Y024260D01*
X033054Y024260D01*
X033171Y024309D01*
X033261Y024399D01*
X033269Y024418D01*
X033359Y024329D01*
X033476Y024280D01*
X033604Y024280D01*
X033721Y024329D01*
X033811Y024419D01*
X033860Y024536D01*
X033860Y024664D01*
X033811Y024781D01*
X033721Y024871D01*
X033604Y024920D01*
X033476Y024920D01*
X033359Y024871D01*
X033269Y024781D01*
X033261Y024762D01*
X033171Y024851D01*
X033054Y024900D01*
X032926Y024900D01*
X032809Y024851D01*
X032719Y024761D01*
X032690Y024692D01*
X032661Y024761D01*
X032571Y024851D01*
X032454Y024900D01*
X032326Y024900D01*
X032209Y024851D01*
X032119Y024761D01*
X032070Y024644D01*
X032070Y024516D01*
X032119Y024399D01*
X032209Y024309D01*
X032326Y024260D01*
X032454Y024260D01*
X032590Y024328D02*
X032790Y024328D01*
X033190Y024328D02*
X033362Y024328D01*
X033718Y024328D02*
X038629Y024328D01*
X038763Y024486D02*
X033839Y024486D01*
X033860Y024645D02*
X038897Y024645D01*
X039032Y024803D02*
X033790Y024803D01*
X033290Y024803D02*
X033220Y024803D01*
X032760Y024803D02*
X032620Y024803D01*
X032622Y025250D02*
X032738Y025250D01*
X032844Y025294D01*
X032926Y025376D01*
X032970Y025482D01*
X032970Y025572D01*
X033022Y025550D01*
X033138Y025550D01*
X033244Y025594D01*
X033326Y025676D01*
X033370Y025782D01*
X033370Y025898D01*
X033326Y026004D01*
X033244Y026086D01*
X033138Y026130D01*
X033022Y026130D01*
X032916Y026086D01*
X032834Y026004D01*
X032790Y025898D01*
X032790Y025808D01*
X032738Y025830D01*
X032622Y025830D01*
X032516Y025786D01*
X032434Y025704D01*
X032390Y025598D01*
X032390Y025482D01*
X032434Y025376D01*
X032516Y025294D01*
X032622Y025250D01*
X032553Y025279D02*
X032070Y025279D01*
X032070Y025298D02*
X032026Y025404D01*
X031944Y025486D01*
X031838Y025530D01*
X031722Y025530D01*
X031616Y025486D01*
X031534Y025404D01*
X031490Y025298D01*
X031490Y025230D01*
X031470Y025230D01*
X031470Y025298D01*
X031426Y025404D01*
X031344Y025486D01*
X031238Y025530D01*
X031122Y025530D01*
X031016Y025486D01*
X030934Y025404D01*
X030890Y025298D01*
X030890Y025182D01*
X030934Y025076D01*
X031016Y024994D01*
X031122Y024950D01*
X031190Y024950D01*
X031190Y024882D01*
X031234Y024776D01*
X031316Y024694D01*
X031422Y024650D01*
X031538Y024650D01*
X031644Y024694D01*
X031726Y024776D01*
X031770Y024882D01*
X031770Y024950D01*
X031838Y024950D01*
X031944Y024994D01*
X032026Y025076D01*
X032070Y025182D01*
X032070Y025298D01*
X031993Y025437D02*
X032409Y025437D01*
X032390Y025596D02*
X027766Y025596D01*
X027786Y025616D02*
X027830Y025722D01*
X027830Y025838D01*
X027825Y025850D01*
X027838Y025850D01*
X027944Y025894D01*
X028016Y025966D01*
X028102Y025930D01*
X028218Y025930D01*
X028324Y025974D01*
X028406Y026056D01*
X028450Y026162D01*
X028450Y026278D01*
X028406Y026384D01*
X028324Y026466D01*
X028270Y026488D01*
X028270Y026598D01*
X028226Y026704D01*
X028144Y026786D01*
X028038Y026830D01*
X027922Y026830D01*
X027816Y026786D01*
X027734Y026704D01*
X027690Y026598D01*
X027690Y026482D01*
X027713Y026426D01*
X027616Y026386D01*
X027534Y026304D01*
X027490Y026198D01*
X027490Y026082D01*
X027495Y026070D01*
X027482Y026070D01*
X027376Y026026D01*
X027294Y025944D01*
X027250Y025838D01*
X027250Y025722D01*
X027294Y025616D01*
X027376Y025534D01*
X027482Y025490D01*
X027598Y025490D01*
X027704Y025534D01*
X027786Y025616D01*
X027830Y025754D02*
X032484Y025754D01*
X032438Y025850D02*
X032544Y025894D01*
X032626Y025976D01*
X032670Y026082D01*
X032670Y026198D01*
X032626Y026304D01*
X032544Y026386D01*
X032438Y026430D01*
X032322Y026430D01*
X032231Y026392D01*
X032226Y026404D01*
X032144Y026486D01*
X032038Y026530D01*
X031922Y026530D01*
X031816Y026486D01*
X031734Y026404D01*
X031690Y026298D01*
X031690Y026182D01*
X031734Y026076D01*
X031816Y025994D01*
X031922Y025950D01*
X032038Y025950D01*
X032129Y025988D01*
X032134Y025976D01*
X032216Y025894D01*
X032322Y025850D01*
X032438Y025850D01*
X032563Y025913D02*
X032796Y025913D01*
X032901Y026071D02*
X032665Y026071D01*
X032657Y026230D02*
X032780Y026230D01*
X032816Y026194D02*
X032922Y026150D01*
X033038Y026150D01*
X033144Y026194D01*
X033226Y026276D01*
X033270Y026382D01*
X033270Y026450D01*
X033338Y026450D01*
X033444Y026494D01*
X033526Y026576D01*
X033570Y026682D01*
X033570Y026798D01*
X033526Y026904D01*
X033444Y026986D01*
X033347Y027026D01*
X033370Y027082D01*
X033370Y027198D01*
X033326Y027304D01*
X033290Y027340D01*
X033326Y027376D01*
X033370Y027482D01*
X033370Y027598D01*
X033326Y027704D01*
X033290Y027740D01*
X033326Y027776D01*
X033370Y027882D01*
X033370Y027998D01*
X033326Y028104D01*
X033244Y028186D01*
X033138Y028230D01*
X033022Y028230D01*
X032916Y028186D01*
X032834Y028104D01*
X032790Y027998D01*
X032790Y027882D01*
X032834Y027776D01*
X032870Y027740D01*
X032834Y027704D01*
X032790Y027598D01*
X032790Y027482D01*
X032834Y027376D01*
X032870Y027340D01*
X032834Y027304D01*
X032790Y027198D01*
X032790Y027082D01*
X032834Y026976D01*
X032916Y026894D01*
X033013Y026854D01*
X032990Y026798D01*
X032990Y026730D01*
X032922Y026730D01*
X032816Y026686D01*
X032734Y026604D01*
X032690Y026498D01*
X032690Y026382D01*
X032734Y026276D01*
X032816Y026194D01*
X032690Y026388D02*
X032539Y026388D01*
X032710Y026547D02*
X028270Y026547D01*
X028225Y026705D02*
X032862Y026705D01*
X032990Y026864D02*
X025502Y026864D01*
X025531Y026851D02*
X025414Y026900D01*
X025286Y026900D01*
X025169Y026851D01*
X025079Y026761D01*
X025030Y026644D01*
X025030Y026516D01*
X025079Y026399D01*
X025169Y026309D01*
X025286Y026260D01*
X025414Y026260D01*
X025531Y026309D01*
X025621Y026399D01*
X025670Y026516D01*
X025670Y026644D01*
X025621Y026761D01*
X025531Y026851D01*
X025645Y026705D02*
X027735Y026705D01*
X027690Y026547D02*
X025670Y026547D01*
X025611Y026388D02*
X027621Y026388D01*
X027503Y026230D02*
X021211Y026230D01*
X021145Y026388D02*
X025089Y026388D01*
X025030Y026547D02*
X021091Y026547D01*
X021041Y026705D02*
X025055Y026705D01*
X025198Y026864D02*
X020991Y026864D01*
X020941Y027022D02*
X032815Y027022D01*
X032790Y027181D02*
X031011Y027181D01*
X031044Y027194D02*
X031126Y027276D01*
X031170Y027382D01*
X031170Y027498D01*
X031126Y027604D01*
X031044Y027686D01*
X030938Y027730D01*
X030822Y027730D01*
X030716Y027686D01*
X030634Y027604D01*
X030590Y027498D01*
X030590Y027382D01*
X030634Y027276D01*
X030716Y027194D01*
X030822Y027150D01*
X030938Y027150D01*
X031044Y027194D01*
X031152Y027339D02*
X032869Y027339D01*
X032790Y027498D02*
X031170Y027498D01*
X031074Y027656D02*
X032814Y027656D01*
X032818Y027815D02*
X031065Y027815D01*
X031044Y027794D02*
X031126Y027876D01*
X031170Y027982D01*
X031170Y028098D01*
X031126Y028204D01*
X031044Y028286D01*
X030938Y028330D01*
X030822Y028330D01*
X030716Y028286D01*
X030634Y028204D01*
X030590Y028098D01*
X030590Y027982D01*
X030634Y027876D01*
X030716Y027794D01*
X030822Y027750D01*
X030938Y027750D01*
X031044Y027794D01*
X031166Y027973D02*
X032790Y027973D01*
X032861Y028132D02*
X031156Y028132D01*
X031034Y028290D02*
X033990Y028290D01*
X033990Y028298D02*
X033990Y028182D01*
X034034Y028076D01*
X034116Y027994D01*
X034222Y027950D01*
X034338Y027950D01*
X034444Y027994D01*
X034526Y028076D01*
X034570Y028182D01*
X034570Y028298D01*
X034526Y028404D01*
X034444Y028486D01*
X034338Y028530D01*
X034222Y028530D01*
X034116Y028486D01*
X034034Y028404D01*
X033990Y028298D01*
X034011Y028132D02*
X033299Y028132D01*
X033370Y027973D02*
X034167Y027973D01*
X034393Y027973D02*
X040871Y027973D01*
X040933Y028132D02*
X038682Y028132D01*
X038644Y028094D02*
X038726Y028176D01*
X038770Y028282D01*
X038770Y028398D01*
X038726Y028504D01*
X038644Y028586D01*
X038538Y028630D01*
X038422Y028630D01*
X038316Y028586D01*
X038234Y028504D01*
X038190Y028398D01*
X038190Y028282D01*
X038234Y028176D01*
X038316Y028094D01*
X038422Y028050D01*
X038538Y028050D01*
X038644Y028094D01*
X038770Y028290D02*
X040970Y028290D01*
X041014Y028449D02*
X038749Y028449D01*
X038593Y028607D02*
X041100Y028607D01*
X041147Y028766D02*
X037454Y028766D01*
X037451Y028759D02*
X037500Y028876D01*
X037500Y029004D01*
X037451Y029121D01*
X037361Y029211D01*
X037244Y029260D01*
X037116Y029260D01*
X036999Y029211D01*
X036909Y029121D01*
X036860Y029004D01*
X036860Y028876D01*
X036909Y028759D01*
X036999Y028669D01*
X037116Y028620D01*
X037244Y028620D01*
X037361Y028669D01*
X037451Y028759D01*
X037500Y028924D02*
X041075Y028924D01*
X040993Y029083D02*
X037467Y029083D01*
X037289Y029241D02*
X040970Y029241D01*
X040994Y029400D02*
X036440Y029400D01*
X036440Y029376D02*
X036391Y029259D01*
X036301Y029169D01*
X036184Y029120D01*
X036056Y029120D01*
X035939Y029169D01*
X035849Y029259D01*
X035800Y029376D01*
X035800Y029504D01*
X035849Y029621D01*
X035939Y029711D01*
X036056Y029760D01*
X036184Y029760D01*
X036301Y029711D01*
X036391Y029621D01*
X036440Y029504D01*
X036440Y029376D01*
X036374Y029241D02*
X037071Y029241D01*
X036893Y029083D02*
X035867Y029083D01*
X035851Y029121D02*
X035761Y029211D01*
X035644Y029260D01*
X035516Y029260D01*
X035399Y029211D01*
X035309Y029121D01*
X035260Y029004D01*
X035260Y028876D01*
X035309Y028759D01*
X035399Y028669D01*
X035516Y028620D01*
X035644Y028620D01*
X035761Y028669D01*
X035851Y028759D01*
X035900Y028876D01*
X035900Y029004D01*
X035851Y029121D01*
X035866Y029241D02*
X035689Y029241D01*
X035800Y029400D02*
X031170Y029400D01*
X031170Y029382D02*
X031126Y029276D01*
X031044Y029194D01*
X030938Y029150D01*
X030822Y029150D01*
X030716Y029194D01*
X030634Y029276D01*
X030590Y029382D01*
X030590Y029498D01*
X030634Y029604D01*
X030716Y029686D01*
X030822Y029730D01*
X030938Y029730D01*
X031044Y029686D01*
X031126Y029604D01*
X031170Y029498D01*
X031170Y029382D01*
X031091Y029241D02*
X035471Y029241D01*
X035293Y029083D02*
X031048Y029083D01*
X031044Y029086D02*
X030938Y029130D01*
X030822Y029130D01*
X030716Y029086D01*
X030634Y029004D01*
X030590Y028898D01*
X030590Y028782D01*
X030634Y028676D01*
X030716Y028594D01*
X030822Y028550D01*
X030938Y028550D01*
X031044Y028594D01*
X031126Y028676D01*
X031170Y028782D01*
X031170Y028898D01*
X031126Y029004D01*
X031044Y029086D01*
X031159Y028924D02*
X035260Y028924D01*
X035306Y028766D02*
X031163Y028766D01*
X031057Y028607D02*
X038367Y028607D01*
X038211Y028449D02*
X034482Y028449D01*
X034570Y028290D02*
X038190Y028290D01*
X038278Y028132D02*
X034549Y028132D01*
X034078Y028449D02*
X030170Y028449D01*
X030170Y028498D02*
X030170Y028382D01*
X030133Y028293D01*
X030222Y028330D01*
X030338Y028330D01*
X030444Y028286D01*
X030526Y028204D01*
X030570Y028098D01*
X030570Y027982D01*
X030526Y027876D01*
X030444Y027794D01*
X030338Y027750D01*
X030222Y027750D01*
X030116Y027794D01*
X030034Y027876D01*
X029990Y027982D01*
X029990Y028098D01*
X030027Y028187D01*
X029938Y028150D01*
X029822Y028150D01*
X029733Y028187D01*
X029770Y028098D01*
X029770Y027982D01*
X029726Y027876D01*
X029644Y027794D01*
X029538Y027750D01*
X029422Y027750D01*
X029316Y027794D01*
X029234Y027876D01*
X029190Y027982D01*
X029190Y028098D01*
X029234Y028204D01*
X029316Y028286D01*
X029422Y028330D01*
X029538Y028330D01*
X029627Y028293D01*
X029590Y028382D01*
X029590Y028498D01*
X029627Y028587D01*
X029538Y028550D01*
X029422Y028550D01*
X029316Y028594D01*
X029234Y028676D01*
X029190Y028782D01*
X029190Y028898D01*
X029234Y029004D01*
X029316Y029086D01*
X029422Y029130D01*
X029538Y029130D01*
X029644Y029086D01*
X029726Y029004D01*
X029770Y028898D01*
X029770Y028782D01*
X029733Y028693D01*
X029822Y028730D01*
X029938Y028730D01*
X030027Y028693D01*
X029990Y028782D01*
X029990Y028898D01*
X030034Y029004D01*
X030116Y029086D01*
X030222Y029130D01*
X030338Y029130D01*
X030444Y029086D01*
X030526Y029004D01*
X030570Y028898D01*
X030570Y028782D01*
X030526Y028676D01*
X030444Y028594D01*
X030338Y028550D01*
X030222Y028550D01*
X030133Y028587D01*
X030170Y028498D01*
X030457Y028607D02*
X030703Y028607D01*
X030597Y028766D02*
X030563Y028766D01*
X030559Y028924D02*
X030601Y028924D01*
X030712Y029083D02*
X030448Y029083D01*
X030444Y029194D02*
X030526Y029276D01*
X030570Y029382D01*
X030570Y029498D01*
X030526Y029604D01*
X030444Y029686D01*
X030338Y029730D01*
X030222Y029730D01*
X030116Y029686D01*
X030034Y029604D01*
X029990Y029498D01*
X029990Y029382D01*
X030034Y029276D01*
X030116Y029194D01*
X030222Y029150D01*
X030338Y029150D01*
X030444Y029194D01*
X030491Y029241D02*
X030669Y029241D01*
X030590Y029400D02*
X030570Y029400D01*
X030545Y029558D02*
X030615Y029558D01*
X030790Y029717D02*
X030370Y029717D01*
X030190Y029717D02*
X029570Y029717D01*
X029538Y029730D02*
X029422Y029730D01*
X029316Y029686D01*
X029234Y029604D01*
X029190Y029498D01*
X029190Y029382D01*
X029234Y029276D01*
X029316Y029194D01*
X029422Y029150D01*
X029538Y029150D01*
X029644Y029194D01*
X029726Y029276D01*
X029770Y029382D01*
X029770Y029498D01*
X029726Y029604D01*
X029644Y029686D01*
X029538Y029730D01*
X029390Y029717D02*
X028970Y029717D01*
X028938Y029730D02*
X028822Y029730D01*
X028716Y029686D01*
X028634Y029604D01*
X028590Y029498D01*
X028590Y029382D01*
X028634Y029276D01*
X028716Y029194D01*
X028822Y029150D01*
X028938Y029150D01*
X029044Y029194D01*
X029126Y029276D01*
X029170Y029382D01*
X029170Y029498D01*
X029126Y029604D01*
X029044Y029686D01*
X028938Y029730D01*
X028790Y029717D02*
X020580Y029717D01*
X020580Y029875D02*
X031830Y029875D01*
X031834Y029866D02*
X031916Y029784D01*
X032022Y029740D01*
X032138Y029740D01*
X032244Y029784D01*
X032290Y029830D01*
X032356Y029764D01*
X032462Y029720D01*
X032578Y029720D01*
X032684Y029764D01*
X032766Y029846D01*
X032810Y029952D01*
X032810Y030068D01*
X032766Y030174D01*
X032684Y030256D01*
X032578Y030300D01*
X032462Y030300D01*
X032356Y030256D01*
X032310Y030210D01*
X032285Y030235D01*
X032326Y030276D01*
X032366Y030373D01*
X032422Y030350D01*
X032538Y030350D01*
X032644Y030394D01*
X032726Y030476D01*
X032770Y030582D01*
X032770Y030698D01*
X032726Y030804D01*
X032644Y030886D01*
X032538Y030930D01*
X032422Y030930D01*
X032316Y030886D01*
X032234Y030804D01*
X032194Y030707D01*
X032138Y030730D01*
X032022Y030730D01*
X031916Y030686D01*
X031855Y030625D01*
X031774Y030706D01*
X031668Y030750D01*
X031552Y030750D01*
X031446Y030706D01*
X031364Y030624D01*
X031320Y030518D01*
X031320Y030402D01*
X031364Y030296D01*
X031446Y030214D01*
X031552Y030170D01*
X031668Y030170D01*
X031774Y030214D01*
X031835Y030275D01*
X031875Y030235D01*
X031834Y030194D01*
X031790Y030088D01*
X031790Y029972D01*
X031834Y029866D01*
X031790Y030034D02*
X020580Y030034D01*
X020580Y030192D02*
X031499Y030192D01*
X031721Y030192D02*
X031833Y030192D01*
X031813Y030668D02*
X031897Y030668D01*
X032256Y030826D02*
X021865Y030826D01*
X021856Y030805D02*
X021960Y031055D01*
X021960Y031325D01*
X021856Y031575D01*
X021665Y031766D01*
X021415Y031870D01*
X021145Y031870D01*
X020895Y031766D01*
X020704Y031575D01*
X020600Y031325D01*
X020600Y031055D01*
X020704Y030805D01*
X020895Y030614D01*
X021145Y030510D01*
X021415Y030510D01*
X021665Y030614D01*
X021856Y030805D01*
X021719Y030668D02*
X031407Y030668D01*
X031320Y030509D02*
X020580Y030509D01*
X020580Y030351D02*
X031341Y030351D01*
X030970Y029717D02*
X035951Y029717D01*
X035823Y029558D02*
X031145Y029558D01*
X030069Y029241D02*
X029691Y029241D01*
X029648Y029083D02*
X030112Y029083D01*
X030001Y028924D02*
X029759Y028924D01*
X029763Y028766D02*
X029997Y028766D01*
X029590Y028449D02*
X020654Y028449D01*
X020633Y028607D02*
X023503Y028607D01*
X023516Y028594D02*
X023622Y028550D01*
X023738Y028550D01*
X023844Y028594D01*
X023926Y028676D01*
X023970Y028782D01*
X023970Y028898D01*
X023926Y029004D01*
X023844Y029086D01*
X023738Y029130D01*
X023622Y029130D01*
X023516Y029086D01*
X023434Y029004D01*
X023390Y028898D01*
X023390Y028782D01*
X023434Y028676D01*
X023516Y028594D01*
X023397Y028766D02*
X020614Y028766D01*
X020607Y028924D02*
X023401Y028924D01*
X023512Y029083D02*
X020600Y029083D01*
X020593Y029241D02*
X025375Y029241D01*
X025360Y029276D02*
X025409Y029159D01*
X025499Y029069D01*
X025616Y029020D01*
X025744Y029020D01*
X025861Y029069D01*
X025951Y029159D01*
X026000Y029276D01*
X026000Y029404D01*
X025951Y029521D01*
X025861Y029611D01*
X025744Y029660D01*
X025616Y029660D01*
X025499Y029611D01*
X025409Y029521D01*
X025360Y029404D01*
X025360Y029276D01*
X025360Y029400D02*
X020586Y029400D01*
X020580Y029558D02*
X025445Y029558D01*
X025915Y029558D02*
X028615Y029558D01*
X028590Y029400D02*
X026000Y029400D01*
X025985Y029241D02*
X028669Y029241D01*
X028716Y029086D02*
X028634Y029004D01*
X028590Y028898D01*
X028590Y028782D01*
X028634Y028676D01*
X028716Y028594D01*
X028822Y028550D01*
X028938Y028550D01*
X029044Y028594D01*
X029126Y028676D01*
X029170Y028782D01*
X029170Y028898D01*
X029126Y029004D01*
X029044Y029086D01*
X028938Y029130D01*
X028822Y029130D01*
X028716Y029086D01*
X028712Y029083D02*
X025875Y029083D01*
X025485Y029083D02*
X023848Y029083D01*
X023959Y028924D02*
X028601Y028924D01*
X028597Y028766D02*
X023963Y028766D01*
X023857Y028607D02*
X028703Y028607D01*
X028822Y028330D02*
X028716Y028286D01*
X028634Y028204D01*
X028590Y028098D01*
X028590Y027982D01*
X028634Y027876D01*
X028716Y027794D01*
X028822Y027750D01*
X028938Y027750D01*
X029044Y027794D01*
X029126Y027876D01*
X029170Y027982D01*
X029170Y028098D01*
X029126Y028204D01*
X029044Y028286D01*
X028938Y028330D01*
X028822Y028330D01*
X028726Y028290D02*
X020675Y028290D01*
X020696Y028132D02*
X028604Y028132D01*
X028594Y027973D02*
X020717Y027973D01*
X020750Y027815D02*
X028695Y027815D01*
X028716Y027686D02*
X028634Y027604D01*
X028590Y027498D01*
X028590Y027382D01*
X028634Y027276D01*
X028716Y027194D01*
X028822Y027150D01*
X028938Y027150D01*
X029044Y027194D01*
X029126Y027276D01*
X029170Y027382D01*
X029170Y027498D01*
X029126Y027604D01*
X029044Y027686D01*
X028938Y027730D01*
X028822Y027730D01*
X028716Y027686D01*
X028686Y027656D02*
X020786Y027656D01*
X020821Y027498D02*
X028590Y027498D01*
X028608Y027339D02*
X020856Y027339D01*
X020891Y027181D02*
X028749Y027181D01*
X029011Y027181D02*
X029349Y027181D01*
X029316Y027194D02*
X029422Y027150D01*
X029538Y027150D01*
X029644Y027194D01*
X029726Y027276D01*
X029770Y027382D01*
X029770Y027498D01*
X029726Y027604D01*
X029644Y027686D01*
X029538Y027730D01*
X029422Y027730D01*
X029316Y027686D01*
X029234Y027604D01*
X029190Y027498D01*
X029190Y027382D01*
X029234Y027276D01*
X029316Y027194D01*
X029208Y027339D02*
X029152Y027339D01*
X029170Y027498D02*
X029190Y027498D01*
X029286Y027656D02*
X029074Y027656D01*
X029065Y027815D02*
X029295Y027815D01*
X029194Y027973D02*
X029166Y027973D01*
X029156Y028132D02*
X029204Y028132D01*
X029326Y028290D02*
X029034Y028290D01*
X029057Y028607D02*
X029303Y028607D01*
X029197Y028766D02*
X029163Y028766D01*
X029159Y028924D02*
X029201Y028924D01*
X029312Y029083D02*
X029048Y029083D01*
X029091Y029241D02*
X029269Y029241D01*
X029190Y029400D02*
X029170Y029400D01*
X029145Y029558D02*
X029215Y029558D01*
X029745Y029558D02*
X030015Y029558D01*
X029990Y029400D02*
X029770Y029400D01*
X029756Y028132D02*
X030004Y028132D01*
X029994Y027973D02*
X029766Y027973D01*
X029665Y027815D02*
X030095Y027815D01*
X030116Y027686D02*
X030034Y027604D01*
X029990Y027498D01*
X029990Y027382D01*
X030034Y027276D01*
X030116Y027194D01*
X030222Y027150D01*
X030338Y027150D01*
X030444Y027194D01*
X030526Y027276D01*
X030570Y027382D01*
X030570Y027498D01*
X030526Y027604D01*
X030444Y027686D01*
X030338Y027730D01*
X030222Y027730D01*
X030116Y027686D01*
X030086Y027656D02*
X029674Y027656D01*
X029770Y027498D02*
X029990Y027498D01*
X030008Y027339D02*
X029752Y027339D01*
X029611Y027181D02*
X030149Y027181D01*
X030411Y027181D02*
X030749Y027181D01*
X030608Y027339D02*
X030552Y027339D01*
X030570Y027498D02*
X030590Y027498D01*
X030686Y027656D02*
X030474Y027656D01*
X030465Y027815D02*
X030695Y027815D01*
X030594Y027973D02*
X030566Y027973D01*
X030556Y028132D02*
X030604Y028132D01*
X030726Y028290D02*
X030434Y028290D01*
X031727Y026388D02*
X028402Y026388D01*
X028450Y026230D02*
X031690Y026230D01*
X031739Y026071D02*
X028412Y026071D01*
X027963Y025913D02*
X032197Y025913D01*
X031567Y025437D02*
X031393Y025437D01*
X031470Y025279D02*
X031490Y025279D01*
X031865Y024962D02*
X039166Y024962D01*
X039283Y025120D02*
X032044Y025120D01*
X032160Y024803D02*
X031737Y024803D01*
X032070Y024645D02*
X031170Y024645D01*
X031170Y024630D02*
X031170Y024698D01*
X031126Y024804D01*
X031044Y024886D01*
X030938Y024930D01*
X030822Y024930D01*
X030716Y024886D01*
X030634Y024804D01*
X030590Y024698D01*
X030590Y024582D01*
X030634Y024476D01*
X030716Y024394D01*
X030822Y024350D01*
X030890Y024350D01*
X030890Y024282D01*
X030934Y024176D01*
X031016Y024094D01*
X031122Y024050D01*
X031238Y024050D01*
X031344Y024094D01*
X031426Y024176D01*
X031470Y024282D01*
X031470Y024398D01*
X031426Y024504D01*
X031344Y024586D01*
X031238Y024630D01*
X031170Y024630D01*
X031126Y024803D02*
X031223Y024803D01*
X031095Y024962D02*
X021817Y024962D01*
X021731Y025120D02*
X030916Y025120D01*
X030890Y025279D02*
X026927Y025279D01*
X026926Y025276D02*
X026970Y025382D01*
X026970Y025498D01*
X026926Y025604D01*
X026844Y025686D01*
X026738Y025730D01*
X026622Y025730D01*
X026516Y025686D01*
X026434Y025604D01*
X026390Y025498D01*
X026390Y025382D01*
X026434Y025276D01*
X026516Y025194D01*
X026622Y025150D01*
X026738Y025150D01*
X026844Y025194D01*
X026926Y025276D01*
X026970Y025437D02*
X030967Y025437D01*
X030634Y024803D02*
X030055Y024803D01*
X030038Y024810D02*
X029922Y024810D01*
X029816Y024766D01*
X029734Y024684D01*
X029690Y024578D01*
X029690Y024462D01*
X029734Y024356D01*
X029816Y024274D01*
X029922Y024230D01*
X030038Y024230D01*
X030144Y024274D01*
X030226Y024356D01*
X030270Y024462D01*
X030270Y024578D01*
X030226Y024684D01*
X030144Y024766D01*
X030038Y024810D01*
X029905Y024803D02*
X021918Y024803D01*
X022019Y024645D02*
X029718Y024645D01*
X029690Y024486D02*
X022120Y024486D01*
X022221Y024328D02*
X029762Y024328D01*
X030198Y024328D02*
X030890Y024328D01*
X030941Y024169D02*
X022342Y024169D01*
X022464Y024011D02*
X026740Y024011D01*
X026734Y024004D02*
X026690Y023898D01*
X026690Y023782D01*
X026734Y023676D01*
X026816Y023594D01*
X026922Y023550D01*
X027038Y023550D01*
X027144Y023594D01*
X027226Y023676D01*
X027270Y023782D01*
X027270Y023898D01*
X027226Y024004D01*
X027144Y024086D01*
X027038Y024130D01*
X026922Y024130D01*
X026816Y024086D01*
X026734Y024004D01*
X026690Y023852D02*
X022585Y023852D01*
X022707Y023694D02*
X026727Y023694D01*
X027233Y023694D02*
X028134Y023694D01*
X028116Y023686D02*
X028034Y023604D01*
X027990Y023498D01*
X027990Y023382D01*
X028034Y023276D01*
X028116Y023194D01*
X028222Y023150D01*
X028262Y023150D01*
X028240Y023098D01*
X028240Y022982D01*
X028284Y022876D01*
X028366Y022794D01*
X028472Y022750D01*
X028588Y022750D01*
X028694Y022794D01*
X028776Y022876D01*
X028820Y022982D01*
X028820Y023098D01*
X028793Y023162D01*
X028822Y023150D01*
X028890Y023150D01*
X028860Y023078D01*
X028860Y022962D01*
X028904Y022856D01*
X028986Y022774D01*
X029092Y022730D01*
X029208Y022730D01*
X029314Y022774D01*
X029396Y022856D01*
X029440Y022962D01*
X029440Y023078D01*
X029396Y023184D01*
X029314Y023266D01*
X029208Y023310D01*
X029140Y023310D01*
X029170Y023382D01*
X029170Y023498D01*
X029126Y023604D01*
X029044Y023686D01*
X028938Y023730D01*
X028822Y023730D01*
X028716Y023686D01*
X028634Y023604D01*
X028590Y023498D01*
X028590Y023382D01*
X028617Y023318D01*
X028588Y023330D01*
X028548Y023330D01*
X028570Y023382D01*
X028570Y023498D01*
X028526Y023604D01*
X028444Y023686D01*
X028338Y023730D01*
X028222Y023730D01*
X028116Y023686D01*
X028005Y023535D02*
X022852Y023535D01*
X022997Y023377D02*
X027992Y023377D01*
X028092Y023218D02*
X023142Y023218D01*
X022989Y023060D02*
X022263Y023060D01*
X022302Y022967D02*
X022176Y023270D01*
X021945Y023501D01*
X021643Y023626D01*
X021315Y023626D01*
X021013Y023501D01*
X020782Y023270D01*
X020657Y022967D01*
X020657Y022640D01*
X020782Y022338D01*
X021013Y022106D01*
X021315Y021981D01*
X021643Y021981D01*
X021945Y022106D01*
X022176Y022338D01*
X022302Y022640D01*
X022302Y022967D01*
X022302Y022901D02*
X023134Y022901D01*
X023295Y023060D02*
X028240Y023060D01*
X028274Y022901D02*
X023468Y022901D01*
X023316Y022743D02*
X022302Y022743D01*
X022278Y022584D02*
X023489Y022584D01*
X023641Y022743D02*
X029062Y022743D01*
X029238Y022743D02*
X030790Y022743D01*
X030790Y022798D02*
X030790Y022682D01*
X030834Y022576D01*
X030916Y022494D01*
X031022Y022450D01*
X031138Y022450D01*
X031244Y022494D01*
X031326Y022576D01*
X031370Y022682D01*
X031370Y022798D01*
X031326Y022904D01*
X031244Y022986D01*
X031138Y023030D01*
X031022Y023030D01*
X030916Y022986D01*
X030834Y022904D01*
X030790Y022798D01*
X030833Y022901D02*
X029415Y022901D01*
X029440Y023060D02*
X031719Y023060D01*
X031640Y022901D02*
X031327Y022901D01*
X031370Y022743D02*
X031640Y022743D01*
X031640Y022584D02*
X031329Y022584D01*
X031640Y022426D02*
X024018Y022426D01*
X023863Y022267D02*
X022106Y022267D01*
X022213Y022426D02*
X023656Y022426D01*
X023814Y022584D02*
X030831Y022584D01*
X031640Y022267D02*
X024224Y022267D01*
X024069Y022109D02*
X021947Y022109D01*
X021011Y022109D02*
X019578Y022109D01*
X019591Y021950D02*
X024265Y021950D01*
X024431Y022109D02*
X031640Y022109D01*
X031640Y021950D02*
X024673Y021950D01*
X024513Y021792D02*
X019538Y021792D01*
X019360Y021633D02*
X024762Y021633D01*
X024922Y021792D02*
X031640Y021792D01*
X031640Y021633D02*
X025180Y021633D01*
X025008Y021475D02*
X019025Y021475D01*
X019016Y021633D02*
X018975Y021633D01*
X018838Y021792D02*
X018806Y021792D01*
X018786Y021950D02*
X018276Y021950D01*
X018276Y021792D02*
X018439Y021792D01*
X018276Y022109D02*
X018798Y022109D01*
X018888Y022267D02*
X018276Y022267D01*
X018276Y022426D02*
X019563Y022426D01*
X019533Y022456D02*
X019646Y022342D01*
X019794Y022281D01*
X019954Y022281D01*
X020102Y022342D01*
X020215Y022456D01*
X020276Y022603D01*
X020276Y022764D01*
X020215Y022911D01*
X020102Y023025D01*
X019954Y023086D01*
X019794Y023086D01*
X019646Y023025D01*
X019533Y022911D01*
X019471Y022764D01*
X019471Y022603D01*
X019533Y022456D01*
X019480Y022584D02*
X018276Y022584D01*
X018276Y022743D02*
X019471Y022743D01*
X019528Y022901D02*
X018276Y022901D01*
X018276Y023060D02*
X019730Y023060D01*
X020018Y023060D02*
X020695Y023060D01*
X020657Y022901D02*
X020220Y022901D01*
X020276Y022743D02*
X020657Y022743D01*
X020680Y022584D02*
X020268Y022584D01*
X020185Y022426D02*
X020745Y022426D01*
X020853Y022267D02*
X019488Y022267D01*
X018276Y023218D02*
X020760Y023218D01*
X020889Y023377D02*
X018276Y023377D01*
X018276Y023535D02*
X021095Y023535D01*
X021863Y023535D02*
X022551Y023535D01*
X022429Y023694D02*
X018314Y023694D01*
X018473Y023852D02*
X022308Y023852D01*
X022186Y024011D02*
X018631Y024011D01*
X018790Y024169D02*
X022061Y024169D01*
X021960Y024328D02*
X018948Y024328D01*
X019107Y024486D02*
X021859Y024486D01*
X021758Y024645D02*
X019265Y024645D01*
X019424Y024803D02*
X019707Y024803D01*
X019599Y024962D02*
X019582Y024962D01*
X019720Y025437D02*
X021318Y025437D01*
X021235Y025596D02*
X019720Y025596D01*
X019720Y025754D02*
X021170Y025754D01*
X021104Y025913D02*
X019677Y025913D01*
X019530Y026071D02*
X021038Y026071D01*
X020973Y026230D02*
X019371Y026230D01*
X019213Y026388D02*
X020907Y026388D01*
X020861Y026547D02*
X014377Y026547D01*
X014322Y026601D02*
X014035Y026720D01*
X013725Y026720D01*
X013438Y026601D01*
X013219Y026382D01*
X013100Y026095D01*
X013100Y025785D01*
X013219Y025498D01*
X013438Y025279D01*
X013725Y025160D01*
X014035Y025160D01*
X014322Y025279D01*
X014541Y025498D01*
X014660Y025785D01*
X014660Y026095D01*
X014541Y026382D01*
X014322Y026601D01*
X014071Y026705D02*
X020811Y026705D01*
X020761Y026864D02*
X012694Y026864D01*
X012644Y027022D02*
X020711Y027022D01*
X020661Y027181D02*
X012595Y027181D01*
X012545Y027339D02*
X020631Y027339D01*
X020595Y027498D02*
X012496Y027498D01*
X012450Y027656D02*
X020560Y027656D01*
X020525Y027815D02*
X012414Y027815D01*
X012378Y027973D02*
X020490Y027973D01*
X020474Y028132D02*
X016071Y028132D01*
X016044Y028120D02*
X016161Y028169D01*
X016251Y028259D01*
X016300Y028376D01*
X016300Y028504D01*
X016251Y028621D01*
X016233Y028640D01*
X016251Y028659D01*
X016300Y028776D01*
X016300Y028904D01*
X016251Y029021D01*
X016161Y029111D01*
X016044Y029160D01*
X015916Y029160D01*
X015799Y029111D01*
X015709Y029021D01*
X015660Y028904D01*
X015660Y028776D01*
X015709Y028659D01*
X015727Y028640D01*
X015709Y028621D01*
X015660Y028504D01*
X015660Y028376D01*
X015709Y028259D01*
X015799Y028169D01*
X015916Y028120D01*
X016044Y028120D01*
X015889Y028132D02*
X012342Y028132D01*
X012307Y028290D02*
X015696Y028290D01*
X015660Y028449D02*
X012271Y028449D01*
X012235Y028607D02*
X015703Y028607D01*
X015664Y028766D02*
X012199Y028766D01*
X012163Y028924D02*
X015668Y028924D01*
X015770Y029083D02*
X012127Y029083D01*
X012095Y029241D02*
X020373Y029241D01*
X020380Y029083D02*
X016190Y029083D01*
X016292Y028924D02*
X020387Y028924D01*
X020390Y028766D02*
X016296Y028766D01*
X016257Y028607D02*
X020411Y028607D01*
X020432Y028449D02*
X016300Y028449D01*
X016264Y028290D02*
X020453Y028290D01*
X020366Y029400D02*
X012070Y029400D01*
X012044Y029558D02*
X020359Y029558D01*
X020360Y029717D02*
X012018Y029717D01*
X011992Y029875D02*
X020360Y029875D01*
X020360Y030034D02*
X012829Y030034D01*
X013013Y030192D02*
X020360Y030192D01*
X020360Y030351D02*
X013171Y030351D01*
X013330Y030509D02*
X020360Y030509D01*
X020360Y030668D02*
X017803Y030668D01*
X017936Y030723D02*
X018167Y030954D01*
X018292Y031256D01*
X018292Y031584D01*
X018167Y031886D01*
X017990Y032064D01*
X018022Y032050D01*
X018138Y032050D01*
X018244Y032094D01*
X020360Y032094D01*
X020360Y031936D02*
X018118Y031936D01*
X018212Y031777D02*
X020360Y031777D01*
X020360Y031619D02*
X018278Y031619D01*
X018292Y031460D02*
X020360Y031460D01*
X020360Y031302D02*
X018292Y031302D01*
X018246Y031143D02*
X020360Y031143D01*
X020360Y030985D02*
X018180Y030985D01*
X018039Y030826D02*
X020360Y030826D01*
X020580Y030826D02*
X020695Y030826D01*
X020629Y030985D02*
X020580Y030985D01*
X020580Y031143D02*
X020600Y031143D01*
X020600Y031302D02*
X020580Y031302D01*
X020580Y031460D02*
X020656Y031460D01*
X020580Y031619D02*
X020747Y031619D01*
X020580Y031777D02*
X020920Y031777D01*
X020580Y031936D02*
X026079Y031936D01*
X026116Y031920D02*
X026244Y031920D01*
X026361Y031969D01*
X026451Y032059D01*
X026500Y032176D01*
X026500Y032304D01*
X026451Y032421D01*
X026361Y032511D01*
X026244Y032560D01*
X026116Y032560D01*
X025999Y032511D01*
X025909Y032421D01*
X025860Y032304D01*
X025860Y032176D01*
X025909Y032059D01*
X025999Y031969D01*
X026116Y031920D01*
X026281Y031936D02*
X041651Y031936D01*
X041661Y031777D02*
X028011Y031777D01*
X028014Y031776D02*
X027908Y031820D01*
X027792Y031820D01*
X027686Y031776D01*
X027604Y031694D01*
X027560Y031588D01*
X027560Y031472D01*
X027604Y031366D01*
X027686Y031284D01*
X027792Y031240D01*
X027908Y031240D01*
X028014Y031284D01*
X028096Y031366D01*
X028140Y031472D01*
X028140Y031588D01*
X028096Y031694D01*
X028014Y031776D01*
X028127Y031619D02*
X041654Y031619D01*
X041648Y031460D02*
X040970Y031460D01*
X040944Y031486D02*
X040838Y031530D01*
X040722Y031530D01*
X040616Y031486D01*
X040534Y031404D01*
X040490Y031298D01*
X040490Y031182D01*
X040534Y031076D01*
X040570Y031040D01*
X040534Y031004D01*
X040490Y030898D01*
X040490Y030782D01*
X040534Y030676D01*
X040616Y030594D01*
X040722Y030550D01*
X040838Y030550D01*
X040944Y030594D01*
X041026Y030676D01*
X041070Y030782D01*
X041070Y030898D01*
X041026Y031004D01*
X040990Y031040D01*
X041026Y031076D01*
X041070Y031182D01*
X041070Y031298D01*
X041026Y031404D01*
X040944Y031486D01*
X041068Y031302D02*
X041641Y031302D01*
X041624Y031143D02*
X041054Y031143D01*
X041034Y030985D02*
X041605Y030985D01*
X041585Y030826D02*
X041070Y030826D01*
X041018Y030668D02*
X041186Y030668D01*
X041039Y030509D02*
X036421Y030509D01*
X036426Y030504D02*
X036344Y030586D01*
X036238Y030630D01*
X036122Y030630D01*
X036016Y030586D01*
X035934Y030504D01*
X035890Y030398D01*
X035890Y030282D01*
X035934Y030176D01*
X036016Y030094D01*
X036122Y030050D01*
X036238Y030050D01*
X036344Y030094D01*
X036426Y030176D01*
X036470Y030282D01*
X036470Y030398D01*
X036426Y030504D01*
X036470Y030351D02*
X038338Y030351D01*
X038309Y030321D02*
X038260Y030204D01*
X038260Y030076D01*
X038309Y029959D01*
X038399Y029869D01*
X038516Y029820D01*
X038644Y029820D01*
X038761Y029869D01*
X038851Y029959D01*
X038900Y030076D01*
X038900Y030204D01*
X038851Y030321D01*
X038761Y030411D01*
X038644Y030460D01*
X038516Y030460D01*
X038399Y030411D01*
X038309Y030321D01*
X038260Y030192D02*
X036433Y030192D01*
X036289Y029717D02*
X041298Y029717D01*
X041124Y029875D02*
X038768Y029875D01*
X038882Y030034D02*
X041014Y030034D01*
X040970Y030192D02*
X038900Y030192D01*
X038822Y030351D02*
X040974Y030351D01*
X040542Y030668D02*
X035818Y030668D01*
X035826Y030676D02*
X035870Y030782D01*
X035870Y030898D01*
X035826Y031004D01*
X035744Y031086D01*
X035638Y031130D01*
X035522Y031130D01*
X035416Y031086D01*
X035334Y031004D01*
X035290Y030898D01*
X035290Y030782D01*
X035334Y030676D01*
X035416Y030594D01*
X035522Y030550D01*
X035638Y030550D01*
X035744Y030594D01*
X035826Y030676D01*
X035870Y030826D02*
X040490Y030826D01*
X040526Y030985D02*
X035834Y030985D01*
X035939Y030509D02*
X033816Y030509D01*
X033811Y030521D02*
X033721Y030611D01*
X033604Y030660D01*
X033476Y030660D01*
X033359Y030611D01*
X033269Y030521D01*
X033220Y030404D01*
X033220Y030276D01*
X033269Y030159D01*
X033359Y030069D01*
X033476Y030020D01*
X033604Y030020D01*
X033721Y030069D01*
X033811Y030159D01*
X033860Y030276D01*
X033860Y030404D01*
X033811Y030521D01*
X033860Y030351D02*
X035890Y030351D01*
X035927Y030192D02*
X033825Y030192D01*
X033636Y030034D02*
X038278Y030034D01*
X038392Y029875D02*
X032778Y029875D01*
X032810Y030034D02*
X033444Y030034D01*
X033255Y030192D02*
X032748Y030192D01*
X032539Y030351D02*
X033220Y030351D01*
X033264Y030509D02*
X032740Y030509D01*
X032770Y030668D02*
X035342Y030668D01*
X035290Y030826D02*
X032704Y030826D01*
X032421Y030351D02*
X032357Y030351D01*
X033342Y027815D02*
X040809Y027815D01*
X040747Y027656D02*
X033346Y027656D01*
X033370Y027498D02*
X040685Y027498D01*
X040607Y027339D02*
X033291Y027339D01*
X033370Y027181D02*
X040530Y027181D01*
X040452Y027022D02*
X033357Y027022D01*
X033543Y026864D02*
X040375Y026864D01*
X040297Y026705D02*
X039468Y026705D01*
X039501Y026671D02*
X039411Y026761D01*
X039294Y026810D01*
X039166Y026810D01*
X039049Y026761D01*
X038959Y026671D01*
X038910Y026554D01*
X038910Y026426D01*
X038959Y026309D01*
X039049Y026219D01*
X039166Y026170D01*
X039210Y026170D01*
X039210Y026126D01*
X039259Y026009D01*
X039349Y025919D01*
X039466Y025870D01*
X039594Y025870D01*
X039711Y025919D01*
X039801Y026009D01*
X039850Y026126D01*
X039850Y026254D01*
X039801Y026371D01*
X039711Y026461D01*
X039594Y026510D01*
X039550Y026510D01*
X039550Y026554D01*
X039501Y026671D01*
X039550Y026547D02*
X040212Y026547D01*
X040117Y026388D02*
X039785Y026388D01*
X039850Y026230D02*
X040023Y026230D01*
X039928Y026071D02*
X039827Y026071D01*
X039834Y025913D02*
X039696Y025913D01*
X039736Y025754D02*
X033358Y025754D01*
X033364Y025913D02*
X039364Y025913D01*
X039233Y026071D02*
X033259Y026071D01*
X033180Y026230D02*
X039038Y026230D01*
X038926Y026388D02*
X033270Y026388D01*
X033497Y026547D02*
X038910Y026547D01*
X038992Y026705D02*
X033570Y026705D01*
X033246Y025596D02*
X039623Y025596D01*
X039509Y025437D02*
X032951Y025437D01*
X032807Y025279D02*
X039396Y025279D01*
X039553Y025120D02*
X046466Y025120D01*
X046531Y025279D02*
X046321Y025279D01*
X046322Y025279D02*
X046541Y025498D01*
X046660Y025785D01*
X046660Y026095D01*
X046541Y026382D01*
X046322Y026601D01*
X046035Y026720D01*
X045725Y026720D01*
X045438Y026601D01*
X045219Y026382D01*
X045100Y026095D01*
X045100Y025785D01*
X045219Y025498D01*
X045438Y025279D01*
X045725Y025160D01*
X046035Y025160D01*
X046322Y025279D01*
X046480Y025437D02*
X046596Y025437D01*
X046582Y025596D02*
X046660Y025596D01*
X046647Y025754D02*
X046725Y025754D01*
X046782Y025913D02*
X046660Y025913D01*
X046660Y026071D02*
X046833Y026071D01*
X046884Y026230D02*
X046604Y026230D01*
X046535Y026388D02*
X046935Y026388D01*
X046985Y026547D02*
X046377Y026547D01*
X046071Y026705D02*
X047036Y026705D01*
X047087Y026864D02*
X041825Y026864D01*
X041942Y027022D02*
X047138Y027022D01*
X047189Y027181D02*
X041990Y027181D01*
X041990Y027339D02*
X047230Y027339D01*
X047268Y027498D02*
X041925Y027498D01*
X041785Y027656D02*
X047305Y027656D01*
X047343Y027815D02*
X041776Y027815D01*
X041921Y027973D02*
X047380Y027973D01*
X047418Y028132D02*
X046452Y028132D01*
X046468Y028147D02*
X046520Y028272D01*
X046520Y028408D01*
X046468Y028533D01*
X046373Y028628D01*
X046344Y028640D01*
X046373Y028652D01*
X046468Y028747D01*
X046520Y028872D01*
X046520Y029008D01*
X046468Y029133D01*
X046373Y029228D01*
X046248Y029280D01*
X046112Y029280D01*
X045987Y029228D01*
X045892Y029133D01*
X045840Y029008D01*
X045840Y028872D01*
X045892Y028747D01*
X045987Y028652D01*
X046016Y028640D01*
X045987Y028628D01*
X045892Y028533D01*
X045840Y028408D01*
X045840Y028272D01*
X045892Y028147D01*
X045987Y028052D01*
X046112Y028000D01*
X046248Y028000D01*
X046373Y028052D01*
X046468Y028147D01*
X046520Y028290D02*
X047455Y028290D01*
X047492Y028449D02*
X046503Y028449D01*
X046394Y028607D02*
X047530Y028607D01*
X047560Y028766D02*
X046476Y028766D01*
X046520Y028924D02*
X047584Y028924D01*
X047609Y029083D02*
X046489Y029083D01*
X046342Y029241D02*
X047633Y029241D01*
X047658Y029400D02*
X047178Y029400D01*
X047122Y029400D02*
X045020Y029400D01*
X045179Y029558D02*
X045409Y029558D01*
X045360Y029717D02*
X045337Y029717D01*
X045808Y030034D02*
X046987Y030034D01*
X046867Y029875D02*
X045970Y029875D01*
X046000Y029717D02*
X046841Y029717D01*
X046890Y029558D02*
X045951Y029558D01*
X046018Y029241D02*
X042762Y029241D01*
X042620Y029083D02*
X045871Y029083D01*
X045840Y028924D02*
X042620Y028924D01*
X042620Y028766D02*
X045884Y028766D01*
X045966Y028607D02*
X042620Y028607D01*
X042620Y028449D02*
X045857Y028449D01*
X045840Y028290D02*
X042586Y028290D01*
X042424Y028132D02*
X045908Y028132D01*
X045689Y026705D02*
X040542Y026705D01*
X040468Y026547D02*
X043276Y026547D01*
X043316Y026586D02*
X043234Y026504D01*
X043190Y026398D01*
X043190Y026282D01*
X043234Y026176D01*
X043316Y026094D01*
X043422Y026050D01*
X043538Y026050D01*
X043644Y026094D01*
X043726Y026176D01*
X043770Y026282D01*
X043770Y026398D01*
X043726Y026504D01*
X043644Y026586D01*
X043538Y026630D01*
X043422Y026630D01*
X043316Y026586D01*
X043190Y026388D02*
X040373Y026388D01*
X040279Y026230D02*
X043212Y026230D01*
X043372Y026071D02*
X040184Y026071D01*
X040090Y025913D02*
X045100Y025913D01*
X045100Y026071D02*
X043588Y026071D01*
X043748Y026230D02*
X045156Y026230D01*
X045225Y026388D02*
X043770Y026388D01*
X043684Y026547D02*
X045383Y026547D01*
X045113Y025754D02*
X039996Y025754D01*
X039901Y025596D02*
X045178Y025596D01*
X045280Y025437D02*
X039780Y025437D01*
X039667Y025279D02*
X045439Y025279D01*
X045756Y024645D02*
X046271Y024645D01*
X046336Y024803D02*
X039327Y024803D01*
X039440Y024962D02*
X046401Y024962D01*
X046207Y024486D02*
X045915Y024486D01*
X046070Y024328D02*
X046133Y024328D01*
X044248Y021158D02*
X043202Y021158D01*
X043402Y020999D02*
X044129Y020999D01*
X044010Y020841D02*
X043560Y020841D01*
X043719Y020682D02*
X043903Y020682D01*
X040912Y020365D02*
X040640Y020365D01*
X040008Y019731D02*
X039889Y019731D01*
X039850Y019890D02*
X039783Y019890D01*
X039691Y020048D02*
X039269Y020048D01*
X039377Y019890D02*
X039110Y019890D01*
X038952Y019731D02*
X039271Y019731D01*
X038960Y019573D02*
X038793Y019573D01*
X038864Y019414D02*
X038635Y019414D01*
X038476Y019256D02*
X038869Y019256D01*
X038970Y019097D02*
X035718Y019097D01*
X035232Y019573D02*
X031222Y019573D01*
X031207Y019731D02*
X035390Y019731D01*
X035073Y019414D02*
X031222Y019414D01*
X031177Y019256D02*
X034915Y019256D01*
X034840Y019097D02*
X031111Y019097D01*
X030972Y018939D02*
X034854Y018939D01*
X034959Y018780D02*
X030739Y018780D01*
X031141Y019890D02*
X038149Y019890D01*
X038307Y020048D02*
X031045Y020048D01*
X030887Y020207D02*
X038466Y020207D01*
X038624Y020365D02*
X031708Y020365D01*
X031957Y020682D02*
X027632Y020682D01*
X027312Y020524D02*
X022466Y020524D01*
X022501Y020559D02*
X022550Y020676D01*
X022550Y020804D01*
X022501Y020921D01*
X022411Y021011D01*
X022294Y021060D01*
X022166Y021060D01*
X022049Y021011D01*
X021959Y020921D01*
X021910Y020804D01*
X021910Y020676D01*
X021959Y020559D01*
X022049Y020469D01*
X022166Y020420D01*
X022294Y020420D01*
X022411Y020469D01*
X022501Y020559D01*
X022550Y020682D02*
X026809Y020682D01*
X027038Y020841D02*
X031799Y020841D01*
X031670Y020999D02*
X026543Y020999D01*
X026351Y020841D02*
X022535Y020841D01*
X022424Y020999D02*
X025968Y020999D01*
X026160Y021158D02*
X031640Y021158D01*
X031640Y021316D02*
X025789Y021316D01*
X025617Y021158D02*
X018917Y021158D01*
X019010Y021316D02*
X025313Y021316D01*
X025485Y021475D02*
X031640Y021475D01*
X031201Y020524D02*
X028516Y020524D01*
X028034Y020365D02*
X018436Y020365D01*
X018280Y020524D02*
X021994Y020524D01*
X021910Y020682D02*
X018339Y020682D01*
X018333Y020841D02*
X021925Y020841D01*
X022036Y020999D02*
X018276Y020999D01*
X018276Y021158D02*
X018328Y021158D01*
X017596Y021792D02*
X015085Y021792D01*
X014989Y021950D02*
X017596Y021950D01*
X017596Y022109D02*
X014893Y022109D01*
X014797Y022267D02*
X017596Y022267D01*
X017596Y022426D02*
X016418Y022426D01*
X016451Y022459D02*
X016500Y022576D01*
X016500Y022704D01*
X016451Y022821D01*
X016361Y022911D01*
X016244Y022960D01*
X016200Y022960D01*
X016200Y023004D01*
X016151Y023121D01*
X016061Y023211D01*
X015944Y023260D01*
X015816Y023260D01*
X015699Y023211D01*
X015609Y023121D01*
X015560Y023004D01*
X015560Y022876D01*
X015609Y022759D01*
X015699Y022669D01*
X015816Y022620D01*
X015860Y022620D01*
X015860Y022576D01*
X015909Y022459D01*
X015999Y022369D01*
X016116Y022320D01*
X016244Y022320D01*
X016361Y022369D01*
X016451Y022459D01*
X016500Y022584D02*
X017596Y022584D01*
X017596Y022743D02*
X016484Y022743D01*
X016372Y022901D02*
X017596Y022901D01*
X017596Y023060D02*
X016177Y023060D01*
X016045Y023218D02*
X017596Y023218D01*
X017596Y023377D02*
X014148Y023377D01*
X014069Y023535D02*
X017596Y023535D01*
X017596Y023694D02*
X013989Y023694D01*
X013910Y023852D02*
X017596Y023852D01*
X017670Y024011D02*
X013831Y024011D01*
X013751Y024169D02*
X017828Y024169D01*
X017987Y024328D02*
X013672Y024328D01*
X013592Y024486D02*
X018145Y024486D01*
X018304Y024645D02*
X013518Y024645D01*
X013454Y024803D02*
X018462Y024803D01*
X018621Y024962D02*
X013390Y024962D01*
X013326Y025120D02*
X018779Y025120D01*
X018938Y025279D02*
X014321Y025279D01*
X014480Y025437D02*
X019040Y025437D01*
X019040Y025596D02*
X014582Y025596D01*
X014647Y025754D02*
X018885Y025754D01*
X018727Y025913D02*
X014660Y025913D01*
X014660Y026071D02*
X018641Y026071D01*
X018649Y026230D02*
X014604Y026230D01*
X014535Y026388D02*
X018747Y026388D01*
X020052Y025279D02*
X021401Y025279D01*
X021483Y025120D02*
X020161Y025120D01*
X020161Y024962D02*
X021566Y024962D01*
X021657Y024803D02*
X020053Y024803D01*
X021484Y025596D02*
X026431Y025596D01*
X026390Y025437D02*
X021566Y025437D01*
X021649Y025279D02*
X026433Y025279D01*
X026929Y025596D02*
X027314Y025596D01*
X027250Y025754D02*
X021408Y025754D01*
X021342Y025913D02*
X027281Y025913D01*
X027495Y026071D02*
X021277Y026071D01*
X022069Y023377D02*
X022698Y023377D01*
X022844Y023218D02*
X022198Y023218D01*
X018753Y020048D02*
X029755Y020048D01*
X029913Y020207D02*
X018594Y020207D01*
X016668Y021633D02*
X016573Y021728D01*
X016448Y021780D01*
X016312Y021780D01*
X016187Y021728D01*
X016092Y021633D01*
X015199Y021633D01*
X015313Y021475D02*
X016040Y021475D01*
X016040Y021508D02*
X016040Y020470D01*
X016040Y020524D02*
X016000Y020524D01*
X016040Y020682D02*
X015886Y020682D01*
X015771Y020841D02*
X016040Y020841D01*
X016040Y020999D02*
X015657Y020999D01*
X015542Y021158D02*
X016040Y021158D01*
X016040Y021316D02*
X015428Y021316D01*
X016040Y021508D02*
X016092Y021633D01*
X015942Y022426D02*
X014701Y022426D01*
X014605Y022584D02*
X015860Y022584D01*
X015625Y022743D02*
X014509Y022743D01*
X014413Y022901D02*
X015560Y022901D01*
X015583Y023060D02*
X014317Y023060D01*
X014227Y023218D02*
X015715Y023218D01*
X013439Y025279D02*
X013262Y025279D01*
X013280Y025437D02*
X013198Y025437D01*
X013178Y025596D02*
X013134Y025596D01*
X013113Y025754D02*
X013070Y025754D01*
X013100Y025913D02*
X013006Y025913D01*
X012942Y026071D02*
X013100Y026071D01*
X013156Y026230D02*
X012892Y026230D01*
X012843Y026388D02*
X013225Y026388D01*
X013383Y026547D02*
X012793Y026547D01*
X012743Y026705D02*
X013689Y026705D01*
X017004Y030723D02*
X017306Y030598D01*
X017634Y030598D01*
X017936Y030723D01*
X017137Y030668D02*
X013488Y030668D01*
X013630Y030826D02*
X016901Y030826D01*
X017004Y030723D02*
X016773Y030954D01*
X016648Y031256D01*
X016648Y031584D01*
X016773Y031886D01*
X017004Y032117D01*
X017306Y032242D01*
X017634Y032242D01*
X017862Y032148D01*
X017834Y032176D01*
X017790Y032282D01*
X017790Y032398D01*
X017834Y032504D01*
X017916Y032586D01*
X018022Y032630D01*
X018138Y032630D01*
X018244Y032586D01*
X018326Y032504D01*
X018370Y032398D01*
X018370Y032282D01*
X018326Y032176D01*
X018244Y032094D01*
X018358Y032253D02*
X020360Y032253D01*
X020360Y032411D02*
X018364Y032411D01*
X018261Y032570D02*
X020360Y032570D01*
X020360Y032728D02*
X016561Y032728D01*
X016591Y032698D02*
X016478Y032811D01*
X016330Y032872D01*
X016170Y032872D01*
X016022Y032811D01*
X015909Y032698D01*
X015848Y032550D01*
X015848Y032390D01*
X015909Y032242D01*
X016022Y032129D01*
X016170Y032068D01*
X016330Y032068D01*
X016478Y032129D01*
X016591Y032242D01*
X016652Y032390D01*
X016652Y032550D01*
X016591Y032698D01*
X016644Y032570D02*
X017899Y032570D01*
X017796Y032411D02*
X016652Y032411D01*
X016596Y032253D02*
X017802Y032253D01*
X016981Y032094D02*
X016394Y032094D01*
X016106Y032094D02*
X015424Y032094D01*
X015360Y032068D02*
X015508Y032129D01*
X015621Y032242D01*
X015682Y032390D01*
X015682Y032550D01*
X015621Y032698D01*
X015508Y032811D01*
X015360Y032872D01*
X015200Y032872D01*
X015052Y032811D01*
X014939Y032698D01*
X014880Y032556D01*
X014821Y032698D01*
X014708Y032811D01*
X014560Y032872D01*
X014400Y032872D01*
X014252Y032811D01*
X014139Y032698D01*
X014078Y032550D01*
X014078Y032390D01*
X014139Y032242D01*
X014252Y032129D01*
X014400Y032068D01*
X014560Y032068D01*
X014708Y032129D01*
X014821Y032242D01*
X014880Y032384D01*
X014939Y032242D01*
X015052Y032129D01*
X015200Y032068D01*
X015360Y032068D01*
X015136Y032094D02*
X014624Y032094D01*
X014826Y032253D02*
X014934Y032253D01*
X014886Y032570D02*
X014874Y032570D01*
X014791Y032728D02*
X014969Y032728D01*
X015591Y032728D02*
X015939Y032728D01*
X015856Y032570D02*
X015674Y032570D01*
X015682Y032411D02*
X015848Y032411D01*
X015904Y032253D02*
X015626Y032253D01*
X016728Y031777D02*
X013670Y031777D01*
X013670Y031619D02*
X016662Y031619D01*
X016648Y031460D02*
X013670Y031460D01*
X013670Y031302D02*
X016648Y031302D01*
X016694Y031143D02*
X013670Y031143D01*
X013670Y030985D02*
X016760Y030985D01*
X016822Y031936D02*
X013658Y031936D01*
X013654Y032094D02*
X014336Y032094D01*
X014134Y032253D02*
X013856Y032253D01*
X013912Y032411D02*
X014078Y032411D01*
X014086Y032570D02*
X013904Y032570D01*
X013821Y032728D02*
X014169Y032728D01*
X013199Y032728D02*
X013112Y032728D01*
X013014Y032887D02*
X020360Y032887D01*
X020360Y033045D02*
X012256Y033045D01*
X012097Y033204D02*
X020360Y033204D01*
X020360Y033362D02*
X011939Y033362D01*
X012001Y033521D02*
X020360Y033521D01*
X020360Y033679D02*
X017327Y033679D01*
X017326Y033676D02*
X017370Y033782D01*
X017370Y033898D01*
X017326Y034004D01*
X017244Y034086D01*
X017138Y034130D01*
X017022Y034130D01*
X016916Y034086D01*
X016834Y034004D01*
X016830Y033994D01*
X016826Y034004D01*
X016744Y034086D01*
X016638Y034130D01*
X016522Y034130D01*
X016416Y034086D01*
X016334Y034004D01*
X016330Y033994D01*
X016326Y034004D01*
X016244Y034086D01*
X016138Y034130D01*
X016022Y034130D01*
X015916Y034086D01*
X015834Y034004D01*
X015790Y033898D01*
X015790Y033782D01*
X015834Y033676D01*
X015916Y033594D01*
X016022Y033550D01*
X016138Y033550D01*
X016244Y033594D01*
X016326Y033676D01*
X016330Y033686D01*
X016334Y033676D01*
X016416Y033594D01*
X016522Y033550D01*
X016638Y033550D01*
X016744Y033594D01*
X016826Y033676D01*
X016830Y033686D01*
X016834Y033676D01*
X016916Y033594D01*
X017022Y033550D01*
X017138Y033550D01*
X017244Y033594D01*
X017326Y033676D01*
X017370Y033838D02*
X020360Y033838D01*
X020360Y033996D02*
X017329Y033996D01*
X016831Y033996D02*
X016829Y033996D01*
X016827Y033679D02*
X016833Y033679D01*
X016333Y033679D02*
X016327Y033679D01*
X016329Y033996D02*
X016331Y033996D01*
X015831Y033996D02*
X012477Y033996D01*
X012318Y033838D02*
X015790Y033838D01*
X015833Y033679D02*
X012160Y033679D01*
X012215Y034789D02*
X012480Y034789D01*
X012460Y034947D02*
X012253Y034947D01*
X012292Y035106D02*
X012533Y035106D01*
X012330Y035264D02*
X014507Y035264D01*
X014509Y035259D02*
X014599Y035169D01*
X014716Y035120D01*
X014844Y035120D01*
X014961Y035169D01*
X015051Y035259D01*
X015100Y035376D01*
X015100Y035504D01*
X015051Y035621D01*
X014961Y035711D01*
X014844Y035760D01*
X014716Y035760D01*
X014599Y035711D01*
X014509Y035621D01*
X014460Y035504D01*
X014460Y035376D01*
X014509Y035259D01*
X014460Y035423D02*
X012369Y035423D01*
X012407Y035581D02*
X014492Y035581D01*
X014667Y035740D02*
X013432Y035740D01*
X013451Y035759D02*
X013500Y035876D01*
X013500Y036004D01*
X013451Y036121D01*
X013361Y036211D01*
X013244Y036260D01*
X013116Y036260D01*
X012999Y036211D01*
X012909Y036121D01*
X012860Y036004D01*
X012860Y035876D01*
X012909Y035759D01*
X012999Y035669D01*
X013116Y035620D01*
X013244Y035620D01*
X013361Y035669D01*
X013451Y035759D01*
X013500Y035898D02*
X018160Y035898D01*
X018130Y036057D02*
X013478Y036057D01*
X013352Y036215D02*
X018174Y036215D01*
X018291Y035740D02*
X014893Y035740D01*
X015068Y035581D02*
X020225Y035581D01*
X020234Y035604D02*
X020190Y035498D01*
X020190Y035382D01*
X020234Y035276D01*
X020316Y035194D01*
X020422Y035150D01*
X020538Y035150D01*
X020644Y035194D01*
X020726Y035276D01*
X020770Y035382D01*
X020770Y035498D01*
X020726Y035604D01*
X020644Y035686D01*
X020538Y035730D01*
X020422Y035730D01*
X020316Y035686D01*
X020234Y035604D01*
X020190Y035423D02*
X015100Y035423D01*
X015053Y035264D02*
X020246Y035264D01*
X020714Y035264D02*
X033017Y035264D01*
X033204Y035423D02*
X020770Y035423D01*
X020735Y035581D02*
X039347Y035581D01*
X039316Y035594D02*
X039422Y035550D01*
X039538Y035550D01*
X039644Y035594D01*
X039726Y035676D01*
X039770Y035782D01*
X039770Y035898D01*
X043772Y035898D01*
X043760Y035926D02*
X043809Y035809D01*
X043899Y035719D01*
X044016Y035670D01*
X044144Y035670D01*
X044261Y035719D01*
X044351Y035809D01*
X044400Y035926D01*
X044400Y036054D01*
X044351Y036171D01*
X044261Y036261D01*
X044144Y036310D01*
X044016Y036310D01*
X043899Y036261D01*
X043809Y036171D01*
X043760Y036054D01*
X043760Y035926D01*
X043761Y036057D02*
X039674Y036057D01*
X039644Y036086D02*
X039538Y036130D01*
X039422Y036130D01*
X039316Y036086D01*
X039234Y036004D01*
X039190Y035898D01*
X018800Y035898D01*
X018669Y035740D02*
X039208Y035740D01*
X039190Y035782D02*
X039234Y035676D01*
X039316Y035594D01*
X039404Y035423D02*
X033356Y035423D01*
X033543Y035264D02*
X039217Y035264D01*
X039234Y035304D02*
X039190Y035198D01*
X039190Y035082D01*
X039234Y034976D01*
X039316Y034894D01*
X039422Y034850D01*
X039538Y034850D01*
X039644Y034894D01*
X039726Y034976D01*
X039770Y035082D01*
X039770Y035198D01*
X039726Y035304D01*
X039644Y035386D01*
X039538Y035430D01*
X039422Y035430D01*
X039316Y035386D01*
X039234Y035304D01*
X039190Y035106D02*
X033570Y035106D01*
X033497Y034947D02*
X039263Y034947D01*
X039697Y034947D02*
X046106Y034947D01*
X045991Y034789D02*
X033131Y034789D01*
X032629Y034789D02*
X021231Y034789D01*
X021270Y034947D02*
X032590Y034947D01*
X032635Y035106D02*
X021225Y035106D01*
X020735Y035106D02*
X013027Y035106D01*
X013100Y034947D02*
X014085Y034947D01*
X014116Y034960D02*
X013999Y034911D01*
X013909Y034821D01*
X013860Y034704D01*
X013860Y034576D01*
X013909Y034459D01*
X013999Y034369D01*
X014116Y034320D01*
X014244Y034320D01*
X014361Y034369D01*
X014451Y034459D01*
X014500Y034576D01*
X014500Y034704D01*
X014451Y034821D01*
X014361Y034911D01*
X014244Y034960D01*
X014116Y034960D01*
X014275Y034947D02*
X020690Y034947D01*
X020729Y034789D02*
X014465Y034789D01*
X014500Y034630D02*
X020525Y034630D01*
X020375Y034472D02*
X014457Y034472D01*
X013903Y034472D02*
X013194Y034472D01*
X013220Y034313D02*
X020355Y034313D01*
X020360Y034155D02*
X013171Y034155D01*
X013068Y034630D02*
X013860Y034630D01*
X013895Y034789D02*
X013080Y034789D01*
X012928Y035740D02*
X012446Y035740D01*
X012484Y035898D02*
X012860Y035898D01*
X012882Y036057D02*
X012523Y036057D01*
X012573Y036215D02*
X013008Y036215D01*
X014050Y037166D02*
X016805Y037166D01*
X016681Y037325D02*
X014368Y037325D01*
X014526Y037483D02*
X016660Y037483D01*
X016729Y037642D02*
X014601Y037642D01*
X014671Y038434D02*
X014489Y038434D01*
X014331Y038593D02*
X014654Y038593D01*
X013799Y039544D02*
X020519Y039544D01*
X020219Y039702D02*
X013874Y039702D01*
X013949Y039861D02*
X020061Y039861D01*
X019987Y040019D02*
X014025Y040019D01*
X014100Y040178D02*
X019921Y040178D01*
X019921Y040336D02*
X014176Y040336D01*
X014251Y040495D02*
X017745Y040495D01*
X017787Y040452D02*
X017912Y040400D01*
X018048Y040400D01*
X018173Y040452D01*
X018268Y040547D01*
X018320Y040672D01*
X018320Y040808D01*
X018268Y040933D01*
X018173Y041028D01*
X018048Y041080D01*
X017912Y041080D01*
X017787Y041028D01*
X017692Y040933D01*
X017640Y040808D01*
X017640Y040672D01*
X017692Y040547D01*
X017787Y040452D01*
X017648Y040653D02*
X014327Y040653D01*
X014407Y040812D02*
X017642Y040812D01*
X017729Y040970D02*
X014496Y040970D01*
X014585Y041129D02*
X020496Y041129D01*
X020210Y040970D02*
X018231Y040970D01*
X018318Y040812D02*
X020051Y040812D01*
X019983Y040653D02*
X018312Y040653D01*
X018215Y040495D02*
X019921Y040495D01*
X020397Y041604D02*
X018197Y041604D01*
X018161Y041569D02*
X018251Y041659D01*
X018300Y041776D01*
X018300Y041904D01*
X018251Y042021D01*
X018161Y042111D01*
X018044Y042160D01*
X017916Y042160D01*
X017799Y042111D01*
X017730Y042043D01*
X017661Y042111D01*
X017544Y042160D01*
X017416Y042160D01*
X017299Y042111D01*
X017209Y042021D01*
X017160Y041904D01*
X017160Y041776D01*
X017209Y041659D01*
X017299Y041569D01*
X017416Y041520D01*
X017544Y041520D01*
X017661Y041569D01*
X017730Y041637D01*
X017799Y041569D01*
X017916Y041520D01*
X018044Y041520D01*
X018161Y041569D01*
X018294Y041763D02*
X020264Y041763D01*
X020221Y041921D02*
X018293Y041921D01*
X018193Y042080D02*
X020243Y042080D01*
X020340Y042555D02*
X023590Y042555D01*
X023643Y042714D02*
X020339Y042714D01*
X020267Y042872D02*
X023638Y042872D01*
X023590Y043031D02*
X020027Y043031D01*
X019848Y043031D02*
X019738Y043031D01*
X019774Y043189D02*
X023628Y043189D01*
X023662Y043348D02*
X019745Y043348D01*
X019633Y043506D02*
X023590Y043506D01*
X023618Y043665D02*
X019031Y043665D01*
X019027Y043656D02*
X019089Y043803D01*
X019089Y043964D01*
X019027Y044111D01*
X018914Y044225D01*
X018766Y044286D01*
X018606Y044286D01*
X018458Y044225D01*
X018345Y044111D01*
X018284Y043964D01*
X018284Y043803D01*
X018345Y043656D01*
X018458Y043542D01*
X018606Y043481D01*
X018766Y043481D01*
X018914Y043542D01*
X019027Y043656D01*
X019111Y043506D02*
X018827Y043506D01*
X018998Y043348D02*
X017588Y043348D01*
X017547Y043306D02*
X017778Y043538D01*
X017903Y043840D01*
X017903Y044167D01*
X017778Y044470D01*
X017547Y044701D01*
X017245Y044826D01*
X016917Y044826D01*
X016615Y044701D01*
X016384Y044470D01*
X016258Y044167D01*
X016258Y043840D01*
X016384Y043538D01*
X016441Y043480D01*
X015412Y043480D01*
X015411Y043480D01*
X015722Y043881D01*
X016753Y045006D01*
X017873Y046043D01*
X019075Y046984D01*
X019661Y047386D01*
X019637Y047328D01*
X019637Y047143D01*
X019707Y046972D01*
X019838Y046842D01*
X020009Y046771D01*
X020194Y046771D01*
X020365Y046842D01*
X020495Y046972D01*
X020566Y047143D01*
X020566Y047328D01*
X020495Y047499D01*
X020365Y047630D01*
X020230Y047686D01*
X021204Y048187D01*
X021183Y048139D01*
X021183Y047941D01*
X021259Y047759D01*
X021399Y047619D01*
X021581Y047543D01*
X021779Y047543D01*
X021961Y047619D01*
X022101Y047759D01*
X022177Y047941D01*
X022177Y048139D01*
X022101Y048321D01*
X021961Y048461D01*
X021835Y048513D01*
X022936Y049081D01*
X022899Y048990D01*
X022899Y048805D01*
X022970Y048635D01*
X023101Y048504D01*
X023271Y048433D01*
X023456Y048433D01*
X023627Y048504D01*
X023758Y048635D01*
X023829Y048805D01*
X023829Y048990D01*
X023758Y049161D01*
X023627Y049292D01*
X023522Y049336D01*
X023935Y049486D01*
X024661Y049716D01*
X024641Y049696D01*
X024570Y049525D01*
X024570Y049340D01*
X024641Y049169D01*
X024772Y049038D01*
X024943Y048968D01*
X025128Y048968D01*
X025299Y049038D01*
X025429Y049169D01*
X025500Y049340D01*
X025500Y049525D01*
X025429Y049696D01*
X025299Y049826D01*
X025295Y049828D01*
X026357Y050015D01*
X026283Y049839D01*
X026283Y049641D01*
X026359Y049459D01*
X026499Y049319D01*
X026681Y049243D01*
X026879Y049243D01*
X027061Y049319D01*
X027201Y049459D01*
X027277Y049641D01*
X027277Y049839D01*
X027201Y050021D01*
X027080Y050143D01*
X028267Y050352D01*
X028247Y050331D01*
X028176Y050161D01*
X028176Y049976D01*
X028247Y049805D01*
X028378Y049674D01*
X028549Y049603D01*
X028734Y049603D01*
X028904Y049674D01*
X029035Y049805D01*
X029106Y049976D01*
X029106Y050161D01*
X029035Y050331D01*
X028931Y050435D01*
X029158Y050447D01*
X029336Y050448D01*
X029309Y050421D01*
X029260Y050304D01*
X029260Y050176D01*
X029309Y050059D01*
X029399Y049969D01*
X029516Y049920D01*
X029644Y049920D01*
X029761Y049969D01*
X029780Y049987D01*
X029799Y049969D01*
X029916Y049920D01*
X030044Y049920D01*
X030161Y049969D01*
X030251Y050059D01*
X030300Y050176D01*
X030300Y050304D01*
X030251Y050421D01*
X030217Y050455D01*
X030678Y050441D01*
X031568Y050329D01*
X031416Y050176D01*
X031284Y049857D01*
X031284Y049511D01*
X031416Y049191D01*
X031661Y048946D01*
X031981Y048814D01*
X032327Y048814D01*
X032646Y048946D01*
X032891Y049191D01*
X033024Y049511D01*
X033024Y049857D01*
X032897Y050161D01*
X033752Y050054D01*
X034177Y049958D01*
X035039Y049732D01*
X035450Y049608D01*
X036019Y049346D01*
X035989Y049334D01*
X035850Y049195D01*
X035808Y049094D01*
X035731Y049171D01*
X035614Y049220D01*
X035486Y049220D01*
X035369Y049171D01*
X035279Y049081D01*
X035230Y048964D01*
X035230Y048836D01*
X035279Y048719D01*
X035369Y048629D01*
X035486Y048580D01*
X035614Y048580D01*
X035731Y048629D01*
X035817Y048714D01*
X035850Y048635D01*
X035989Y048496D01*
X036170Y048420D01*
X036367Y048420D01*
X036549Y048496D01*
X036688Y048635D01*
X036763Y048816D01*
X036763Y049004D01*
X038380Y048260D01*
X038349Y048248D01*
X038210Y048109D01*
X038135Y047927D01*
X038135Y047731D01*
X038210Y047549D01*
X038349Y047410D01*
X038531Y047335D01*
X038728Y047335D01*
X038910Y047410D01*
X039049Y047549D01*
X039124Y047731D01*
X039124Y047918D01*
X039655Y047674D01*
X040300Y047255D01*
X041557Y046319D01*
X042730Y045280D01*
X043780Y044180D01*
X043772Y044180D01*
X043721Y044159D01*
X043668Y044141D01*
X043659Y044133D01*
X043647Y044128D01*
X043608Y044089D01*
X043566Y044053D01*
X043561Y044041D01*
X043552Y044033D01*
X043531Y043981D01*
X043506Y043932D01*
X043505Y043919D01*
X043500Y043908D01*
X043500Y043852D01*
X043496Y043797D01*
X043500Y043785D01*
X043500Y043141D01*
X043092Y042733D01*
X043040Y042608D01*
X043040Y042472D01*
X043092Y042347D01*
X043187Y042252D01*
X043312Y042200D01*
X043448Y042200D01*
X043573Y042252D01*
X044033Y042712D01*
X044128Y042807D01*
X044165Y042897D01*
X044886Y041913D01*
X045633Y040693D01*
X046279Y039416D01*
X046817Y038090D01*
X047245Y036725D01*
X047206Y036849D02*
X027049Y036849D01*
X026958Y037008D02*
X047156Y037008D01*
X047107Y037166D02*
X046050Y037166D01*
X046035Y037160D02*
X046322Y037279D01*
X046541Y037498D01*
X046660Y037785D01*
X046660Y038095D01*
X046541Y038382D01*
X046322Y038601D01*
X046035Y038720D01*
X045725Y038720D01*
X045438Y038601D01*
X045219Y038382D01*
X045100Y038095D01*
X045100Y037785D01*
X045219Y037498D01*
X045438Y037279D01*
X045725Y037160D01*
X046035Y037160D01*
X045710Y037166D02*
X027063Y037166D01*
X027059Y037325D02*
X045392Y037325D01*
X045234Y037483D02*
X026947Y037483D01*
X027053Y037642D02*
X045159Y037642D01*
X045100Y037800D02*
X027069Y037800D01*
X026972Y037959D02*
X045100Y037959D01*
X045109Y038117D02*
X027043Y038117D01*
X027070Y038276D02*
X045175Y038276D01*
X045271Y038434D02*
X026996Y038434D01*
X027033Y038593D02*
X045429Y038593D01*
X045616Y039120D02*
X045744Y039120D01*
X045861Y039169D01*
X045951Y039259D01*
X046000Y039376D01*
X046000Y039504D01*
X045951Y039621D01*
X045933Y039640D01*
X045951Y039659D01*
X046000Y039776D01*
X046000Y039904D01*
X045951Y040021D01*
X045861Y040111D01*
X045744Y040160D01*
X045616Y040160D01*
X045499Y040111D01*
X045409Y040021D01*
X045360Y039904D01*
X045360Y039776D01*
X045409Y039659D01*
X045427Y039640D01*
X045409Y039621D01*
X045360Y039504D01*
X045360Y039376D01*
X045409Y039259D01*
X045499Y039169D01*
X045616Y039120D01*
X045441Y039227D02*
X043020Y039227D01*
X043020Y039385D02*
X045360Y039385D01*
X045377Y039544D02*
X043020Y039544D01*
X043020Y039702D02*
X045391Y039702D01*
X045360Y039861D02*
X043020Y039861D01*
X043020Y040019D02*
X045408Y040019D01*
X045894Y040178D02*
X043020Y040178D01*
X043020Y040336D02*
X045814Y040336D01*
X045734Y040495D02*
X043020Y040495D01*
X043020Y040653D02*
X045654Y040653D01*
X045561Y040812D02*
X043020Y040812D01*
X043020Y040970D02*
X045464Y040970D01*
X045366Y041129D02*
X043020Y041129D01*
X043020Y041287D02*
X045269Y041287D01*
X045172Y041446D02*
X043020Y041446D01*
X043020Y041604D02*
X045075Y041604D01*
X044978Y041763D02*
X043020Y041763D01*
X043020Y041921D02*
X044880Y041921D01*
X044764Y042080D02*
X043020Y042080D01*
X043020Y042238D02*
X043221Y042238D01*
X043071Y042397D02*
X042983Y042397D01*
X043040Y042555D02*
X042846Y042555D01*
X042687Y042714D02*
X043084Y042714D01*
X043231Y042872D02*
X042529Y042872D01*
X042370Y043031D02*
X043390Y043031D01*
X043500Y043189D02*
X042226Y043189D01*
X042171Y043348D02*
X043500Y043348D01*
X043500Y043506D02*
X041977Y043506D01*
X041670Y043506D02*
X032167Y043506D01*
X032170Y043498D02*
X032126Y043604D01*
X032044Y043686D01*
X031938Y043730D01*
X031822Y043730D01*
X031716Y043686D01*
X031634Y043604D01*
X031590Y043498D01*
X031590Y043382D01*
X031634Y043276D01*
X031716Y043194D01*
X031822Y043150D01*
X031938Y043150D01*
X032044Y043194D01*
X032126Y043276D01*
X032170Y043382D01*
X032170Y043498D01*
X032156Y043348D02*
X041476Y043348D01*
X041421Y043189D02*
X032032Y043189D01*
X032022Y043080D02*
X031916Y043036D01*
X031834Y042954D01*
X031790Y042848D01*
X031790Y042732D01*
X031791Y042730D01*
X031722Y042730D01*
X031616Y042686D01*
X031534Y042604D01*
X031490Y042498D01*
X031490Y042382D01*
X031534Y042276D01*
X031570Y042240D01*
X031534Y042204D01*
X031490Y042098D01*
X031490Y041982D01*
X031534Y041876D01*
X031616Y041794D01*
X031722Y041750D01*
X031791Y041750D01*
X031790Y041748D01*
X031790Y041632D01*
X031834Y041526D01*
X031916Y041444D01*
X032022Y041400D01*
X032138Y041400D01*
X032244Y041444D01*
X032326Y041526D01*
X032370Y041632D01*
X032370Y041748D01*
X032326Y041854D01*
X032244Y041936D01*
X032138Y041980D01*
X032069Y041980D01*
X032070Y041982D01*
X032070Y042098D01*
X032026Y042204D01*
X031990Y042240D01*
X032026Y042276D01*
X032070Y042382D01*
X032070Y042498D01*
X032069Y042500D01*
X032138Y042500D01*
X032244Y042544D01*
X032326Y042626D01*
X032370Y042732D01*
X032370Y042848D01*
X032326Y042954D01*
X032244Y043036D01*
X032138Y043080D01*
X032022Y043080D01*
X031910Y043031D02*
X027670Y043031D01*
X027632Y043189D02*
X031728Y043189D01*
X031604Y043348D02*
X027598Y043348D01*
X027670Y043506D02*
X031593Y043506D01*
X031694Y043665D02*
X027642Y043665D01*
X027454Y043823D02*
X032987Y043823D01*
X033016Y043794D02*
X033122Y043750D01*
X033238Y043750D01*
X033344Y043794D01*
X033426Y043876D01*
X033470Y043982D01*
X033470Y044098D01*
X033426Y044204D01*
X033344Y044286D01*
X033238Y044330D01*
X033122Y044330D01*
X033016Y044286D01*
X032934Y044204D01*
X032890Y044098D01*
X032890Y043982D01*
X032934Y043876D01*
X033016Y043794D01*
X032890Y043982D02*
X032014Y043982D01*
X032044Y043994D02*
X032126Y044076D01*
X032170Y044182D01*
X032170Y044298D01*
X032126Y044404D01*
X032044Y044486D01*
X031938Y044530D01*
X031822Y044530D01*
X031716Y044486D01*
X031634Y044404D01*
X031590Y044298D01*
X031590Y044182D01*
X031634Y044076D01*
X031716Y043994D01*
X031822Y043950D01*
X031938Y043950D01*
X032044Y043994D01*
X032152Y044140D02*
X032908Y044140D01*
X033046Y044299D02*
X032170Y044299D01*
X032073Y044457D02*
X033105Y044457D01*
X033122Y044450D02*
X033238Y044450D01*
X033344Y044494D01*
X033426Y044576D01*
X033470Y044682D01*
X033470Y044798D01*
X033426Y044904D01*
X033344Y044986D01*
X033238Y045030D01*
X033122Y045030D01*
X033016Y044986D01*
X032934Y044904D01*
X032890Y044798D01*
X032890Y044682D01*
X032934Y044576D01*
X033016Y044494D01*
X033122Y044450D01*
X033255Y044457D02*
X041170Y044457D01*
X041121Y044575D02*
X041246Y044273D01*
X041478Y044042D01*
X041780Y043917D01*
X042107Y043917D01*
X042410Y044042D01*
X042641Y044273D01*
X042766Y044575D01*
X042766Y044903D01*
X042641Y045205D01*
X042410Y045436D01*
X042107Y045562D01*
X041780Y045562D01*
X041478Y045436D01*
X041404Y045363D01*
X041404Y045556D01*
X041327Y045743D01*
X041183Y045887D01*
X040996Y045964D01*
X040793Y045964D01*
X040605Y045887D01*
X040462Y045743D01*
X040384Y045556D01*
X040384Y045353D01*
X040462Y045165D01*
X040605Y045022D01*
X040793Y044944D01*
X040996Y044944D01*
X041168Y045016D01*
X041121Y044903D01*
X041121Y044575D01*
X041121Y044616D02*
X033442Y044616D01*
X033470Y044774D02*
X041121Y044774D01*
X041134Y044933D02*
X033398Y044933D01*
X033280Y045091D02*
X040536Y045091D01*
X040427Y045250D02*
X033480Y045250D01*
X033466Y045216D02*
X033510Y045322D01*
X033510Y045438D01*
X033466Y045544D01*
X033384Y045626D01*
X033278Y045670D01*
X033162Y045670D01*
X033056Y045626D01*
X032974Y045544D01*
X032930Y045438D01*
X032930Y045322D01*
X032974Y045216D01*
X033056Y045134D01*
X033162Y045090D01*
X033278Y045090D01*
X033384Y045134D01*
X033466Y045216D01*
X033510Y045408D02*
X040384Y045408D01*
X040389Y045567D02*
X033444Y045567D01*
X032996Y045567D02*
X025364Y045567D01*
X025344Y045586D02*
X025426Y045504D01*
X025470Y045398D01*
X025470Y045282D01*
X025426Y045176D01*
X025344Y045094D01*
X025238Y045050D01*
X025122Y045050D01*
X025016Y045094D01*
X024934Y045176D01*
X024890Y045282D01*
X024890Y045398D01*
X024934Y045504D01*
X025016Y045586D01*
X025122Y045630D01*
X025238Y045630D01*
X025344Y045586D01*
X025466Y045408D02*
X032930Y045408D01*
X032960Y045250D02*
X025456Y045250D01*
X025337Y045091D02*
X031429Y045091D01*
X031434Y045104D02*
X031390Y044998D01*
X031390Y044882D01*
X031434Y044776D01*
X031516Y044694D01*
X031622Y044650D01*
X031738Y044650D01*
X031844Y044694D01*
X031926Y044776D01*
X031970Y044882D01*
X031970Y044998D01*
X031926Y045104D01*
X031844Y045186D01*
X031738Y045230D01*
X031622Y045230D01*
X031516Y045186D01*
X031434Y045104D01*
X031390Y044933D02*
X025398Y044933D01*
X025426Y044904D02*
X025344Y044986D01*
X025238Y045030D01*
X025122Y045030D01*
X025016Y044986D01*
X024934Y044904D01*
X024890Y044798D01*
X024890Y044682D01*
X024934Y044576D01*
X025016Y044494D01*
X025122Y044450D01*
X025238Y044450D01*
X025344Y044494D01*
X025426Y044576D01*
X025470Y044682D01*
X025470Y044798D01*
X025426Y044904D01*
X025470Y044774D02*
X029404Y044774D01*
X029416Y044786D02*
X029334Y044704D01*
X029290Y044598D01*
X029290Y044482D01*
X029334Y044376D01*
X029416Y044294D01*
X029522Y044250D01*
X029638Y044250D01*
X029744Y044294D01*
X029826Y044376D01*
X029870Y044482D01*
X029870Y044598D01*
X029826Y044704D01*
X029744Y044786D01*
X029638Y044830D01*
X029522Y044830D01*
X029416Y044786D01*
X029297Y044616D02*
X025442Y044616D01*
X025255Y044457D02*
X029300Y044457D01*
X029411Y044299D02*
X025428Y044299D01*
X025426Y044304D02*
X025344Y044386D01*
X025238Y044430D01*
X025122Y044430D01*
X025016Y044386D01*
X024934Y044304D01*
X024890Y044198D01*
X024890Y044082D01*
X024934Y043976D01*
X025016Y043894D01*
X025122Y043850D01*
X025238Y043850D01*
X025344Y043894D01*
X025426Y043976D01*
X025470Y044082D01*
X025470Y044198D01*
X025426Y044304D01*
X025470Y044140D02*
X031608Y044140D01*
X031590Y044299D02*
X029749Y044299D01*
X029860Y044457D02*
X031687Y044457D01*
X031924Y044774D02*
X032236Y044774D01*
X032234Y044776D02*
X032316Y044694D01*
X032422Y044650D01*
X032538Y044650D01*
X032644Y044694D01*
X032726Y044776D01*
X032770Y044882D01*
X032770Y044998D01*
X032726Y045104D01*
X032644Y045186D01*
X032538Y045230D01*
X032422Y045230D01*
X032316Y045186D01*
X032234Y045104D01*
X032190Y044998D01*
X032190Y044882D01*
X032234Y044776D01*
X032190Y044933D02*
X031970Y044933D01*
X031931Y045091D02*
X032229Y045091D01*
X032731Y045091D02*
X033160Y045091D01*
X032962Y044933D02*
X032770Y044933D01*
X032724Y044774D02*
X032890Y044774D01*
X032918Y044616D02*
X029863Y044616D01*
X029756Y044774D02*
X031436Y044774D01*
X031746Y043982D02*
X025428Y043982D01*
X025454Y043823D02*
X025806Y043823D01*
X025954Y043823D02*
X026306Y043823D01*
X026454Y043823D02*
X026806Y043823D01*
X026954Y043823D02*
X027306Y043823D01*
X027622Y042872D02*
X031800Y042872D01*
X031683Y042714D02*
X027617Y042714D01*
X027670Y042555D02*
X031514Y042555D01*
X031490Y042397D02*
X031318Y042397D01*
X031344Y042386D02*
X031238Y042430D01*
X031122Y042430D01*
X031016Y042386D01*
X030934Y042304D01*
X030890Y042198D01*
X030890Y042082D01*
X030934Y041976D01*
X031016Y041894D01*
X031122Y041850D01*
X031238Y041850D01*
X031344Y041894D01*
X031426Y041976D01*
X031470Y042082D01*
X031470Y042198D01*
X031426Y042304D01*
X031344Y042386D01*
X031453Y042238D02*
X031568Y042238D01*
X031490Y042080D02*
X031469Y042080D01*
X031515Y041921D02*
X031371Y041921D01*
X031692Y041763D02*
X030113Y041763D01*
X030126Y041776D02*
X030170Y041882D01*
X030170Y041998D01*
X030126Y042104D01*
X030044Y042186D01*
X029938Y042230D01*
X029822Y042230D01*
X029716Y042186D01*
X029634Y042104D01*
X029590Y041998D01*
X029590Y041882D01*
X029634Y041776D01*
X029670Y041740D01*
X029634Y041704D01*
X029590Y041598D01*
X029590Y041482D01*
X029634Y041376D01*
X029716Y041294D01*
X029822Y041250D01*
X029938Y041250D01*
X030044Y041294D01*
X030126Y041376D01*
X030170Y041482D01*
X030170Y041598D01*
X030126Y041704D01*
X030090Y041740D01*
X030126Y041776D01*
X030170Y041921D02*
X030389Y041921D01*
X030416Y041894D02*
X030522Y041850D01*
X030638Y041850D01*
X030744Y041894D01*
X030826Y041976D01*
X030870Y042082D01*
X030870Y042198D01*
X030826Y042304D01*
X030744Y042386D01*
X030638Y042430D01*
X030522Y042430D01*
X030416Y042386D01*
X030334Y042304D01*
X030290Y042198D01*
X030290Y042082D01*
X030334Y041976D01*
X030416Y041894D01*
X030291Y042080D02*
X030136Y042080D01*
X030307Y042238D02*
X027592Y042238D01*
X027634Y042397D02*
X030442Y042397D01*
X030718Y042397D02*
X031042Y042397D01*
X030907Y042238D02*
X030853Y042238D01*
X030869Y042080D02*
X030891Y042080D01*
X030989Y041921D02*
X030771Y041921D01*
X030167Y041604D02*
X031802Y041604D01*
X031914Y041446D02*
X030155Y041446D01*
X030027Y041287D02*
X037478Y041287D01*
X037458Y041240D02*
X037458Y040913D01*
X037584Y040610D01*
X037815Y040379D01*
X038117Y040254D01*
X038445Y040254D01*
X038747Y040379D01*
X038978Y040610D01*
X039103Y040913D01*
X039103Y041240D01*
X038978Y041542D01*
X038747Y041774D01*
X038445Y041899D01*
X038117Y041899D01*
X037815Y041774D01*
X037584Y041542D01*
X037458Y041240D01*
X037458Y041129D02*
X027657Y041129D01*
X027665Y040970D02*
X037458Y040970D01*
X037500Y040812D02*
X027562Y040812D01*
X027647Y040653D02*
X037566Y040653D01*
X037699Y040495D02*
X027670Y040495D01*
X027586Y040336D02*
X037919Y040336D01*
X038643Y040336D02*
X042340Y040336D01*
X042340Y040178D02*
X027637Y040178D01*
X027670Y040019D02*
X042340Y040019D01*
X042340Y039861D02*
X027611Y039861D01*
X027149Y039861D02*
X027111Y039861D01*
X027070Y038751D02*
X046549Y038751D01*
X046613Y038593D02*
X046331Y038593D01*
X046489Y038434D02*
X046677Y038434D01*
X046742Y038276D02*
X046585Y038276D01*
X046651Y038117D02*
X046806Y038117D01*
X046858Y037959D02*
X046660Y037959D01*
X046660Y037800D02*
X046908Y037800D01*
X046958Y037642D02*
X046601Y037642D01*
X046526Y037483D02*
X047007Y037483D01*
X047057Y037325D02*
X046368Y037325D01*
X047360Y036215D02*
X044308Y036215D01*
X044399Y036057D02*
X047395Y036057D01*
X047431Y035898D02*
X044388Y035898D01*
X044282Y035740D02*
X047467Y035740D01*
X047503Y035581D02*
X039613Y035581D01*
X039556Y035423D02*
X047538Y035423D01*
X047570Y035264D02*
X039743Y035264D01*
X039770Y035106D02*
X047595Y035106D01*
X045969Y034630D02*
X045271Y034630D01*
X045429Y034472D02*
X045965Y034472D01*
X045961Y034313D02*
X045588Y034313D01*
X045746Y034155D02*
X045957Y034155D01*
X045953Y033996D02*
X045883Y033996D01*
X045920Y033838D02*
X045950Y033838D01*
X045946Y033679D02*
X045920Y033679D01*
X045920Y033521D02*
X045942Y033521D01*
X045940Y033362D02*
X045920Y033362D01*
X045920Y033204D02*
X045940Y033204D01*
X045920Y033045D02*
X045994Y033045D01*
X045920Y032887D02*
X046077Y032887D01*
X046140Y032728D02*
X045920Y032728D01*
X045920Y032570D02*
X046140Y032570D01*
X046140Y032411D02*
X045920Y032411D01*
X045948Y032253D02*
X046140Y032253D01*
X046140Y032094D02*
X046107Y032094D01*
X045779Y031460D02*
X045682Y031460D01*
X045671Y031302D02*
X045859Y031302D01*
X045802Y031143D02*
X045582Y031143D01*
X045644Y030985D02*
X041826Y030985D01*
X041846Y031143D02*
X043208Y031143D01*
X043169Y031182D02*
X043282Y031069D01*
X043430Y031008D01*
X043590Y031008D01*
X043738Y031069D01*
X043851Y031182D01*
X043912Y031330D01*
X043912Y031490D01*
X043851Y031638D01*
X043738Y031751D01*
X043590Y031812D01*
X043430Y031812D01*
X043282Y031751D01*
X043169Y031638D01*
X043108Y031490D01*
X043108Y031330D01*
X043169Y031182D01*
X043119Y031302D02*
X041866Y031302D01*
X041868Y031460D02*
X043108Y031460D01*
X043161Y031619D02*
X041874Y031619D01*
X041551Y032094D02*
X026466Y032094D01*
X026500Y032253D02*
X041486Y032253D01*
X041468Y032411D02*
X026456Y032411D01*
X025904Y032411D02*
X020580Y032411D01*
X020580Y032253D02*
X025860Y032253D01*
X025894Y032094D02*
X020580Y032094D01*
X020580Y032570D02*
X027198Y032570D01*
X027199Y032569D02*
X027316Y032520D01*
X027444Y032520D01*
X027561Y032569D01*
X027651Y032659D01*
X027700Y032776D01*
X027700Y032904D01*
X027651Y033021D01*
X027561Y033111D01*
X027444Y033160D01*
X027316Y033160D01*
X027199Y033111D01*
X027109Y033021D01*
X027060Y032904D01*
X027060Y032776D01*
X027109Y032659D01*
X027199Y032569D01*
X027080Y032728D02*
X025421Y032728D01*
X025451Y032759D02*
X025500Y032876D01*
X025500Y033004D01*
X025451Y033121D01*
X025361Y033211D01*
X025244Y033260D01*
X025116Y033260D01*
X024999Y033211D01*
X024909Y033121D01*
X024860Y033004D01*
X024860Y032876D01*
X024909Y032759D01*
X024999Y032669D01*
X025116Y032620D01*
X025244Y032620D01*
X025361Y032669D01*
X025451Y032759D01*
X025500Y032887D02*
X027060Y032887D01*
X027132Y033045D02*
X025483Y033045D01*
X025369Y033204D02*
X030530Y033204D01*
X030530Y033166D02*
X030579Y033049D01*
X030669Y032959D01*
X030786Y032910D01*
X030914Y032910D01*
X031031Y032959D01*
X031121Y033049D01*
X031170Y033166D01*
X031170Y033294D01*
X031121Y033411D01*
X031031Y033501D01*
X030914Y033550D01*
X030786Y033550D01*
X030669Y033501D01*
X030579Y033411D01*
X030530Y033294D01*
X030530Y033166D01*
X030582Y033045D02*
X027628Y033045D01*
X027700Y032887D02*
X041576Y032887D01*
X041511Y032728D02*
X027680Y032728D01*
X027562Y032570D02*
X041468Y032570D01*
X041680Y033045D02*
X031118Y033045D01*
X031170Y033204D02*
X041680Y033204D01*
X041680Y033362D02*
X038467Y033362D01*
X038293Y033362D02*
X038067Y033362D01*
X037893Y033362D02*
X037562Y033362D01*
X037860Y033996D02*
X041680Y033996D01*
X041680Y033838D02*
X038593Y033838D01*
X038670Y033679D02*
X041680Y033679D01*
X041680Y033521D02*
X038644Y033521D01*
X037827Y034155D02*
X041680Y034155D01*
X041680Y034313D02*
X037762Y034313D01*
X036598Y034313D02*
X029496Y034313D01*
X029491Y034155D02*
X036533Y034155D01*
X036500Y033996D02*
X029389Y033996D01*
X028971Y033996D02*
X020580Y033996D01*
X020580Y033838D02*
X036500Y033838D01*
X036552Y033679D02*
X020580Y033679D01*
X020580Y033521D02*
X030715Y033521D01*
X030558Y033362D02*
X020580Y033362D01*
X020580Y033204D02*
X024991Y033204D01*
X024877Y033045D02*
X020580Y033045D01*
X020580Y032887D02*
X024860Y032887D01*
X024939Y032728D02*
X020580Y032728D01*
X021640Y031777D02*
X027689Y031777D01*
X027573Y031619D02*
X021813Y031619D01*
X021904Y031460D02*
X027565Y031460D01*
X027668Y031302D02*
X021960Y031302D01*
X021960Y031143D02*
X040506Y031143D01*
X040492Y031302D02*
X028032Y031302D01*
X028135Y031460D02*
X040590Y031460D01*
X041807Y030826D02*
X044634Y030826D01*
X044486Y030668D02*
X041787Y030668D01*
X041921Y030509D02*
X044460Y030509D01*
X044517Y030351D02*
X041986Y030351D01*
X041990Y030192D02*
X044851Y030192D01*
X044693Y030034D02*
X041946Y030034D01*
X041836Y029875D02*
X042434Y029875D01*
X042276Y029717D02*
X041662Y029717D01*
X041883Y029558D02*
X042117Y029558D01*
X041978Y029400D02*
X041966Y029400D01*
X041077Y029558D02*
X036417Y029558D01*
X036860Y028924D02*
X035900Y028924D01*
X035854Y028766D02*
X036906Y028766D01*
X035326Y030985D02*
X021931Y030985D01*
X020841Y030668D02*
X020580Y030668D01*
X020580Y034155D02*
X028869Y034155D01*
X028864Y034313D02*
X020580Y034313D01*
X017205Y037166D02*
X017155Y037166D01*
X014675Y041287D02*
X023719Y041287D01*
X023605Y041446D02*
X014764Y041446D01*
X014853Y041604D02*
X017263Y041604D01*
X017166Y041763D02*
X014943Y041763D01*
X015032Y041921D02*
X017167Y041921D01*
X017267Y042080D02*
X015121Y042080D01*
X015211Y042238D02*
X015567Y042800D01*
X016439Y042800D01*
X016887Y042352D01*
X017012Y042300D01*
X017148Y042300D01*
X017273Y042352D01*
X017368Y042447D01*
X017420Y042572D01*
X017420Y042708D01*
X017368Y042833D01*
X017020Y043181D01*
X017245Y043181D01*
X017547Y043306D01*
X017746Y043506D02*
X018546Y043506D01*
X018341Y043665D02*
X017831Y043665D01*
X017896Y043823D02*
X018284Y043823D01*
X018291Y043982D02*
X017903Y043982D01*
X017903Y044140D02*
X018373Y044140D01*
X017849Y044299D02*
X024932Y044299D01*
X024890Y044140D02*
X018999Y044140D01*
X019081Y043982D02*
X024932Y043982D01*
X024954Y043823D02*
X025306Y043823D01*
X024806Y043823D02*
X024454Y043823D01*
X024306Y043823D02*
X023954Y043823D01*
X023806Y043823D02*
X019089Y043823D01*
X018969Y043189D02*
X017263Y043189D01*
X017170Y043031D02*
X019005Y043031D01*
X019128Y042872D02*
X017329Y042872D01*
X017418Y042714D02*
X019536Y042714D01*
X019535Y042555D02*
X017413Y042555D01*
X017317Y042397D02*
X019604Y042397D01*
X017767Y042080D02*
X017693Y042080D01*
X017697Y041604D02*
X017763Y041604D01*
X016843Y042397D02*
X015311Y042397D01*
X015412Y042555D02*
X016684Y042555D01*
X016526Y042714D02*
X015512Y042714D01*
X015431Y043506D02*
X016415Y043506D01*
X016331Y043665D02*
X015554Y043665D01*
X015677Y043823D02*
X016265Y043823D01*
X016258Y043982D02*
X015814Y043982D01*
X015959Y044140D02*
X016258Y044140D01*
X016313Y044299D02*
X016104Y044299D01*
X016250Y044457D02*
X016378Y044457D01*
X016395Y044616D02*
X016530Y044616D01*
X016540Y044774D02*
X016791Y044774D01*
X016685Y044933D02*
X022102Y044933D01*
X022102Y045005D02*
X022102Y044820D01*
X022172Y044649D01*
X022303Y044519D01*
X022474Y044448D01*
X022659Y044448D01*
X022830Y044519D01*
X022961Y044649D01*
X023031Y044820D01*
X023031Y045005D01*
X022961Y045176D01*
X022830Y045307D01*
X022659Y045377D01*
X022474Y045377D01*
X022303Y045307D01*
X022172Y045176D01*
X022102Y045005D01*
X022137Y045091D02*
X016844Y045091D01*
X017016Y045250D02*
X021047Y045250D01*
X021048Y045249D02*
X021218Y045178D01*
X021403Y045178D01*
X021574Y045249D01*
X021705Y045379D01*
X021776Y045550D01*
X021776Y045735D01*
X021705Y045906D01*
X021574Y046037D01*
X021403Y046107D01*
X021218Y046107D01*
X021048Y046037D01*
X020917Y045906D01*
X020846Y045735D01*
X020846Y045550D01*
X020917Y045379D01*
X021048Y045249D01*
X020905Y045408D02*
X017187Y045408D01*
X017358Y045567D02*
X020846Y045567D01*
X020846Y045725D02*
X017530Y045725D01*
X017701Y045884D02*
X020908Y045884D01*
X021061Y046042D02*
X017872Y046042D01*
X018075Y046201D02*
X022077Y046201D01*
X022077Y046187D02*
X022153Y046005D01*
X022292Y045865D01*
X022475Y045790D01*
X022672Y045790D01*
X022855Y045865D01*
X022995Y046005D01*
X023070Y046187D01*
X023070Y046385D01*
X022995Y046567D01*
X022855Y046707D01*
X022672Y046783D01*
X022475Y046783D01*
X022292Y046707D01*
X022153Y046567D01*
X022077Y046385D01*
X022077Y046187D01*
X022137Y046042D02*
X021561Y046042D01*
X021714Y045884D02*
X022274Y045884D01*
X022077Y046359D02*
X018277Y046359D01*
X018480Y046518D02*
X022132Y046518D01*
X022261Y046676D02*
X018682Y046676D01*
X018884Y046835D02*
X019855Y046835D01*
X019699Y046993D02*
X019089Y046993D01*
X019319Y047152D02*
X019637Y047152D01*
X019637Y047310D02*
X019550Y047310D01*
X020367Y047627D02*
X021391Y047627D01*
X021248Y047786D02*
X020424Y047786D01*
X020508Y047469D02*
X025261Y047469D01*
X025261Y047463D02*
X025332Y047292D01*
X025463Y047161D01*
X025634Y047090D01*
X025818Y047090D01*
X025989Y047161D01*
X026120Y047292D01*
X026191Y047463D01*
X026191Y047648D01*
X026120Y047819D01*
X025989Y047949D01*
X025818Y048020D01*
X025634Y048020D01*
X025463Y047949D01*
X025332Y047819D01*
X025261Y047648D01*
X025261Y047463D01*
X025261Y047627D02*
X021969Y047627D01*
X022112Y047786D02*
X025318Y047786D01*
X025457Y047944D02*
X022177Y047944D01*
X022177Y048103D02*
X026721Y048103D01*
X026701Y048083D02*
X026625Y047900D01*
X026625Y047703D01*
X026701Y047520D01*
X026841Y047380D01*
X027023Y047305D01*
X027221Y047305D01*
X027403Y047380D01*
X027543Y047520D01*
X027618Y047703D01*
X027618Y047900D01*
X027543Y048083D01*
X027403Y048222D01*
X027221Y048298D01*
X027023Y048298D01*
X026841Y048222D01*
X026701Y048083D01*
X026643Y047944D02*
X025995Y047944D01*
X026134Y047786D02*
X026625Y047786D01*
X026657Y047627D02*
X026191Y047627D01*
X026191Y047469D02*
X026752Y047469D01*
X027011Y047310D02*
X026128Y047310D01*
X025966Y047152D02*
X027808Y047152D01*
X027862Y047174D02*
X027691Y047103D01*
X027560Y046972D01*
X027489Y046801D01*
X027489Y046616D01*
X027560Y046446D01*
X027691Y046315D01*
X027862Y046244D01*
X028047Y046244D01*
X028217Y046315D01*
X028348Y046446D01*
X028419Y046616D01*
X028419Y046801D01*
X028348Y046972D01*
X028217Y047103D01*
X028047Y047174D01*
X027862Y047174D01*
X028100Y047152D02*
X034538Y047152D01*
X034530Y047170D02*
X034583Y047042D01*
X034682Y046943D01*
X034706Y046933D01*
X035487Y046152D01*
X035612Y046100D01*
X037686Y046100D01*
X037710Y046090D01*
X037850Y046090D01*
X037978Y046143D01*
X038077Y046242D01*
X038130Y046370D01*
X038130Y046510D01*
X038077Y046638D01*
X037978Y046737D01*
X037850Y046790D01*
X037710Y046790D01*
X037686Y046780D01*
X035821Y046780D01*
X035187Y047414D01*
X035177Y047438D01*
X035078Y047537D01*
X034950Y047590D01*
X034810Y047590D01*
X034682Y047537D01*
X034583Y047438D01*
X034530Y047310D01*
X027233Y047310D01*
X027491Y047469D02*
X034614Y047469D01*
X034530Y047310D02*
X034530Y047170D01*
X034632Y046993D02*
X028327Y046993D01*
X028405Y046835D02*
X034805Y046835D01*
X034963Y046676D02*
X028419Y046676D01*
X028378Y046518D02*
X035122Y046518D01*
X035280Y046359D02*
X028262Y046359D01*
X027647Y046359D02*
X027162Y046359D01*
X027178Y046398D02*
X027107Y046227D01*
X026977Y046096D01*
X026806Y046025D01*
X026621Y046025D01*
X026450Y046096D01*
X026319Y046227D01*
X026249Y046398D01*
X026249Y046583D01*
X026319Y046753D01*
X026450Y046884D01*
X026621Y046955D01*
X026806Y046955D01*
X026977Y046884D01*
X027107Y046753D01*
X027178Y046583D01*
X027178Y046398D01*
X027178Y046518D02*
X027530Y046518D01*
X027489Y046676D02*
X027139Y046676D01*
X027026Y046835D02*
X027503Y046835D01*
X027581Y046993D02*
X020504Y046993D01*
X020566Y047152D02*
X025486Y047152D01*
X025325Y047310D02*
X020566Y047310D01*
X020348Y046835D02*
X026401Y046835D01*
X026287Y046676D02*
X022886Y046676D01*
X023015Y046518D02*
X026249Y046518D01*
X026265Y046359D02*
X023070Y046359D01*
X023070Y046201D02*
X026346Y046201D01*
X026580Y046042D02*
X023010Y046042D01*
X022873Y045884D02*
X023438Y045884D01*
X023426Y045879D02*
X023295Y045748D01*
X023224Y045577D01*
X023224Y045392D01*
X023295Y045221D01*
X023426Y045091D01*
X023597Y045020D01*
X023781Y045020D01*
X023952Y045091D01*
X024083Y045221D01*
X024154Y045392D01*
X024154Y045577D01*
X024083Y045748D01*
X023952Y045879D01*
X023781Y045949D01*
X023597Y045949D01*
X023426Y045879D01*
X023286Y045725D02*
X021776Y045725D01*
X021776Y045567D02*
X023224Y045567D01*
X023224Y045408D02*
X021717Y045408D01*
X021575Y045250D02*
X022246Y045250D01*
X022121Y044774D02*
X017370Y044774D01*
X017632Y044616D02*
X022206Y044616D01*
X022452Y044457D02*
X017783Y044457D01*
X022681Y044457D02*
X025105Y044457D01*
X024918Y044616D02*
X022927Y044616D01*
X023012Y044774D02*
X024890Y044774D01*
X024962Y044933D02*
X023031Y044933D01*
X022996Y045091D02*
X023425Y045091D01*
X023283Y045250D02*
X022887Y045250D01*
X023953Y045091D02*
X025023Y045091D01*
X024904Y045250D02*
X024095Y045250D01*
X024154Y045408D02*
X024894Y045408D01*
X024996Y045567D02*
X024154Y045567D01*
X024093Y045725D02*
X040454Y045725D01*
X040602Y045884D02*
X023940Y045884D01*
X026846Y046042D02*
X041870Y046042D01*
X042049Y045884D02*
X041186Y045884D01*
X041334Y045725D02*
X042228Y045725D01*
X042407Y045567D02*
X041400Y045567D01*
X041404Y045408D02*
X041449Y045408D01*
X041691Y046201D02*
X038036Y046201D01*
X038125Y046359D02*
X039400Y046359D01*
X039422Y046350D02*
X039538Y046350D01*
X039644Y046394D01*
X039726Y046476D01*
X039770Y046582D01*
X039770Y046698D01*
X039726Y046804D01*
X039644Y046886D01*
X039538Y046930D01*
X039422Y046930D01*
X039316Y046886D01*
X039234Y046804D01*
X039190Y046698D01*
X039190Y046582D01*
X039234Y046476D01*
X039316Y046394D01*
X039422Y046350D01*
X039560Y046359D02*
X041503Y046359D01*
X041290Y046518D02*
X039743Y046518D01*
X039770Y046676D02*
X041077Y046676D01*
X040864Y046835D02*
X039696Y046835D01*
X039264Y046835D02*
X039150Y046835D01*
X039170Y046882D02*
X039126Y046776D01*
X039044Y046694D01*
X038938Y046650D01*
X038822Y046650D01*
X038716Y046694D01*
X038634Y046776D01*
X038590Y046882D01*
X038590Y046998D01*
X038634Y047104D01*
X038716Y047186D01*
X038822Y047230D01*
X038938Y047230D01*
X039044Y047186D01*
X039126Y047104D01*
X039170Y046998D01*
X039170Y046882D01*
X039170Y046993D02*
X040651Y046993D01*
X040438Y047152D02*
X039079Y047152D01*
X038968Y047469D02*
X039971Y047469D01*
X039727Y047627D02*
X039081Y047627D01*
X039124Y047786D02*
X039412Y047786D01*
X040215Y047310D02*
X036373Y047310D01*
X036351Y047259D02*
X036400Y047376D01*
X036400Y047504D01*
X036351Y047621D01*
X036261Y047711D01*
X036144Y047760D01*
X036016Y047760D01*
X035899Y047711D01*
X035809Y047621D01*
X035760Y047504D01*
X035760Y047376D01*
X035809Y047259D01*
X035899Y047169D01*
X036016Y047120D01*
X036144Y047120D01*
X036261Y047169D01*
X036351Y047259D01*
X036220Y047152D02*
X038681Y047152D01*
X038590Y046993D02*
X035608Y046993D01*
X035766Y046835D02*
X038610Y046835D01*
X038759Y046676D02*
X038039Y046676D01*
X038127Y046518D02*
X039217Y046518D01*
X039190Y046676D02*
X039001Y046676D01*
X038291Y047469D02*
X036400Y047469D01*
X036345Y047627D02*
X038178Y047627D01*
X038135Y047786D02*
X032951Y047786D01*
X032972Y047837D02*
X032905Y047675D01*
X032781Y047551D01*
X032620Y047484D01*
X032444Y047484D01*
X032283Y047551D01*
X032159Y047675D01*
X032092Y047837D01*
X032092Y048012D01*
X032159Y048174D01*
X032283Y048297D01*
X032444Y048364D01*
X032620Y048364D01*
X032781Y048297D01*
X032905Y048174D01*
X032972Y048012D01*
X032972Y047837D01*
X032972Y047944D02*
X038142Y047944D01*
X038208Y048103D02*
X032934Y048103D01*
X032818Y048261D02*
X038378Y048261D01*
X038034Y048420D02*
X031632Y048420D01*
X031610Y048441D02*
X031734Y048317D01*
X031801Y048156D01*
X031801Y047981D01*
X031734Y047819D01*
X031610Y047695D01*
X031448Y047628D01*
X031273Y047628D01*
X031112Y047695D01*
X030988Y047819D01*
X030921Y047981D01*
X030921Y048156D01*
X030988Y048317D01*
X031112Y048441D01*
X031273Y048508D01*
X031448Y048508D01*
X031610Y048441D01*
X031757Y048261D02*
X032246Y048261D01*
X032130Y048103D02*
X031801Y048103D01*
X031786Y047944D02*
X032092Y047944D01*
X032113Y047786D02*
X031700Y047786D01*
X032207Y047627D02*
X027587Y047627D01*
X027618Y047786D02*
X031021Y047786D01*
X030936Y047944D02*
X027600Y047944D01*
X027523Y048103D02*
X030921Y048103D01*
X030964Y048261D02*
X027310Y048261D01*
X026934Y048261D02*
X022126Y048261D01*
X022003Y048420D02*
X031090Y048420D01*
X031553Y049054D02*
X025314Y049054D01*
X025447Y049212D02*
X031407Y049212D01*
X031342Y049371D02*
X027113Y049371D01*
X027230Y049529D02*
X031284Y049529D01*
X031284Y049688D02*
X028918Y049688D01*
X029052Y049846D02*
X031284Y049846D01*
X031345Y050005D02*
X030197Y050005D01*
X030294Y050163D02*
X031410Y050163D01*
X031561Y050322D02*
X030293Y050322D01*
X029363Y050005D02*
X029106Y050005D01*
X029105Y050163D02*
X029266Y050163D01*
X029267Y050322D02*
X029039Y050322D01*
X028243Y050322D02*
X028096Y050322D01*
X028177Y050163D02*
X027196Y050163D01*
X027208Y050005D02*
X028176Y050005D01*
X028230Y049846D02*
X027274Y049846D01*
X027277Y049688D02*
X028364Y049688D01*
X026447Y049371D02*
X025500Y049371D01*
X025498Y049529D02*
X026330Y049529D01*
X026283Y049688D02*
X025433Y049688D01*
X025397Y049846D02*
X026286Y049846D01*
X026296Y050005D02*
X026352Y050005D01*
X024638Y049688D02*
X024572Y049688D01*
X024572Y049529D02*
X024072Y049529D01*
X023618Y049371D02*
X024570Y049371D01*
X024623Y049212D02*
X023707Y049212D01*
X023802Y049054D02*
X024757Y049054D01*
X023829Y048895D02*
X031784Y048895D01*
X032523Y048895D02*
X035230Y048895D01*
X035267Y049054D02*
X032754Y049054D01*
X032900Y049212D02*
X035467Y049212D01*
X035633Y049212D02*
X035867Y049212D01*
X035966Y049371D02*
X032966Y049371D01*
X033024Y049529D02*
X035621Y049529D01*
X035186Y049688D02*
X033024Y049688D01*
X033024Y049846D02*
X034604Y049846D01*
X033971Y050005D02*
X032962Y050005D01*
X034180Y048840D02*
X033680Y048340D01*
X033680Y044670D01*
X033314Y044299D02*
X041236Y044299D01*
X041380Y044140D02*
X033452Y044140D01*
X033470Y043982D02*
X041623Y043982D01*
X042264Y043982D02*
X043531Y043982D01*
X043498Y043823D02*
X033373Y043823D01*
X032066Y043665D02*
X043500Y043665D01*
X043667Y044140D02*
X042508Y044140D01*
X042651Y044299D02*
X043667Y044299D01*
X043515Y044457D02*
X042717Y044457D01*
X042766Y044616D02*
X043364Y044616D01*
X043213Y044774D02*
X042766Y044774D01*
X042754Y044933D02*
X043062Y044933D01*
X042911Y045091D02*
X042688Y045091D01*
X042760Y045250D02*
X042596Y045250D01*
X042586Y045408D02*
X042438Y045408D01*
X041431Y043031D02*
X038382Y043031D01*
X038355Y043058D02*
X038167Y043136D01*
X037964Y043136D01*
X037777Y043058D01*
X037633Y042915D01*
X037556Y042727D01*
X037556Y042524D01*
X037633Y042337D01*
X037777Y042193D01*
X037964Y042116D01*
X038167Y042116D01*
X038355Y042193D01*
X038498Y042337D01*
X038576Y042524D01*
X038576Y042727D01*
X038498Y042915D01*
X038355Y043058D01*
X038516Y042872D02*
X041516Y042872D01*
X041366Y042789D02*
X041218Y042851D01*
X041058Y042851D01*
X040910Y042789D01*
X040796Y042676D01*
X040735Y042528D01*
X040735Y042368D01*
X040794Y042226D01*
X040652Y042285D01*
X040492Y042285D01*
X040344Y042224D01*
X040231Y042110D01*
X040169Y041962D01*
X040169Y041802D01*
X040231Y041654D01*
X040344Y041541D01*
X040492Y041480D01*
X040652Y041480D01*
X040800Y041541D01*
X040913Y041654D01*
X040974Y041802D01*
X040974Y041962D01*
X040916Y042104D01*
X041058Y042046D01*
X041218Y042046D01*
X041366Y042107D01*
X041479Y042220D01*
X041540Y042368D01*
X041540Y042528D01*
X041479Y042676D01*
X041366Y042789D01*
X041441Y042714D02*
X041726Y042714D01*
X041884Y042555D02*
X041529Y042555D01*
X041540Y042397D02*
X042043Y042397D01*
X041997Y042238D02*
X042201Y042238D01*
X042169Y042080D02*
X042340Y042080D01*
X042340Y041921D02*
X042200Y041921D01*
X042153Y041763D02*
X042340Y041763D01*
X041902Y041604D02*
X040863Y041604D01*
X040958Y041763D02*
X041607Y041763D01*
X041560Y041921D02*
X040974Y041921D01*
X040976Y042080D02*
X040926Y042080D01*
X040789Y042238D02*
X040765Y042238D01*
X040735Y042397D02*
X038523Y042397D01*
X038576Y042555D02*
X040746Y042555D01*
X040834Y042714D02*
X038576Y042714D01*
X038399Y042238D02*
X040379Y042238D01*
X040218Y042080D02*
X032070Y042080D01*
X031992Y042238D02*
X037732Y042238D01*
X037609Y042397D02*
X032070Y042397D01*
X032255Y042555D02*
X037556Y042555D01*
X037556Y042714D02*
X032362Y042714D01*
X032360Y042872D02*
X037616Y042872D01*
X037749Y043031D02*
X032250Y043031D01*
X032259Y041921D02*
X040169Y041921D01*
X040186Y041763D02*
X038758Y041763D01*
X038916Y041604D02*
X040281Y041604D01*
X040206Y041446D02*
X041860Y041446D01*
X041897Y041287D02*
X040284Y041287D01*
X040289Y041277D02*
X040227Y041424D01*
X040114Y041538D01*
X039966Y041599D01*
X039806Y041599D01*
X039658Y041538D01*
X039545Y041424D01*
X039484Y041277D01*
X039484Y041116D01*
X039545Y040968D01*
X039658Y040855D01*
X039806Y040794D01*
X039966Y040794D01*
X040114Y040855D01*
X040227Y040968D01*
X040289Y041116D01*
X040289Y041277D01*
X040289Y041129D02*
X042096Y041129D01*
X042264Y041129D02*
X042340Y041129D01*
X042340Y040970D02*
X040228Y040970D01*
X040008Y040812D02*
X042340Y040812D01*
X042340Y040653D02*
X038996Y040653D01*
X039062Y040812D02*
X039764Y040812D01*
X039544Y040970D02*
X039103Y040970D01*
X039103Y041129D02*
X039484Y041129D01*
X039488Y041287D02*
X039084Y041287D01*
X039018Y041446D02*
X039566Y041446D01*
X038862Y040495D02*
X042340Y040495D01*
X043018Y039068D02*
X046420Y039068D01*
X046484Y038910D02*
X042930Y038910D01*
X045919Y039227D02*
X046356Y039227D01*
X046291Y039385D02*
X046000Y039385D01*
X045983Y039544D02*
X046214Y039544D01*
X046134Y039702D02*
X045969Y039702D01*
X046000Y039861D02*
X046054Y039861D01*
X045974Y040019D02*
X045952Y040019D01*
X044648Y042238D02*
X043539Y042238D01*
X043717Y042397D02*
X044531Y042397D01*
X044415Y042555D02*
X043876Y042555D01*
X044034Y042714D02*
X044299Y042714D01*
X044183Y042872D02*
X044155Y042872D01*
X041763Y042238D02*
X041486Y042238D01*
X041591Y042080D02*
X041300Y042080D01*
X037804Y041763D02*
X032364Y041763D01*
X032358Y041604D02*
X037645Y041604D01*
X037544Y041446D02*
X032246Y041446D01*
X029733Y041287D02*
X027541Y041287D01*
X027655Y041446D02*
X029605Y041446D01*
X029593Y041604D02*
X027667Y041604D01*
X027568Y041763D02*
X029647Y041763D01*
X029590Y041921D02*
X027645Y041921D01*
X027670Y042080D02*
X029624Y042080D01*
X027081Y046201D02*
X035439Y046201D01*
X035449Y047152D02*
X035940Y047152D01*
X035787Y047310D02*
X035291Y047310D01*
X035146Y047469D02*
X035760Y047469D01*
X035815Y047627D02*
X032857Y047627D01*
X034180Y048740D02*
X034180Y048840D01*
X035271Y048737D02*
X023800Y048737D01*
X023701Y048578D02*
X035906Y048578D01*
X036631Y048578D02*
X037689Y048578D01*
X037344Y048737D02*
X036730Y048737D01*
X036763Y048895D02*
X037000Y048895D01*
X023026Y048578D02*
X021961Y048578D01*
X022269Y048737D02*
X022928Y048737D01*
X022899Y048895D02*
X022576Y048895D01*
X022884Y049054D02*
X022925Y049054D01*
X021183Y048103D02*
X021039Y048103D01*
X021183Y047944D02*
X020732Y047944D01*
X026770Y036215D02*
X043852Y036215D01*
X043878Y035740D02*
X039752Y035740D01*
X039770Y035898D02*
X039726Y036004D01*
X039644Y036086D01*
X039286Y036057D02*
X026707Y036057D01*
X030985Y033521D02*
X036638Y033521D01*
X036798Y033362D02*
X031142Y033362D01*
X039190Y035782D02*
X039190Y035898D01*
X041801Y034630D02*
X044091Y034630D01*
X044040Y034472D02*
X041900Y034472D01*
X041900Y034313D02*
X044065Y034313D01*
X044185Y034155D02*
X041900Y034155D01*
X041900Y033996D02*
X044943Y033996D01*
X045102Y033838D02*
X041900Y033838D01*
X041900Y033679D02*
X045240Y033679D01*
X045240Y033521D02*
X041900Y033521D01*
X041900Y033362D02*
X045240Y033362D01*
X045240Y033204D02*
X042644Y033204D01*
X042868Y033045D02*
X045240Y033045D01*
X045240Y032887D02*
X043004Y032887D01*
X043069Y032728D02*
X045240Y032728D01*
X045240Y032570D02*
X043112Y032570D01*
X043112Y032411D02*
X045240Y032411D01*
X045240Y032253D02*
X043094Y032253D01*
X043029Y032094D02*
X045240Y032094D01*
X045304Y031936D02*
X042929Y031936D01*
X042770Y031777D02*
X043344Y031777D01*
X043676Y031777D02*
X044314Y031777D01*
X044131Y031619D02*
X043859Y031619D01*
X043912Y031460D02*
X044078Y031460D01*
X044089Y031302D02*
X043901Y031302D01*
X043812Y031143D02*
X044178Y031143D01*
X044782Y031143D02*
X044978Y031143D01*
X044889Y031302D02*
X044871Y031302D01*
X044829Y031619D02*
X044931Y031619D01*
X045114Y031777D02*
X044646Y031777D01*
X045446Y031777D02*
X045462Y031777D01*
X045485Y030826D02*
X044926Y030826D01*
X045074Y030668D02*
X045327Y030668D01*
X045168Y030509D02*
X045100Y030509D01*
X045813Y030192D02*
X047131Y030192D01*
X047276Y030351D02*
X045971Y030351D01*
X046130Y030509D02*
X047420Y030509D01*
X047564Y030668D02*
X046288Y030668D01*
X046447Y030826D02*
X047708Y030826D01*
X046955Y030985D02*
X046566Y030985D01*
X046590Y031143D02*
X046796Y031143D01*
X046669Y031302D02*
X046641Y031302D01*
X047618Y029717D02*
X047707Y029717D01*
X047682Y029558D02*
X047474Y029558D01*
X042136Y028132D02*
X041987Y028132D01*
X041184Y027815D02*
X041045Y027815D01*
X040983Y027656D02*
X041175Y027656D01*
X041035Y027498D02*
X040921Y027498D01*
X040970Y027339D02*
X040859Y027339D01*
X040775Y027181D02*
X040970Y027181D01*
X041018Y027022D02*
X040697Y027022D01*
X040620Y026864D02*
X041135Y026864D01*
X038900Y022267D02*
X036580Y022267D01*
X036424Y022426D02*
X034920Y022426D01*
X034920Y022267D02*
X036176Y022267D01*
X036339Y022109D02*
X038773Y022109D01*
X038734Y021950D02*
X036073Y021950D01*
X035910Y022109D02*
X034920Y022109D01*
X034920Y021950D02*
X035644Y021950D01*
X035807Y021792D02*
X038760Y021792D01*
X038868Y021633D02*
X035541Y021633D01*
X035352Y021792D02*
X034920Y021792D01*
X034920Y021633D02*
X035027Y021633D01*
X035204Y021475D02*
X039481Y021475D01*
X039420Y021316D02*
X034880Y021316D01*
X034517Y021158D02*
X039424Y021158D01*
X039502Y020999D02*
X034111Y020999D01*
X033680Y020841D02*
X039117Y020841D01*
X038941Y020682D02*
X033148Y020682D01*
X032525Y020524D02*
X038783Y020524D01*
X039405Y021633D02*
X039700Y021633D01*
X033211Y023694D02*
X032596Y023694D01*
X033008Y023535D02*
X029155Y023535D01*
X029168Y023377D02*
X032970Y023377D01*
X033011Y023218D02*
X029362Y023218D01*
X028860Y023060D02*
X028820Y023060D01*
X028786Y022901D02*
X028885Y022901D01*
X028592Y023377D02*
X028568Y023377D01*
X028555Y023535D02*
X028605Y023535D01*
X028734Y023694D02*
X028426Y023694D01*
X029026Y023694D02*
X032124Y023694D01*
X032040Y023852D02*
X027270Y023852D01*
X027220Y024011D02*
X032055Y024011D01*
X032166Y024169D02*
X031419Y024169D01*
X031470Y024328D02*
X032190Y024328D01*
X032083Y024486D02*
X031433Y024486D01*
X030630Y024486D02*
X030270Y024486D01*
X030242Y024645D02*
X030590Y024645D01*
X020990Y017354D02*
X019440Y017354D01*
X019687Y017195D02*
X021026Y017195D01*
X029540Y015927D02*
X037947Y015927D01*
X037677Y015769D02*
X029703Y015769D01*
X029752Y015610D02*
X029769Y015610D01*
X030991Y015610D02*
X037355Y015610D01*
X037508Y015684D02*
X037508Y015684D01*
X037023Y015452D02*
X031149Y015452D01*
X031308Y015293D02*
X032980Y015293D01*
X032999Y015311D02*
X032909Y015221D01*
X032860Y015104D01*
X032860Y014976D01*
X031625Y014976D01*
X031774Y014818D02*
X032950Y014818D01*
X032909Y014859D02*
X032999Y014769D01*
X033116Y014720D01*
X033244Y014720D01*
X033361Y014769D01*
X033451Y014859D01*
X033500Y014976D01*
X035880Y014976D01*
X036269Y015135D02*
X033487Y015135D01*
X033500Y015104D02*
X033451Y015221D01*
X033361Y015311D01*
X033244Y015360D01*
X033116Y015360D01*
X032999Y015311D01*
X032873Y015135D02*
X031466Y015135D01*
X031820Y014659D02*
X034935Y014659D01*
X035429Y014818D02*
X033410Y014818D01*
X033500Y014976D02*
X033500Y015104D01*
X033380Y015293D02*
X036657Y015293D01*
X038420Y016244D02*
X038577Y016244D01*
X038723Y016403D02*
X038854Y016403D01*
X038815Y016561D02*
X039162Y016561D01*
X039431Y016720D02*
X038815Y016720D01*
X038723Y016878D02*
X039659Y016878D01*
X034411Y014501D02*
X031820Y014501D01*
X031820Y014342D02*
X033747Y014342D01*
X032967Y014184D02*
X031820Y014184D01*
X031820Y014025D02*
X031910Y014025D01*
X032909Y014859D02*
X032860Y014976D01*
X041900Y033204D02*
X041936Y033204D01*
D20*
X044380Y034440D02*
X044980Y034440D01*
X045580Y033840D01*
X045580Y032140D01*
X046250Y031470D01*
X046250Y031410D01*
X046250Y031110D01*
X044780Y029640D01*
X042680Y029640D01*
X042280Y029240D01*
X042280Y028440D01*
X038980Y024940D02*
X037080Y024940D01*
X036780Y024640D01*
X034580Y022440D02*
X034180Y022840D01*
X031980Y022840D01*
X031980Y021140D01*
X032680Y020440D01*
X033980Y020440D01*
X034580Y021040D01*
X034580Y022440D01*
X034580Y022403D02*
X031980Y022403D01*
X031980Y022801D02*
X034219Y022801D01*
X034580Y022004D02*
X031980Y022004D01*
X031980Y021606D02*
X034580Y021606D01*
X034580Y021207D02*
X031980Y021207D01*
X032311Y020809D02*
X034349Y020809D01*
X035680Y019540D02*
X038280Y019540D01*
X039280Y020540D01*
X039680Y020540D01*
X040280Y019940D01*
X041017Y019940D01*
X041074Y019996D01*
X041680Y020240D02*
X041680Y019640D01*
X041480Y019440D01*
X041480Y019340D01*
X041980Y018840D01*
X041980Y018140D01*
X041650Y017890D01*
X041300Y018240D01*
X040080Y018240D01*
X039480Y016340D02*
X039080Y016140D01*
X038380Y015740D01*
X037600Y015350D01*
X035180Y019040D02*
X035680Y019540D01*
X041680Y020240D02*
X042280Y020840D01*
X043080Y020840D01*
X043580Y020340D01*
X044080Y020340D01*
X044300Y020660D01*
X045980Y023540D02*
X045680Y023840D01*
X045480Y023840D01*
X045980Y023840D01*
X046180Y023640D01*
X045780Y024140D02*
X045480Y024140D01*
X045480Y024440D02*
X045780Y024140D01*
X045480Y023840D02*
X045180Y024140D01*
X045480Y024440D01*
X047180Y029740D02*
X048180Y030840D01*
X047780Y031240D01*
X047180Y031240D01*
X046980Y031440D01*
X046980Y031540D01*
X046480Y032040D01*
X046480Y032840D01*
X046280Y033240D01*
X046280Y033440D01*
X046310Y034670D01*
X048010Y034670D01*
X042680Y039140D02*
X042680Y042240D01*
X041824Y043096D01*
X041824Y043134D01*
X043380Y042540D02*
X043840Y043000D01*
X043840Y043840D01*
X037780Y046440D02*
X035680Y046440D01*
X034880Y047240D01*
X017080Y042640D02*
X016580Y043140D01*
X015380Y043140D01*
X012880Y034340D02*
X012340Y034340D01*
X011630Y033630D01*
X011580Y033240D01*
X012180Y032640D01*
X012780Y032640D01*
X012780Y032390D01*
X013330Y031840D01*
X013330Y030990D01*
X012680Y030340D01*
X011580Y030340D01*
X011640Y029920D01*
X018980Y026140D02*
X019380Y025740D01*
X019380Y025240D01*
X017936Y023796D01*
X017936Y020746D01*
X017480Y020340D02*
X017680Y020140D01*
X018180Y020140D01*
X018780Y019540D01*
X018780Y018740D01*
X018020Y017970D01*
X018440Y017650D01*
X016580Y019640D02*
X016280Y019640D01*
X016380Y019740D01*
X016380Y021440D01*
X017280Y020340D02*
X017480Y020340D01*
X017280Y020340D02*
X016580Y019640D01*
X027080Y019540D02*
X027780Y019540D01*
X027780Y015940D01*
X028180Y015540D01*
X028780Y015540D01*
X028810Y015570D01*
X029350Y015570D01*
X029480Y015040D02*
X029180Y014740D01*
X029180Y013840D01*
X029000Y013690D01*
X029010Y013690D01*
X028920Y013600D01*
X027780Y014740D01*
X029480Y015040D02*
X029680Y015040D01*
X029980Y015340D01*
X030780Y015340D01*
X031480Y014640D01*
X031480Y013640D01*
X011630Y033631D02*
X011848Y034753D01*
X012118Y035865D01*
X012438Y036963D01*
X012808Y038046D01*
X013228Y039110D01*
X013696Y040153D01*
X014211Y041175D01*
X014773Y042171D01*
X015380Y043141D01*
X048180Y030840D02*
X048087Y029905D01*
X047947Y028975D01*
X047763Y028053D01*
X047533Y027142D01*
X047260Y026243D01*
X046942Y025358D01*
X046582Y024490D01*
X046180Y023640D01*
X016280Y019640D02*
X015679Y020379D01*
X015114Y021145D01*
X014585Y021937D01*
X014094Y022754D01*
X013642Y023592D01*
X013230Y024451D01*
X012859Y025328D01*
X012529Y026221D01*
X012242Y027129D01*
X011997Y028050D01*
X011796Y028981D01*
X011640Y029920D01*
X044300Y020660D02*
X044824Y021370D01*
X045312Y022104D01*
X045765Y022862D01*
X046180Y023640D01*
X037599Y015350D02*
X036876Y015010D01*
X036138Y014705D01*
X035386Y014435D01*
X034621Y014202D01*
X033847Y014005D01*
X033064Y013846D01*
X032274Y013724D01*
X031479Y013640D01*
X048010Y034670D02*
X047872Y035510D01*
X047693Y036342D01*
X047475Y037165D01*
X047218Y037976D01*
X046922Y038774D01*
X046589Y039557D01*
X046218Y040323D01*
X045811Y041070D01*
X045369Y041798D01*
X044892Y042503D01*
X044382Y043184D01*
X043840Y043840D01*
X028920Y013600D02*
X027977Y013704D01*
X027040Y013853D01*
X026111Y014045D01*
X025192Y014281D01*
X024286Y014560D01*
X023393Y014881D01*
X022516Y015243D01*
X021657Y015647D01*
X020819Y016090D01*
X020002Y016573D01*
X019209Y017093D01*
X018441Y017650D01*
X039480Y016340D02*
X040576Y017100D01*
X041650Y017890D01*
D21*
X038980Y024940D02*
X038980Y025840D01*
X037980Y026840D01*
X038580Y026840D01*
X039080Y027340D01*
X039280Y027340D01*
X039680Y026940D01*
X039980Y026640D01*
X040280Y026940D01*
D22*
X045480Y024140D02*
X045880Y023740D01*
D23*
X018480Y036040D03*
X034880Y047240D03*
X037780Y046440D03*
M02*
