G75*
G70*
%OFA0B0*%
%FSLAX24Y24*%
%IPPOS*%
%LPD*%
%AMOC8*
5,1,8,0,0,1.08239X$1,22.5*
%
%ADD10C,0.0110*%
%ADD11R,0.2421X0.2421*%
%ADD12R,0.0276X0.0354*%
%ADD13R,0.0354X0.0276*%
%ADD14R,0.2165X0.0787*%
%ADD15C,0.1365*%
%ADD16C,0.0525*%
%ADD17R,0.0591X0.0591*%
%ADD18R,0.0354X0.0354*%
%ADD19R,0.0236X0.0610*%
%ADD20R,0.0591X0.0591*%
%ADD21R,0.0354X0.0354*%
%ADD22R,0.0610X0.0236*%
%ADD23R,0.0315X0.0315*%
%ADD24R,0.0740X0.0740*%
%ADD25C,0.0740*%
%ADD26R,0.0315X0.0472*%
%ADD27R,0.0551X0.1772*%
%ADD28R,0.0472X0.0315*%
%ADD29R,0.1575X0.2756*%
%ADD30R,0.1181X0.0630*%
%ADD31R,0.2441X0.2283*%
%ADD32R,0.0945X0.0945*%
%ADD33C,0.0600*%
%ADD34R,0.0600X0.0600*%
%ADD35C,0.0650*%
%ADD36R,0.0315X0.0315*%
%ADD37R,0.2500X0.2201*%
%ADD38R,0.0949X0.0358*%
%ADD39R,0.1260X0.0630*%
%ADD40R,0.0630X0.1260*%
%ADD41R,0.0866X0.0256*%
%ADD42R,0.0250X0.0500*%
%ADD43C,0.0080*%
%ADD44R,0.0157X0.0531*%
%ADD45C,0.0709*%
%ADD46R,0.1100X0.0900*%
%ADD47R,0.1102X0.1496*%
%ADD48R,0.0500X0.0250*%
%ADD49C,0.0160*%
%ADD50C,0.0360*%
%ADD51C,0.0100*%
%ADD52C,0.0200*%
%ADD53C,0.0400*%
%ADD54C,0.0400*%
%ADD55C,0.0220*%
%ADD56C,0.0300*%
%ADD57C,0.0240*%
%ADD58C,0.0110*%
%ADD59C,0.0420*%
%ADD60C,0.0560*%
%ADD61C,0.0320*%
%ADD62C,0.0120*%
%ADD63C,0.0860*%
D10*
X027987Y026964D02*
X028191Y026964D01*
X028191Y027160D02*
X027987Y027160D01*
X027987Y027357D02*
X028191Y027357D01*
X028191Y027554D02*
X027987Y027554D01*
X027987Y027751D02*
X028191Y027751D01*
X028191Y027948D02*
X027987Y027948D01*
X027987Y028145D02*
X028191Y028145D01*
X028191Y028342D02*
X027987Y028342D01*
X027987Y028538D02*
X028191Y028538D01*
X028191Y028735D02*
X027987Y028735D01*
X027987Y028932D02*
X028191Y028932D01*
X028191Y029129D02*
X027987Y029129D01*
X027987Y029326D02*
X028191Y029326D01*
X028191Y029523D02*
X027987Y029523D01*
X027987Y029720D02*
X028191Y029720D01*
X028191Y029916D02*
X027987Y029916D01*
X028404Y030129D02*
X028404Y030333D01*
X028600Y030333D02*
X028600Y030129D01*
X028797Y030129D02*
X028797Y030333D01*
X028994Y030333D02*
X028994Y030129D01*
X029191Y030129D02*
X029191Y030333D01*
X029388Y030333D02*
X029388Y030129D01*
X029585Y030129D02*
X029585Y030333D01*
X029782Y030333D02*
X029782Y030129D01*
X029978Y030129D02*
X029978Y030333D01*
X030175Y030333D02*
X030175Y030129D01*
X030372Y030129D02*
X030372Y030333D01*
X030569Y030333D02*
X030569Y030129D01*
X030766Y030129D02*
X030766Y030333D01*
X030963Y030333D02*
X030963Y030129D01*
X031160Y030129D02*
X031160Y030333D01*
X031356Y030333D02*
X031356Y030129D01*
X031569Y029916D02*
X031773Y029916D01*
X031773Y029720D02*
X031569Y029720D01*
X031569Y029523D02*
X031773Y029523D01*
X031773Y029326D02*
X031569Y029326D01*
X031569Y029129D02*
X031773Y029129D01*
X031773Y028932D02*
X031569Y028932D01*
X031569Y028735D02*
X031773Y028735D01*
X031773Y028538D02*
X031569Y028538D01*
X031569Y028342D02*
X031773Y028342D01*
X031773Y028145D02*
X031569Y028145D01*
X031569Y027948D02*
X031773Y027948D01*
X031773Y027751D02*
X031569Y027751D01*
X031569Y027554D02*
X031773Y027554D01*
X031773Y027357D02*
X031569Y027357D01*
X031569Y027160D02*
X031773Y027160D01*
X031773Y026964D02*
X031569Y026964D01*
X031356Y026751D02*
X031356Y026547D01*
X031160Y026547D02*
X031160Y026751D01*
X030963Y026751D02*
X030963Y026547D01*
X030766Y026547D02*
X030766Y026751D01*
X030569Y026751D02*
X030569Y026547D01*
X030372Y026547D02*
X030372Y026751D01*
X030175Y026751D02*
X030175Y026547D01*
X029978Y026547D02*
X029978Y026751D01*
X029782Y026751D02*
X029782Y026547D01*
X029585Y026547D02*
X029585Y026751D01*
X029388Y026751D02*
X029388Y026547D01*
X029191Y026547D02*
X029191Y026751D01*
X028994Y026751D02*
X028994Y026547D01*
X028797Y026547D02*
X028797Y026751D01*
X028600Y026751D02*
X028600Y026547D01*
X028404Y026547D02*
X028404Y026751D01*
D11*
X029880Y028440D03*
D12*
X026636Y029340D03*
X026124Y029340D03*
X026236Y026940D03*
X025724Y026940D03*
X033024Y029740D03*
X033536Y029740D03*
X034524Y029440D03*
X034524Y028940D03*
X035036Y028940D03*
X035036Y029440D03*
X035036Y030340D03*
X034524Y030340D03*
X033536Y030840D03*
X033024Y030840D03*
G36*
X030421Y032532D02*
X030226Y032337D01*
X029977Y032586D01*
X030172Y032781D01*
X030421Y032532D01*
G37*
G36*
X030783Y032894D02*
X030588Y032699D01*
X030339Y032948D01*
X030534Y033143D01*
X030783Y032894D01*
G37*
X028736Y034240D03*
X028224Y034240D03*
X028286Y032840D03*
X028286Y032340D03*
X027774Y032340D03*
X027774Y032840D03*
X027236Y032240D03*
X026724Y032240D03*
X024736Y032940D03*
X024224Y032940D03*
X014136Y033540D03*
X013624Y033540D03*
X013624Y034140D03*
X014136Y034140D03*
X013136Y035340D03*
X012624Y035340D03*
G36*
X015134Y040137D02*
X014939Y040332D01*
X015188Y040581D01*
X015383Y040386D01*
X015134Y040137D01*
G37*
G36*
X014772Y040499D02*
X014577Y040694D01*
X014826Y040943D01*
X015021Y040748D01*
X014772Y040499D01*
G37*
X016538Y041161D03*
X017049Y041161D03*
X017052Y041791D03*
X016541Y041791D03*
G36*
X034730Y049015D02*
X034768Y049288D01*
X035118Y049239D01*
X035080Y048966D01*
X034730Y049015D01*
G37*
G36*
X034802Y049521D02*
X034840Y049794D01*
X035190Y049745D01*
X035152Y049472D01*
X034802Y049521D01*
G37*
G36*
X038981Y043748D02*
X039176Y043943D01*
X039425Y043694D01*
X039230Y043499D01*
X038981Y043748D01*
G37*
G36*
X038619Y043386D02*
X038814Y043581D01*
X039063Y043332D01*
X038868Y043137D01*
X038619Y043386D01*
G37*
G36*
X042421Y042232D02*
X042226Y042037D01*
X041977Y042286D01*
X042172Y042481D01*
X042421Y042232D01*
G37*
G36*
X042377Y041886D02*
X042572Y042081D01*
X042821Y041832D01*
X042626Y041637D01*
X042377Y041886D01*
G37*
G36*
X042739Y042248D02*
X042934Y042443D01*
X043183Y042194D01*
X042988Y041999D01*
X042739Y042248D01*
G37*
G36*
X042783Y042594D02*
X042588Y042399D01*
X042339Y042648D01*
X042534Y042843D01*
X042783Y042594D01*
G37*
X043924Y039040D03*
X044436Y039040D03*
X044824Y033940D03*
X044824Y033440D03*
X045336Y033440D03*
X045824Y033440D03*
X045824Y033940D03*
X045336Y033940D03*
X046336Y033940D03*
X046336Y033440D03*
X046036Y030540D03*
X045524Y030540D03*
X046124Y029740D03*
X046636Y029740D03*
X046724Y028640D03*
X047236Y028640D03*
X044236Y022540D03*
X043724Y022540D03*
X043236Y022540D03*
X042724Y022540D03*
G36*
X040072Y019299D02*
X039877Y019494D01*
X040126Y019743D01*
X040321Y019548D01*
X040072Y019299D01*
G37*
G36*
X039726Y019343D02*
X039921Y019148D01*
X039672Y018899D01*
X039477Y019094D01*
X039726Y019343D01*
G37*
G36*
X040088Y018981D02*
X040283Y018786D01*
X040034Y018537D01*
X039839Y018732D01*
X040088Y018981D01*
G37*
G36*
X040434Y018937D02*
X040239Y019132D01*
X040488Y019381D01*
X040683Y019186D01*
X040434Y018937D01*
G37*
G36*
X039339Y017448D02*
X039534Y017643D01*
X039783Y017394D01*
X039588Y017199D01*
X039339Y017448D01*
G37*
G36*
X038977Y017086D02*
X039172Y017281D01*
X039421Y017032D01*
X039226Y016837D01*
X038977Y017086D01*
G37*
X034636Y024640D03*
X034124Y024640D03*
X036424Y027640D03*
X036936Y027640D03*
X036636Y028340D03*
X036124Y028340D03*
X036124Y028940D03*
X036636Y028940D03*
G36*
X017739Y022148D02*
X017934Y022343D01*
X018183Y022094D01*
X017988Y021899D01*
X017739Y022148D01*
G37*
G36*
X017783Y022494D02*
X017588Y022299D01*
X017339Y022548D01*
X017534Y022743D01*
X017783Y022494D01*
G37*
G36*
X017421Y022132D02*
X017226Y021937D01*
X016977Y022186D01*
X017172Y022381D01*
X017421Y022132D01*
G37*
G36*
X017377Y021786D02*
X017572Y021981D01*
X017821Y021732D01*
X017626Y021537D01*
X017377Y021786D01*
G37*
G36*
X015783Y022494D02*
X015588Y022299D01*
X015339Y022548D01*
X015534Y022743D01*
X015783Y022494D01*
G37*
G36*
X015421Y022132D02*
X015226Y021937D01*
X014977Y022186D01*
X015172Y022381D01*
X015421Y022132D01*
G37*
D13*
X020580Y017384D03*
X020580Y017896D03*
X020580Y018384D03*
X020580Y018896D03*
X023380Y018896D03*
X023380Y018384D03*
X023380Y017896D03*
X023380Y017384D03*
X026480Y015396D03*
X026480Y014884D03*
X027780Y015184D03*
X027780Y015696D03*
X028380Y015696D03*
X028380Y015184D03*
X032380Y022884D03*
X032380Y023396D03*
X030480Y024884D03*
X029980Y024884D03*
X029490Y024884D03*
X029490Y025396D03*
X029980Y025396D03*
X030480Y025396D03*
X026980Y024996D03*
X026980Y024484D03*
X026380Y024484D03*
X026380Y024996D03*
X028140Y030664D03*
X028140Y031176D03*
X028280Y033284D03*
X028280Y033796D03*
X035592Y028457D03*
X035592Y027945D03*
X039080Y028384D03*
X039080Y028896D03*
X039680Y028984D03*
X039680Y029496D03*
X039080Y029684D03*
X039080Y030196D03*
X040580Y029696D03*
X040580Y029184D03*
X040580Y028296D03*
X040580Y027784D03*
X043780Y025896D03*
X043780Y025384D03*
X018280Y033784D03*
X018280Y034296D03*
X018280Y034784D03*
X018280Y035296D03*
X015480Y035296D03*
X015480Y034784D03*
X015480Y034296D03*
X015480Y033784D03*
D14*
X023110Y034140D03*
X026850Y034140D03*
D15*
X020744Y040341D03*
X017081Y044004D03*
X017470Y031420D03*
X012290Y031420D03*
X021479Y022804D03*
X017816Y019141D03*
X030400Y019530D03*
X030400Y014350D03*
X042679Y019876D03*
X039016Y023539D03*
X042290Y032460D03*
X047470Y032460D03*
X038281Y041076D03*
X041944Y044739D03*
D16*
X041824Y043134D03*
X041138Y042448D03*
X040572Y041882D03*
X039886Y041196D03*
X043510Y031410D03*
X044480Y031410D03*
X045280Y031410D03*
X046250Y031410D03*
X039136Y021934D03*
X039822Y021248D03*
X040388Y020682D03*
X041074Y019996D03*
X029350Y018310D03*
X029350Y017340D03*
X029350Y016540D03*
X029350Y015570D03*
X019874Y022684D03*
X019188Y021998D03*
X018622Y021432D03*
X017936Y020746D03*
X016250Y032470D03*
X015280Y032470D03*
X014480Y032470D03*
X013510Y032470D03*
X020624Y041946D03*
X019938Y042632D03*
X019372Y043198D03*
X018686Y043884D03*
D17*
G36*
X015750Y043127D02*
X016167Y043544D01*
X016584Y043127D01*
X016167Y042710D01*
X015750Y043127D01*
G37*
G36*
X014776Y042153D02*
X015193Y042570D01*
X015610Y042153D01*
X015193Y041736D01*
X014776Y042153D01*
G37*
G36*
X043093Y044544D02*
X043510Y044127D01*
X043093Y043710D01*
X042676Y044127D01*
X043093Y044544D01*
G37*
G36*
X044067Y043570D02*
X044484Y043153D01*
X044067Y042736D01*
X043650Y043153D01*
X044067Y043570D01*
G37*
G36*
X015693Y020310D02*
X015276Y020727D01*
X015693Y021144D01*
X016110Y020727D01*
X015693Y020310D01*
G37*
G36*
X016667Y019336D02*
X016250Y019753D01*
X016667Y020170D01*
X017084Y019753D01*
X016667Y019336D01*
G37*
G36*
X041510Y017753D02*
X041093Y017336D01*
X040676Y017753D01*
X041093Y018170D01*
X041510Y017753D01*
G37*
G36*
X042484Y018727D02*
X042067Y018310D01*
X041650Y018727D01*
X042067Y019144D01*
X042484Y018727D01*
G37*
D18*
G36*
X041649Y018421D02*
X041399Y018171D01*
X041149Y018421D01*
X041399Y018671D01*
X041649Y018421D01*
G37*
G36*
X016361Y020171D02*
X016111Y020421D01*
X016361Y020671D01*
X016611Y020421D01*
X016361Y020171D01*
G37*
G36*
X015611Y042459D02*
X015861Y042709D01*
X016111Y042459D01*
X015861Y042209D01*
X015611Y042459D01*
G37*
G36*
X043399Y043709D02*
X043649Y043459D01*
X043399Y043209D01*
X043149Y043459D01*
X043399Y043709D01*
G37*
D19*
X017630Y036603D03*
X017130Y036603D03*
X016630Y036603D03*
X016130Y036603D03*
X016130Y034477D03*
X016630Y034477D03*
X017130Y034477D03*
X017630Y034477D03*
X021230Y020103D03*
X021730Y020103D03*
X022230Y020103D03*
X022730Y020103D03*
X022730Y017977D03*
X022230Y017977D03*
X021730Y017977D03*
X021230Y017977D03*
D20*
X027791Y013940D03*
X029169Y013940D03*
X047880Y029851D03*
X047880Y031229D03*
X011880Y032651D03*
X011880Y034029D03*
D21*
X012136Y033340D03*
X028480Y014196D03*
X047624Y030540D03*
D22*
X046843Y034990D03*
X046843Y035490D03*
X046843Y035990D03*
X046843Y036490D03*
X044717Y036490D03*
X044717Y035990D03*
X044717Y035490D03*
X044717Y034990D03*
X036043Y026990D03*
X036043Y026490D03*
X036043Y025990D03*
X036043Y025490D03*
X033917Y025490D03*
X033917Y025990D03*
X033917Y026490D03*
X033917Y026990D03*
X041617Y024790D03*
X041617Y024290D03*
X041617Y023790D03*
X041617Y023290D03*
X043743Y023290D03*
X043743Y023790D03*
X043743Y024290D03*
X043743Y024790D03*
D23*
G36*
X040489Y017571D02*
X040711Y017349D01*
X040489Y017127D01*
X040267Y017349D01*
X040489Y017571D01*
G37*
G36*
X040071Y017153D02*
X040293Y016931D01*
X040071Y016709D01*
X039849Y016931D01*
X040071Y017153D01*
G37*
G36*
X015511Y021331D02*
X015289Y021109D01*
X015067Y021331D01*
X015289Y021553D01*
X015511Y021331D01*
G37*
G36*
X015093Y021749D02*
X014871Y021527D01*
X014649Y021749D01*
X014871Y021971D01*
X015093Y021749D01*
G37*
G36*
X014171Y041553D02*
X014393Y041331D01*
X014171Y041109D01*
X013949Y041331D01*
X014171Y041553D01*
G37*
G36*
X014589Y041971D02*
X014811Y041749D01*
X014589Y041527D01*
X014367Y041749D01*
X014589Y041971D01*
G37*
G36*
X034472Y048971D02*
X034162Y049015D01*
X034206Y049325D01*
X034516Y049281D01*
X034472Y048971D01*
G37*
G36*
X034554Y049555D02*
X034244Y049599D01*
X034288Y049909D01*
X034598Y049865D01*
X034554Y049555D01*
G37*
G36*
X039024Y047640D02*
X039157Y047923D01*
X039440Y047790D01*
X039307Y047507D01*
X039024Y047640D01*
G37*
G36*
X039560Y047390D02*
X039693Y047673D01*
X039976Y047540D01*
X039843Y047257D01*
X039560Y047390D01*
G37*
G36*
X044249Y042649D02*
X044471Y042871D01*
X044693Y042649D01*
X044471Y042427D01*
X044249Y042649D01*
G37*
G36*
X044667Y042231D02*
X044889Y042453D01*
X045111Y042231D01*
X044889Y042009D01*
X044667Y042231D01*
G37*
D24*
X041480Y030240D03*
D25*
X041480Y029240D03*
X041480Y028240D03*
X041480Y027240D03*
X038066Y042626D03*
X040894Y045454D03*
D26*
X029434Y043840D03*
X028726Y043840D03*
X031926Y015040D03*
X031926Y014340D03*
X032634Y014340D03*
X032634Y015040D03*
D27*
X028062Y044784D03*
X025778Y044784D03*
D28*
X029880Y047886D03*
X029880Y048594D03*
X029880Y049086D03*
X029880Y049794D03*
X030140Y040874D03*
X030140Y040166D03*
D29*
X031111Y037940D03*
X035049Y037940D03*
D30*
X025890Y038638D03*
X025890Y036842D03*
X033290Y023938D03*
X033290Y022142D03*
D31*
X036117Y023040D03*
X028717Y037740D03*
D32*
X030880Y042874D03*
X030880Y044606D03*
D33*
X032532Y047924D03*
D34*
G36*
X031100Y048402D02*
X031695Y048329D01*
X031622Y047734D01*
X031027Y047807D01*
X031100Y048402D01*
G37*
D35*
X028641Y050068D03*
X025035Y049432D03*
X023364Y048898D03*
X025726Y047555D03*
X026713Y046490D03*
X027954Y046709D03*
X023689Y045485D03*
X022567Y044913D03*
X021311Y045643D03*
X020101Y047236D03*
D36*
X011880Y035335D03*
X011880Y034745D03*
X026485Y014140D03*
X027075Y014140D03*
X047980Y028645D03*
X047980Y029235D03*
D37*
X025450Y041632D03*
D38*
X029080Y041640D03*
X029080Y041140D03*
X029080Y040640D03*
X029080Y040140D03*
X029080Y042140D03*
X029080Y042640D03*
X029080Y043140D03*
D39*
X032646Y042240D03*
X034614Y042240D03*
X043096Y040540D03*
X045064Y040540D03*
X045164Y028640D03*
X043196Y028640D03*
G36*
X036021Y019204D02*
X036911Y018314D01*
X036465Y017868D01*
X035575Y018758D01*
X036021Y019204D01*
G37*
G36*
X037413Y017812D02*
X038303Y016922D01*
X037857Y016476D01*
X036967Y017366D01*
X037413Y017812D01*
G37*
G36*
X019184Y025499D02*
X018294Y024609D01*
X017848Y025055D01*
X018738Y025945D01*
X019184Y025499D01*
G37*
G36*
X017793Y024107D02*
X016903Y023217D01*
X016457Y023663D01*
X017347Y024553D01*
X017793Y024107D01*
G37*
X014979Y028620D03*
X013011Y028620D03*
X016012Y038779D03*
X017981Y038779D03*
D40*
X026485Y018857D03*
X026485Y016889D03*
D41*
G36*
X037457Y024595D02*
X038068Y025206D01*
X038249Y025025D01*
X037638Y024414D01*
X037457Y024595D01*
G37*
G36*
X038487Y025625D02*
X039098Y026236D01*
X039279Y026055D01*
X038668Y025444D01*
X038487Y025625D01*
G37*
D42*
X035130Y028346D03*
X034775Y028346D03*
X037680Y029940D03*
X038080Y029940D03*
D43*
X038336Y029684D01*
X039080Y029684D01*
X039080Y028896D01*
X039080Y028384D02*
X038624Y028384D01*
X038480Y028340D01*
X038080Y028340D01*
X037380Y027640D01*
X036936Y027640D01*
X036880Y027584D01*
X036880Y027040D01*
X036880Y026990D02*
X036880Y026690D01*
X036880Y026640D02*
X036730Y026490D01*
X036043Y026490D01*
X036043Y026990D02*
X036043Y027259D01*
X036424Y027640D01*
X036424Y027884D01*
X036636Y028096D01*
X036636Y028340D01*
X037180Y028340D01*
X038580Y027740D02*
X039480Y027740D01*
X040180Y028440D01*
X040180Y028784D01*
X040580Y029184D01*
X040636Y029240D01*
X041480Y029240D01*
X040580Y029696D02*
X040580Y030140D01*
X039680Y029840D02*
X039680Y029496D01*
X039680Y029840D02*
X039324Y030196D01*
X039080Y030196D01*
X038030Y029940D02*
X037730Y029940D01*
X037680Y029940D02*
X036680Y029940D01*
X036480Y029940D01*
X034380Y029940D01*
X034180Y029740D01*
X034180Y029440D01*
X033869Y029129D01*
X031671Y029129D01*
X031671Y029326D02*
X033666Y029326D01*
X033880Y029540D01*
X033880Y029940D01*
X034280Y030340D01*
X034524Y030340D01*
X035036Y030340D02*
X035620Y030340D01*
X035580Y029440D02*
X035036Y029440D01*
X035036Y028940D02*
X035136Y028852D01*
X035130Y028346D01*
X034775Y028346D02*
X034516Y028305D01*
X034516Y028932D01*
X034524Y029440D01*
X034524Y028940D01*
X034516Y028932D02*
X031671Y028932D01*
X031671Y028735D02*
X033285Y028735D01*
X034080Y027940D01*
X035592Y027945D01*
X035712Y028328D02*
X036124Y028340D01*
X036124Y028940D01*
X035592Y028457D02*
X035712Y028328D01*
X034680Y027640D02*
X035280Y027040D01*
X035280Y026240D01*
X035530Y025990D01*
X036043Y025990D01*
X036830Y025990D01*
X038580Y027740D01*
X038680Y027340D02*
X039480Y027340D01*
X040436Y028296D01*
X040580Y028296D01*
X040636Y028240D01*
X041480Y028240D01*
X040580Y028296D02*
X040534Y028342D01*
X040482Y028342D01*
X040524Y027784D02*
X039980Y027240D01*
X040524Y027784D02*
X040580Y027784D01*
X039680Y028740D02*
X039680Y028984D01*
X039680Y028740D02*
X039324Y028384D01*
X039080Y028384D01*
X038680Y027340D02*
X036830Y025490D01*
X036043Y025490D01*
X035430Y025490D01*
X034980Y025940D01*
X034980Y026940D01*
X034580Y027340D01*
X034080Y027340D01*
X033078Y028342D01*
X031671Y028342D01*
X031671Y028538D02*
X033182Y028538D01*
X034080Y027640D01*
X034680Y027640D01*
X033917Y026990D02*
X033730Y026990D01*
X033680Y026940D01*
X033580Y026940D01*
X033580Y026540D01*
X033630Y026490D01*
X033917Y026490D01*
X033580Y026540D02*
X033580Y025940D01*
X033630Y025990D01*
X033917Y025990D01*
X033580Y025940D02*
X033580Y025540D01*
X033630Y025490D01*
X033917Y025490D01*
X033580Y025540D02*
X033580Y025040D01*
X033880Y025040D02*
X033917Y025077D01*
X033380Y025640D02*
X032980Y025240D01*
X032280Y025240D01*
X031580Y024540D01*
X031380Y024540D01*
X031180Y024340D01*
X030880Y024640D02*
X030880Y025480D01*
X030175Y026185D01*
X030175Y026649D01*
X029978Y026649D02*
X029978Y026242D01*
X029980Y025640D01*
X029980Y025440D01*
X029980Y025396D02*
X029980Y025390D01*
X029980Y025384D01*
X029490Y025396D02*
X029710Y025860D01*
X029652Y025774D02*
X029490Y025396D01*
X029150Y025690D02*
X029150Y023020D01*
X028880Y023440D02*
X028880Y025650D01*
X029388Y026158D01*
X029388Y026649D01*
X029585Y026649D02*
X029585Y026125D01*
X029150Y025690D01*
X029191Y026191D02*
X028580Y025580D01*
X028580Y023090D01*
X028530Y023040D01*
X028280Y022740D02*
X027780Y023240D01*
X027780Y025470D01*
X028600Y026290D01*
X028600Y026649D01*
X028404Y026649D02*
X028404Y026364D01*
X028160Y026220D01*
X027980Y026540D02*
X027880Y026640D01*
X027880Y026840D01*
X028004Y026964D01*
X028089Y027160D02*
X027900Y027160D01*
X027680Y026940D01*
X027680Y026240D01*
X027780Y026140D01*
X027480Y025840D02*
X027540Y025780D01*
X027480Y025840D02*
X027480Y027040D01*
X027797Y027357D01*
X028089Y027357D01*
X028089Y027554D02*
X027694Y027554D01*
X027280Y027140D01*
X027280Y025296D01*
X026980Y024996D01*
X026380Y024996D01*
X026980Y024484D02*
X026984Y023734D01*
X028280Y023440D02*
X028280Y025510D01*
X028994Y026224D01*
X028994Y026649D01*
X029191Y026649D02*
X029191Y026191D01*
X029782Y025938D02*
X029782Y026649D01*
X030372Y026649D02*
X030372Y026248D01*
X031180Y025440D01*
X031180Y025240D01*
X031480Y025400D02*
X031480Y024940D01*
X031780Y025240D02*
X031780Y025360D01*
X030766Y026374D01*
X030766Y026649D01*
X030963Y026649D02*
X030963Y026437D01*
X031860Y025540D01*
X032680Y025540D01*
X033080Y025840D02*
X031820Y025840D01*
X031160Y026500D01*
X031160Y026649D01*
X031356Y026649D02*
X031356Y026544D01*
X031360Y026540D02*
X031660Y026240D01*
X031980Y026240D01*
X032380Y026255D02*
X031671Y026964D01*
X031671Y027160D02*
X031860Y027160D01*
X032880Y026140D01*
X033280Y026140D01*
X033380Y026040D01*
X033380Y025640D01*
X032980Y026440D02*
X032980Y026540D01*
X032163Y027357D01*
X031671Y027357D01*
X031686Y027540D02*
X031671Y027554D01*
X031686Y027540D02*
X032280Y027540D01*
X033080Y026740D01*
X033280Y026740D01*
X033080Y027140D02*
X032480Y027740D01*
X031682Y027740D01*
X031671Y027751D01*
X031679Y027940D02*
X032680Y027940D01*
X033080Y027540D01*
X033080Y027940D02*
X032880Y028140D01*
X031676Y028140D01*
X031671Y028145D01*
X031671Y027948D02*
X031679Y027940D01*
X030569Y026649D02*
X030569Y026311D01*
X031480Y025400D01*
X032380Y026140D02*
X032380Y026255D01*
X031080Y022740D02*
X028280Y022740D01*
X022230Y017977D02*
X022230Y017390D01*
X022280Y017340D01*
X022730Y017390D02*
X022780Y017340D01*
X021780Y017340D02*
X021730Y017390D01*
X021730Y017977D01*
X021230Y017390D02*
X021280Y017340D01*
X045336Y033440D02*
X045824Y033440D01*
X045824Y033940D02*
X045336Y033940D01*
X046843Y035490D02*
X046893Y035440D01*
X046893Y035940D02*
X046843Y035990D01*
D44*
G36*
X037513Y047474D02*
X037655Y047409D01*
X037435Y046928D01*
X037293Y046993D01*
X037513Y047474D01*
G37*
G36*
X037281Y047581D02*
X037423Y047516D01*
X037203Y047035D01*
X037061Y047100D01*
X037281Y047581D01*
G37*
G36*
X037048Y047688D02*
X037190Y047623D01*
X036970Y047142D01*
X036828Y047207D01*
X037048Y047688D01*
G37*
G36*
X036816Y047795D02*
X036958Y047730D01*
X036738Y047249D01*
X036596Y047314D01*
X036816Y047795D01*
G37*
G36*
X036583Y047902D02*
X036725Y047837D01*
X036505Y047356D01*
X036363Y047421D01*
X036583Y047902D01*
G37*
D45*
X036269Y048915D03*
X038629Y047829D03*
D46*
X034880Y046446D03*
X034880Y044834D03*
D47*
X033037Y046440D03*
X030123Y046440D03*
D48*
X036880Y027040D03*
X036880Y026640D03*
D49*
X037647Y025040D02*
X034480Y025040D01*
X034480Y024997D01*
X034636Y024997D01*
X034636Y024640D01*
X034954Y024640D01*
X034954Y024841D01*
X034941Y024887D01*
X034918Y024928D01*
X034884Y024961D01*
X034843Y024985D01*
X034797Y024997D01*
X034636Y024997D01*
X034636Y024640D01*
X034636Y024640D01*
X034954Y024640D01*
X034954Y024439D01*
X034941Y024393D01*
X034923Y024362D01*
X036037Y024362D01*
X036037Y023120D01*
X036037Y022960D01*
X034717Y022960D01*
X034717Y021875D01*
X034729Y021829D01*
X034752Y021788D01*
X034786Y021754D01*
X034827Y021731D01*
X034873Y021718D01*
X036037Y021718D01*
X036037Y022960D01*
X036197Y022960D01*
X036197Y021718D01*
X037361Y021718D01*
X037407Y021731D01*
X037448Y021754D01*
X037482Y021788D01*
X037505Y021829D01*
X037517Y021875D01*
X037517Y022960D01*
X036197Y022960D01*
X036197Y023120D01*
X036037Y023120D01*
X034717Y023120D01*
X034717Y024205D01*
X034729Y024251D01*
X034747Y024283D01*
X034636Y024283D01*
X034636Y024640D01*
X034636Y024640D01*
X034636Y024640D01*
X034636Y024283D01*
X034480Y024283D01*
X034480Y021540D01*
X038098Y021540D01*
X038098Y024620D01*
X038071Y024592D01*
X037748Y024269D01*
X037707Y024246D01*
X037661Y024233D01*
X037614Y024233D01*
X037568Y024246D01*
X037527Y024269D01*
X037420Y024377D01*
X037853Y024810D01*
X037853Y024810D01*
X037420Y024377D01*
X037312Y024484D01*
X037289Y024525D01*
X037276Y024571D01*
X037276Y024618D01*
X037289Y024664D01*
X037312Y024705D01*
X037635Y025028D01*
X037853Y024810D01*
X037853Y024810D01*
X037853Y024810D01*
X038071Y024592D01*
X037853Y024810D01*
X037635Y025028D01*
X037647Y025040D01*
X037702Y024962D02*
X037702Y024962D01*
X037569Y024962D02*
X034884Y024962D01*
X034954Y024803D02*
X037411Y024803D01*
X037284Y024645D02*
X034954Y024645D01*
X034954Y024486D02*
X037311Y024486D01*
X037361Y024362D02*
X036197Y024362D01*
X036197Y023120D01*
X037517Y023120D01*
X037517Y024205D01*
X037505Y024251D01*
X037482Y024292D01*
X037448Y024326D01*
X037407Y024349D01*
X037361Y024362D01*
X037445Y024328D02*
X037469Y024328D01*
X037517Y024169D02*
X038098Y024169D01*
X038098Y024011D02*
X037517Y024011D01*
X037517Y023852D02*
X038098Y023852D01*
X038098Y023694D02*
X037517Y023694D01*
X037517Y023535D02*
X038098Y023535D01*
X038098Y023377D02*
X037517Y023377D01*
X037517Y023218D02*
X038098Y023218D01*
X038098Y023060D02*
X036197Y023060D01*
X036197Y023218D02*
X036037Y023218D01*
X036037Y023060D02*
X034480Y023060D01*
X034480Y023218D02*
X034717Y023218D01*
X034717Y023377D02*
X034480Y023377D01*
X034480Y023535D02*
X034717Y023535D01*
X034717Y023694D02*
X034480Y023694D01*
X034480Y023852D02*
X034717Y023852D01*
X034717Y024011D02*
X034480Y024011D01*
X034480Y024169D02*
X034717Y024169D01*
X034636Y024328D02*
X034636Y024328D01*
X034636Y024486D02*
X034636Y024486D01*
X034636Y024645D02*
X034636Y024645D01*
X034636Y024803D02*
X034636Y024803D01*
X034636Y024962D02*
X034636Y024962D01*
X034180Y024997D02*
X034124Y024997D01*
X033963Y024997D01*
X033917Y024985D01*
X033876Y024961D01*
X033842Y024928D01*
X033819Y024887D01*
X033806Y024841D01*
X033806Y024640D01*
X033806Y024439D01*
X033808Y024433D01*
X033368Y024433D01*
X033368Y024015D01*
X034061Y024015D01*
X034061Y024276D01*
X034059Y024283D01*
X034124Y024283D01*
X034124Y024640D01*
X033806Y024640D01*
X034124Y024640D01*
X034124Y024640D01*
X034124Y024640D01*
X034124Y024997D01*
X034124Y024640D01*
X034124Y024640D01*
X034124Y024283D01*
X034180Y024283D01*
X034180Y023340D01*
X034060Y023270D01*
X032737Y023270D01*
X032737Y023396D01*
X032737Y023443D01*
X033213Y023443D01*
X033213Y023860D01*
X033368Y023860D01*
X033368Y024015D01*
X033213Y024015D01*
X033213Y024433D01*
X032676Y024433D01*
X032630Y024420D01*
X032589Y024397D01*
X032556Y024363D01*
X032532Y024322D01*
X032520Y024276D01*
X032520Y024015D01*
X033213Y024015D01*
X033213Y023860D01*
X032520Y023860D01*
X032520Y023714D01*
X032380Y023714D01*
X032179Y023714D01*
X032133Y023701D01*
X032092Y023678D01*
X032059Y023644D01*
X032035Y023603D01*
X032023Y023557D01*
X032023Y023396D01*
X032380Y023396D01*
X032380Y023714D01*
X032380Y023396D01*
X032380Y023396D01*
X032737Y023396D01*
X032380Y023396D01*
X032380Y023396D01*
X032380Y023396D01*
X032023Y023396D01*
X032023Y023270D01*
X031870Y023270D01*
X031880Y024340D01*
X032480Y025040D01*
X034180Y025040D01*
X034180Y024997D01*
X034124Y024962D02*
X034124Y024962D01*
X034124Y024803D02*
X034124Y024803D01*
X034124Y024645D02*
X034124Y024645D01*
X034124Y024486D02*
X034124Y024486D01*
X034124Y024328D02*
X034124Y024328D01*
X034180Y024169D02*
X034061Y024169D01*
X034180Y024011D02*
X033368Y024011D01*
X033368Y023860D02*
X034061Y023860D01*
X034061Y023599D01*
X034049Y023553D01*
X034025Y023512D01*
X033991Y023479D01*
X033950Y023455D01*
X033904Y023443D01*
X033368Y023443D01*
X033368Y023860D01*
X033368Y023852D02*
X033213Y023852D01*
X033213Y023694D02*
X033368Y023694D01*
X033368Y023535D02*
X033213Y023535D01*
X033213Y024011D02*
X031877Y024011D01*
X031878Y024169D02*
X032520Y024169D01*
X032535Y024328D02*
X031880Y024328D01*
X032005Y024486D02*
X033806Y024486D01*
X033806Y024645D02*
X032141Y024645D01*
X032277Y024803D02*
X033806Y024803D01*
X033876Y024962D02*
X032413Y024962D01*
X033213Y024328D02*
X033368Y024328D01*
X033368Y024169D02*
X033213Y024169D01*
X032520Y023852D02*
X031875Y023852D01*
X031874Y023694D02*
X032120Y023694D01*
X032023Y023535D02*
X031872Y023535D01*
X031871Y023377D02*
X032023Y023377D01*
X032380Y023535D02*
X032380Y023535D01*
X032380Y023694D02*
X032380Y023694D01*
X032737Y023377D02*
X034180Y023377D01*
X034180Y023535D02*
X034038Y023535D01*
X034061Y023694D02*
X034180Y023694D01*
X034180Y023852D02*
X034061Y023852D01*
X034180Y022940D02*
X032737Y022940D01*
X032737Y022884D01*
X032380Y022884D01*
X032380Y022566D01*
X032555Y022566D01*
X032532Y022527D01*
X032520Y022481D01*
X032520Y022220D01*
X033213Y022220D01*
X033213Y022637D01*
X032702Y022637D01*
X032725Y022677D01*
X032737Y022723D01*
X032737Y022884D01*
X032380Y022884D01*
X032380Y022884D01*
X032380Y022566D01*
X032179Y022566D01*
X032133Y022579D01*
X032092Y022602D01*
X032059Y022636D01*
X032035Y022677D01*
X032023Y022723D01*
X032023Y022884D01*
X032380Y022884D01*
X032380Y022884D01*
X032380Y022884D01*
X032023Y022884D01*
X032023Y022940D01*
X031880Y022940D01*
X031880Y022740D01*
X032555Y022065D01*
X033213Y022065D01*
X033368Y022065D01*
X033368Y022220D01*
X034061Y022220D01*
X034061Y022481D01*
X034049Y022527D01*
X034025Y022568D01*
X033991Y022601D01*
X033950Y022625D01*
X033904Y022637D01*
X033368Y022637D01*
X033368Y022220D01*
X033213Y022220D01*
X033213Y022065D01*
X033213Y021647D01*
X032973Y021647D01*
X033080Y021540D01*
X034180Y021540D01*
X034180Y022940D01*
X034180Y022901D02*
X032737Y022901D01*
X032737Y022743D02*
X034180Y022743D01*
X034180Y022584D02*
X034009Y022584D01*
X034061Y022426D02*
X034180Y022426D01*
X034180Y022267D02*
X034061Y022267D01*
X034180Y022109D02*
X033368Y022109D01*
X033368Y022065D02*
X034061Y022065D01*
X034061Y021804D01*
X034049Y021758D01*
X034025Y021717D01*
X033991Y021683D01*
X033950Y021660D01*
X033904Y021647D01*
X033368Y021647D01*
X033368Y022065D01*
X033368Y021950D02*
X033213Y021950D01*
X033213Y021792D02*
X033368Y021792D01*
X033213Y022109D02*
X032511Y022109D01*
X032520Y022267D02*
X032353Y022267D01*
X032194Y022426D02*
X032520Y022426D01*
X032380Y022584D02*
X032380Y022584D01*
X032380Y022743D02*
X032380Y022743D01*
X032124Y022584D02*
X032036Y022584D01*
X032023Y022743D02*
X031880Y022743D01*
X031880Y022901D02*
X032023Y022901D01*
X033213Y022584D02*
X033368Y022584D01*
X033368Y022426D02*
X033213Y022426D01*
X033213Y022267D02*
X033368Y022267D01*
X032987Y021633D02*
X034180Y021633D01*
X034180Y021792D02*
X034058Y021792D01*
X034061Y021950D02*
X034180Y021950D01*
X034480Y021950D02*
X034717Y021950D01*
X034717Y022109D02*
X034480Y022109D01*
X034480Y022267D02*
X034717Y022267D01*
X034717Y022426D02*
X034480Y022426D01*
X034480Y022584D02*
X034717Y022584D01*
X034717Y022743D02*
X034480Y022743D01*
X034480Y022901D02*
X034717Y022901D01*
X036037Y022901D02*
X036197Y022901D01*
X036197Y022743D02*
X036037Y022743D01*
X036037Y022584D02*
X036197Y022584D01*
X036197Y022426D02*
X036037Y022426D01*
X036037Y022267D02*
X036197Y022267D01*
X036197Y022109D02*
X036037Y022109D01*
X036037Y021950D02*
X036197Y021950D01*
X036197Y021792D02*
X036037Y021792D01*
X034750Y021792D02*
X034480Y021792D01*
X034480Y021633D02*
X038098Y021633D01*
X038098Y021792D02*
X037484Y021792D01*
X037517Y021950D02*
X038098Y021950D01*
X038098Y022109D02*
X037517Y022109D01*
X037517Y022267D02*
X038098Y022267D01*
X038098Y022426D02*
X037517Y022426D01*
X037517Y022584D02*
X038098Y022584D01*
X038098Y022743D02*
X037517Y022743D01*
X037517Y022901D02*
X038098Y022901D01*
X036197Y023377D02*
X036037Y023377D01*
X036037Y023535D02*
X036197Y023535D01*
X036197Y023694D02*
X036037Y023694D01*
X036037Y023852D02*
X036197Y023852D01*
X036197Y024011D02*
X036037Y024011D01*
X036037Y024169D02*
X036197Y024169D01*
X036197Y024328D02*
X036037Y024328D01*
X037529Y024486D02*
X037529Y024486D01*
X037688Y024645D02*
X037688Y024645D01*
X037846Y024803D02*
X037846Y024803D01*
X037860Y024803D02*
X037860Y024803D01*
X038019Y024645D02*
X038019Y024645D01*
X037965Y024486D02*
X038098Y024486D01*
X038098Y024328D02*
X037806Y024328D01*
X040980Y023140D02*
X041132Y023292D01*
X041132Y023290D01*
X041132Y023148D01*
X041144Y023102D01*
X041168Y023061D01*
X041201Y023028D01*
X041242Y023004D01*
X041288Y022992D01*
X041617Y022992D01*
X041946Y022992D01*
X041992Y023004D01*
X042033Y023028D01*
X042066Y023061D01*
X042090Y023102D01*
X042102Y023148D01*
X042102Y023290D01*
X042102Y023432D01*
X042100Y023440D01*
X042180Y023440D01*
X042180Y022940D01*
X040980Y022940D01*
X040980Y023140D01*
X040980Y023060D02*
X041170Y023060D01*
X041132Y023218D02*
X041058Y023218D01*
X041132Y023290D02*
X041617Y023290D01*
X041617Y023290D01*
X041132Y023290D01*
X041617Y023290D02*
X041617Y023290D01*
X041617Y022992D01*
X041617Y023290D01*
X042102Y023290D01*
X041617Y023290D01*
X041617Y023290D01*
X041617Y023218D02*
X041617Y023218D01*
X041617Y023060D02*
X041617Y023060D01*
X042064Y023060D02*
X042180Y023060D01*
X042180Y023218D02*
X042102Y023218D01*
X042102Y023377D02*
X042180Y023377D01*
X033540Y030340D02*
X033536Y030840D01*
X030850Y033230D02*
X030561Y032941D01*
X030561Y032921D01*
X029180Y034240D02*
X028736Y034240D01*
X027089Y035520D02*
X032571Y035520D01*
X032700Y035649D01*
X032700Y040331D01*
X032571Y040460D01*
X030437Y040460D01*
X030434Y040463D01*
X029846Y040463D01*
X029843Y040460D01*
X029694Y040460D01*
X029694Y040877D01*
X029682Y040890D01*
X029694Y040903D01*
X029694Y040920D01*
X029752Y040920D01*
X029764Y040910D01*
X029764Y040659D01*
X029846Y040577D01*
X030434Y040577D01*
X030516Y040659D01*
X030516Y041090D01*
X030434Y041172D01*
X030133Y041172D01*
X029984Y041301D01*
X029925Y041360D01*
X029917Y041360D01*
X029910Y041366D01*
X029827Y041360D01*
X029694Y041360D01*
X029694Y041377D01*
X029612Y041459D01*
X028700Y041459D01*
X028700Y041821D01*
X029612Y041821D01*
X029694Y041903D01*
X029694Y042340D01*
X029768Y042340D01*
X029816Y042320D01*
X029944Y042320D01*
X030061Y042369D01*
X030151Y042459D01*
X030200Y042576D01*
X030200Y042704D01*
X030151Y042821D01*
X030061Y042911D01*
X029944Y042960D01*
X029816Y042960D01*
X029768Y042940D01*
X029694Y042940D01*
X029694Y043377D01*
X029612Y043459D01*
X029100Y043459D01*
X029100Y044120D01*
X030268Y044120D01*
X030268Y044076D01*
X030350Y043994D01*
X031410Y043994D01*
X031492Y044076D01*
X031492Y044241D01*
X031500Y044249D01*
X031500Y047331D01*
X031371Y047460D01*
X030880Y047460D01*
X030880Y048740D01*
X031880Y048740D01*
X031966Y048048D01*
X031962Y048038D01*
X031962Y047775D01*
X032049Y047565D01*
X032357Y047257D01*
X032346Y047246D01*
X032346Y045634D01*
X032428Y045552D01*
X033380Y045552D01*
X033380Y035040D01*
X033180Y034740D01*
X020580Y034740D01*
X020280Y035040D01*
X020280Y039643D01*
X020580Y039518D01*
X020907Y039518D01*
X021210Y039644D01*
X021441Y039875D01*
X021566Y040177D01*
X021566Y040505D01*
X021441Y040807D01*
X021210Y041038D01*
X020907Y041163D01*
X020580Y041163D01*
X020280Y041039D01*
X020280Y041240D01*
X021480Y042540D01*
X020280Y043740D01*
X022289Y045292D01*
X022172Y045176D01*
X022102Y045005D01*
X022102Y044820D01*
X022172Y044649D01*
X022303Y044519D01*
X022474Y044448D01*
X022659Y044448D01*
X022830Y044519D01*
X022961Y044649D01*
X023031Y044820D01*
X023031Y045005D01*
X022961Y045176D01*
X022830Y045307D01*
X022659Y045377D01*
X022474Y045377D01*
X022312Y045310D01*
X022480Y045440D01*
X023291Y045738D01*
X023224Y045577D01*
X023224Y045392D01*
X023295Y045221D01*
X023426Y045091D01*
X023597Y045020D01*
X023781Y045020D01*
X023952Y045091D01*
X024083Y045221D01*
X024154Y045392D01*
X024154Y045577D01*
X024083Y045748D01*
X023952Y045879D01*
X023822Y045933D01*
X027380Y047240D01*
X027560Y047240D01*
X027560Y046972D01*
X027489Y046801D01*
X027489Y046616D01*
X027560Y046446D01*
X027560Y040349D01*
X027569Y040340D01*
X027560Y040331D01*
X027560Y039860D01*
X027089Y039860D01*
X026960Y039731D01*
X026960Y035649D01*
X027089Y035520D01*
X027028Y035581D02*
X020280Y035581D01*
X020280Y035423D02*
X033380Y035423D01*
X033380Y035581D02*
X032632Y035581D01*
X032700Y035740D02*
X033380Y035740D01*
X033380Y035898D02*
X032700Y035898D01*
X032700Y036057D02*
X033380Y036057D01*
X033380Y036215D02*
X032700Y036215D01*
X032700Y036374D02*
X033380Y036374D01*
X033380Y036532D02*
X032700Y036532D01*
X032700Y036691D02*
X033380Y036691D01*
X033380Y036849D02*
X032700Y036849D01*
X032700Y037008D02*
X033380Y037008D01*
X033380Y037166D02*
X032700Y037166D01*
X032700Y037325D02*
X033380Y037325D01*
X033380Y037483D02*
X032700Y037483D01*
X032700Y037642D02*
X033380Y037642D01*
X033380Y037800D02*
X032700Y037800D01*
X032700Y037959D02*
X033380Y037959D01*
X033380Y038117D02*
X032700Y038117D01*
X032700Y038276D02*
X033380Y038276D01*
X033380Y038434D02*
X032700Y038434D01*
X032700Y038593D02*
X033380Y038593D01*
X033380Y038751D02*
X032700Y038751D01*
X032700Y038910D02*
X033380Y038910D01*
X033380Y039068D02*
X032700Y039068D01*
X032700Y039227D02*
X033380Y039227D01*
X033380Y039385D02*
X032700Y039385D01*
X032700Y039544D02*
X033380Y039544D01*
X033380Y039702D02*
X032700Y039702D01*
X032700Y039861D02*
X033380Y039861D01*
X033380Y040019D02*
X032700Y040019D01*
X032700Y040178D02*
X033380Y040178D01*
X033380Y040336D02*
X032695Y040336D01*
X032480Y040240D02*
X032480Y035740D01*
X027180Y035740D01*
X027180Y039640D01*
X027780Y039640D01*
X027780Y040240D01*
X032480Y040240D01*
X032480Y040178D02*
X027780Y040178D01*
X027780Y040019D02*
X032480Y040019D01*
X032480Y039861D02*
X027780Y039861D01*
X027780Y039702D02*
X032480Y039702D01*
X032480Y039544D02*
X027180Y039544D01*
X027180Y039385D02*
X032480Y039385D01*
X032480Y039227D02*
X027180Y039227D01*
X027180Y039068D02*
X032480Y039068D01*
X032480Y038910D02*
X027180Y038910D01*
X027180Y038751D02*
X032480Y038751D01*
X032480Y038593D02*
X027180Y038593D01*
X027180Y038434D02*
X032480Y038434D01*
X032480Y038276D02*
X027180Y038276D01*
X027180Y038117D02*
X032480Y038117D01*
X032480Y037959D02*
X027180Y037959D01*
X027180Y037800D02*
X032480Y037800D01*
X032480Y037642D02*
X027180Y037642D01*
X027180Y037483D02*
X032480Y037483D01*
X032480Y037325D02*
X027180Y037325D01*
X027180Y037166D02*
X032480Y037166D01*
X032480Y037008D02*
X027180Y037008D01*
X027180Y036849D02*
X032480Y036849D01*
X032480Y036691D02*
X027180Y036691D01*
X027180Y036532D02*
X032480Y036532D01*
X032480Y036374D02*
X027180Y036374D01*
X027180Y036215D02*
X032480Y036215D01*
X032480Y036057D02*
X027180Y036057D01*
X027180Y035898D02*
X032480Y035898D01*
X033380Y035264D02*
X020280Y035264D01*
X020280Y035106D02*
X033380Y035106D01*
X033318Y034947D02*
X020373Y034947D01*
X020531Y034789D02*
X033212Y034789D01*
X033680Y035040D02*
X033980Y034740D01*
X035380Y034740D01*
X036280Y035640D01*
X036380Y045240D01*
X033680Y045240D01*
X033680Y035040D01*
X033680Y035106D02*
X035746Y035106D01*
X035904Y035264D02*
X033680Y035264D01*
X033680Y035423D02*
X036063Y035423D01*
X036221Y035581D02*
X033680Y035581D01*
X033680Y035740D02*
X036281Y035740D01*
X036283Y035898D02*
X033680Y035898D01*
X033680Y036057D02*
X036284Y036057D01*
X036286Y036215D02*
X033680Y036215D01*
X033680Y036374D02*
X036288Y036374D01*
X036289Y036532D02*
X033680Y036532D01*
X033680Y036691D02*
X036291Y036691D01*
X036293Y036849D02*
X033680Y036849D01*
X033680Y037008D02*
X036294Y037008D01*
X036296Y037166D02*
X033680Y037166D01*
X033680Y037325D02*
X036298Y037325D01*
X036299Y037483D02*
X033680Y037483D01*
X033680Y037642D02*
X036301Y037642D01*
X036303Y037800D02*
X033680Y037800D01*
X033680Y037959D02*
X036304Y037959D01*
X036306Y038117D02*
X033680Y038117D01*
X033680Y038276D02*
X036307Y038276D01*
X036309Y038434D02*
X033680Y038434D01*
X033680Y038593D02*
X036311Y038593D01*
X036312Y038751D02*
X033680Y038751D01*
X033680Y038910D02*
X036314Y038910D01*
X036316Y039068D02*
X033680Y039068D01*
X033680Y039227D02*
X036317Y039227D01*
X036319Y039385D02*
X033680Y039385D01*
X033680Y039544D02*
X036321Y039544D01*
X036322Y039702D02*
X033680Y039702D01*
X033680Y039861D02*
X036324Y039861D01*
X036326Y040019D02*
X033680Y040019D01*
X033680Y040178D02*
X036327Y040178D01*
X036329Y040336D02*
X033680Y040336D01*
X033680Y040495D02*
X036331Y040495D01*
X036332Y040653D02*
X033680Y040653D01*
X033680Y040812D02*
X036334Y040812D01*
X036336Y040970D02*
X033680Y040970D01*
X033680Y041129D02*
X036337Y041129D01*
X036339Y041287D02*
X033680Y041287D01*
X033680Y041446D02*
X036340Y041446D01*
X036342Y041604D02*
X033680Y041604D01*
X033680Y041763D02*
X036344Y041763D01*
X036345Y041921D02*
X033680Y041921D01*
X033680Y042080D02*
X036347Y042080D01*
X036349Y042238D02*
X033680Y042238D01*
X033680Y042397D02*
X036350Y042397D01*
X036352Y042555D02*
X033680Y042555D01*
X033680Y042714D02*
X036354Y042714D01*
X036355Y042872D02*
X033680Y042872D01*
X033680Y043031D02*
X036357Y043031D01*
X036359Y043189D02*
X033680Y043189D01*
X033680Y043348D02*
X036360Y043348D01*
X036362Y043506D02*
X033680Y043506D01*
X033680Y043665D02*
X036364Y043665D01*
X036365Y043823D02*
X033680Y043823D01*
X033680Y043982D02*
X036367Y043982D01*
X036369Y044140D02*
X033680Y044140D01*
X033680Y044299D02*
X036370Y044299D01*
X036372Y044457D02*
X033680Y044457D01*
X033680Y044616D02*
X036373Y044616D01*
X036375Y044774D02*
X033680Y044774D01*
X033680Y044933D02*
X036377Y044933D01*
X036378Y045091D02*
X033680Y045091D01*
X033380Y045091D02*
X031500Y045091D01*
X031500Y044933D02*
X033380Y044933D01*
X033380Y044774D02*
X031500Y044774D01*
X031500Y044616D02*
X033380Y044616D01*
X033380Y044457D02*
X031500Y044457D01*
X031500Y044299D02*
X033380Y044299D01*
X033380Y044140D02*
X031492Y044140D01*
X031280Y044340D02*
X028880Y044340D01*
X028880Y043540D01*
X028480Y043540D01*
X028480Y043392D01*
X028466Y043377D01*
X028466Y042903D01*
X028478Y042890D01*
X028466Y042877D01*
X028466Y042403D01*
X028478Y042390D01*
X028466Y042377D01*
X028466Y041903D01*
X028478Y041890D01*
X028466Y041877D01*
X028466Y041403D01*
X028478Y041390D01*
X028466Y041377D01*
X028466Y040903D01*
X028480Y040888D01*
X028480Y040460D01*
X027780Y040460D01*
X027780Y046278D01*
X027862Y046244D01*
X028047Y046244D01*
X028217Y046315D01*
X028348Y046446D01*
X028419Y046616D01*
X028419Y046801D01*
X028348Y046972D01*
X028217Y047103D01*
X028047Y047174D01*
X027862Y047174D01*
X027780Y047140D01*
X027780Y047240D01*
X031280Y047240D01*
X031280Y044340D01*
X031280Y044457D02*
X027780Y044457D01*
X027780Y044299D02*
X028880Y044299D01*
X028880Y044140D02*
X027780Y044140D01*
X027780Y043982D02*
X028880Y043982D01*
X028880Y043823D02*
X027780Y043823D01*
X027780Y043665D02*
X028880Y043665D01*
X029100Y043665D02*
X033380Y043665D01*
X033380Y043823D02*
X029100Y043823D01*
X029100Y043982D02*
X033380Y043982D01*
X033380Y043506D02*
X029100Y043506D01*
X029694Y043348D02*
X033380Y043348D01*
X033380Y043189D02*
X029694Y043189D01*
X029694Y043031D02*
X033380Y043031D01*
X033380Y042872D02*
X030100Y042872D01*
X030196Y042714D02*
X033380Y042714D01*
X033380Y042555D02*
X030191Y042555D01*
X030089Y042397D02*
X033380Y042397D01*
X033380Y042238D02*
X029694Y042238D01*
X029694Y042080D02*
X033380Y042080D01*
X033380Y041921D02*
X029694Y041921D01*
X029626Y041446D02*
X033380Y041446D01*
X033380Y041604D02*
X028700Y041604D01*
X028700Y041763D02*
X033380Y041763D01*
X033380Y041287D02*
X030001Y041287D01*
X029834Y041140D02*
X030140Y040874D01*
X030516Y040812D02*
X033380Y040812D01*
X033380Y040970D02*
X030516Y040970D01*
X030477Y041129D02*
X033380Y041129D01*
X033380Y040653D02*
X030510Y040653D01*
X030140Y040166D02*
X029934Y040140D01*
X029080Y040140D01*
X028480Y040495D02*
X027780Y040495D01*
X027780Y040653D02*
X028480Y040653D01*
X028480Y040812D02*
X027780Y040812D01*
X027780Y040970D02*
X028466Y040970D01*
X028466Y041129D02*
X027780Y041129D01*
X027780Y041287D02*
X028466Y041287D01*
X028466Y041446D02*
X027780Y041446D01*
X027780Y041604D02*
X028466Y041604D01*
X028466Y041763D02*
X027780Y041763D01*
X027780Y041921D02*
X028466Y041921D01*
X028466Y042080D02*
X027780Y042080D01*
X027780Y042238D02*
X028466Y042238D01*
X028472Y042397D02*
X027780Y042397D01*
X027780Y042555D02*
X028466Y042555D01*
X028466Y042714D02*
X027780Y042714D01*
X027780Y042872D02*
X028466Y042872D01*
X028466Y043031D02*
X027780Y043031D01*
X027780Y043189D02*
X028466Y043189D01*
X028466Y043348D02*
X027780Y043348D01*
X027780Y043506D02*
X028480Y043506D01*
X027560Y043506D02*
X020514Y043506D01*
X020672Y043348D02*
X027560Y043348D01*
X027560Y043189D02*
X020831Y043189D01*
X020989Y043031D02*
X027560Y043031D01*
X027560Y042872D02*
X021148Y042872D01*
X021306Y042714D02*
X027560Y042714D01*
X027560Y042555D02*
X021465Y042555D01*
X021348Y042397D02*
X027560Y042397D01*
X027560Y042238D02*
X021201Y042238D01*
X021055Y042080D02*
X027560Y042080D01*
X027560Y041921D02*
X020909Y041921D01*
X020762Y041763D02*
X027560Y041763D01*
X027560Y041604D02*
X020616Y041604D01*
X020470Y041446D02*
X027560Y041446D01*
X027560Y041287D02*
X020323Y041287D01*
X020280Y041129D02*
X020496Y041129D01*
X020991Y041129D02*
X027560Y041129D01*
X027560Y040970D02*
X021278Y040970D01*
X021436Y040812D02*
X027560Y040812D01*
X027560Y040653D02*
X021505Y040653D01*
X021566Y040495D02*
X027560Y040495D01*
X027565Y040336D02*
X021566Y040336D01*
X021566Y040178D02*
X027560Y040178D01*
X027560Y040019D02*
X021501Y040019D01*
X021427Y039861D02*
X027560Y039861D01*
X026960Y039702D02*
X021268Y039702D01*
X020968Y039544D02*
X026960Y039544D01*
X026960Y039385D02*
X020280Y039385D01*
X020280Y039227D02*
X026960Y039227D01*
X026960Y039068D02*
X020280Y039068D01*
X020280Y038910D02*
X026960Y038910D01*
X026960Y038751D02*
X020280Y038751D01*
X020280Y038593D02*
X026960Y038593D01*
X026960Y038434D02*
X020280Y038434D01*
X020280Y038276D02*
X026960Y038276D01*
X026960Y038117D02*
X020280Y038117D01*
X020280Y037959D02*
X026960Y037959D01*
X026960Y037800D02*
X020280Y037800D01*
X020280Y037642D02*
X026960Y037642D01*
X026960Y037483D02*
X020280Y037483D01*
X020280Y037325D02*
X026960Y037325D01*
X026960Y037166D02*
X020280Y037166D01*
X020280Y037008D02*
X026960Y037008D01*
X026960Y036849D02*
X020280Y036849D01*
X020280Y036691D02*
X026960Y036691D01*
X026960Y036532D02*
X020280Y036532D01*
X020280Y036374D02*
X026960Y036374D01*
X026960Y036215D02*
X020280Y036215D01*
X020280Y036057D02*
X026960Y036057D01*
X026960Y035898D02*
X020280Y035898D01*
X020280Y035740D02*
X026960Y035740D01*
X027380Y032840D02*
X027774Y032840D01*
X027774Y032834D02*
X027780Y032840D01*
X027774Y032834D02*
X027774Y032340D01*
X026724Y032240D02*
X026180Y032240D01*
X025180Y032940D02*
X024736Y032940D01*
X025680Y029340D02*
X026124Y029340D01*
X025724Y026940D02*
X025710Y026940D01*
X025350Y026580D01*
X018516Y025277D02*
X018415Y025176D01*
X018415Y025175D01*
X017125Y023885D02*
X017125Y023867D01*
X016760Y023503D01*
X016743Y023503D01*
X016732Y023492D01*
X020880Y020740D02*
X021280Y020740D01*
X021331Y020588D01*
X021230Y020588D01*
X021088Y020588D01*
X021042Y020576D01*
X021001Y020552D01*
X020968Y020519D01*
X020944Y020478D01*
X020932Y020432D01*
X020932Y020103D01*
X020932Y019774D01*
X020944Y019728D01*
X020968Y019687D01*
X021001Y019654D01*
X021042Y019630D01*
X021088Y019618D01*
X021230Y019618D01*
X021372Y019618D01*
X021380Y019620D01*
X021380Y019540D01*
X020880Y019540D01*
X020880Y020740D01*
X020880Y020682D02*
X021299Y020682D01*
X021230Y020588D02*
X021230Y020103D01*
X021230Y020103D01*
X021230Y020588D01*
X021230Y020524D02*
X021230Y020524D01*
X021230Y020365D02*
X021230Y020365D01*
X021230Y020207D02*
X021230Y020207D01*
X021230Y020103D02*
X021230Y020103D01*
X020932Y020103D01*
X021230Y020103D01*
X021230Y019618D01*
X021230Y020103D01*
X021230Y020103D01*
X021230Y020048D02*
X021230Y020048D01*
X021230Y019890D02*
X021230Y019890D01*
X021230Y019731D02*
X021230Y019731D01*
X021380Y019573D02*
X020880Y019573D01*
X020880Y019731D02*
X020943Y019731D01*
X020932Y019890D02*
X020880Y019890D01*
X020880Y020048D02*
X020932Y020048D01*
X020932Y020207D02*
X020880Y020207D01*
X020880Y020365D02*
X020932Y020365D01*
X020973Y020524D02*
X020880Y020524D01*
X022680Y020588D02*
X022680Y020740D01*
X022880Y020740D01*
X023180Y020440D01*
X023180Y019540D01*
X022680Y019540D01*
X022680Y019618D01*
X022730Y019618D01*
X022872Y019618D01*
X022918Y019630D01*
X022959Y019654D01*
X022992Y019687D01*
X023016Y019728D01*
X023028Y019774D01*
X023028Y020103D01*
X023028Y020432D01*
X023016Y020478D01*
X022992Y020519D01*
X022959Y020552D01*
X022918Y020576D01*
X022872Y020588D01*
X022730Y020588D01*
X022680Y020588D01*
X022730Y020588D02*
X022730Y020103D01*
X022730Y020103D01*
X022730Y020588D01*
X022730Y020524D02*
X022730Y020524D01*
X022730Y020365D02*
X022730Y020365D01*
X022730Y020207D02*
X022730Y020207D01*
X022730Y020103D02*
X023028Y020103D01*
X022730Y020103D01*
X022730Y020103D01*
X022730Y019618D01*
X022730Y020103D01*
X022730Y020103D01*
X022730Y020048D02*
X022730Y020048D01*
X022730Y019890D02*
X022730Y019890D01*
X022730Y019731D02*
X022730Y019731D01*
X022680Y019573D02*
X023180Y019573D01*
X023180Y019731D02*
X023017Y019731D01*
X023028Y019890D02*
X023180Y019890D01*
X023180Y020048D02*
X023028Y020048D01*
X023028Y020207D02*
X023180Y020207D01*
X023180Y020365D02*
X023028Y020365D01*
X022987Y020524D02*
X023096Y020524D01*
X022938Y020682D02*
X022680Y020682D01*
X030400Y014350D02*
X031926Y014340D01*
X031926Y015040D01*
X032634Y015040D02*
X032634Y014340D01*
X032634Y015040D02*
X033180Y015040D01*
X033931Y034789D02*
X035429Y034789D01*
X035587Y034947D02*
X033773Y034947D01*
X033380Y040495D02*
X029694Y040495D01*
X029694Y040653D02*
X029770Y040653D01*
X029764Y040812D02*
X029694Y040812D01*
X029834Y041140D02*
X029080Y041140D01*
X027560Y043665D02*
X020355Y043665D01*
X020387Y043823D02*
X027560Y043823D01*
X027560Y043982D02*
X020593Y043982D01*
X020798Y044140D02*
X027560Y044140D01*
X027560Y044299D02*
X021003Y044299D01*
X021208Y044457D02*
X022452Y044457D01*
X022681Y044457D02*
X027560Y044457D01*
X027560Y044616D02*
X022927Y044616D01*
X023012Y044774D02*
X027560Y044774D01*
X027560Y044933D02*
X023031Y044933D01*
X022996Y045091D02*
X023425Y045091D01*
X023283Y045250D02*
X022887Y045250D01*
X022825Y045567D02*
X023224Y045567D01*
X023224Y045408D02*
X022439Y045408D01*
X022246Y045250D02*
X022234Y045250D01*
X022137Y045091D02*
X022028Y045091D01*
X022102Y044933D02*
X021823Y044933D01*
X021618Y044774D02*
X022121Y044774D01*
X022206Y044616D02*
X021413Y044616D01*
X023256Y045725D02*
X023286Y045725D01*
X023940Y045884D02*
X027560Y045884D01*
X027560Y046042D02*
X026846Y046042D01*
X026806Y046025D02*
X026977Y046096D01*
X027107Y046227D01*
X027178Y046398D01*
X027178Y046583D01*
X027107Y046753D01*
X026977Y046884D01*
X026806Y046955D01*
X026621Y046955D01*
X026450Y046884D01*
X026319Y046753D01*
X026249Y046583D01*
X026249Y046398D01*
X026319Y046227D01*
X026450Y046096D01*
X026621Y046025D01*
X026806Y046025D01*
X026580Y046042D02*
X024119Y046042D01*
X024093Y045725D02*
X027560Y045725D01*
X027560Y045567D02*
X024154Y045567D01*
X024154Y045408D02*
X027560Y045408D01*
X027560Y045250D02*
X024095Y045250D01*
X023953Y045091D02*
X027560Y045091D01*
X027780Y045091D02*
X031280Y045091D01*
X031280Y044933D02*
X027780Y044933D01*
X027780Y044774D02*
X031280Y044774D01*
X031280Y044616D02*
X027780Y044616D01*
X027780Y045250D02*
X031280Y045250D01*
X031280Y045408D02*
X027780Y045408D01*
X027780Y045567D02*
X031280Y045567D01*
X031280Y045725D02*
X027780Y045725D01*
X027780Y045884D02*
X031280Y045884D01*
X031280Y046042D02*
X027780Y046042D01*
X027780Y046201D02*
X031280Y046201D01*
X031280Y046359D02*
X028262Y046359D01*
X028378Y046518D02*
X031280Y046518D01*
X031280Y046676D02*
X028419Y046676D01*
X028405Y046835D02*
X031280Y046835D01*
X031280Y046993D02*
X028327Y046993D01*
X028100Y047152D02*
X031280Y047152D01*
X031500Y047152D02*
X032346Y047152D01*
X032346Y046993D02*
X031500Y046993D01*
X031500Y046835D02*
X032346Y046835D01*
X032346Y046676D02*
X031500Y046676D01*
X031500Y046518D02*
X032346Y046518D01*
X032346Y046359D02*
X031500Y046359D01*
X031500Y046201D02*
X032346Y046201D01*
X032346Y046042D02*
X031500Y046042D01*
X031500Y045884D02*
X032346Y045884D01*
X032346Y045725D02*
X031500Y045725D01*
X031500Y045567D02*
X032413Y045567D01*
X031500Y045408D02*
X033380Y045408D01*
X033380Y045250D02*
X031500Y045250D01*
X031500Y047310D02*
X032304Y047310D01*
X032145Y047469D02*
X030880Y047469D01*
X030880Y047627D02*
X032023Y047627D01*
X031962Y047786D02*
X030880Y047786D01*
X030880Y047944D02*
X031962Y047944D01*
X031960Y048103D02*
X030880Y048103D01*
X030880Y048261D02*
X031940Y048261D01*
X031920Y048420D02*
X030880Y048420D01*
X030880Y048578D02*
X031900Y048578D01*
X031880Y048737D02*
X030880Y048737D01*
X029880Y048594D02*
X029880Y049086D01*
X029880Y049794D02*
X029780Y050040D01*
X029980Y050240D01*
X029580Y050240D01*
X029780Y050040D01*
X027808Y047152D02*
X027780Y047152D01*
X027560Y047152D02*
X027139Y047152D01*
X027026Y046835D02*
X027503Y046835D01*
X027489Y046676D02*
X027139Y046676D01*
X027178Y046518D02*
X027530Y046518D01*
X027560Y046359D02*
X027162Y046359D01*
X027081Y046201D02*
X027560Y046201D01*
X027560Y046993D02*
X026708Y046993D01*
X026401Y046835D02*
X026276Y046835D01*
X026287Y046676D02*
X025845Y046676D01*
X026249Y046518D02*
X025413Y046518D01*
X024982Y046359D02*
X026265Y046359D01*
X026346Y046201D02*
X024550Y046201D01*
X020519Y039544D02*
X020280Y039544D01*
X017981Y038779D02*
X017981Y038621D01*
X017961Y038621D01*
X017380Y037440D02*
X016980Y037440D01*
X016930Y037440D01*
X017100Y037270D01*
X017100Y036960D01*
X017110Y036950D01*
X017380Y037031D02*
X017380Y037120D01*
X017444Y037120D01*
X017492Y037140D01*
X017780Y037140D01*
X018080Y036840D01*
X018080Y036040D01*
X017380Y036040D01*
X017380Y036175D01*
X017401Y036154D01*
X017442Y036130D01*
X017488Y036118D01*
X017630Y036118D01*
X017772Y036118D01*
X017818Y036130D01*
X017859Y036154D01*
X017892Y036187D01*
X017916Y036228D01*
X017928Y036274D01*
X017928Y036603D01*
X017928Y036932D01*
X017916Y036978D01*
X017892Y037019D01*
X017859Y037052D01*
X017818Y037076D01*
X017772Y037088D01*
X017630Y037088D01*
X017488Y037088D01*
X017442Y037076D01*
X017401Y037052D01*
X017380Y037031D01*
X017630Y037008D02*
X017630Y037008D01*
X017630Y037088D02*
X017630Y036603D01*
X017630Y036603D01*
X017630Y037088D01*
X017630Y036849D02*
X017630Y036849D01*
X017630Y036691D02*
X017630Y036691D01*
X017630Y036603D02*
X017928Y036603D01*
X017630Y036603D01*
X017630Y036603D01*
X017630Y036118D01*
X017630Y036603D01*
X017630Y036603D01*
X017630Y036532D02*
X017630Y036532D01*
X017630Y036374D02*
X017630Y036374D01*
X017630Y036215D02*
X017630Y036215D01*
X017908Y036215D02*
X018080Y036215D01*
X018080Y036057D02*
X017380Y036057D01*
X017130Y036603D02*
X017130Y037290D01*
X017380Y037440D01*
X017899Y037008D02*
X017912Y037008D01*
X017928Y036849D02*
X018071Y036849D01*
X018080Y036691D02*
X017928Y036691D01*
X017928Y036532D02*
X018080Y036532D01*
X018080Y036374D02*
X017928Y036374D01*
X016130Y036603D02*
X016130Y036603D01*
X016130Y037088D01*
X015988Y037088D01*
X015942Y037076D01*
X015901Y037052D01*
X015868Y037019D01*
X015844Y036978D01*
X015832Y036932D01*
X015832Y036603D01*
X015832Y036340D01*
X015680Y036340D01*
X015680Y037140D01*
X016080Y037140D01*
X016132Y037088D01*
X016130Y037088D01*
X016130Y036603D01*
X016130Y036603D01*
X015832Y036603D01*
X016130Y036603D01*
X016130Y036691D02*
X016130Y036691D01*
X016130Y036849D02*
X016130Y036849D01*
X016130Y037008D02*
X016130Y037008D01*
X015861Y037008D02*
X015680Y037008D01*
X015680Y036849D02*
X015832Y036849D01*
X015832Y036691D02*
X015680Y036691D01*
X015680Y036532D02*
X015832Y036532D01*
X015832Y036374D02*
X015680Y036374D01*
X015599Y038740D02*
X016012Y038740D01*
X016012Y038779D01*
X013180Y035940D02*
X013136Y035340D01*
X034180Y048740D02*
X034239Y048999D01*
X034339Y049148D01*
X034924Y049127D02*
X035144Y049004D01*
X035550Y048900D01*
X034996Y049633D02*
X034660Y049793D01*
X034421Y049732D01*
X036269Y047629D02*
X036080Y047440D01*
X036269Y047629D02*
X036544Y047629D01*
X037009Y047415D02*
X036880Y047140D01*
X036880Y046900D01*
X037150Y046900D02*
X037150Y047100D01*
X037242Y047308D01*
X039203Y043763D02*
X040894Y045454D01*
X039203Y043763D02*
X039203Y043721D01*
X038841Y043359D02*
X038108Y042626D01*
X038066Y042626D01*
X044080Y036540D02*
X044380Y036840D01*
X045280Y036840D01*
X045280Y036340D01*
X045200Y036340D01*
X045202Y036348D01*
X045202Y036490D01*
X045202Y036632D01*
X045190Y036678D01*
X045166Y036719D01*
X045133Y036752D01*
X045092Y036776D01*
X045046Y036788D01*
X044717Y036788D01*
X044388Y036788D01*
X044342Y036776D01*
X044301Y036752D01*
X044268Y036719D01*
X044244Y036678D01*
X044232Y036632D01*
X044232Y036490D01*
X044232Y036348D01*
X044234Y036340D01*
X044080Y036340D01*
X044080Y036540D01*
X044080Y036532D02*
X044232Y036532D01*
X044232Y036490D02*
X044717Y036490D01*
X044717Y036490D01*
X044232Y036490D01*
X044232Y036374D02*
X044080Y036374D01*
X044231Y036691D02*
X044252Y036691D01*
X044717Y036691D02*
X044717Y036691D01*
X044717Y036788D02*
X044717Y036490D01*
X044717Y036490D01*
X044717Y036788D01*
X044717Y036532D02*
X044717Y036532D01*
X044717Y036490D02*
X045202Y036490D01*
X044717Y036490D01*
X044717Y036490D01*
X045202Y036532D02*
X045280Y036532D01*
X045280Y036374D02*
X045202Y036374D01*
X045182Y036691D02*
X045280Y036691D01*
X045280Y035140D02*
X045280Y034740D01*
X045145Y034740D01*
X045166Y034761D01*
X045190Y034802D01*
X045202Y034848D01*
X045202Y034990D01*
X044717Y034990D01*
X044717Y034990D01*
X044232Y034990D01*
X044717Y034990D01*
X044717Y034990D01*
X045202Y034990D01*
X045202Y035132D01*
X045200Y035140D01*
X045280Y035140D01*
X045280Y035106D02*
X045202Y035106D01*
X045202Y034947D02*
X045280Y034947D01*
X045280Y034789D02*
X045182Y034789D01*
X044289Y034740D02*
X044080Y034740D01*
X044080Y034840D01*
X044232Y034992D01*
X044232Y034990D01*
X044232Y034848D01*
X044244Y034802D01*
X044268Y034761D01*
X044289Y034740D01*
X044252Y034789D02*
X044080Y034789D01*
X044187Y034947D02*
X044232Y034947D01*
D50*
X043980Y035440D03*
X044080Y035990D03*
X045680Y039440D03*
X045680Y039840D03*
X043380Y042540D03*
X041880Y041940D03*
X042180Y041440D03*
X036080Y047440D03*
X035550Y048900D03*
X034180Y048740D03*
X029980Y050240D03*
X029580Y050240D03*
X029880Y042640D03*
X029180Y034240D03*
X030850Y033230D03*
X027380Y032840D03*
X026180Y032240D03*
X025180Y032940D03*
X025680Y029340D03*
X025350Y026580D03*
X019380Y025740D03*
X018980Y026140D03*
X015980Y028440D03*
X015980Y028840D03*
X015880Y022940D03*
X016180Y022640D03*
X016380Y021440D03*
X021680Y020740D03*
X022230Y020740D03*
X027080Y019540D03*
X027480Y019540D03*
X028280Y016240D03*
X028780Y016240D03*
X027780Y014740D03*
X026680Y015940D03*
X026280Y015940D03*
X033180Y015040D03*
X039180Y019340D03*
X039580Y019640D03*
X040080Y018240D03*
X033890Y022810D03*
X033390Y022810D03*
X032890Y022810D03*
X032390Y022430D03*
X033290Y023380D03*
X032360Y023910D03*
X032390Y024580D03*
X032990Y024580D03*
X033540Y024600D03*
X035280Y024640D03*
X035780Y024640D03*
X036280Y024640D03*
X036780Y024640D03*
X039230Y026490D03*
X039530Y026190D03*
X039980Y026640D03*
X039680Y026940D03*
X039980Y027240D03*
X040280Y026940D03*
X042280Y028440D03*
X042280Y028940D03*
X044780Y030540D03*
X045680Y029740D03*
X047180Y029740D03*
X045480Y024440D03*
X045180Y024140D03*
X045480Y023840D03*
X045780Y024140D03*
X040880Y023740D03*
X037180Y028340D03*
X037180Y028940D03*
X036120Y029440D03*
X035580Y029440D03*
X035580Y028940D03*
X035620Y030340D03*
X033540Y030340D03*
X033020Y030320D03*
X038580Y030140D03*
X017980Y041840D03*
X017480Y041840D03*
X017080Y042640D03*
X014974Y039040D03*
X014974Y038540D03*
X016480Y037240D03*
X016980Y037440D03*
X017380Y037440D03*
X014780Y035440D03*
X014180Y034640D03*
X012880Y034340D03*
X012780Y034900D03*
X013180Y035940D03*
D51*
X012680Y035340D02*
X012675Y035335D01*
X012629Y035335D01*
X012624Y035340D01*
X012629Y035335D02*
X011880Y035335D01*
X011880Y034745D02*
X012585Y034745D01*
X012780Y034900D01*
X014180Y034640D02*
X014180Y034184D01*
X014136Y034140D01*
X013624Y034140D02*
X013480Y034140D01*
X013180Y033840D01*
X012636Y033840D01*
X012136Y033340D01*
X012180Y032640D02*
X011891Y032640D01*
X011880Y032651D01*
X012180Y032640D02*
X013080Y033540D01*
X013624Y033540D01*
X014136Y033540D02*
X014780Y034084D01*
X014780Y035440D01*
X015480Y035296D02*
X016036Y035296D01*
X016630Y035890D01*
X017224Y035296D01*
X018280Y035296D01*
X018280Y034784D02*
X018280Y034296D01*
X017811Y034296D01*
X017630Y034477D01*
X017130Y034477D02*
X017080Y034427D01*
X017080Y033840D01*
X016580Y033840D02*
X016580Y034427D01*
X016630Y034477D01*
X016130Y034477D02*
X015949Y034296D01*
X015480Y034296D01*
X015480Y034784D01*
X015480Y033784D02*
X016024Y033784D01*
X016080Y033840D01*
X018280Y033784D02*
X018280Y032540D01*
X018080Y032340D01*
X017500Y036000D02*
X017630Y036130D01*
X017630Y036603D01*
X017500Y036000D02*
X017420Y036000D01*
X016630Y035890D02*
X016630Y036603D01*
X015480Y038759D02*
X015480Y040040D01*
X015161Y040359D01*
X015161Y040359D01*
X014799Y040721D02*
X014189Y041331D01*
X014171Y041331D01*
X014589Y041749D02*
X015616Y040721D01*
X017961Y040721D01*
X017580Y041140D02*
X017070Y041140D01*
X017049Y041161D01*
X016538Y041161D02*
X016185Y041161D01*
X015193Y042153D01*
X015861Y042459D02*
X015872Y042459D01*
X016541Y041791D01*
X017052Y041791D02*
X017102Y041840D01*
X017480Y041840D01*
X017980Y041840D02*
X017980Y041540D01*
X017580Y041140D01*
X026850Y034140D02*
X026950Y034240D01*
X028224Y034240D01*
X028280Y034184D01*
X028280Y033796D01*
X028780Y033296D01*
X028780Y031940D01*
X029191Y031529D01*
X029191Y030231D01*
X028994Y030231D02*
X028990Y030236D01*
X028990Y031430D01*
X028580Y031840D01*
X028580Y033184D01*
X028280Y033284D01*
X023966Y033284D01*
X024136Y033114D01*
X024224Y032940D01*
X023966Y033284D02*
X023110Y034140D01*
X027236Y032240D02*
X027296Y032120D01*
X027380Y032040D01*
X027780Y032040D01*
X028600Y031220D01*
X028600Y030231D01*
X028404Y030231D02*
X028404Y030366D01*
X028250Y030520D01*
X028160Y030520D01*
X028080Y030370D01*
X027930Y030310D01*
X027580Y030440D02*
X027580Y031140D01*
X027410Y031310D01*
X027350Y031310D01*
X027280Y031040D02*
X027210Y031040D01*
X027280Y031040D02*
X027380Y030940D01*
X027380Y030340D01*
X026880Y030140D02*
X026780Y030110D01*
X026880Y030140D02*
X027497Y029523D01*
X028089Y029523D01*
X028089Y029326D02*
X027394Y029326D01*
X026880Y029840D01*
X026780Y029840D01*
X026636Y029340D02*
X026936Y029340D01*
X027147Y029129D01*
X027141Y029129D02*
X027020Y029250D01*
X027141Y029129D02*
X028089Y029129D01*
X028089Y028932D02*
X026772Y028932D01*
X026680Y028840D01*
X026610Y028840D01*
X026660Y028570D02*
X026710Y028570D01*
X026875Y028735D01*
X028089Y028735D01*
X028087Y028540D02*
X027180Y028540D01*
X026380Y027740D01*
X026180Y027740D01*
X026180Y027470D02*
X026380Y027440D01*
X027280Y028340D01*
X028087Y028340D01*
X028089Y028342D01*
X028089Y028538D02*
X028087Y028540D01*
X027885Y028145D02*
X027880Y028140D01*
X027380Y028140D01*
X026680Y027440D01*
X026590Y027240D01*
X026380Y026940D01*
X026236Y026940D01*
X026280Y026940D01*
X026440Y026410D02*
X026580Y026410D01*
X026880Y026710D01*
X026880Y027340D01*
X027488Y027948D01*
X028089Y027948D01*
X028089Y027751D02*
X027591Y027751D01*
X027080Y027240D01*
X027080Y026540D01*
X026680Y026140D01*
X026480Y026140D01*
X026680Y025440D02*
X026380Y025140D01*
X026380Y024996D01*
X026380Y024484D02*
X026380Y023840D01*
X026980Y023840D02*
X026984Y023736D01*
X026984Y023734D01*
X029490Y024830D02*
X029800Y024520D01*
X029980Y024520D01*
X030160Y024520D01*
X030480Y024840D01*
X030480Y024900D01*
X030470Y024890D01*
X029980Y024890D01*
X029980Y024520D01*
X029980Y024884D02*
X030480Y024884D01*
X029986Y024884D01*
X029980Y024890D01*
X029980Y024884D02*
X029490Y024884D01*
X029490Y024830D01*
X029980Y025390D02*
X029986Y025396D01*
X030480Y025396D01*
X029980Y025396D02*
X029980Y025440D01*
X029652Y025774D02*
X029782Y025938D01*
X028797Y026649D02*
X028797Y027357D01*
X029480Y028040D01*
X029880Y028440D01*
X031671Y029720D02*
X032260Y029720D01*
X032520Y030010D01*
X032080Y030030D02*
X031956Y029916D01*
X031671Y029916D01*
X031771Y030191D02*
X032020Y030440D01*
X032080Y030440D01*
X031771Y030191D02*
X031359Y030191D01*
X031356Y030231D01*
X031160Y030231D02*
X031160Y030420D01*
X031280Y030540D01*
X031480Y030540D01*
X031610Y030460D01*
X031180Y030740D02*
X032380Y030740D01*
X032480Y030640D01*
X032924Y030940D02*
X033024Y030840D01*
X033020Y030836D01*
X033020Y030320D01*
X033024Y030316D01*
X033024Y029740D01*
X033536Y029740D02*
X033536Y030840D01*
X032924Y030940D02*
X031080Y030940D01*
X030766Y030626D01*
X030766Y030231D01*
X030963Y030231D02*
X030963Y030523D01*
X031180Y030740D01*
X031180Y031340D02*
X031280Y031340D01*
X031180Y031340D02*
X030569Y030729D01*
X030569Y030231D01*
X030372Y030231D02*
X030372Y030832D01*
X031080Y031540D01*
X030680Y031840D02*
X030175Y031335D01*
X030175Y030635D01*
X029585Y030231D02*
X029585Y032535D01*
X029388Y032332D02*
X029310Y032610D01*
X029388Y032332D02*
X029388Y030231D01*
X028797Y030231D02*
X028797Y031323D01*
X028280Y031840D01*
X028280Y032334D01*
X028286Y032340D01*
X028286Y032840D01*
X027774Y032834D02*
X027774Y032840D01*
X027850Y031530D02*
X028140Y031280D01*
X028140Y031176D01*
X029782Y032082D02*
X029930Y032310D01*
X030400Y031940D02*
X030400Y031860D01*
X030280Y031740D01*
X035036Y028940D02*
X035580Y028940D01*
X036124Y028940D02*
X036124Y029436D01*
X036120Y029440D01*
X036636Y028940D02*
X037180Y028940D01*
X036780Y030340D02*
X036180Y030340D01*
X036780Y030340D02*
X037080Y030640D01*
X040080Y030640D01*
X040280Y030840D01*
X040780Y030840D01*
X040780Y031240D02*
X040180Y031240D01*
X039880Y030940D01*
X035780Y030940D01*
X035580Y030840D01*
X038580Y030140D02*
X039080Y030196D01*
X043196Y028640D02*
X043480Y028640D01*
X044180Y029340D01*
X047875Y029340D01*
X047980Y029235D01*
X047980Y028645D02*
X047975Y028640D01*
X047236Y028640D01*
X046724Y028640D02*
X046180Y028640D01*
X046124Y029740D02*
X045680Y029740D01*
X045524Y030540D02*
X044780Y030540D01*
X046036Y030540D02*
X046780Y030540D01*
X047469Y031229D01*
X047880Y031229D01*
X047624Y030540D02*
X047380Y030540D01*
X046680Y029940D01*
X046680Y029784D01*
X046636Y029740D01*
X046880Y033040D02*
X045980Y033040D01*
X045824Y033196D01*
X045824Y033440D01*
X045824Y033940D02*
X045824Y034284D01*
X046080Y034540D01*
X046680Y034540D01*
X046843Y034703D01*
X046843Y034990D01*
X046843Y035490D02*
X047130Y035490D01*
X047380Y035240D01*
X047380Y034440D01*
X047180Y034240D01*
X046780Y034240D02*
X046480Y033940D01*
X046336Y033940D01*
X046436Y033540D02*
X046336Y033440D01*
X046436Y033540D02*
X047280Y033540D01*
X047580Y033840D01*
X047180Y033840D02*
X047680Y034340D01*
X047680Y035540D01*
X047230Y035990D01*
X046843Y035990D01*
X046843Y036490D02*
X047230Y036490D01*
X047980Y035740D01*
X047980Y033640D01*
X047680Y033340D01*
X047180Y033340D01*
X046880Y033040D01*
X044824Y033440D02*
X044824Y033940D01*
X044280Y033940D01*
X043780Y034440D01*
X043780Y035240D01*
X043980Y035440D01*
X044717Y034990D02*
X044717Y034677D01*
X044680Y034640D01*
X044717Y036490D02*
X044717Y036903D01*
X044680Y036940D01*
X044436Y039040D02*
X045064Y039468D01*
X045064Y040540D01*
X044080Y041422D02*
X044080Y039340D01*
X043924Y039184D01*
X043924Y039040D01*
X043096Y040540D02*
X043245Y040689D01*
X043245Y041422D01*
X044471Y042649D01*
X044889Y042231D02*
X044080Y041422D01*
X042961Y042221D02*
X042961Y043021D01*
X043399Y043459D01*
X043093Y044127D02*
X042561Y043595D01*
X042561Y042621D01*
X042199Y042259D02*
X041880Y041940D01*
X042180Y041440D02*
X042599Y041859D01*
X039480Y046640D02*
X039768Y047465D01*
X039232Y047715D02*
X038880Y046940D01*
X037580Y047140D02*
X037519Y047201D01*
X037474Y047201D01*
X039280Y035840D02*
X037980Y034540D01*
X037980Y033640D01*
X038380Y033640D02*
X038380Y034240D01*
X039280Y035140D01*
X039480Y035140D01*
X039480Y035840D02*
X039280Y035840D01*
X034516Y028305D02*
X034445Y028305D01*
X034280Y028240D01*
X031360Y026540D02*
X031356Y026544D01*
X028089Y026964D02*
X028004Y026964D01*
X023680Y028440D02*
X023680Y028840D01*
X023680Y028740D01*
X023680Y028440D02*
X018180Y022940D01*
X018180Y022340D01*
X017961Y022121D01*
X017599Y021759D02*
X017180Y021340D01*
X017180Y020266D01*
X016667Y019753D01*
X016361Y020421D02*
X016780Y020840D01*
X016780Y021740D01*
X017199Y022159D01*
X017561Y022521D02*
X017780Y022740D01*
X017780Y022940D01*
X019880Y025040D01*
X019030Y025790D02*
X018415Y025175D01*
X018415Y024275D01*
X015580Y021440D01*
X015298Y021340D01*
X015289Y021331D01*
X014871Y021749D02*
X015181Y022159D01*
X015199Y022159D01*
X015561Y022521D02*
X016461Y023221D01*
X020480Y020240D02*
X020617Y020103D01*
X021230Y020103D01*
X021730Y020103D02*
X021730Y019290D01*
X022124Y018896D01*
X023380Y018896D01*
X023380Y018384D02*
X023380Y017896D01*
X022811Y017896D01*
X022730Y017977D01*
X022824Y017384D02*
X022780Y017340D01*
X022824Y017384D02*
X023380Y017384D01*
X021280Y017340D02*
X021236Y017384D01*
X020580Y017384D01*
X020580Y017896D02*
X020580Y018384D01*
X020580Y017896D02*
X021149Y017896D01*
X021230Y017977D01*
X021336Y018896D02*
X020580Y018896D01*
X021336Y018896D02*
X021730Y019290D01*
X026480Y018840D02*
X026485Y018845D01*
X026485Y018857D01*
X026480Y018840D02*
X026480Y018640D01*
X027120Y018000D01*
X027120Y014185D01*
X027075Y014140D01*
X026485Y014140D02*
X026480Y014145D01*
X026480Y014884D01*
X026480Y015396D02*
X026480Y015940D01*
X027780Y015696D02*
X028280Y016240D01*
X028380Y015840D02*
X028780Y016240D01*
X028380Y015840D02*
X028380Y015696D01*
X028380Y015184D02*
X028836Y015184D01*
X029180Y014840D01*
X029180Y013951D01*
X029169Y013940D01*
X028480Y014196D02*
X028480Y014540D01*
X027836Y015184D01*
X027780Y015184D01*
X036480Y018240D02*
X039580Y018240D01*
X040471Y017349D01*
X040489Y017349D01*
X040071Y016931D02*
X040051Y016931D01*
X039561Y017421D01*
X039199Y017059D02*
X038799Y016959D01*
X038480Y016640D01*
X040061Y018759D02*
X041061Y018759D01*
X041399Y018421D01*
X042067Y018727D02*
X041635Y019159D01*
X040461Y019159D01*
X040099Y019521D02*
X039980Y019640D01*
X039580Y019640D01*
X039180Y019340D02*
X039399Y019121D01*
X039699Y019121D01*
X042724Y022540D02*
X042724Y023396D01*
X042330Y023790D01*
X041617Y023790D01*
X041617Y023290D02*
X041617Y022877D01*
X041580Y022840D01*
X043236Y022540D02*
X043724Y022540D01*
X043724Y023271D01*
X043743Y023290D01*
X043743Y023790D02*
X043793Y023840D01*
X044380Y023840D01*
X044380Y023240D02*
X044380Y022684D01*
X044236Y022540D01*
X043780Y024790D02*
X043780Y025384D01*
X043780Y025896D02*
X043780Y026040D01*
X043480Y026340D01*
X043743Y024790D02*
X043780Y024790D01*
D52*
X039822Y021248D02*
X039484Y020910D01*
X032890Y020910D01*
X031590Y022210D01*
X026090Y022210D01*
X025450Y022850D01*
X025450Y025630D01*
X025960Y026140D01*
X026480Y026140D01*
X026440Y026410D02*
X025850Y026410D01*
X025180Y025740D01*
X025180Y022740D01*
X025980Y021940D01*
X031480Y021940D01*
X032780Y020640D01*
X040346Y020640D01*
X040388Y020682D01*
X029350Y017340D02*
X028650Y018040D01*
X028650Y020150D01*
X027890Y020910D01*
X025590Y020910D01*
X024150Y022350D01*
X024150Y026030D01*
X025590Y027470D01*
X026180Y027470D01*
X026180Y027740D02*
X025480Y027740D01*
X023880Y026140D01*
X023880Y022240D01*
X025480Y020640D01*
X027780Y020640D01*
X028380Y020040D01*
X028380Y017920D01*
X028910Y017390D01*
X028910Y016980D01*
X029350Y016540D01*
X022230Y020103D02*
X022230Y020740D01*
X019188Y021998D02*
X019188Y022768D01*
X024990Y028570D01*
X026660Y028570D01*
X026610Y028840D02*
X024880Y028840D01*
X018920Y022880D01*
X018920Y022380D01*
X018680Y022140D01*
X018680Y021490D01*
X018622Y021432D01*
X015980Y029840D02*
X015280Y030540D01*
X015280Y032470D01*
X015280Y032910D02*
X015239Y032908D01*
X015199Y032903D01*
X015159Y032894D01*
X015120Y032881D01*
X015083Y032865D01*
X015047Y032845D01*
X015013Y032823D01*
X014981Y032797D01*
X014952Y032769D01*
X014925Y032738D01*
X014901Y032705D01*
X014880Y032670D01*
X014480Y032470D01*
X015310Y032910D02*
X015348Y032908D01*
X015385Y032903D01*
X015422Y032894D01*
X015458Y032882D01*
X015493Y032867D01*
X015526Y032849D01*
X015557Y032827D01*
X015586Y032803D01*
X015613Y032776D01*
X015637Y032747D01*
X015659Y032716D01*
X015677Y032683D01*
X015692Y032648D01*
X015704Y032612D01*
X015713Y032575D01*
X015718Y032538D01*
X015720Y032500D01*
X015720Y032310D01*
X015550Y032140D01*
X015550Y030650D01*
X016090Y030110D01*
X026780Y030110D01*
X026780Y029840D02*
X015980Y029840D01*
X015310Y032910D02*
X015280Y032910D01*
X017580Y035940D02*
X017480Y036040D01*
X017580Y035940D02*
X017680Y035940D01*
X019380Y034640D02*
X019380Y041890D01*
X019938Y042447D01*
X019938Y042632D01*
X020229Y042960D02*
X020258Y042933D01*
X020284Y042902D01*
X020307Y042870D01*
X020327Y042836D01*
X020344Y042800D01*
X020358Y042762D01*
X020368Y042724D01*
X020375Y042684D01*
X020378Y042645D01*
X020377Y042605D01*
X020373Y042565D01*
X020365Y042526D01*
X020354Y042488D01*
X020339Y042451D01*
X020321Y042415D01*
X020300Y042382D01*
X020276Y042350D01*
X020249Y042321D01*
X020250Y042320D02*
X020090Y042160D01*
X020050Y042160D01*
X019650Y041760D01*
X019650Y034750D01*
X023090Y031310D01*
X027350Y031310D01*
X027210Y031040D02*
X022980Y031040D01*
X019380Y034640D01*
X029310Y032950D02*
X029310Y032610D01*
X029310Y032550D01*
X029585Y032535D02*
X029585Y032845D01*
X030580Y033840D01*
X035680Y033840D01*
X037150Y035310D01*
X037150Y046900D01*
X036880Y046900D02*
X036880Y035420D01*
X035570Y034110D01*
X030470Y034110D01*
X029310Y032950D01*
X030400Y031940D02*
X031370Y032910D01*
X038670Y032910D01*
X041710Y035950D01*
X041710Y040744D01*
X040572Y041882D01*
X041138Y041712D02*
X041138Y042448D01*
X041138Y041712D02*
X041980Y040870D01*
X041980Y035840D01*
X038780Y032640D01*
X031480Y032640D01*
X030680Y031840D01*
X031080Y031540D02*
X031250Y031710D01*
X039460Y031710D01*
X041660Y033910D01*
X043390Y033910D01*
X044350Y032950D01*
X044350Y031540D01*
X044480Y031410D01*
X044050Y031410D02*
X044052Y031370D01*
X044057Y031331D01*
X044066Y031292D01*
X044079Y031255D01*
X044095Y031218D01*
X044114Y031184D01*
X044137Y031151D01*
X044162Y031120D01*
X044190Y031092D01*
X044221Y031067D01*
X044254Y031044D01*
X044288Y031025D01*
X044325Y031009D01*
X044362Y030996D01*
X044401Y030987D01*
X044440Y030982D01*
X044480Y030980D01*
X044850Y031190D02*
X045070Y031410D01*
X045280Y031410D01*
X044850Y031190D02*
X044827Y031157D01*
X044802Y031125D01*
X044774Y031097D01*
X044743Y031071D01*
X044710Y031047D01*
X044674Y031028D01*
X044638Y031011D01*
X044599Y030998D01*
X044560Y030988D01*
X044520Y030982D01*
X044480Y030980D01*
X044050Y031410D02*
X044050Y031610D01*
X044080Y031640D01*
X044080Y032840D01*
X043280Y033640D01*
X041780Y033640D01*
X039580Y031440D01*
X031380Y031440D01*
X031280Y031340D01*
X020230Y042960D02*
X020199Y042985D01*
X020166Y043007D01*
X020131Y043026D01*
X020095Y043041D01*
X020057Y043054D01*
X020019Y043063D01*
X019980Y043068D01*
X019940Y043070D01*
X019500Y043070D01*
X019372Y043198D01*
X029880Y046397D02*
X030123Y046440D01*
X029880Y046397D02*
X029880Y047886D01*
D53*
X027780Y049040D02*
X028641Y050068D01*
X027780Y049040D02*
X024580Y048340D01*
X023364Y048898D01*
X023780Y047740D02*
X024880Y047240D01*
X025726Y047555D01*
X023780Y047740D02*
X021580Y046840D01*
X021311Y045643D01*
X018686Y043884D02*
X018686Y043546D01*
X018680Y043540D01*
X018680Y041140D01*
X018280Y040740D01*
X017980Y040740D01*
X017961Y040721D01*
X017961Y038621D01*
X017380Y038040D01*
X016380Y038040D01*
X015680Y037340D01*
X015680Y036540D01*
X017420Y036000D02*
X017940Y036000D01*
X017960Y036020D01*
X018460Y036020D01*
X018480Y036040D01*
X015599Y038740D02*
X015480Y038759D01*
X015599Y038740D02*
X014974Y038740D01*
X014974Y039040D01*
X014974Y038540D01*
X013510Y032470D02*
X013480Y032440D01*
X013480Y030340D01*
X013011Y029871D01*
X013011Y028620D01*
X014979Y028620D02*
X015860Y028620D01*
X015980Y028740D01*
X015980Y028840D01*
X015980Y028440D01*
X018980Y026140D02*
X018980Y025840D01*
X019030Y025790D01*
X019080Y025740D01*
X019380Y025740D01*
X019130Y025990D01*
X019130Y025890D01*
X019130Y025990D02*
X018980Y026140D01*
X016745Y023505D02*
X016732Y023492D01*
X016461Y023221D01*
X016080Y022840D01*
X015880Y022940D01*
X016080Y022840D02*
X016180Y022640D01*
X017936Y020746D02*
X020774Y020746D01*
X020780Y020740D01*
X020780Y019940D01*
X020480Y020240D01*
X020080Y020640D01*
X020380Y020640D01*
X020580Y020440D01*
X020780Y019940D02*
X020780Y019740D01*
X023180Y019840D02*
X023180Y020240D01*
X023180Y019840D02*
X023700Y019320D01*
X026480Y019320D01*
X026860Y019320D01*
X027080Y019540D01*
X027480Y019540D01*
X026480Y019320D02*
X026480Y018862D01*
X026485Y018857D01*
X026485Y016889D02*
X026485Y016045D01*
X026380Y015940D01*
X026280Y015940D01*
X026480Y015940D01*
X026680Y015940D01*
X035180Y019040D02*
X035680Y019540D01*
X035480Y019340D01*
X035480Y019240D01*
X035539Y019240D01*
X036243Y018536D01*
X036480Y018299D01*
X036480Y018240D01*
X037635Y017144D02*
X038280Y016499D01*
X038280Y016440D01*
X038080Y016240D01*
X038280Y016440D02*
X038480Y016640D01*
X041074Y019996D02*
X041136Y019996D01*
X041680Y020540D01*
X041680Y022740D01*
X041580Y022840D01*
X042080Y022840D01*
X041980Y022740D01*
X042280Y028440D02*
X042280Y028940D01*
X042280Y028740D01*
X042380Y028640D01*
X043196Y028640D01*
X045164Y028640D02*
X046180Y028640D01*
X046180Y028340D01*
X046180Y028640D02*
X046180Y028940D01*
X044980Y034440D02*
X044380Y034440D01*
X044180Y034640D01*
X044680Y034640D01*
X045110Y034640D01*
X045160Y034690D01*
X044680Y036940D02*
X044780Y037040D01*
X045180Y037040D01*
X044780Y037040D02*
X044480Y037040D01*
X044645Y037075D01*
X042745Y038675D01*
X042680Y038740D01*
X042680Y039640D01*
X042680Y039140D01*
X042680Y039640D02*
X042680Y039840D01*
X043096Y040256D01*
X043096Y040540D01*
X045064Y040540D02*
X045480Y040540D01*
X045680Y040340D01*
X045680Y039440D01*
X037780Y046440D02*
X037780Y047040D01*
X037680Y047040D01*
X037580Y047140D01*
D54*
X042680Y039640D03*
X042680Y039140D03*
X044380Y034440D03*
X044980Y034440D03*
X046180Y028940D03*
X046180Y028340D03*
X040980Y024290D03*
X035680Y019540D03*
X035180Y019040D03*
X038480Y016640D03*
X038080Y016240D03*
X017980Y040740D03*
D55*
X016480Y037240D02*
X016630Y036990D01*
X016630Y036603D01*
X021680Y020740D02*
X021730Y020690D01*
X021730Y020103D01*
X040880Y023740D02*
X040930Y023790D01*
X041617Y023790D01*
X041617Y024290D02*
X040980Y024290D01*
X043980Y035440D02*
X044030Y035490D01*
X044717Y035490D01*
X044717Y035990D02*
X044080Y035990D01*
D56*
X046780Y034240D03*
X047180Y034240D03*
X047180Y033840D03*
X047580Y033840D03*
X040780Y031240D03*
X040780Y030840D03*
X040580Y030140D03*
X038480Y028340D03*
X036180Y030340D03*
X035580Y030840D03*
X032480Y030640D03*
X032080Y030440D03*
X032080Y030030D03*
X032520Y030010D03*
X031610Y030460D03*
X030880Y029440D03*
X030280Y029440D03*
X030280Y028840D03*
X029880Y028440D03*
X029480Y028040D03*
X029480Y027440D03*
X028880Y027440D03*
X028880Y028040D03*
X028880Y028840D03*
X028880Y029440D03*
X029480Y029440D03*
X029480Y028840D03*
X030280Y028040D03*
X030880Y028040D03*
X030880Y027440D03*
X030280Y027440D03*
X030880Y028840D03*
X027930Y030310D03*
X027020Y029250D03*
X026590Y027240D03*
X027980Y026540D03*
X028160Y026220D03*
X027780Y026140D03*
X027540Y025780D03*
X026680Y025440D03*
X026380Y023840D03*
X026980Y023840D03*
X028280Y023440D03*
X028530Y023040D03*
X028880Y023440D03*
X029150Y023020D03*
X029980Y024520D03*
X030880Y024640D03*
X031180Y024340D03*
X031480Y024940D03*
X031180Y025240D03*
X031780Y025240D03*
X032680Y025540D03*
X033080Y025840D03*
X032980Y026440D03*
X033280Y026740D03*
X033080Y027140D03*
X033080Y027540D03*
X033080Y027940D03*
X034280Y028240D03*
X032380Y026140D03*
X031980Y026240D03*
X029710Y025860D03*
X031080Y022740D03*
X022780Y017340D03*
X022280Y017340D03*
X021780Y017340D03*
X021280Y017340D03*
X019880Y025040D03*
X023680Y028840D03*
X027850Y031530D03*
X029930Y032310D03*
X032880Y034940D03*
X033280Y035140D03*
X033880Y035140D03*
X034380Y034940D03*
X034880Y034940D03*
X035380Y034940D03*
X035780Y035340D03*
X036180Y035840D03*
X036180Y036340D03*
X036180Y036840D03*
X036180Y037340D03*
X036180Y037840D03*
X036180Y038340D03*
X036180Y038840D03*
X036180Y039340D03*
X036180Y039840D03*
X036180Y040340D03*
X036180Y041040D03*
X036180Y041440D03*
X036180Y041840D03*
X036180Y042240D03*
X036180Y042640D03*
X036180Y043040D03*
X035780Y043040D03*
X035780Y043440D03*
X035780Y042640D03*
X035780Y042240D03*
X035780Y041840D03*
X035780Y041440D03*
X035780Y041040D03*
X032080Y041690D03*
X031780Y042040D03*
X031780Y042440D03*
X032080Y042790D03*
X031880Y043440D03*
X031180Y042140D03*
X030580Y042140D03*
X029880Y041940D03*
X029880Y041540D03*
X027380Y041540D03*
X026980Y041540D03*
X026980Y041040D03*
X027380Y041040D03*
X027380Y040540D03*
X026980Y040540D03*
X026880Y040040D03*
X027380Y040040D03*
X026680Y039440D03*
X026180Y039440D03*
X025680Y039440D03*
X025180Y039440D03*
X024680Y039440D03*
X024880Y040040D03*
X025380Y040040D03*
X025880Y040040D03*
X026380Y040040D03*
X025880Y040740D03*
X026380Y041140D03*
X025880Y041640D03*
X025380Y041140D03*
X024880Y040740D03*
X024380Y041140D03*
X023880Y041040D03*
X023880Y040540D03*
X023880Y040040D03*
X024380Y040040D03*
X024380Y038740D03*
X024380Y038240D03*
X024380Y037740D03*
X024380Y037240D03*
X024380Y036740D03*
X024980Y036740D03*
X024980Y037240D03*
X024980Y037740D03*
X024980Y038240D03*
X024980Y038740D03*
X025480Y038040D03*
X025880Y038040D03*
X026280Y038040D03*
X026780Y038240D03*
X026780Y037740D03*
X026780Y037240D03*
X026780Y036740D03*
X026480Y036240D03*
X026080Y036240D03*
X025680Y036240D03*
X025280Y036240D03*
X025480Y037440D03*
X025880Y037440D03*
X026280Y037440D03*
X026780Y038740D03*
X024880Y041640D03*
X024380Y042140D03*
X023880Y042040D03*
X023880Y042540D03*
X023880Y043040D03*
X024380Y043040D03*
X024380Y043540D03*
X023880Y043540D03*
X024880Y043540D03*
X025380Y043540D03*
X025380Y043040D03*
X024880Y043040D03*
X024880Y042540D03*
X025380Y042140D03*
X025880Y042540D03*
X025880Y043040D03*
X026380Y043040D03*
X026380Y043540D03*
X025880Y043540D03*
X025180Y044140D03*
X025180Y044740D03*
X025180Y045340D03*
X026880Y043540D03*
X027380Y043540D03*
X027380Y043040D03*
X026880Y043040D03*
X026980Y042540D03*
X027380Y042540D03*
X027380Y042040D03*
X026980Y042040D03*
X026380Y042140D03*
X023880Y041540D03*
X029580Y044540D03*
X031680Y044940D03*
X031880Y044240D03*
X032480Y044940D03*
X033180Y044740D03*
X033220Y045380D03*
X033180Y044040D03*
X038880Y046940D03*
X039480Y046640D03*
X039480Y035840D03*
X039480Y035140D03*
X038380Y033640D03*
X037980Y033640D03*
X043480Y026340D03*
X044380Y023840D03*
X044380Y023240D03*
X020980Y034940D03*
X020480Y035440D03*
X017080Y033840D03*
X016580Y033840D03*
X016080Y033840D03*
X018080Y032340D03*
D57*
X012880Y034340D02*
X012280Y034340D01*
X011969Y034029D01*
X011880Y034029D01*
X016880Y042440D02*
X017080Y042640D01*
X016880Y042440D02*
X016193Y043127D01*
X016167Y043127D01*
X039230Y026490D02*
X039530Y026190D01*
X039380Y026340D02*
X039230Y026490D01*
X039380Y026340D02*
X038883Y025843D01*
X038883Y025840D01*
X047180Y029740D02*
X047491Y029851D01*
X047880Y029851D01*
X040580Y018140D02*
X040180Y018140D01*
X040080Y018240D01*
X040580Y018140D02*
X040967Y017753D01*
X041093Y017753D01*
X027791Y014729D02*
X027791Y013940D01*
X027791Y014729D02*
X027780Y014740D01*
X016380Y021440D02*
X015693Y020753D01*
X015693Y020727D01*
X043380Y042540D02*
X043454Y042540D01*
X044067Y043153D01*
D58*
X030199Y032559D02*
X029782Y032083D01*
X029782Y032082D01*
X029782Y030231D01*
X029978Y030231D02*
X029978Y031438D01*
X030280Y031740D01*
X030175Y030635D02*
X030175Y030231D01*
X031671Y029523D02*
X032407Y029523D01*
X033024Y029740D01*
X028404Y030231D02*
X028404Y030360D01*
X028140Y030664D01*
X027580Y030440D02*
X027580Y030240D01*
X027904Y029916D01*
X028089Y029916D01*
X028089Y029720D02*
X027800Y029720D01*
X027380Y030140D01*
X027380Y030340D01*
X027147Y029129D02*
X028089Y029129D01*
X028089Y028145D02*
X027885Y028145D01*
D59*
X018480Y036040D03*
X034880Y047240D03*
X037780Y046440D03*
D60*
X034880Y046446D02*
X034880Y047240D01*
D61*
X029880Y042640D02*
X029080Y042640D01*
X029080Y040640D02*
X028380Y040640D01*
D62*
X036777Y047522D02*
X036880Y047740D01*
X036980Y047940D01*
X037580Y047940D01*
X038380Y047140D01*
X038380Y046740D01*
X039180Y045940D01*
X040408Y045940D01*
X040894Y045454D01*
D63*
X033037Y046440D02*
X033037Y047383D01*
X032532Y047888D01*
X032532Y047924D01*
M02*
