<?xml version="1.0" encoding="UTF-8"?>
<svg xmlns="http://www.w3.org/2000/svg" xmlns:xlink="http://www.w3.org/1999/xlink" fill-opacity="1" color-rendering="auto" color-interpolation="auto" stroke="black" text-rendering="auto" stroke-linecap="square" width="800" stroke-miterlimit="10" stroke-opacity="1" shape-rendering="auto" fill="black" stroke-dasharray="none" font-weight="normal" stroke-width="1" height="465" font-family="'Dialog'" font-style="normal" stroke-linejoin="miter" font-size="12" stroke-dashoffset="0" image-rendering="auto">
  <!--Generated by ySVG-->
  <defs id="genericDefs"/>
  <g>
    <defs id="defs1">
      <linearGradient x1="1084.75" gradientUnits="userSpaceOnUse" x2="1129.75" y1="507" y2="547" id="linearGradient1" spreadMethod="pad">
        <stop stop-opacity="1" stop-color="rgb(232,238,247)" offset="0%"/>
        <stop stop-opacity="1" stop-color="rgb(183,201,227)" offset="100%"/>
      </linearGradient>
      <linearGradient x1="1129.75" gradientUnits="userSpaceOnUse" x2="1164.75" y1="507" y2="547" id="linearGradient2" spreadMethod="pad">
        <stop stop-opacity="1" stop-color="rgb(232,238,247)" offset="0%"/>
        <stop stop-opacity="1" stop-color="rgb(183,201,227)" offset="100%"/>
      </linearGradient>
      <linearGradient x1="834.75" gradientUnits="userSpaceOnUse" x2="879.75" y1="507" y2="547" id="linearGradient3" spreadMethod="pad">
        <stop stop-opacity="1" stop-color="rgb(232,238,247)" offset="0%"/>
        <stop stop-opacity="1" stop-color="rgb(183,201,227)" offset="100%"/>
      </linearGradient>
      <linearGradient x1="879.75" gradientUnits="userSpaceOnUse" x2="914.75" y1="507" y2="547" id="linearGradient4" spreadMethod="pad">
        <stop stop-opacity="1" stop-color="rgb(232,238,247)" offset="0%"/>
        <stop stop-opacity="1" stop-color="rgb(183,201,227)" offset="100%"/>
      </linearGradient>
      <linearGradient x1="959.75" gradientUnits="userSpaceOnUse" x2="1004.75" y1="507" y2="547" id="linearGradient5" spreadMethod="pad">
        <stop stop-opacity="1" stop-color="rgb(232,238,247)" offset="0%"/>
        <stop stop-opacity="1" stop-color="rgb(183,201,227)" offset="100%"/>
      </linearGradient>
      <linearGradient x1="1004.75" gradientUnits="userSpaceOnUse" x2="1039.75" y1="507" y2="547" id="linearGradient6" spreadMethod="pad">
        <stop stop-opacity="1" stop-color="rgb(232,238,247)" offset="0%"/>
        <stop stop-opacity="1" stop-color="rgb(183,201,227)" offset="100%"/>
      </linearGradient>
      <linearGradient x1="709.75" gradientUnits="userSpaceOnUse" x2="754.75" y1="507" y2="547" id="linearGradient7" spreadMethod="pad">
        <stop stop-opacity="1" stop-color="rgb(232,238,247)" offset="0%"/>
        <stop stop-opacity="1" stop-color="rgb(183,201,227)" offset="100%"/>
      </linearGradient>
      <linearGradient x1="754.75" gradientUnits="userSpaceOnUse" x2="789.75" y1="507" y2="547" id="linearGradient8" spreadMethod="pad">
        <stop stop-opacity="1" stop-color="rgb(232,238,247)" offset="0%"/>
        <stop stop-opacity="1" stop-color="rgb(183,201,227)" offset="100%"/>
      </linearGradient>
      <linearGradient x1="584.75" gradientUnits="userSpaceOnUse" x2="629.75" y1="507" y2="547" id="linearGradient9" spreadMethod="pad">
        <stop stop-opacity="1" stop-color="rgb(232,238,247)" offset="0%"/>
        <stop stop-opacity="1" stop-color="rgb(183,201,227)" offset="100%"/>
      </linearGradient>
      <linearGradient x1="629.75" gradientUnits="userSpaceOnUse" x2="664.75" y1="507" y2="547" id="linearGradient10" spreadMethod="pad">
        <stop stop-opacity="1" stop-color="rgb(232,238,247)" offset="0%"/>
        <stop stop-opacity="1" stop-color="rgb(183,201,227)" offset="100%"/>
      </linearGradient>
      <linearGradient x1="459.75" gradientUnits="userSpaceOnUse" x2="504.75" y1="507" y2="547" id="linearGradient11" spreadMethod="pad">
        <stop stop-opacity="1" stop-color="rgb(232,238,247)" offset="0%"/>
        <stop stop-opacity="1" stop-color="rgb(183,201,227)" offset="100%"/>
      </linearGradient>
      <linearGradient x1="504.75" gradientUnits="userSpaceOnUse" x2="539.75" y1="507" y2="547" id="linearGradient12" spreadMethod="pad">
        <stop stop-opacity="1" stop-color="rgb(232,238,247)" offset="0%"/>
        <stop stop-opacity="1" stop-color="rgb(183,201,227)" offset="100%"/>
      </linearGradient>
      <linearGradient x1="334.75" gradientUnits="userSpaceOnUse" x2="379.75" y1="507" y2="547" id="linearGradient13" spreadMethod="pad">
        <stop stop-opacity="1" stop-color="rgb(232,238,247)" offset="0%"/>
        <stop stop-opacity="1" stop-color="rgb(183,201,227)" offset="100%"/>
      </linearGradient>
      <linearGradient x1="379.75" gradientUnits="userSpaceOnUse" x2="414.75" y1="507" y2="547" id="linearGradient14" spreadMethod="pad">
        <stop stop-opacity="1" stop-color="rgb(232,238,247)" offset="0%"/>
        <stop stop-opacity="1" stop-color="rgb(183,201,227)" offset="100%"/>
      </linearGradient>
      <linearGradient x1="455.5" gradientUnits="userSpaceOnUse" x2="535.5" y1="257.5" y2="297.5" id="linearGradient15" spreadMethod="pad">
        <stop stop-opacity="1" stop-color="rgb(232,238,247)" offset="0%"/>
        <stop stop-opacity="1" stop-color="rgb(183,201,227)" offset="100%"/>
      </linearGradient>
      <linearGradient x1="455.5" gradientUnits="userSpaceOnUse" x2="535.5" y1="163.5" y2="203.5" id="linearGradient16" spreadMethod="pad">
        <stop stop-opacity="1" stop-color="rgb(232,238,247)" offset="0%"/>
        <stop stop-opacity="1" stop-color="rgb(183,201,227)" offset="100%"/>
      </linearGradient>
      <linearGradient x1="709.75" gradientUnits="userSpaceOnUse" x2="789.75" y1="163.5" y2="203.5" id="linearGradient17" spreadMethod="pad">
        <stop stop-opacity="1" stop-color="rgb(232,238,247)" offset="0%"/>
        <stop stop-opacity="1" stop-color="rgb(183,201,227)" offset="100%"/>
      </linearGradient>
      <linearGradient x1="709.75" gradientUnits="userSpaceOnUse" x2="789.75" y1="257.5" y2="297.5" id="linearGradient18" spreadMethod="pad">
        <stop stop-opacity="1" stop-color="rgb(232,238,247)" offset="0%"/>
        <stop stop-opacity="1" stop-color="rgb(183,201,227)" offset="100%"/>
      </linearGradient>
      <linearGradient x1="334.75" gradientUnits="userSpaceOnUse" x2="414.75" y1="611.2094" y2="651.2094" id="linearGradient19" spreadMethod="pad">
        <stop stop-opacity="1" stop-color="rgb(232,238,247)" offset="0%"/>
        <stop stop-opacity="1" stop-color="rgb(183,201,227)" offset="100%"/>
      </linearGradient>
      <linearGradient x1="459.75" gradientUnits="userSpaceOnUse" x2="539.75" y1="611.2094" y2="651.2094" id="linearGradient20" spreadMethod="pad">
        <stop stop-opacity="1" stop-color="rgb(232,238,247)" offset="0%"/>
        <stop stop-opacity="1" stop-color="rgb(183,201,227)" offset="100%"/>
      </linearGradient>
      <linearGradient x1="584.75" gradientUnits="userSpaceOnUse" x2="664.75" y1="611.2094" y2="651.2094" id="linearGradient21" spreadMethod="pad">
        <stop stop-opacity="1" stop-color="rgb(232,238,247)" offset="0%"/>
        <stop stop-opacity="1" stop-color="rgb(183,201,227)" offset="100%"/>
      </linearGradient>
      <linearGradient x1="709.75" gradientUnits="userSpaceOnUse" x2="789.75" y1="611.2094" y2="651.2094" id="linearGradient22" spreadMethod="pad">
        <stop stop-opacity="1" stop-color="rgb(232,238,247)" offset="0%"/>
        <stop stop-opacity="1" stop-color="rgb(183,201,227)" offset="100%"/>
      </linearGradient>
      <linearGradient x1="834.75" gradientUnits="userSpaceOnUse" x2="914.75" y1="611.2094" y2="651.2094" id="linearGradient23" spreadMethod="pad">
        <stop stop-opacity="1" stop-color="rgb(232,238,247)" offset="0%"/>
        <stop stop-opacity="1" stop-color="rgb(183,201,227)" offset="100%"/>
      </linearGradient>
      <linearGradient x1="959.75" gradientUnits="userSpaceOnUse" x2="1039.75" y1="611.2094" y2="651.2094" id="linearGradient24" spreadMethod="pad">
        <stop stop-opacity="1" stop-color="rgb(232,238,247)" offset="0%"/>
        <stop stop-opacity="1" stop-color="rgb(183,201,227)" offset="100%"/>
      </linearGradient>
      <linearGradient x1="1084.75" gradientUnits="userSpaceOnUse" x2="1164.75" y1="611.2094" y2="651.2094" id="linearGradient25" spreadMethod="pad">
        <stop stop-opacity="1" stop-color="rgb(232,238,247)" offset="0%"/>
        <stop stop-opacity="1" stop-color="rgb(183,201,227)" offset="100%"/>
      </linearGradient>
      <linearGradient x1="582.625" gradientUnits="userSpaceOnUse" x2="662.625" y1="257.5" y2="297.5" id="linearGradient26" spreadMethod="pad">
        <stop stop-opacity="1" stop-color="rgb(232,238,247)" offset="0%"/>
        <stop stop-opacity="1" stop-color="rgb(183,201,227)" offset="100%"/>
      </linearGradient>
      <linearGradient x1="328.375" gradientUnits="userSpaceOnUse" x2="408.375" y1="257.5" y2="297.5" id="linearGradient27" spreadMethod="pad">
        <stop stop-opacity="1" stop-color="rgb(232,238,247)" offset="0%"/>
        <stop stop-opacity="1" stop-color="rgb(183,201,227)" offset="100%"/>
      </linearGradient>
      <linearGradient x1="959.75" gradientUnits="userSpaceOnUse" x2="1039.75" y1="257.5" y2="297.5" id="linearGradient28" spreadMethod="pad">
        <stop stop-opacity="1" stop-color="rgb(232,238,247)" offset="0%"/>
        <stop stop-opacity="1" stop-color="rgb(183,201,227)" offset="100%"/>
      </linearGradient>
      <linearGradient x1="959.75" gradientUnits="userSpaceOnUse" x2="1039.75" y1="163.5" y2="203.5" id="linearGradient29" spreadMethod="pad">
        <stop stop-opacity="1" stop-color="rgb(232,238,247)" offset="0%"/>
        <stop stop-opacity="1" stop-color="rgb(183,201,227)" offset="100%"/>
      </linearGradient>
      <clipPath clipPathUnits="userSpaceOnUse" id="clipPath1">
        <path d="M0 0 L800 0 L800 465 L0 465 L0 0 Z"/>
      </clipPath>
      <clipPath clipPathUnits="userSpaceOnUse" id="clipPath2">
        <path d="M304 148 L1195 148 L1195 665.8937 L304 665.8937 L304 148 Z"/>
      </clipPath>
    </defs>
    <g fill="white" transform="scale(0.8979,0.8979) translate(-304,-148)" stroke="white">
      <rect x="304" width="891" height="518" y="148" clip-path="url(#clipPath2)" stroke="none"/>
    </g>
    <g fill="rgb(245,245,245)" transform="matrix(0.8979,0,0,0.8979,-272.9517,-132.8844)" stroke="rgb(245,245,245)">
      <rect x="1069.75" y="470.5391" clip-path="url(#clipPath2)" width="110" rx="4" ry="4" height="91.4609" stroke="none"/>
      <rect x="1069.75" y="470.5391" clip-path="url(#clipPath2)" fill="rgb(235,235,235)" width="110" height="21.4609" stroke="none"/>
    </g>
    <g font-size="15" stroke-miterlimit="1.45" font-family="sans-serif" transform="matrix(0.8979,0,0,0.8979,-272.9517,-132.8844)" stroke-linecap="butt">
      <text x="1111.9199" xml:space="preserve" y="486.4624" clip-path="url(#clipPath2)" stroke="none">USB Port</text>
      <rect x="1069.75" y="470.5391" clip-path="url(#clipPath2)" fill="none" width="110" stroke-dasharray="6,2" rx="4" ry="4" height="91.4609"/>
    </g>
    <g fill="url(#linearGradient1)" stroke-miterlimit="1.45" transform="matrix(0.8979,0,0,0.8979,-272.9517,-132.8844)" stroke-linecap="butt" stroke="url(#linearGradient1)">
      <path d="M1084.75 507 L1129.75 507 L1129.75 547 L1084.75 547 Z" clip-path="url(#clipPath2)" stroke="none"/>
      <path fill="none" d="M1084.75 507 L1129.75 507 L1129.75 547 L1084.75 547 Z" clip-path="url(#clipPath2)" stroke="black"/>
      <text x="1088.8955" y="524.1699" clip-path="url(#clipPath2)" fill="black" font-family="sans-serif" stroke="none" xml:space="preserve">Power</text>
      <text x="1087.4131" y="538.1387" clip-path="url(#clipPath2)" fill="black" font-family="sans-serif" stroke="none" xml:space="preserve">Switch</text>
    </g>
    <g fill="url(#linearGradient2)" stroke-miterlimit="1.45" transform="matrix(0.8979,0,0,0.8979,-272.9517,-132.8844)" stroke-linecap="butt" stroke="url(#linearGradient2)">
      <path d="M1129.75 507 L1164.75 507 L1164.75 547 L1129.75 547 Z" clip-path="url(#clipPath2)" stroke="none"/>
      <path fill="none" d="M1129.75 507 L1164.75 507 L1164.75 547 L1129.75 547 Z" clip-path="url(#clipPath2)" stroke="black"/>
      <text x="1132.3701" y="531.1543" clip-path="url(#clipPath2)" fill="black" font-family="sans-serif" stroke="none" xml:space="preserve">LEDs</text>
    </g>
    <g fill="rgb(245,245,245)" transform="matrix(0.8979,0,0,0.8979,-272.9517,-132.8844)" stroke="rgb(245,245,245)">
      <rect x="819.75" y="470.5391" clip-path="url(#clipPath2)" width="110" rx="4" ry="4" height="91.4609" stroke="none"/>
      <rect x="819.75" y="470.5391" clip-path="url(#clipPath2)" fill="rgb(235,235,235)" width="110" height="21.4609" stroke="none"/>
    </g>
    <g font-size="15" stroke-miterlimit="1.45" font-family="sans-serif" transform="matrix(0.8979,0,0,0.8979,-272.9517,-132.8844)" stroke-linecap="butt">
      <text x="861.9199" xml:space="preserve" y="486.4624" clip-path="url(#clipPath2)" stroke="none">USB Port</text>
      <rect x="819.75" y="470.5391" clip-path="url(#clipPath2)" fill="none" width="110" stroke-dasharray="6,2" rx="4" ry="4" height="91.4609"/>
    </g>
    <g fill="url(#linearGradient3)" stroke-miterlimit="1.45" transform="matrix(0.8979,0,0,0.8979,-272.9517,-132.8844)" stroke-linecap="butt" stroke="url(#linearGradient3)">
      <path d="M834.75 507 L879.75 507 L879.75 547 L834.75 547 Z" clip-path="url(#clipPath2)" stroke="none"/>
      <path fill="none" d="M834.75 507 L879.75 507 L879.75 547 L834.75 547 Z" clip-path="url(#clipPath2)" stroke="black"/>
      <text x="838.8955" y="524.1699" clip-path="url(#clipPath2)" fill="black" font-family="sans-serif" stroke="none" xml:space="preserve">Power</text>
      <text x="837.4131" y="538.1387" clip-path="url(#clipPath2)" fill="black" font-family="sans-serif" stroke="none" xml:space="preserve">Switch</text>
    </g>
    <g fill="url(#linearGradient4)" stroke-miterlimit="1.45" transform="matrix(0.8979,0,0,0.8979,-272.9517,-132.8844)" stroke-linecap="butt" stroke="url(#linearGradient4)">
      <path d="M879.75 507 L914.75 507 L914.75 547 L879.75 547 Z" clip-path="url(#clipPath2)" stroke="none"/>
      <path fill="none" d="M879.75 507 L914.75 507 L914.75 547 L879.75 547 Z" clip-path="url(#clipPath2)" stroke="black"/>
      <text x="882.3701" y="531.1543" clip-path="url(#clipPath2)" fill="black" font-family="sans-serif" stroke="none" xml:space="preserve">LEDs</text>
    </g>
    <g fill="rgb(245,245,245)" transform="matrix(0.8979,0,0,0.8979,-272.9517,-132.8844)" stroke="rgb(245,245,245)">
      <rect x="944.75" y="470.5391" clip-path="url(#clipPath2)" width="110" rx="4" ry="4" height="91.4609" stroke="none"/>
      <rect x="944.75" y="470.5391" clip-path="url(#clipPath2)" fill="rgb(235,235,235)" width="110" height="21.4609" stroke="none"/>
    </g>
    <g font-size="15" stroke-miterlimit="1.45" font-family="sans-serif" transform="matrix(0.8979,0,0,0.8979,-272.9517,-132.8844)" stroke-linecap="butt">
      <text x="986.9199" xml:space="preserve" y="486.4624" clip-path="url(#clipPath2)" stroke="none">USB Port</text>
      <rect x="944.75" y="470.5391" clip-path="url(#clipPath2)" fill="none" width="110" stroke-dasharray="6,2" rx="4" ry="4" height="91.4609"/>
    </g>
    <g fill="url(#linearGradient5)" stroke-miterlimit="1.45" transform="matrix(0.8979,0,0,0.8979,-272.9517,-132.8844)" stroke-linecap="butt" stroke="url(#linearGradient5)">
      <path d="M959.75 507 L1004.75 507 L1004.75 547 L959.75 547 Z" clip-path="url(#clipPath2)" stroke="none"/>
      <path fill="none" d="M959.75 507 L1004.75 507 L1004.75 547 L959.75 547 Z" clip-path="url(#clipPath2)" stroke="black"/>
      <text x="963.8955" y="524.1699" clip-path="url(#clipPath2)" fill="black" font-family="sans-serif" stroke="none" xml:space="preserve">Power</text>
      <text x="962.4131" y="538.1387" clip-path="url(#clipPath2)" fill="black" font-family="sans-serif" stroke="none" xml:space="preserve">Switch</text>
    </g>
    <g fill="url(#linearGradient6)" stroke-miterlimit="1.45" transform="matrix(0.8979,0,0,0.8979,-272.9517,-132.8844)" stroke-linecap="butt" stroke="url(#linearGradient6)">
      <path d="M1004.75 507 L1039.75 507 L1039.75 547 L1004.75 547 Z" clip-path="url(#clipPath2)" stroke="none"/>
      <path fill="none" d="M1004.75 507 L1039.75 507 L1039.75 547 L1004.75 547 Z" clip-path="url(#clipPath2)" stroke="black"/>
      <text x="1007.3701" y="531.1543" clip-path="url(#clipPath2)" fill="black" font-family="sans-serif" stroke="none" xml:space="preserve">LEDs</text>
    </g>
    <g fill="rgb(245,245,245)" transform="matrix(0.8979,0,0,0.8979,-272.9517,-132.8844)" stroke="rgb(245,245,245)">
      <rect x="694.75" y="470.5391" clip-path="url(#clipPath2)" width="110" rx="4" ry="4" height="91.4609" stroke="none"/>
      <rect x="694.75" y="470.5391" clip-path="url(#clipPath2)" fill="rgb(235,235,235)" width="110" height="21.4609" stroke="none"/>
    </g>
    <g font-size="15" stroke-miterlimit="1.45" font-family="sans-serif" transform="matrix(0.8979,0,0,0.8979,-272.9517,-132.8844)" stroke-linecap="butt">
      <text x="736.9199" xml:space="preserve" y="486.4624" clip-path="url(#clipPath2)" stroke="none">USB Port</text>
      <rect x="694.75" y="470.5391" clip-path="url(#clipPath2)" fill="none" width="110" stroke-dasharray="6,2" rx="4" ry="4" height="91.4609"/>
    </g>
    <g fill="url(#linearGradient7)" stroke-miterlimit="1.45" transform="matrix(0.8979,0,0,0.8979,-272.9517,-132.8844)" stroke-linecap="butt" stroke="url(#linearGradient7)">
      <path d="M709.75 507 L754.75 507 L754.75 547 L709.75 547 Z" clip-path="url(#clipPath2)" stroke="none"/>
      <path fill="none" d="M709.75 507 L754.75 507 L754.75 547 L709.75 547 Z" clip-path="url(#clipPath2)" stroke="black"/>
      <text x="713.8955" y="524.1699" clip-path="url(#clipPath2)" fill="black" font-family="sans-serif" stroke="none" xml:space="preserve">Power</text>
      <text x="712.4131" y="538.1387" clip-path="url(#clipPath2)" fill="black" font-family="sans-serif" stroke="none" xml:space="preserve">Switch</text>
    </g>
    <g fill="url(#linearGradient8)" stroke-miterlimit="1.45" transform="matrix(0.8979,0,0,0.8979,-272.9517,-132.8844)" stroke-linecap="butt" stroke="url(#linearGradient8)">
      <path d="M754.75 507 L789.75 507 L789.75 547 L754.75 547 Z" clip-path="url(#clipPath2)" stroke="none"/>
      <path fill="none" d="M754.75 507 L789.75 507 L789.75 547 L754.75 547 Z" clip-path="url(#clipPath2)" stroke="black"/>
      <text x="757.3701" y="531.1543" clip-path="url(#clipPath2)" fill="black" font-family="sans-serif" stroke="none" xml:space="preserve">LEDs</text>
    </g>
    <g fill="rgb(245,245,245)" transform="matrix(0.8979,0,0,0.8979,-272.9517,-132.8844)" stroke="rgb(245,245,245)">
      <rect x="569.75" y="470.5391" clip-path="url(#clipPath2)" width="110" rx="4" ry="4" height="91.4609" stroke="none"/>
      <rect x="569.75" y="470.5391" clip-path="url(#clipPath2)" fill="rgb(235,235,235)" width="110" height="21.4609" stroke="none"/>
    </g>
    <g font-size="15" stroke-miterlimit="1.45" font-family="sans-serif" transform="matrix(0.8979,0,0,0.8979,-272.9517,-132.8844)" stroke-linecap="butt">
      <text x="611.9199" xml:space="preserve" y="486.4624" clip-path="url(#clipPath2)" stroke="none">USB Port</text>
      <rect x="569.75" y="470.5391" clip-path="url(#clipPath2)" fill="none" width="110" stroke-dasharray="6,2" rx="4" ry="4" height="91.4609"/>
    </g>
    <g fill="url(#linearGradient9)" stroke-miterlimit="1.45" transform="matrix(0.8979,0,0,0.8979,-272.9517,-132.8844)" stroke-linecap="butt" stroke="url(#linearGradient9)">
      <path d="M584.75 507 L629.75 507 L629.75 547 L584.75 547 Z" clip-path="url(#clipPath2)" stroke="none"/>
      <path fill="none" d="M584.75 507 L629.75 507 L629.75 547 L584.75 547 Z" clip-path="url(#clipPath2)" stroke="black"/>
      <text x="588.8955" y="524.1699" clip-path="url(#clipPath2)" fill="black" font-family="sans-serif" stroke="none" xml:space="preserve">Power</text>
      <text x="587.4131" y="538.1387" clip-path="url(#clipPath2)" fill="black" font-family="sans-serif" stroke="none" xml:space="preserve">Switch</text>
    </g>
    <g fill="url(#linearGradient10)" stroke-miterlimit="1.45" transform="matrix(0.8979,0,0,0.8979,-272.9517,-132.8844)" stroke-linecap="butt" stroke="url(#linearGradient10)">
      <path d="M629.75 507 L664.75 507 L664.75 547 L629.75 547 Z" clip-path="url(#clipPath2)" stroke="none"/>
      <path fill="none" d="M629.75 507 L664.75 507 L664.75 547 L629.75 547 Z" clip-path="url(#clipPath2)" stroke="black"/>
      <text x="632.3701" y="531.1543" clip-path="url(#clipPath2)" fill="black" font-family="sans-serif" stroke="none" xml:space="preserve">LEDs</text>
    </g>
    <g fill="rgb(245,245,245)" transform="matrix(0.8979,0,0,0.8979,-272.9517,-132.8844)" stroke="rgb(245,245,245)">
      <rect x="444.75" y="470.5391" clip-path="url(#clipPath2)" width="110" rx="4" ry="4" height="91.4609" stroke="none"/>
      <rect x="444.75" y="470.5391" clip-path="url(#clipPath2)" fill="rgb(235,235,235)" width="110" height="21.4609" stroke="none"/>
    </g>
    <g font-size="15" stroke-miterlimit="1.45" font-family="sans-serif" transform="matrix(0.8979,0,0,0.8979,-272.9517,-132.8844)" stroke-linecap="butt">
      <text x="486.9199" xml:space="preserve" y="486.4624" clip-path="url(#clipPath2)" stroke="none">USB Port</text>
      <rect x="444.75" y="470.5391" clip-path="url(#clipPath2)" fill="none" width="110" stroke-dasharray="6,2" rx="4" ry="4" height="91.4609"/>
    </g>
    <g fill="url(#linearGradient11)" stroke-miterlimit="1.45" transform="matrix(0.8979,0,0,0.8979,-272.9517,-132.8844)" stroke-linecap="butt" stroke="url(#linearGradient11)">
      <path d="M459.75 507 L504.75 507 L504.75 547 L459.75 547 Z" clip-path="url(#clipPath2)" stroke="none"/>
      <path fill="none" d="M459.75 507 L504.75 507 L504.75 547 L459.75 547 Z" clip-path="url(#clipPath2)" stroke="black"/>
      <text x="463.8955" y="524.1699" clip-path="url(#clipPath2)" fill="black" font-family="sans-serif" stroke="none" xml:space="preserve">Power</text>
      <text x="462.4131" y="538.1387" clip-path="url(#clipPath2)" fill="black" font-family="sans-serif" stroke="none" xml:space="preserve">Switch</text>
    </g>
    <g fill="url(#linearGradient12)" stroke-miterlimit="1.45" transform="matrix(0.8979,0,0,0.8979,-272.9517,-132.8844)" stroke-linecap="butt" stroke="url(#linearGradient12)">
      <path d="M504.75 507 L539.75 507 L539.75 547 L504.75 547 Z" clip-path="url(#clipPath2)" stroke="none"/>
      <path fill="none" d="M504.75 507 L539.75 507 L539.75 547 L504.75 547 Z" clip-path="url(#clipPath2)" stroke="black"/>
      <text x="507.3701" y="531.1543" clip-path="url(#clipPath2)" fill="black" font-family="sans-serif" stroke="none" xml:space="preserve">LEDs</text>
    </g>
    <g fill="rgb(245,245,245)" transform="matrix(0.8979,0,0,0.8979,-272.9517,-132.8844)" stroke="rgb(245,245,245)">
      <rect x="319.75" y="470.5391" clip-path="url(#clipPath2)" width="110" rx="4" ry="4" height="91.4609" stroke="none"/>
      <rect x="319.75" y="470.5391" clip-path="url(#clipPath2)" fill="rgb(235,235,235)" width="110" height="21.4609" stroke="none"/>
    </g>
    <g font-size="15" stroke-miterlimit="1.45" font-family="sans-serif" transform="matrix(0.8979,0,0,0.8979,-272.9517,-132.8844)" stroke-linecap="butt">
      <text x="361.9199" xml:space="preserve" y="486.4624" clip-path="url(#clipPath2)" stroke="none">USB Port</text>
      <rect x="319.75" y="470.5391" clip-path="url(#clipPath2)" fill="none" width="110" stroke-dasharray="6,2" rx="4" ry="4" height="91.4609"/>
    </g>
    <g fill="url(#linearGradient13)" stroke-miterlimit="1.45" transform="matrix(0.8979,0,0,0.8979,-272.9517,-132.8844)" stroke-linecap="butt" stroke="url(#linearGradient13)">
      <path d="M334.75 507 L379.75 507 L379.75 547 L334.75 547 Z" clip-path="url(#clipPath2)" stroke="none"/>
      <path fill="none" d="M334.75 507 L379.75 507 L379.75 547 L334.75 547 Z" clip-path="url(#clipPath2)" stroke="black"/>
      <text x="338.8955" y="524.1699" clip-path="url(#clipPath2)" fill="black" font-family="sans-serif" stroke="none" xml:space="preserve">Power</text>
      <text x="337.4131" y="538.1387" clip-path="url(#clipPath2)" fill="black" font-family="sans-serif" stroke="none" xml:space="preserve">Switch</text>
    </g>
    <g fill="url(#linearGradient14)" stroke-miterlimit="1.45" transform="matrix(0.8979,0,0,0.8979,-272.9517,-132.8844)" stroke-linecap="butt" stroke="url(#linearGradient14)">
      <path d="M379.75 507 L414.75 507 L414.75 547 L379.75 547 Z" clip-path="url(#clipPath2)" stroke="none"/>
      <path fill="none" d="M379.75 507 L414.75 507 L414.75 547 L379.75 547 Z" clip-path="url(#clipPath2)" stroke="black"/>
      <text x="382.3701" y="531.1543" clip-path="url(#clipPath2)" fill="black" font-family="sans-serif" stroke="none" xml:space="preserve">LEDs</text>
    </g>
    <g fill="url(#linearGradient15)" stroke-miterlimit="1.45" transform="matrix(0.8979,0,0,0.8979,-272.9517,-132.8844)" stroke-linecap="butt" stroke="url(#linearGradient15)">
      <path d="M455.5 257.5 L535.5 257.5 L535.5 297.5 L455.5 297.5 Z" clip-path="url(#clipPath2)" stroke="none"/>
      <path fill="none" d="M455.5 257.5 L535.5 257.5 L535.5 297.5 L455.5 297.5 Z" clip-path="url(#clipPath2)" stroke="black"/>
      <text x="456.5557" y="274.6699" clip-path="url(#clipPath2)" fill="black" font-family="sans-serif" stroke="none" xml:space="preserve">5V Switching</text>
      <text x="466.1943" y="288.6387" clip-path="url(#clipPath2)" fill="black" font-family="sans-serif" stroke="none" xml:space="preserve">Regulator</text>
    </g>
    <g fill="url(#linearGradient16)" stroke-miterlimit="1.45" transform="matrix(0.8979,0,0,0.8979,-272.9517,-132.8844)" stroke-linecap="butt" stroke="url(#linearGradient16)">
      <path d="M455.5 163.5 L535.5 163.5 L535.5 203.5 L455.5 203.5 Z" clip-path="url(#clipPath2)" stroke="none"/>
      <path fill="none" d="M455.5 163.5 L535.5 163.5 L535.5 203.5 L455.5 203.5 Z" clip-path="url(#clipPath2)" stroke="black"/>
      <text x="463.2734" y="180.6699" clip-path="url(#clipPath2)" fill="black" font-family="sans-serif" stroke="none" xml:space="preserve">Resettable</text>
      <text x="471.5996" y="194.6387" clip-path="url(#clipPath2)" fill="black" font-family="sans-serif" stroke="none" xml:space="preserve">1A Fuse</text>
    </g>
    <g fill="url(#linearGradient17)" stroke-miterlimit="1.45" transform="matrix(0.8979,0,0,0.8979,-272.9517,-132.8844)" stroke-linecap="butt" stroke="url(#linearGradient17)">
      <path d="M709.75 163.5 L789.75 163.5 L789.75 203.5 L709.75 203.5 Z" clip-path="url(#clipPath2)" stroke="none"/>
      <path fill="none" d="M709.75 163.5 L789.75 163.5 L789.75 203.5 L709.75 203.5 Z" clip-path="url(#clipPath2)" stroke="black"/>
      <text x="722.4893" y="180.6699" clip-path="url(#clipPath2)" fill="black" font-family="sans-serif" stroke="none" xml:space="preserve">USB OTG</text>
      <text x="713.6621" y="194.6387" clip-path="url(#clipPath2)" fill="black" font-family="sans-serif" stroke="none" xml:space="preserve">Host Device</text>
    </g>
    <g fill="url(#linearGradient18)" stroke-miterlimit="1.45" transform="matrix(0.8979,0,0,0.8979,-272.9517,-132.8844)" stroke-linecap="butt" stroke="url(#linearGradient18)">
      <path d="M709.75 257.5 L789.75 257.5 L789.75 297.5 L709.75 297.5 Z" clip-path="url(#clipPath2)" stroke="none"/>
      <path fill="none" d="M709.75 257.5 L789.75 257.5 L789.75 297.5 L709.75 297.5 Z" clip-path="url(#clipPath2)" stroke="black"/>
      <text x="731.917" y="274.6699" clip-path="url(#clipPath2)" fill="black" font-family="sans-serif" stroke="none" xml:space="preserve">7 Port</text>
      <text x="723.4033" y="288.6387" clip-path="url(#clipPath2)" fill="black" font-family="sans-serif" stroke="none" xml:space="preserve">USB Hub</text>
    </g>
    <g fill="url(#linearGradient19)" stroke-miterlimit="1.45" transform="matrix(0.8979,0,0,0.8979,-272.9517,-132.8844)" stroke-linecap="butt" stroke="url(#linearGradient19)">
      <path d="M334.75 611.2094 L414.75 611.2094 L414.75 651.2094 L334.75 651.2094 Z" clip-path="url(#clipPath2)" stroke="none"/>
      <path fill="none" d="M334.75 611.2094 L414.75 611.2094 L414.75 651.2094 L334.75 651.2094 Z" clip-path="url(#clipPath2)" stroke="black"/>
      <text x="344.416" y="635.3636" clip-path="url(#clipPath2)" fill="black" font-family="sans-serif" stroke="none" xml:space="preserve">Accessory</text>
    </g>
    <g fill="url(#linearGradient20)" stroke-miterlimit="1.45" transform="matrix(0.8979,0,0,0.8979,-272.9517,-132.8844)" stroke-linecap="butt" stroke="url(#linearGradient20)">
      <path d="M459.75 611.2094 L539.75 611.2094 L539.75 651.2094 L459.75 651.2094 Z" clip-path="url(#clipPath2)" stroke="none"/>
      <path fill="none" d="M459.75 611.2094 L539.75 611.2094 L539.75 651.2094 L459.75 651.2094 Z" clip-path="url(#clipPath2)" stroke="black"/>
      <text x="469.416" y="635.3636" clip-path="url(#clipPath2)" fill="black" font-family="sans-serif" stroke="none" xml:space="preserve">Accessory</text>
    </g>
    <g fill="url(#linearGradient21)" stroke-miterlimit="1.45" transform="matrix(0.8979,0,0,0.8979,-272.9517,-132.8844)" stroke-linecap="butt" stroke="url(#linearGradient21)">
      <path d="M584.75 611.2094 L664.75 611.2094 L664.75 651.2094 L584.75 651.2094 Z" clip-path="url(#clipPath2)" stroke="none"/>
      <path fill="none" d="M584.75 611.2094 L664.75 611.2094 L664.75 651.2094 L584.75 651.2094 Z" clip-path="url(#clipPath2)" stroke="black"/>
      <text x="594.416" y="635.3636" clip-path="url(#clipPath2)" fill="black" font-family="sans-serif" stroke="none" xml:space="preserve">Accessory</text>
    </g>
    <g fill="url(#linearGradient22)" stroke-miterlimit="1.45" transform="matrix(0.8979,0,0,0.8979,-272.9517,-132.8844)" stroke-linecap="butt" stroke="url(#linearGradient22)">
      <path d="M709.75 611.2094 L789.75 611.2094 L789.75 651.2094 L709.75 651.2094 Z" clip-path="url(#clipPath2)" stroke="none"/>
      <path fill="none" d="M709.75 611.2094 L789.75 611.2094 L789.75 651.2094 L709.75 651.2094 Z" clip-path="url(#clipPath2)" stroke="black"/>
      <text x="719.416" y="635.3636" clip-path="url(#clipPath2)" fill="black" font-family="sans-serif" stroke="none" xml:space="preserve">Accessory</text>
    </g>
    <g fill="url(#linearGradient23)" stroke-miterlimit="1.45" transform="matrix(0.8979,0,0,0.8979,-272.9517,-132.8844)" stroke-linecap="butt" stroke="url(#linearGradient23)">
      <path d="M834.75 611.2094 L914.75 611.2094 L914.75 651.2094 L834.75 651.2094 Z" clip-path="url(#clipPath2)" stroke="none"/>
      <path fill="none" d="M834.75 611.2094 L914.75 611.2094 L914.75 651.2094 L834.75 651.2094 Z" clip-path="url(#clipPath2)" stroke="black"/>
      <text x="844.416" y="635.3636" clip-path="url(#clipPath2)" fill="black" font-family="sans-serif" stroke="none" xml:space="preserve">Accessory</text>
    </g>
    <g fill="url(#linearGradient24)" stroke-miterlimit="1.45" transform="matrix(0.8979,0,0,0.8979,-272.9517,-132.8844)" stroke-linecap="butt" stroke="url(#linearGradient24)">
      <path d="M959.75 611.2094 L1039.75 611.2094 L1039.75 651.2094 L959.75 651.2094 Z" clip-path="url(#clipPath2)" stroke="none"/>
      <path fill="none" d="M959.75 611.2094 L1039.75 611.2094 L1039.75 651.2094 L959.75 651.2094 Z" clip-path="url(#clipPath2)" stroke="black"/>
      <text x="969.416" y="635.3636" clip-path="url(#clipPath2)" fill="black" font-family="sans-serif" stroke="none" xml:space="preserve">Accessory</text>
    </g>
    <g fill="url(#linearGradient25)" stroke-miterlimit="1.45" transform="matrix(0.8979,0,0,0.8979,-272.9517,-132.8844)" stroke-linecap="butt" stroke="url(#linearGradient25)">
      <path d="M1084.75 611.2094 L1164.75 611.2094 L1164.75 651.2094 L1084.75 651.2094 Z" clip-path="url(#clipPath2)" stroke="none"/>
      <path fill="none" d="M1084.75 611.2094 L1164.75 611.2094 L1164.75 651.2094 L1084.75 651.2094 Z" clip-path="url(#clipPath2)" stroke="black"/>
      <text x="1094.416" y="635.3636" clip-path="url(#clipPath2)" fill="black" font-family="sans-serif" stroke="none" xml:space="preserve">Accessory</text>
    </g>
    <g fill="url(#linearGradient26)" stroke-miterlimit="1.45" transform="matrix(0.8979,0,0,0.8979,-272.9517,-132.8844)" stroke-linecap="butt" stroke="url(#linearGradient26)">
      <path d="M582.625 257.5 L662.625 257.5 L662.625 297.5 L582.625 297.5 Z" clip-path="url(#clipPath2)" stroke="none"/>
      <path fill="none" d="M582.625 257.5 L662.625 257.5 L662.625 297.5 L582.625 297.5 Z" clip-path="url(#clipPath2)" stroke="black"/>
      <text x="594.3857" y="274.6699" clip-path="url(#clipPath2)" fill="black" font-family="sans-serif" stroke="none" xml:space="preserve">3.3V LDO</text>
      <text x="593.3193" y="288.6387" clip-path="url(#clipPath2)" fill="black" font-family="sans-serif" stroke="none" xml:space="preserve">Regulator</text>
    </g>
    <g fill="url(#linearGradient27)" stroke-miterlimit="1.45" transform="matrix(0.8979,0,0,0.8979,-272.9517,-132.8844)" stroke-linecap="butt" stroke="url(#linearGradient27)">
      <path d="M328.375 257.5 L408.375 257.5 L408.375 297.5 L328.375 297.5 Z" clip-path="url(#clipPath2)" stroke="none"/>
      <path fill="none" d="M328.375 257.5 L408.375 257.5 L408.375 297.5 L328.375 297.5 Z" clip-path="url(#clipPath2)" stroke="black"/>
      <text x="336.9482" y="274.6699" clip-path="url(#clipPath2)" fill="black" font-family="sans-serif" stroke="none" xml:space="preserve">CAN Trans</text>
      <text x="331.3467" y="288.6387" clip-path="url(#clipPath2)" fill="black" font-family="sans-serif" stroke="none" xml:space="preserve">+12V Power</text>
    </g>
    <g fill="url(#linearGradient28)" stroke-miterlimit="1.45" transform="matrix(0.8979,0,0,0.8979,-272.9517,-132.8844)" stroke-linecap="butt" stroke="url(#linearGradient28)">
      <path d="M959.75 257.5 L1039.75 257.5 L1039.75 297.5 L959.75 297.5 Z" clip-path="url(#clipPath2)" stroke="none"/>
      <path fill="none" d="M959.75 257.5 L1039.75 257.5 L1039.75 297.5 L959.75 297.5 Z" clip-path="url(#clipPath2)" stroke="black"/>
      <text x="974.7656" y="274.6699" clip-path="url(#clipPath2)" fill="black" font-family="sans-serif" stroke="none" xml:space="preserve">Audio to</text>
      <text x="987.2871" y="288.6387" clip-path="url(#clipPath2)" fill="black" font-family="sans-serif" stroke="none" xml:space="preserve">CAR</text>
    </g>
    <g fill="url(#linearGradient29)" stroke-miterlimit="1.45" transform="matrix(0.8979,0,0,0.8979,-272.9517,-132.8844)" stroke-linecap="butt" stroke="url(#linearGradient29)">
      <path d="M959.75 163.5 L1039.75 163.5 L1039.75 203.5 L959.75 203.5 Z" clip-path="url(#clipPath2)" stroke="none"/>
      <path fill="none" d="M959.75 163.5 L1039.75 163.5 L1039.75 203.5 L959.75 203.5 Z" clip-path="url(#clipPath2)" stroke="black"/>
      <text x="966.6943" y="180.6699" clip-path="url(#clipPath2)" fill="black" font-family="sans-serif" stroke="none" xml:space="preserve">Audio from</text>
      <text x="985.4004" y="194.6387" clip-path="url(#clipPath2)" fill="black" font-family="sans-serif" stroke="none" xml:space="preserve">iJoey</text>
    </g>
    <g stroke-width="4" stroke-miterlimit="1.45" transform="matrix(0.8979,0,0,0.8979,-272.9517,-132.8844)" stroke-linecap="butt">
      <path fill="none" d="M495.5 246.5342 L495.5 214.4907" clip-path="url(#clipPath2)"/>
      <path d="M495.5 257.5342 L502.375 241.0342 L495.5 245.1592 L488.625 241.0342 Z" clip-path="url(#clipPath2)" stroke="none"/>
      <path d="M495.5 203.4907 L488.625 219.9907 L495.5 215.8657 L502.375 219.9907 Z" clip-path="url(#clipPath2)" stroke="none"/>
      <path fill="none" d="M546.5059 183.5 L698.7623 183.5" clip-path="url(#clipPath2)"/>
      <path d="M535.5059 183.5 L552.0059 190.375 L547.8809 183.5 L552.0059 176.625 Z" clip-path="url(#clipPath2)" stroke="none"/>
      <path d="M709.7623 183.5 L693.2623 176.625 L697.3873 183.5 L693.2623 190.375 Z" clip-path="url(#clipPath2)" stroke="none"/>
      <path fill="none" stroke-width="1" d="M749.75 203.4658 L749.75 249.5093" clip-path="url(#clipPath2)"/>
      <path stroke-width="1" d="M749.75 257.5093 L754.75 245.5093 L749.75 248.5093 L744.75 245.5093 Z" clip-path="url(#clipPath2)" stroke="none"/>
      <path fill="none" stroke-width="1" d="M718.3245 297.5092 L436.4819 476.9637" clip-path="url(#clipPath2)"/>
      <path stroke-width="1" d="M429.7337 481.2604 L442.5414 479.033 L437.3254 476.4266 L437.1705 470.5977 Z" clip-path="url(#clipPath2)" stroke="none"/>
      <path fill="none" stroke-width="1" d="M728.7844 297.5238 L553.4279 465.003" clip-path="url(#clipPath2)"/>
      <path stroke-width="1" d="M547.6426 470.5284 L559.7739 465.8561 L554.1511 464.3123 L552.8671 458.6245 Z" clip-path="url(#clipPath2)" stroke="none"/>
      <path fill="none" stroke-width="1" d="M739.2672 297.5238 L652.4067 463.4409" clip-path="url(#clipPath2)"/>
      <path stroke-width="1" d="M648.6963 470.5284 L658.6917 462.2162 L652.8705 462.5549 L649.8323 457.5781 Z" clip-path="url(#clipPath2)" stroke="none"/>
      <path fill="none" stroke-width="1" d="M749.75 297.5238 L749.75 462.5284" clip-path="url(#clipPath2)"/>
      <path stroke-width="1" d="M749.75 470.5284 L754.75 458.5284 L749.75 461.5284 L744.75 458.5284 Z" clip-path="url(#clipPath2)" stroke="none"/>
      <path fill="none" stroke-width="1" d="M760.2328 297.5238 L847.0933 463.4409" clip-path="url(#clipPath2)"/>
      <path stroke-width="1" d="M850.8037 470.5284 L849.6677 457.5781 L846.6295 462.5549 L840.8083 462.2162 Z" clip-path="url(#clipPath2)" stroke="none"/>
      <path fill="none" stroke-width="1" d="M770.7156 297.5238 L946.0721 465.003" clip-path="url(#clipPath2)"/>
      <path stroke-width="1" d="M951.8574 470.5284 L946.6329 458.6245 L945.3489 464.3123 L939.7261 465.8561 Z" clip-path="url(#clipPath2)" stroke="none"/>
      <path fill="none" stroke-width="1" d="M781.1755 297.5092 L1063.0181 476.9637" clip-path="url(#clipPath2)"/>
      <path stroke-width="1" d="M1069.7662 481.2604 L1062.3293 470.5977 L1062.1746 476.4266 L1056.9585 479.033 Z" clip-path="url(#clipPath2)" stroke="none"/>
      <path fill="none" stroke-width="1" d="M374.75 561.9817 L374.75 603.2321" clip-path="url(#clipPath2)"/>
      <path stroke-width="1" d="M374.75 611.2321 L379.75 599.2321 L374.75 602.2321 L369.75 599.2321 Z" clip-path="url(#clipPath2)" stroke="none"/>
      <path fill="none" stroke-width="1" d="M499.75 561.9817 L499.75 603.2321" clip-path="url(#clipPath2)"/>
      <path stroke-width="1" d="M499.75 611.2321 L504.75 599.2321 L499.75 602.2321 L494.75 599.2321 Z" clip-path="url(#clipPath2)" stroke="none"/>
      <path fill="none" stroke-width="1" d="M624.75 561.9817 L624.75 603.2321" clip-path="url(#clipPath2)"/>
      <path stroke-width="1" d="M624.75 611.2321 L629.75 599.2321 L624.75 602.2321 L619.75 599.2321 Z" clip-path="url(#clipPath2)" stroke="none"/>
      <path fill="none" stroke-width="1" d="M749.75 561.9817 L749.75 603.2321" clip-path="url(#clipPath2)"/>
      <path stroke-width="1" d="M749.75 611.2321 L754.75 599.2321 L749.75 602.2321 L744.75 599.2321 Z" clip-path="url(#clipPath2)" stroke="none"/>
      <path fill="none" stroke-width="1" d="M874.75 561.9817 L874.75 603.2321" clip-path="url(#clipPath2)"/>
      <path stroke-width="1" d="M874.75 611.2321 L879.75 599.2321 L874.75 602.2321 L869.75 599.2321 Z" clip-path="url(#clipPath2)" stroke="none"/>
      <path fill="none" stroke-width="1" d="M999.75 561.9817 L999.75 603.2321" clip-path="url(#clipPath2)"/>
      <path stroke-width="1" d="M999.75 611.2321 L1004.75 599.2321 L999.75 602.2321 L994.75 599.2321 Z" clip-path="url(#clipPath2)" stroke="none"/>
      <path fill="none" stroke-width="1" d="M1124.75 561.9817 L1124.75 603.2321" clip-path="url(#clipPath2)"/>
      <path stroke-width="1" d="M1124.75 611.2321 L1129.75 599.2321 L1124.75 602.2321 L1119.75 599.2321 Z" clip-path="url(#clipPath2)" stroke="none"/>
      <path fill="none" stroke-width="5" d="M535.5059 277.5 L570.5961 277.5" clip-path="url(#clipPath2)"/>
      <path stroke-width="5" d="M582.5961 277.5 L564.5961 270 L569.0961 277.5 L564.5961 285 Z" clip-path="url(#clipPath2)" stroke="none"/>
      <path fill="none" d="M662.6309 277.5 L698.7211 277.5" clip-path="url(#clipPath2)"/>
      <path d="M709.7211 277.5 L693.2211 270.625 L697.3461 277.5 L693.2211 284.375 Z" clip-path="url(#clipPath2)" stroke="none"/>
      <path fill="none" stroke-width="6" d="M408.3809 277.5 L442.4712 277.5" clip-path="url(#clipPath2)"/>
      <path stroke-width="6" d="M455.4712 277.5 L435.9712 269.375 L440.8462 277.5 L435.9712 285.625 Z" clip-path="url(#clipPath2)" stroke="none"/>
      <path fill="none" stroke-width="1" d="M999.75 211.4658 L999.75 249.5093" clip-path="url(#clipPath2)"/>
      <path stroke-width="1" d="M999.75 203.4658 L994.75 215.4658 L999.75 212.4658 L1004.75 215.4658 Z" clip-path="url(#clipPath2)" stroke="none"/>
      <path stroke-width="1" d="M999.75 257.5093 L1004.75 245.5093 L999.75 248.5093 L994.75 245.5093 Z" clip-path="url(#clipPath2)" stroke="none"/>
    </g>
  </g>
</svg>
